<svg width="148" height="106" viewBox="0 0 148 106" fill="none" xmlns="http://www.w3.org/2000/svg">
<path d="M2.55713 46.8169C15.4881 67.3024 5.03326 126.387 94.9996 88.866C89.222 68.3806 66.9367 15.1135 2.55713 46.8169Z" fill="#1E1E1E" fill-opacity="0.2"/>
<path d="M18.0167 81.2769L25.0405 77.2217L18.3983 73.9141L18.0167 81.2769Z" fill="#322A50"/>
<path d="M68.0126 66.5259V66.5086L26.2044 41.9863C25.7718 41.7365 25.3856 41.7785 25.1318 42.0463L31.1345 45.911L0.576904 56.2231L43.285 80.82L68.0126 66.5259Z" fill="url(#paint0_linear_2664_18197)"/>
<path d="M0.8479 28.8933L27.8267 12.5177C28.2548 12.2374 28.8269 12.2452 29.4556 12.6082L67.8334 35.0988C69.1595 35.8644 70.2346 37.9186 70.2346 39.6867V61.2517C70.2346 62.2963 69.8592 63.007 69.2786 63.2563L43.4439 78.9643L42.5441 79.4911L0.8479 28.8933Z" fill="url(#paint1_linear_2664_18197)"/>
<path d="M2.49302 56.9358L40.8706 79.4266C42.1968 80.1922 43.2718 79.3796 43.2718 77.6113V56.0465C43.2718 54.2783 42.1968 52.2242 40.8706 51.4586L2.49302 28.9678C1.16686 28.2022 0.0917969 29.015 0.0917969 30.7831V52.3481C0.0917969 54.1163 1.16686 56.1702 2.49302 56.9358Z" fill="url(#paint2_linear_2664_18197)"/>
<path d="M4.50879 53.5819V33.9453L8.59264 36.3032V55.9396L4.50879 53.5819Z" fill="url(#paint3_linear_2664_18197)"/>
<path d="M12.0156 58.0506V38.4141L16.0995 40.7718V60.4084L12.0156 58.0506Z" fill="url(#paint4_linear_2664_18197)"/>
<path d="M19.5233 62.5038V42.8672L23.6072 45.2251V64.8617L19.5233 62.5038Z" fill="url(#paint5_linear_2664_18197)"/>
<path d="M27.0295 66.9569V47.3203L31.1134 49.678V69.3146L27.0295 66.9569Z" fill="url(#paint6_linear_2664_18197)"/>
<path d="M34.5371 71.4022V51.7656L38.621 54.1235V73.7601L34.5371 71.4022Z" fill="url(#paint7_linear_2664_18197)"/>
<path d="M30.2067 88.3472L37.2305 84.2922L30.5885 80.9844L30.2067 88.3472Z" fill="#322A50"/>
<path d="M60.5592 105.699L67.5828 101.644L60.9408 98.3359L60.5592 105.699Z" fill="#322A50"/>
<path d="M91.1637 70.2274L87.4032 66.1144L84.7217 54.6687C84.0205 51.6753 82.1777 48.8866 80.1136 47.695L72.1673 43.1071C71.1332 42.51 70.1883 42.4692 69.461 42.8826L69.4603 42.8811L44.6848 57.1923L68.4976 102.081L93.1921 87.8159L93.1914 87.8147C93.7284 87.5204 94.0704 86.8147 94.0704 85.804V77.5629C94.0704 75.058 92.9157 72.1437 91.1637 70.2274Z" fill="url(#paint8_linear_2664_18197)"/>
<path d="M43.2849 84.8791V60.5305C43.2849 57.4707 45.1452 56.0644 47.4402 57.3892L55.3865 61.9771C57.4505 63.1687 59.2932 65.9574 59.9946 68.9508L62.6761 80.3965L66.4365 84.5096C68.1885 86.4259 69.3434 89.3401 69.3434 91.8454V96.629C69.3434 98.4487 68.237 99.2851 66.8721 98.4972L43.2849 84.8791Z" fill="url(#paint9_linear_2664_18197)"/>
<path d="M69.3435 95.8624L67.5483 100.283L68.498 102.073L93.1926 87.8085L93.1918 87.8072C93.7289 87.513 94.0709 86.8073 94.0709 85.7966V81.5859L69.3435 95.8624Z" fill="url(#paint10_linear_2664_18197)"/>
<path d="M1.47651 56.3146L43.2845 80.8368V88.3492L1.47651 63.8269C0.711835 63.3854 0.0917969 62.2008 0.0917969 61.1812V57.3614C0.0917969 56.3418 0.711835 55.873 1.47651 56.3146Z" fill="url(#paint11_linear_2664_18197)"/>
<path d="M42.4962 80.3906L69.3434 95.873V100.09C69.3434 101.91 68.2369 102.747 66.872 101.959L42.496 87.9029L42.4962 80.3906Z" fill="url(#paint12_linear_2664_18197)"/>
<path d="M59.7918 78.7361L57.6301 69.5091C57.0919 67.212 55.6376 64.9304 54.1719 64.0843L46.2256 59.4964C46.0946 59.4208 45.9896 59.3765 45.9143 59.3516C45.8282 59.5289 45.7124 59.9074 45.7124 60.5349V70.6072L59.7918 78.7361Z" fill="url(#paint13_linear_2664_18197)"/>
<path d="M83.5833 55.2388C83.3719 54.3357 83.0549 53.4525 82.6608 52.625L60.4464 65.4505C60.853 66.2939 61.1784 67.1974 61.3948 68.1208L64.0763 79.5666L86.2648 66.6847L83.5833 55.2388Z" fill="url(#paint14_linear_2664_18197)"/>
<path d="M68.3786 91.2944L67.9819 91.0654C67.497 90.7855 66.8909 91.1353 66.8909 91.6953V94.4592L69.3431 95.8752L74.8093 92.7192V89.8805C74.8093 89.3538 74.2392 89.0246 73.7829 89.288L70.3075 91.2944C69.7108 91.639 68.9755 91.639 68.3786 91.2944Z" fill="url(#paint15_linear_2664_18197)"/>
<path d="M90.2263 81.0023V83.8081L94.0704 81.5785V77.5547L91.2799 79.1732C90.6277 79.5515 90.2263 80.2485 90.2263 81.0023Z" fill="url(#paint16_linear_2664_18197)"/>
<path d="M74.8096 89.8697L90.2267 80.9688V83.8074L74.8096 92.7084V89.8697Z" fill="#43386B"/>
<path d="M32.344 83.6092C32.344 87.8445 29.769 89.7912 26.5926 87.9572C23.4161 86.1233 20.8412 81.2032 20.8412 76.9679C20.8412 72.7326 23.4162 70.7859 26.5926 72.6199C29.7692 74.454 32.344 79.3739 32.344 83.6092Z" fill="url(#paint17_linear_2664_18197)"/>
<path d="M29.4203 81.9299C29.4203 84.0121 28.1541 84.9693 26.5925 84.0677C25.0306 83.1659 23.7646 80.7469 23.7646 78.6646C23.7646 76.5822 25.0306 75.6252 26.5925 76.5268C28.1541 77.4286 29.4203 79.8476 29.4203 81.9299Z" fill="url(#paint18_linear_2664_18197)"/>
<path d="M29.017 81.6883C29.017 83.4735 27.9317 84.294 26.5929 83.521C25.254 82.7481 24.1687 80.6743 24.1687 78.8891C24.1687 77.1041 25.254 76.2836 26.5929 77.0565C27.9317 77.8295 29.017 79.9032 29.017 81.6883Z" fill="url(#paint19_linear_2664_18197)"/>
<path d="M26.5922 77.0667C26.5328 77.0324 26.4744 77.0048 26.4158 76.9766C26.3804 77.1757 26.361 77.3919 26.361 77.6256C26.361 79.4106 27.4463 81.4844 28.7851 82.2575C28.8446 82.2919 28.903 82.3192 28.9613 82.3475C28.9966 82.1483 29.0162 81.9321 29.0162 81.6984C29.0164 79.9132 27.9311 77.8396 26.5922 77.0667Z" fill="#594A8E"/>
<path d="M20.1564 76.5467C20.1564 80.782 17.5813 82.7287 14.405 80.8947C11.2284 79.0608 8.65356 74.1407 8.65356 69.9054C8.65356 65.6701 11.2286 63.7234 14.405 65.5574C17.5813 67.3913 20.1564 72.3114 20.1564 76.5467Z" fill="url(#paint20_linear_2664_18197)"/>
<path d="M17.2325 74.8674C17.2325 76.9497 15.9665 77.9068 14.4047 77.0052C12.8429 76.1034 11.5769 73.6844 11.5769 71.6021C11.5769 69.5197 12.8429 68.5627 14.4047 69.4643C15.9664 70.3659 17.2325 72.785 17.2325 74.8674Z" fill="url(#paint21_linear_2664_18197)"/>
<path d="M16.8298 74.6258C16.8298 76.411 15.7444 77.2315 14.4056 76.4585C13.0668 75.6856 11.9814 73.6118 11.9814 71.8266C11.9814 70.0416 13.0668 69.2211 14.4056 69.994C15.7444 70.767 16.8298 72.8407 16.8298 74.6258Z" fill="url(#paint22_linear_2664_18197)"/>
<path d="M14.4046 70.004C14.3451 69.9697 14.2868 69.9421 14.2282 69.9141C14.193 70.1132 14.1733 70.3294 14.1733 70.5631C14.1733 72.3481 15.2587 74.4219 16.5975 75.195C16.657 75.2294 16.7154 75.2569 16.7737 75.285C16.809 75.0858 16.8286 74.8696 16.8286 74.6359C16.8286 72.8507 15.7434 70.7769 14.4046 70.004Z" fill="#594A8E"/>
<path d="M62.6975 100.953C62.6975 105.188 60.1224 107.135 56.9461 105.301C53.7695 103.467 51.1945 98.5469 51.1945 94.3117C51.1945 90.0764 53.7695 88.1296 56.9461 89.9637C60.1224 91.7976 62.6975 96.7177 62.6975 100.953Z" fill="url(#paint23_linear_2664_18197)"/>
<path d="M59.7735 99.2736C59.7735 101.356 58.5076 102.313 56.9457 101.411C55.3839 100.51 54.1179 98.0906 54.1179 96.0084C54.1179 93.926 55.3839 92.969 56.9457 93.8706C58.5076 94.7722 59.7735 97.1912 59.7735 99.2736Z" fill="url(#paint24_linear_2664_18197)"/>
<path d="M59.3703 99.032C59.3703 100.817 58.285 101.638 56.9461 100.865C55.6073 100.092 54.522 98.0181 54.522 96.2328C54.522 94.4478 55.6073 93.6273 56.9461 94.4003C58.285 95.1732 59.3703 97.247 59.3703 99.032Z" fill="url(#paint25_linear_2664_18197)"/>
<path d="M56.9455 94.4103C56.886 94.3759 56.8277 94.3484 56.7691 94.3203C56.7339 94.5195 56.7142 94.7357 56.7142 94.9693C56.7142 96.7544 57.7996 98.8282 59.1384 99.6013C59.1979 99.6356 59.2562 99.663 59.3146 99.6912C59.3499 99.4921 59.3695 99.2758 59.3695 99.0422C59.3695 97.257 58.2841 95.1832 56.9455 94.4103Z" fill="#594A8E"/>
<ellipse cx="94.6516" cy="33.3496" rx="19.3481" ry="7.44157" transform="rotate(27.3147 94.6516 33.3496)" fill="black" fill-opacity="0.19"/>
<ellipse cx="127.395" cy="56.1777" rx="19.3481" ry="7.44157" transform="rotate(27.3147 127.395 56.1777)" fill="black" fill-opacity="0.19"/>
<path d="M84.6572 12L84.1509 12.5146L79.0071 18.5297L80.2993 19.4244L88.5214 14.6772L84.6572 12Z" fill="#23292E"/>
<path d="M86.6252 14.0486L83.0358 16.238L80.2993 19.4177L79.0071 18.523L84.1509 12.5078L86.6252 14.0486Z" fill="#2E373D"/>
<path d="M133.765 51.0728C133.162 51.0728 132.61 50.6723 132.443 50.0631L123.749 18.2561C123.549 17.5255 123.979 16.7721 124.709 16.5721C125.44 16.3731 126.193 16.8027 126.393 17.5333L135.088 49.3402C135.287 50.0703 134.857 50.8242 134.127 51.0238C134.006 51.0573 133.884 51.0728 133.765 51.0728Z" fill="#CECECE"/>
<path d="M95.1621 12.8526C93.0931 11.6584 91.2091 11.6239 89.794 12.5327L86.1158 14.624C84.242 15.4833 83.0361 17.8197 83.0361 21.2285C83.0361 27.0874 86.5983 33.8943 90.9926 36.4313C93.0378 37.6119 94.9024 37.6594 96.3121 36.7827L100.207 34.5778C101.985 33.6584 103.119 31.3612 103.119 28.0558C103.119 22.1965 99.5564 15.39 95.1621 12.8526Z" fill="#23292E"/>
<path d="M98.9496 30.4157C98.9496 36.2751 95.3874 38.9679 90.9926 36.4309C86.5983 33.894 83.0361 27.087 83.0361 21.2282C83.0361 15.3688 86.5983 12.6756 90.9926 15.2125C95.3874 17.75 98.9496 24.5564 98.9496 30.4157Z" fill="#2E373D"/>
<path d="M95.8995 28.6527C95.8995 32.2664 93.7023 33.9276 90.9921 32.3625C88.2818 30.7979 86.0847 26.5998 86.0847 22.9861C86.0847 19.3725 88.2818 17.7117 90.9921 19.2763C93.7023 20.8414 95.8995 25.0391 95.8995 28.6527Z" fill="#CECECE"/>
<path d="M108.717 31.874L93.4055 23.0335C92.5239 22.5248 91.4419 22.5093 90.5462 22.9918C89.7787 23.1374 89.1379 23.8005 89.1379 24.6865C89.1379 26.3525 90.0268 27.8924 91.4691 28.7264L108.718 38.6975L108.717 31.874Z" fill="#23292E"/>
<path d="M97.9244 19.2656V24.1832C97.9244 25.2201 98.4778 26.1789 99.3759 26.6973L104.778 29.8163C106.199 30.6998 107.062 32.2542 107.062 33.9271V36.4927C107.062 38.0747 107.907 39.5369 109.277 40.3277L113.66 42.8588C114.225 43.185 114.861 43.1438 115.354 42.8583L124.429 37.6354C124.47 37.6141 124.509 37.5912 124.548 37.567H124.549C125.012 37.2742 125.339 36.7636 125.339 36.1373C125.339 34.5868 125.598 33.047 126.106 31.5814L127.624 27.1998L97.9244 19.2656Z" fill="#CECECE"/>
<path d="M104.778 24.5433L97.9244 20.5859V24.186C97.9244 25.2229 98.4778 26.1817 99.3759 26.7001L104.778 29.8191V24.5433Z" fill="#525E65"/>
<path d="M111.562 34.6706L91.7234 23.2024C90.5749 22.5388 89.1379 23.3675 89.1379 24.6942C89.1379 26.3608 90.0268 27.9001 91.4691 28.7341L111.562 40.3494V34.6706Z" fill="#525E65"/>
<path d="M102.563 7.44537L101.243 5.15892C100.611 4.06424 99.7026 3.15548 98.6084 2.52391L94.8093 0.330665C93.9064 -0.190705 92.8807 -0.0606055 92.1428 0.476784L83.3615 5.45213C82.5421 5.82884 81.9324 6.64584 81.9324 7.67548C81.9324 9.95125 83.1465 12.0542 85.1174 13.1921L100.209 21.9049L111.562 12.811L102.563 7.44537Z" fill="#627681"/>
<path d="M102.354 18.0387L93.3554 12.6725L92.035 10.3861C91.4034 9.29189 90.4947 8.38313 89.4 7.75108L85.6014 5.55783C83.9708 4.61655 81.9324 5.79327 81.9324 7.67584C81.9324 9.95161 83.1465 12.0546 85.1174 13.1925L100.209 21.9057L102.354 18.0387Z" fill="#2E373D"/>
<path d="M93.3552 12.6799L102.563 7.45312L111.562 12.8193L102.353 18.0461L93.3552 12.6799Z" fill="#525E65"/>
<path d="M121.369 12.947C118.243 11.0989 114.362 11.079 111.217 12.8951C111.131 12.9446 103.191 17.5525 102.415 18.0025C102.302 18.0622 102.19 18.1234 102.079 18.1879C100.921 18.8559 100.209 20.0904 100.209 21.4263V21.905L118.485 32.4571L127.623 27.1648V23.8618C127.623 19.3714 125.243 15.2175 121.369 12.947Z" fill="#7A87FF"/>
<path d="M100.209 21.9095L118.485 32.4616V29.1591C118.485 24.6687 116.105 20.5148 112.231 18.2443C109.104 16.3958 105.224 16.3759 102.079 18.1919C100.921 18.8604 100.209 20.0949 100.209 21.4308V21.9095Z" fill="#2C39AB"/>
<path d="M104.778 24.5469L118.485 32.4606L116.967 36.8423C116.46 38.3073 116.201 39.8477 116.201 41.3982C116.201 42.7021 114.789 43.5167 113.661 42.8652L109.277 40.3341C107.907 39.5428 107.062 38.0811 107.062 36.4986V33.933C107.062 32.2601 106.199 30.7057 104.778 29.8227V24.5469Z" fill="#82A5B9"/>
<path d="M133.593 39.0952C131.525 37.9006 129.64 37.8661 128.225 38.7748L124.547 40.8662C122.673 41.7254 121.467 44.0618 121.467 47.4707C121.467 53.3295 125.029 60.1364 129.424 62.6734C131.469 63.854 133.333 63.9016 134.743 63.0249L138.638 60.8204C140.416 59.901 141.55 57.6039 141.55 54.298C141.55 48.4386 137.988 41.6322 133.593 39.0952Z" fill="#23292E"/>
<path d="M134.506 37.0311C132.054 35.6156 129.83 35.6321 128.199 36.8015L123.379 39.5846C121.367 40.6366 120.083 43.2468 120.083 46.9974C120.083 49.846 120.826 52.8902 122.063 55.6694L122.611 55.4024C123.781 54.8325 124.37 53.5092 124.022 52.2552C123.721 51.1683 123.553 50.0625 123.553 49.0003C123.553 44.8891 126.053 42.9992 129.137 44.7794C129.764 45.142 130.367 45.6299 130.929 46.2109C131.855 47.1678 133.422 47.0692 134.273 46.0454L134.564 45.6959L137.912 43.7488C138.555 43.7386 139.197 43.4589 139.642 42.923L139.932 42.5735C138.42 40.188 136.542 38.2064 134.506 37.0311Z" fill="#7A87FF"/>
<path d="M137.381 56.6499C137.381 62.5093 133.818 65.2025 129.424 62.6651C125.03 60.1281 121.467 53.3217 121.467 47.4624C121.467 41.603 125.03 38.9098 129.424 41.4472C133.818 43.9841 137.381 50.7906 137.381 56.6499Z" fill="#2E373D"/>
<path d="M134.331 54.8949C134.331 58.5086 132.134 60.1698 129.424 58.6047C126.713 57.0401 124.516 52.842 124.516 49.2283C124.516 45.6146 126.713 43.9539 129.424 45.5185C132.134 47.0836 134.331 51.2813 134.331 54.8949Z" fill="#CECECE"/>
<path d="M131.546 53.2855C131.546 54.8476 130.596 55.5656 129.424 54.8894C128.252 54.2127 127.302 52.3976 127.302 50.8349C127.302 49.2728 128.252 48.5548 129.424 49.231C130.596 49.9077 131.546 51.7228 131.546 53.2855Z" fill="#627681"/>
<path d="M123.553 49.0036C123.553 44.8924 126.053 43.0026 129.137 44.7827C129.765 45.1453 130.367 45.6332 130.93 46.2143C131.856 47.1711 133.422 47.0725 134.274 46.0487L134.564 45.6992C133.052 43.3132 131.173 41.3321 129.137 40.1569C124.137 37.2699 120.083 40.3341 120.083 47.0007C120.083 49.8493 120.826 52.8935 122.063 55.6727L122.611 55.4057C123.781 54.8358 124.37 53.513 124.022 52.2586C123.721 51.1717 123.553 50.0658 123.553 49.0036Z" fill="#2C39AB"/>
<path d="M129.325 53.7681C128.722 53.7681 128.17 53.3676 128.003 52.7584L119.309 20.9514C119.11 20.2213 119.54 19.4674 120.27 19.2674C121 19.0684 121.754 19.498 121.954 20.2286L130.648 52.0355C130.848 52.7657 130.418 53.5196 129.687 53.7191C129.566 53.7526 129.445 53.7681 129.325 53.7681Z" fill="#CECECE"/>
<path d="M125.34 7.39345C124.866 7.39345 124.406 7.14733 124.152 6.70752C123.773 6.05216 123.998 5.2138 124.653 4.83515L128.177 2.80113C128.832 2.42248 129.671 2.64724 130.049 3.30259C130.428 3.95843 130.203 4.79631 129.547 5.17496L126.024 7.20947C125.808 7.33423 125.572 7.39345 125.34 7.39345Z" fill="#2E373D"/>
<path d="M130.571 6.93277H126.014C125.606 6.93277 125.275 6.60121 125.275 6.19295C125.275 5.7842 125.606 5.45312 126.014 5.45312H130.571C130.98 5.45312 131.311 5.7842 131.311 6.19295C131.311 6.60121 130.98 6.93277 130.571 6.93277Z" fill="#2E373D"/>
<path d="M117.82 22.7508C115.928 22.7508 114.058 22.0076 112.663 20.5828L108.405 16.2332C107.876 15.6919 107.884 14.8244 108.426 14.2948C108.966 13.7652 109.834 13.7744 110.364 14.3152L114.623 18.6648C116.051 20.1245 118.285 20.4308 120.054 19.4095L124.414 16.8924C125.406 16.3191 125.911 15.1817 125.67 14.0613L123.999 6.30823C123.84 5.56841 124.31 4.83926 125.051 4.67955C125.79 4.51984 126.52 4.99072 126.679 5.73103L128.35 13.4836C128.843 15.772 127.812 18.0958 125.785 19.2663L121.425 21.7833C120.298 22.4343 119.054 22.7508 117.82 22.7508Z" fill="#CECECE"/>
<path d="M104.853 19.2724C104.379 19.2724 103.919 19.0267 103.665 18.5869C103.286 17.9311 103.511 17.0932 104.166 16.7145L108.698 14.098C109.354 13.7193 110.192 13.9441 110.571 14.5999C110.95 15.2553 110.725 16.0937 110.069 16.4723L105.537 19.0889C105.322 19.2136 105.086 19.2724 104.853 19.2724Z" fill="#2E373D"/>
<path d="M130.967 17.0958L128.615 15.7375C126.388 14.4521 123.645 14.4521 121.418 15.7375C117.314 18.1075 117.314 24.0314 121.418 26.4013L125.64 28.8868C126.394 29.3849 127.403 29.3733 128.513 28.7325C130.847 27.3849 132.738 23.7702 132.738 20.6585C132.738 18.7672 132.039 17.4987 130.967 17.0958Z" fill="#82A5B9"/>
<path d="M132.738 20.6628C132.738 23.7745 130.847 27.3892 128.513 28.7368C126.179 30.0839 124.287 28.6537 124.287 25.542C124.287 22.4303 126.179 18.8152 128.513 17.4681C130.847 16.1205 132.738 17.5511 132.738 20.6628Z" fill="#CECECE"/>
<path d="M131.509 21.3668C131.509 23.5732 130.168 26.1363 128.513 27.0912C126.858 28.0466 125.517 27.0325 125.517 24.8266C125.517 22.6203 126.858 20.0571 128.513 19.1017C130.168 18.1464 131.509 19.1605 131.509 21.3668Z" fill="white"/>
<path d="M108.971 35.5976C108.971 37.5054 110.131 39.7215 111.562 40.5472C112.992 41.3735 114.152 40.4968 114.152 38.5889C114.152 36.6811 112.992 34.4651 111.562 33.6388C110.131 32.8131 108.971 33.6898 108.971 35.5976Z" fill="white"/>
<path d="M108.718 21.5967C108.662 21.5967 108.606 21.5904 108.549 21.5768C108.151 21.4841 107.904 21.086 107.997 20.6879L109.179 15.6339C109.273 15.2364 109.67 14.9893 110.068 15.082C110.466 15.1752 110.713 15.5733 110.62 15.9713L109.438 21.0253C109.358 21.3661 109.054 21.5967 108.718 21.5967Z" fill="#2E373D"/>
<defs>
<linearGradient id="paint0_linear_2664_18197" x1="34.2947" y1="79.2249" x2="34.2947" y2="41.4821" gradientUnits="userSpaceOnUse">
<stop stop-color="#43386B"/>
<stop offset="1" stop-color="#594A8E"/>
</linearGradient>
<linearGradient id="paint1_linear_2664_18197" x1="47.9881" y1="55.1172" x2="42.2917" y2="45.2511" gradientUnits="userSpaceOnUse">
<stop offset="0.0694" stop-color="#FFC538"/>
<stop offset="0.4072" stop-color="#FAD73E"/>
<stop offset="0.5466" stop-color="#F7E041"/>
<stop offset="1" stop-color="#FCF3B3"/>
</linearGradient>
<linearGradient id="paint2_linear_2664_18197" x1="21.6819" y1="93.4935" x2="21.6819" y2="23.8394" gradientUnits="userSpaceOnUse">
<stop stop-color="#FFA538"/>
<stop offset="1" stop-color="#FFC538"/>
</linearGradient>
<linearGradient id="paint3_linear_2664_18197" x1="6.5508" y1="35.8342" x2="6.5508" y2="58.6182" gradientUnits="userSpaceOnUse">
<stop stop-color="#CC8241"/>
<stop offset="1" stop-color="#FFA538"/>
</linearGradient>
<linearGradient id="paint4_linear_2664_18197" x1="14.0576" y1="40.3028" x2="14.0576" y2="63.0867" gradientUnits="userSpaceOnUse">
<stop stop-color="#CC8241"/>
<stop offset="1" stop-color="#FFA538"/>
</linearGradient>
<linearGradient id="paint5_linear_2664_18197" x1="21.5651" y1="44.7561" x2="21.5651" y2="67.5401" gradientUnits="userSpaceOnUse">
<stop stop-color="#CC8241"/>
<stop offset="1" stop-color="#FFA538"/>
</linearGradient>
<linearGradient id="paint6_linear_2664_18197" x1="29.0716" y1="49.2091" x2="29.0716" y2="71.993" gradientUnits="userSpaceOnUse">
<stop stop-color="#CC8241"/>
<stop offset="1" stop-color="#FFA538"/>
</linearGradient>
<linearGradient id="paint7_linear_2664_18197" x1="36.5789" y1="53.6546" x2="36.5789" y2="76.4385" gradientUnits="userSpaceOnUse">
<stop stop-color="#CC8241"/>
<stop offset="1" stop-color="#FFA538"/>
</linearGradient>
<linearGradient id="paint8_linear_2664_18197" x1="81.0285" y1="85.4779" x2="78.4646" y2="81.0368" gradientUnits="userSpaceOnUse">
<stop stop-color="#2C31AB"/>
<stop offset="1" stop-color="#7A87FF"/>
</linearGradient>
<linearGradient id="paint9_linear_2664_18197" x1="56.3142" y1="80.3368" x2="71.3681" y2="54.2634" gradientUnits="userSpaceOnUse">
<stop stop-color="#2C39AB"/>
<stop offset="1" stop-color="#4764FF"/>
</linearGradient>
<linearGradient id="paint10_linear_2664_18197" x1="80.8096" y1="101.235" x2="80.8096" y2="81.4084" gradientUnits="userSpaceOnUse">
<stop stop-color="#43386B"/>
<stop offset="1" stop-color="#594A8E"/>
</linearGradient>
<linearGradient id="paint11_linear_2664_18197" x1="21.6881" y1="75.5428" x2="24.9979" y2="69.8102" gradientUnits="userSpaceOnUse">
<stop stop-color="#43386B"/>
<stop offset="1" stop-color="#594A8E"/>
</linearGradient>
<linearGradient id="paint12_linear_2664_18197" x1="55.9197" y1="95.331" x2="59.0763" y2="89.8636" gradientUnits="userSpaceOnUse">
<stop stop-color="#43386B"/>
<stop offset="1" stop-color="#594A8E"/>
</linearGradient>
<linearGradient id="paint13_linear_2664_18197" x1="52.752" y1="69.9581" x2="52.752" y2="49.4528" gradientUnits="userSpaceOnUse">
<stop stop-color="#43386B"/>
<stop offset="1" stop-color="#7662BD"/>
</linearGradient>
<linearGradient id="paint14_linear_2664_18197" x1="71.983" y1="76.888" x2="74.4351" y2="57.5602" gradientUnits="userSpaceOnUse">
<stop stop-color="#43386B"/>
<stop offset="1" stop-color="#7662BD"/>
</linearGradient>
<linearGradient id="paint15_linear_2664_18197" x1="68.6029" y1="92.5353" x2="70.7269" y2="92.5353" gradientUnits="userSpaceOnUse">
<stop stop-color="#C5BAEB"/>
<stop offset="1" stop-color="white"/>
</linearGradient>
<linearGradient id="paint16_linear_2664_18197" x1="92.1483" y1="83.4115" x2="92.1483" y2="78.7959" gradientUnits="userSpaceOnUse">
<stop stop-color="#C5BAEB"/>
<stop offset="1" stop-color="white"/>
</linearGradient>
<linearGradient id="paint17_linear_2664_18197" x1="26.5926" y1="87.9638" x2="26.5926" y2="71.7848" gradientUnits="userSpaceOnUse">
<stop stop-color="#43386B"/>
<stop offset="1" stop-color="#594A8E"/>
</linearGradient>
<linearGradient id="paint18_linear_2664_18197" x1="26.5924" y1="85.1161" x2="26.5924" y2="76.5916" gradientUnits="userSpaceOnUse">
<stop stop-color="#A996EB"/>
<stop offset="1" stop-color="#D7D1EB"/>
</linearGradient>
<linearGradient id="paint19_linear_2664_18197" x1="25.7109" y1="76.4785" x2="27.0156" y2="82.1152" gradientUnits="userSpaceOnUse">
<stop stop-color="#7662BD"/>
<stop offset="1" stop-color="#C5BAEB"/>
</linearGradient>
<linearGradient id="paint20_linear_2664_18197" x1="14.405" y1="80.9011" x2="14.405" y2="64.7223" gradientUnits="userSpaceOnUse">
<stop stop-color="#43386B"/>
<stop offset="1" stop-color="#594A8E"/>
</linearGradient>
<linearGradient id="paint21_linear_2664_18197" x1="14.4047" y1="78.0536" x2="14.4047" y2="69.5289" gradientUnits="userSpaceOnUse">
<stop stop-color="#A996EB"/>
<stop offset="1" stop-color="#D7D1EB"/>
</linearGradient>
<linearGradient id="paint22_linear_2664_18197" x1="13.5235" y1="69.416" x2="14.8283" y2="75.0525" gradientUnits="userSpaceOnUse">
<stop stop-color="#7662BD"/>
<stop offset="1" stop-color="#C5BAEB"/>
</linearGradient>
<linearGradient id="paint23_linear_2664_18197" x1="56.9461" y1="105.307" x2="56.9461" y2="89.1285" gradientUnits="userSpaceOnUse">
<stop stop-color="#43386B"/>
<stop offset="1" stop-color="#594A8E"/>
</linearGradient>
<linearGradient id="paint24_linear_2664_18197" x1="56.9457" y1="102.46" x2="56.9457" y2="93.9354" gradientUnits="userSpaceOnUse">
<stop stop-color="#A996EB"/>
<stop offset="1" stop-color="#D7D1EB"/>
</linearGradient>
<linearGradient id="paint25_linear_2664_18197" x1="56.0642" y1="93.8223" x2="57.369" y2="99.4588" gradientUnits="userSpaceOnUse">
<stop stop-color="#7662BD"/>
<stop offset="1" stop-color="#C5BAEB"/>
</linearGradient>
</defs>
</svg>
