<svg width="188" height="157" viewBox="0 0 188 157" fill="none" xmlns="http://www.w3.org/2000/svg">
<path d="M184.708 73.7667C179.086 46.5728 161.283 23.4589 136.386 11.1624C133.774 9.87258 131.002 8.57047 128.062 7.26353C91.2726 -9.08717 70.091 5.03389 59.3144 21.3846C48.5378 37.7353 35.16 65.9774 26.613 79.7269C18.066 93.4763 6.91784 122.462 28.471 142.528C50.0242 162.595 70.4626 155.906 84.5837 150.332C98.7047 144.758 112.826 149.589 138.838 149.589C164.851 149.589 186.404 129.522 187.89 104.625C188.434 95.512 186.888 84.3092 184.708 73.7667Z" fill="#0080FF"/>
<path opacity="0.7" d="M184.708 73.7667C179.086 46.5728 161.283 23.4589 136.386 11.1624C133.774 9.87258 131.002 8.57047 128.062 7.26353C91.2726 -9.08717 70.091 5.03389 59.3144 21.3846C48.5378 37.7353 35.16 65.9774 26.613 79.7269C18.066 93.4763 6.91784 122.462 28.471 142.528C50.0242 162.595 70.4626 155.906 84.5837 150.332C98.7047 144.758 112.826 149.589 138.838 149.589C164.851 149.589 186.404 129.522 187.89 104.625C188.434 95.512 186.888 84.3092 184.708 73.7667Z" fill="white"/>
<path d="M142.14 79.5559C137.603 63.4898 122.835 51.7157 105.316 51.7157C90.3191 51.7157 77.3378 60.344 71.0649 72.9073" stroke="#263238" stroke-miterlimit="10" stroke-linecap="round" stroke-linejoin="round"/>
<path d="M143.568 89.1804C143.531 87.3503 143.365 85.5516 143.08 83.7928" stroke="#263238" stroke-miterlimit="10" stroke-linecap="round" stroke-linejoin="round"/>
<path d="M72.8037 110.156C79.5551 121.011 91.5916 128.237 105.316 128.237C125.004 128.237 141.219 113.365 143.341 94.2426" stroke="#263238" stroke-miterlimit="10" stroke-linecap="round" stroke-linejoin="round"/>
<path d="M70.3765 105.588C70.7473 106.417 71.1463 107.229 71.5732 108.025" stroke="#263238" stroke-miterlimit="10" stroke-linecap="round" stroke-linejoin="round"/>
<path d="M69.6751 76.0364C67.9845 80.3557 67.0562 85.058 67.0562 89.9767C67.0562 94.4863 67.8364 98.8136 69.2691 102.831" stroke="#263238" stroke-miterlimit="10" stroke-linecap="round" stroke-linejoin="round"/>
<path d="M131.75 97.7189C132.115 96.4679 132.394 95.1799 132.58 93.862L130.76 93.6705C130.247 93.6163 129.875 93.1565 129.928 92.6431C129.983 92.1302 130.441 91.7556 130.956 91.8113L132.776 92.0027C132.824 91.3327 132.858 90.6586 132.858 89.9763C132.858 87.3521 132.483 84.8165 131.798 82.4124L129.927 83.02C129.831 83.051 129.734 83.066 129.638 83.066C129.244 83.066 128.878 82.8147 128.75 82.4199C128.59 81.9286 128.859 81.4015 129.35 81.2422L131.229 80.6317C130.113 77.5382 128.458 74.7046 126.379 72.2386L124.834 73.6294C124.656 73.7901 124.432 73.8694 124.209 73.8694C123.953 73.8694 123.699 73.7651 123.515 73.5602C123.169 73.1766 123.2 72.5855 123.584 72.2401L125.126 70.8519C122.868 68.5137 120.205 66.5695 117.243 65.1443L116.363 67.1214C116.208 67.4694 115.866 67.6762 115.508 67.6762C115.381 67.6762 115.252 67.6504 115.129 67.5951C114.657 67.3849 114.445 66.8327 114.655 66.3613L115.528 64.3988C112.563 63.2136 109.345 62.5309 105.975 62.4517V64.6228C105.975 65.1391 105.557 65.5574 105.041 65.5574C104.524 65.5574 104.106 65.1391 104.106 64.6228V62.4659C100.745 62.6113 97.5389 63.3546 94.5954 64.5996L95.4703 66.5643C95.6804 67.0361 95.4684 67.5883 94.9966 67.7984C94.8732 67.8538 94.7438 67.8796 94.6167 67.8796C94.2585 67.8796 93.9172 67.6728 93.7624 67.3251L92.9025 65.3937C89.9758 66.8746 87.3493 68.8595 85.1386 71.2392L86.6629 72.6117C87.0465 72.9572 87.0775 73.5483 86.7321 73.9318C86.5474 74.1367 86.2928 74.241 86.037 74.241C85.8142 74.241 85.5906 74.1618 85.4119 74.001L83.9123 72.6506C81.887 75.1496 80.294 78.0101 79.2381 81.1203L81.0765 81.7178C81.5677 81.8774 81.8362 82.405 81.6765 82.8955C81.5483 83.2907 81.1819 83.5415 80.7878 83.5415C80.6921 83.5415 80.5945 83.5266 80.4988 83.4956L78.6941 82.9089C78.0967 85.1653 77.7744 87.5334 77.7744 89.9774C77.7744 90.8269 77.8185 91.6658 77.8941 92.4958L79.6771 92.3085C80.19 92.2513 80.6503 92.6271 80.7041 93.1404C80.7583 93.6537 80.3856 94.1136 79.8722 94.1678L78.1236 94.3517C78.6399 97.5869 79.7212 100.632 81.2604 103.388L82.7054 102.553C83.1526 102.295 83.7243 102.448 83.9822 102.896C84.2402 103.342 84.0873 103.914 83.6401 104.172L82.2284 104.988C83.9744 107.668 86.1705 110.027 88.7155 111.953L89.6397 110.681C89.9433 110.263 90.528 110.171 90.9453 110.474C91.3629 110.777 91.4556 111.362 91.152 111.78L90.2457 113.027C92.8741 114.749 95.8139 116.031 98.963 116.775L99.2797 115.285C99.387 114.779 99.885 114.458 100.388 114.565C100.893 114.672 101.216 115.168 101.108 115.673L100.796 117.144C102.267 117.387 103.776 117.52 105.316 117.52C107.011 117.52 108.667 117.359 110.277 117.066L109.959 115.57C109.852 115.065 110.174 114.569 110.679 114.461C111.182 114.354 111.681 114.676 111.788 115.181L112.105 116.675C115.243 115.879 118.166 114.546 120.769 112.778L119.831 111.487C119.528 111.069 119.62 110.484 120.038 110.181C120.456 109.878 121.04 109.97 121.343 110.388L122.276 111.671C124.791 109.701 126.955 107.306 128.659 104.59L127.189 103.741C126.742 103.483 126.589 102.911 126.847 102.464C127.105 102.017 127.678 101.864 128.124 102.122L129.601 102.975C130.204 101.851 130.731 100.68 131.175 99.4697" stroke="#263238" stroke-miterlimit="10" stroke-linecap="round" stroke-linejoin="round"/>
<path d="M89.3276 81.027C87.8429 83.6737 86.9961 86.7267 86.9961 89.9772C86.9961 100.095 95.1982 108.297 105.316 108.297C115.434 108.297 123.636 100.095 123.636 89.9772C123.636 79.8594 115.434 71.6573 105.316 71.6573C99.5321 71.6573 94.3741 74.3377 91.0167 78.5243" stroke="#263238" stroke-miterlimit="10" stroke-linecap="round" stroke-linejoin="round"/>
<path d="M85.4541 27.2556C88.349 19.0786 96.1596 13.2054 105.316 13.2054C116.929 13.2054 126.378 22.6536 126.378 34.2669V44.4382" stroke="#263238" stroke-miterlimit="10" stroke-linecap="round" stroke-linejoin="round"/>
<path d="M133.107 59.4795V34.2665C133.107 18.9426 120.64 6.47534 105.316 6.47534C89.9916 6.47534 77.5244 18.9426 77.5244 34.2665V63.6804C79.54 61.5508 81.7982 59.6537 84.2542 58.0311V34.2665C84.2542 32.7213 84.4213 31.2146 84.7387 29.7636" stroke="#263238" stroke-miterlimit="10" stroke-linecap="round" stroke-linejoin="round"/>
<path d="M126.377 48.1501V58.032C128.833 59.6546 131.092 61.5517 133.107 63.6813V61.0432" stroke="#263238" stroke-miterlimit="10" stroke-linecap="round" stroke-linejoin="round"/>
<path d="M131.238 148.181H79.3939C76.5719 148.181 74.2842 145.893 74.2842 143.071C74.2842 140.249 76.5719 137.961 79.3939 137.961H131.238C134.06 137.961 136.348 140.249 136.348 143.071C136.347 145.894 134.06 148.181 131.238 148.181Z" fill="#263238" stroke="#263238" stroke-miterlimit="10" stroke-linecap="round" stroke-linejoin="round"/>
<path d="M81.2081 142.509L80.7296 139.472H82.3866L81.908 142.509L84.6511 141.129L85.1663 142.694L82.1473 143.209L84.3012 145.363L82.9758 146.339L81.5581 143.614L80.1407 146.339L78.8153 145.363L80.9692 143.209L77.9502 142.694L78.4658 141.129L81.2081 142.509Z" fill="#0080FF"/>
<path d="M93.1266 142.509L92.648 139.472H94.305L93.8265 142.509L96.5696 141.129L97.0848 142.694L94.0658 143.209L96.2197 145.363L94.8943 146.339L93.4765 143.614L92.0592 146.339L90.7338 145.363L92.8877 143.209L89.8687 142.694L90.3839 141.129L93.1266 142.509Z" fill="#0080FF"/>
<path d="M105.046 142.509L104.567 139.472H106.224L105.745 142.509L108.489 141.129L109.004 142.694L105.985 143.209L108.139 145.363L106.813 146.339L105.395 143.614L103.978 146.339L102.653 145.363L104.807 143.209L101.788 142.694L102.303 141.129L105.046 142.509Z" fill="#0080FF"/>
<path d="M116.964 142.509L116.486 139.472H118.143L117.664 142.509L120.407 141.129L120.922 142.694L117.903 143.208L120.057 145.363L118.732 146.338L117.314 143.614L115.896 146.338L114.571 145.363L116.725 143.208L113.706 142.693L114.221 141.128L116.964 142.509Z" fill="#0080FF"/>
<path d="M128.882 142.509L128.404 139.472H130.061L129.582 142.509L132.325 141.129L132.841 142.694L129.822 143.209L131.975 145.363L130.65 146.339L129.232 143.614L127.815 146.339L126.489 145.363L128.643 143.209L125.624 142.694L126.139 141.129L128.882 142.509Z" fill="#0080FF"/>
<path d="M180.679 29.6682C180.723 29.8252 180.866 29.9277 181.021 29.9277C181.053 29.9277 181.085 29.9232 181.118 29.9142C181.307 29.8607 181.417 29.6641 181.364 29.4753C181.09 28.5058 180.687 27.61 180.165 26.8118C180.057 26.6477 179.837 26.6013 179.672 26.709C179.507 26.8167 179.461 27.0372 179.569 27.2017C180.052 27.939 180.425 28.7687 180.679 29.6682Z" fill="#263238"/>
<path d="M161.405 26.3054C161.469 26.3548 161.545 26.3783 161.62 26.3783C161.727 26.3783 161.833 26.3301 161.903 26.2385C161.934 26.1974 165.128 22.1169 170.909 22.7387C174.326 23.1065 176.932 24.2181 178.657 26.0426C178.792 26.1854 179.017 26.1918 179.16 26.0568C179.303 25.9218 179.309 25.6967 179.174 25.5539C177.33 23.6031 174.575 22.4182 170.986 22.0317C164.794 21.365 161.475 25.6261 161.337 25.8078C161.218 25.9633 161.249 26.1865 161.405 26.3054Z" fill="#263238"/>
<path d="M181.459 32.0216C179.588 31.675 178.779 29.7642 178.13 28.2283C177.982 27.8798 177.843 27.5504 177.702 27.2689C176.871 25.6067 173.318 23.8962 169.985 24.1818C168.576 24.3026 163.83 25.0728 161.942 29.91C161.101 32.065 161.073 34.4413 161.197 36.0557C161.211 36.2423 161.367 36.3844 161.551 36.3844C161.56 36.3844 161.57 36.384 161.579 36.3832C161.775 36.3683 161.921 36.197 161.906 36.0011C161.788 34.4608 161.813 32.1985 162.605 30.1687C164.343 25.714 168.74 25.0029 170.046 24.8907C173.313 24.6103 176.436 26.3279 177.066 27.5867C177.196 27.8481 177.331 28.1673 177.474 28.505C178.152 30.1085 179.081 32.3043 181.33 32.7208C181.522 32.7552 181.709 32.6288 181.745 32.4355C181.78 32.2433 181.652 32.0575 181.459 32.0216Z" fill="#263238"/>
<path d="M161.9 38.7875C161.928 38.7875 161.956 38.7842 161.985 38.7774C162.175 38.7307 162.292 38.5382 162.246 38.3475C162.245 38.3437 162.153 37.9673 162.06 37.3533C162.031 37.1589 161.85 37.0255 161.655 37.055C161.461 37.0845 161.327 37.2659 161.357 37.4603C161.455 38.1086 161.551 38.5004 161.554 38.5165C161.594 38.6787 161.74 38.7875 161.9 38.7875Z" fill="#263238"/>
<path d="M181.326 34.9769L177.529 32.1747C177.492 31.9721 177.396 31.599 177.158 30.9443C176.769 29.8747 175.122 27.0111 172.209 26.6092C170.443 26.3655 168.663 26.5935 167.198 27.2512C167.019 27.3316 166.939 27.5424 167.019 27.7215C167.099 27.901 167.31 27.981 167.489 27.9006C168.835 27.2968 170.476 27.0885 172.111 27.3144C174.663 27.6662 176.164 30.2945 176.489 31.1873C176.818 32.091 176.841 32.3714 176.841 32.3714C176.841 32.4843 176.894 32.5905 176.985 32.6578L180.903 35.5493C180.966 35.5964 181.04 35.6189 181.114 35.6189C181.223 35.6189 181.331 35.5688 181.4 35.4742C181.518 35.3164 181.484 35.0936 181.326 34.9769Z" fill="#263238"/>
<path d="M164.48 37.3063C163.864 35.2253 163.468 32.2451 165.086 29.8658C165.45 29.3308 165.913 28.8646 166.462 28.4802C166.623 28.3677 166.662 28.1456 166.549 27.9845C166.437 27.8237 166.215 27.7844 166.053 27.897C165.434 28.331 164.91 28.8586 164.498 29.4654C163.093 31.531 162.851 34.3123 163.798 37.5082C164.441 39.6778 161.339 40.8865 161.308 40.8985C161.124 40.968 161.032 41.1733 161.101 41.3572C161.155 41.4996 161.29 41.5871 161.434 41.5871C161.476 41.5871 161.519 41.5796 161.56 41.5639C162.861 41.0723 165.145 39.5488 164.48 37.3063Z" fill="#263238"/>
<path d="M181.03 37.6706C180.993 37.6459 177.243 35.1672 176.081 33.6477C175.428 32.7946 175.357 32.5048 175.281 32.1978C175.216 31.9309 175.141 31.6281 174.795 31.0658C174.035 29.8301 172.238 28.5331 169.679 28.9422C167.214 29.3366 165.742 31.2463 165.742 34.0504C165.742 35.2079 165.831 36.2065 165.917 37.1726C166.024 38.3731 166.126 39.5071 166.023 40.7368C165.861 42.6847 163.167 43.3939 163.12 43.4059C162.93 43.4537 162.814 43.6466 162.861 43.8373C162.902 43.9992 163.047 44.1069 163.206 44.1069C163.235 44.1069 163.264 44.1035 163.293 44.096C163.425 44.0631 166.527 43.2597 166.732 40.7955C166.84 39.5048 166.736 38.3414 166.626 37.1091C166.541 36.1587 166.454 35.1758 166.454 34.05C166.454 31.5896 167.67 29.9838 169.792 29.6447C172.005 29.2902 173.544 30.3894 174.19 31.4385C174.477 31.9059 174.532 32.1302 174.591 32.3676C174.681 32.7317 174.773 33.1082 175.516 34.0799C176.751 35.6951 180.481 38.1608 180.639 38.2651C180.803 38.3731 181.024 38.3275 181.132 38.1638C181.24 37.9993 181.195 37.7787 181.03 37.6706Z" fill="#263238"/>
<path d="M170.386 37.8391L170.208 37.6163C168.834 35.9047 168.077 34.9621 169.2 33.1167C169.591 32.474 170.031 32.1562 170.501 32.1779C171.194 32.2067 172.014 32.9679 172.588 34.1168C172.913 34.7662 173.758 35.7731 175.172 37.1949C175.31 37.3344 175.535 37.3347 175.675 37.1964C175.814 37.0577 175.815 36.8326 175.676 36.6932C174.007 35.0137 173.421 34.1919 173.224 33.7983C172.515 32.379 171.508 31.5072 170.53 31.4668C170.012 31.4455 169.259 31.65 168.591 32.7466C167.208 35.0182 168.234 36.295 169.652 38.0619L169.83 38.284C171.329 40.1567 176.383 44.3165 176.598 44.4926C176.664 44.5468 176.744 44.5733 176.824 44.5733C176.927 44.5733 177.029 44.5292 177.099 44.4432C177.224 44.2914 177.202 44.0671 177.05 43.9422C176.998 43.9 171.839 39.6543 170.386 37.8391Z" fill="#263238"/>
<path d="M176.995 37.9762C176.853 37.8405 176.628 37.8465 176.492 37.989C176.357 38.1314 176.363 38.3565 176.505 38.4918C178.003 39.9159 179.375 41.1127 179.389 41.1246C179.456 41.1833 179.54 41.2121 179.623 41.2121C179.722 41.2121 179.821 41.1706 179.891 41.0899C180.02 40.9418 180.005 40.7171 179.856 40.5878C179.842 40.5758 178.481 39.3887 176.995 37.9762Z" fill="#263238"/>
<path d="M178.443 42.1621C178.396 42.1251 173.708 38.4413 172.536 36.9095C171.382 35.3998 170.92 33.8692 170.916 33.8538C170.86 33.6654 170.663 33.5577 170.474 33.6134C170.286 33.6691 170.178 33.8666 170.233 34.055C170.253 34.1223 170.732 35.7225 171.971 37.3421C173.197 38.9453 177.808 42.5689 178.004 42.7225C178.069 42.7737 178.146 42.7984 178.223 42.7984C178.328 42.7984 178.433 42.7517 178.503 42.6623C178.624 42.5072 178.597 42.2832 178.443 42.1621Z" fill="#263238"/>
<path d="M170.668 43.5382C169.322 44.3663 169.021 47.0474 169.008 47.161C168.987 47.3566 169.129 47.5319 169.324 47.5529C169.337 47.5544 169.35 47.5547 169.362 47.5547C169.542 47.5547 169.696 47.4194 169.716 47.2369C169.788 46.5587 170.168 44.6811 171.041 44.1443C171.755 43.7046 173.301 45.1593 173.937 45.9325C174.062 46.0843 174.286 46.106 174.438 45.9815C174.59 45.8566 174.612 45.6326 174.487 45.4809C174.248 45.1889 172.104 42.654 170.668 43.5382Z" fill="#263238"/>
<path d="M168.153 39.3951C167.963 39.4449 167.85 39.6389 167.899 39.8288C167.904 39.8456 168.324 41.5176 167.633 43.2445C166.96 44.9277 165.657 45.447 165.599 45.4691C165.416 45.5386 165.323 45.7431 165.392 45.9267C165.445 46.0695 165.581 46.1578 165.725 46.1578C165.766 46.1578 165.809 46.1503 165.85 46.135C165.917 46.1099 167.499 45.4971 168.294 43.5089C169.075 41.5569 168.608 39.7256 168.587 39.6486C168.537 39.4587 168.344 39.3454 168.153 39.3951Z" fill="#263238"/>
<path d="M167.008 20.9098C169.209 20.3782 172.544 20.0492 175.938 21.5035C175.984 21.523 176.031 21.5323 176.078 21.5323C176.216 21.5323 176.347 21.4516 176.405 21.3166C176.482 21.136 176.399 20.9266 176.218 20.8492C172.644 19.3179 169.146 19.6607 166.841 20.2181C166.65 20.2641 166.532 20.4567 166.578 20.6477C166.624 20.8384 166.816 20.9562 167.008 20.9098Z" fill="#263238"/>
<path d="M164.512 21.7191C164.563 21.7191 164.615 21.7083 164.664 21.6848C164.668 21.6833 165.006 21.5236 165.591 21.3225C165.777 21.2585 165.876 21.0559 165.812 20.8701C165.748 20.6843 165.546 20.5852 165.359 20.6495C164.733 20.8648 164.374 21.035 164.359 21.0421C164.181 21.1266 164.106 21.3385 164.19 21.5161C164.251 21.644 164.379 21.7191 164.512 21.7191Z" fill="#263238"/>
<path d="M82.5719 88.0425C82.5719 88.0425 82.9457 90.0988 83.4131 90.8466C83.8804 91.5943 85.189 92.4356 85.2824 94.0245C85.3759 95.6135 85.2824 97.2024 85.2824 97.2024C85.2824 97.2024 89.3016 99.6326 92.573 101.315C95.8444 102.998 98.6485 103.839 98.6485 103.839L97.7138 111.597C97.7138 111.597 87.8061 104.68 85.4694 102.53C83.1327 100.38 80.9829 97.9502 80.609 97.8567C80.2351 97.7633 77.2441 93.6506 77.1507 93.1833C77.0572 92.716 78.5527 91.7813 79.02 91.8747C79.4874 91.9682 80.0482 90.8466 80.3286 89.9119C80.609 88.9772 80.609 87.8556 81.2633 87.8556C81.9176 87.8556 82.5719 88.0425 82.5719 88.0425Z" fill="white" stroke="#263238" stroke-miterlimit="10" stroke-linecap="round" stroke-linejoin="round"/>
<path d="M68.9988 88.1312L80.4834 99.7789C80.8281 100.128 81.3714 100.185 81.7811 99.915L84.7351 97.9652C85.266 97.6149 85.3543 96.8717 84.9202 96.4066L74.4457 85.184C74.1601 84.8778 73.7167 84.7757 73.3256 84.926L69.3614 86.4507C68.6705 86.7165 68.4791 87.6041 68.9988 88.1312Z" fill="#263238" stroke="#263238" stroke-miterlimit="10" stroke-linecap="round" stroke-linejoin="round"/>
<path d="M92.7979 126.132C96.7202 127.49 100.931 128.229 105.316 128.229C111.519 128.229 117.373 126.747 122.555 124.127C122.795 120.798 122.95 116.787 122.95 115.33C122.95 112.806 125.1 103.459 126.222 98.4122C127.343 93.3649 125.848 87.7568 124.539 82.429C123.231 77.1013 118.09 73.4561 118.09 73.4561L105.378 79.5315C105.378 79.5315 95.8446 88.0372 95.0033 92.6171C94.1621 97.1971 97.527 101.403 97.527 102.431C97.527 103.281 94.0171 119.828 92.7979 126.132Z" fill="#0080FF" stroke="#263238" stroke-miterlimit="10" stroke-linecap="round" stroke-linejoin="round"/>
<path d="M118.33 102.5C118.33 102.5 123.148 98.9338 123.534 98.7408" stroke="#263238" stroke-miterlimit="10" stroke-linecap="round" stroke-linejoin="round"/>
<path d="M117.366 104.14L122.667 102.983" stroke="#263238" stroke-miterlimit="10" stroke-linecap="round" stroke-linejoin="round"/>
<path d="M103.416 72.5251L104.537 74.8618L114.632 68.1321L111.921 64.3933L102.948 71.8708L103.416 72.5251Z" fill="#263238" stroke="#263238" stroke-miterlimit="10" stroke-linecap="round" stroke-linejoin="round"/>
<path d="M113.381 67.1556L103.614 74.008C103.061 74.3961 102.852 75.1162 103.111 75.7402L105.098 80.5198C105.392 81.2287 106.25 81.5072 106.905 81.1064L118.232 74.1714C118.859 73.7878 119.021 72.9492 118.583 72.3592L114.897 67.4002C114.541 66.9216 113.869 66.8136 113.381 67.1556Z" fill="#0080FF" stroke="#263238" stroke-miterlimit="10" stroke-linecap="round" stroke-linejoin="round"/>
<path d="M88.9551 52.1457C88.9551 52.1457 89.2762 56.6404 90.2393 58.567C91.2024 60.4932 92.8079 62.4198 92.3263 63.2225C91.8448 64.0252 91.042 65.9514 92.1659 66.7541C93.2898 67.5568 94.2529 67.3964 94.2529 67.3964C94.2529 67.3964 97.0293 74.1123 98.9428 74.5034C102.267 75.1834 107.417 69.1622 107.898 69.0014C108.38 68.841 112.554 65.9514 112.874 62.2594C113.196 58.567 111.269 53.2696 109.664 52.6276C108.059 51.9857 104.687 52.788 101.798 51.6645C98.908 50.5403 89.597 47.8114 88.9551 52.1457Z" fill="white" stroke="#263238" stroke-miterlimit="10" stroke-linecap="round" stroke-linejoin="round"/>
<path d="M94.0923 60.1729L94.5738 61.6175C94.5738 61.6175 96.3396 62.0991 97.4635 60.4936" stroke="#263238" stroke-miterlimit="10" stroke-linecap="round" stroke-linejoin="round"/>
<path d="M92.8989 57.9622C92.8989 57.9622 93.73 56.5269 96.4496 57.2825" stroke="#263238" stroke-miterlimit="10" stroke-linecap="round" stroke-linejoin="round"/>
<path d="M95.4673 68.3834C95.4673 68.3834 96.4495 68.3079 96.9781 67.8547" stroke="#263238" stroke-miterlimit="10" stroke-linecap="round" stroke-linejoin="round"/>
<path d="M87.8314 42.8439C87.8314 42.8439 84.6209 46.2152 85.1024 48.9441C85.584 51.673 89.1156 54.2415 91.0422 54.2415C92.9684 54.2415 94.0923 53.76 96.5 53.76C98.9078 53.76 101.476 55.5258 102.44 56.4889C103.403 57.452 104.687 58.7362 105.49 57.452C106.293 56.1677 105.811 55.0442 109.021 55.365C112.232 55.6862 111.59 60.6624 110.466 63.0705C109.342 65.4787 108.54 66.7626 107.256 66.7626C105.971 66.7626 104.206 65.9598 105.169 67.4049C106.132 68.8495 109.021 72.2207 115.603 70.9365C122.185 69.6522 124.272 64.1944 124.272 60.9836C124.272 57.7731 122.024 52.9572 120.419 49.586C118.814 46.2148 115.603 39.1516 107.737 36.9042C99.8712 34.6568 91.0422 37.5461 87.8314 42.8439Z" fill="#263238" stroke="#263238" stroke-miterlimit="10" stroke-linecap="round" stroke-linejoin="round"/>
<path d="M105.514 58.6468C105.514 58.6468 105.363 55.4741 107.251 54.8696C109.14 54.2654 111.029 55.3982 111.104 57.6646C111.18 59.9311 110.878 62.273 110.047 63.1038C109.215 63.9349 106.949 63.2548 106.949 63.2548" fill="white"/>
<path d="M105.514 58.6468C105.514 58.6468 105.363 55.4741 107.251 54.8696C109.14 54.2654 111.029 55.3982 111.104 57.6646C111.18 59.9311 110.878 62.273 110.047 63.1038C109.215 63.9349 106.949 63.2548 106.949 63.2548" stroke="#263238" stroke-miterlimit="10" stroke-linecap="round" stroke-linejoin="round"/>
<path d="M112.482 81.8676C112.482 81.8676 107.902 85.2324 106.967 89.345C106.032 93.4577 103.789 105.141 103.789 105.141C103.789 105.141 102.294 104.954 102.294 105.328C102.294 105.702 101.92 106.73 101.92 106.73C101.92 106.73 100.705 106.73 100.611 107.198C100.518 107.665 90.5165 102.524 87.9929 100.842C85.4692 99.1592 82.2913 96.8225 81.7305 96.0748C81.1697 95.327 79.2068 92.9903 78.1787 92.0556C77.1505 91.1209 75.0942 89.8124 74.7203 89.532C74.3465 89.2516 73.7857 86.8214 72.9444 87.1953C72.1032 87.5691 72.2902 89.2516 72.664 89.9059C73.0379 90.5601 74.5334 93.2707 74.5334 93.2707C74.5334 93.2707 71.3555 93.5511 70.7012 94.0185C70.0469 94.4858 69.673 96.0748 70.4208 96.6356C71.1685 97.1964 72.851 97.3833 72.851 97.3833C72.851 97.3833 73.3183 99.7201 74.253 100.374C75.1877 101.029 76.7766 101.683 77.6179 102.057C78.4591 102.431 81.3566 102.524 81.3566 102.524C81.3566 102.524 85.2823 106.917 87.9929 109.628C90.7035 112.338 101.359 120.003 102.948 120.564C104.537 121.124 106.406 119.909 107.06 118.975C107.715 118.04 118.651 102.618 121.268 97.4768" fill="white"/>
<path d="M112.482 81.8676C112.482 81.8676 107.902 85.2324 106.967 89.345C106.032 93.4577 103.789 105.141 103.789 105.141C103.789 105.141 102.294 104.954 102.294 105.328C102.294 105.702 101.92 106.73 101.92 106.73C101.92 106.73 100.705 106.73 100.611 107.198C100.518 107.665 90.5165 102.524 87.9929 100.842C85.4692 99.1592 82.2913 96.8225 81.7305 96.0748C81.1697 95.327 79.2068 92.9903 78.1787 92.0556C77.1505 91.1209 75.0942 89.8124 74.7203 89.532C74.3465 89.2516 73.7857 86.8214 72.9444 87.1953C72.1032 87.5691 72.2902 89.2516 72.664 89.9059C73.0379 90.5601 74.5334 93.2707 74.5334 93.2707C74.5334 93.2707 71.3555 93.5511 70.7012 94.0185C70.0469 94.4858 69.673 96.0748 70.4208 96.6356C71.1685 97.1964 72.851 97.3833 72.851 97.3833C72.851 97.3833 73.3183 99.7201 74.253 100.374C75.1877 101.029 76.7766 101.683 77.6179 102.057C78.4591 102.431 81.3566 102.524 81.3566 102.524C81.3566 102.524 85.2823 106.917 87.9929 109.628C90.7035 112.338 101.359 120.003 102.948 120.564C104.537 121.124 106.406 119.909 107.06 118.975C107.715 118.04 118.651 102.618 121.268 97.4768" stroke="#263238" stroke-miterlimit="10" stroke-linecap="round" stroke-linejoin="round"/>
<path d="M112.481 81.8676C112.481 81.8676 107.902 85.2324 106.967 89.345C106.032 93.4577 103.789 105.141 103.789 105.141C103.789 105.141 102.293 104.954 102.293 105.328C102.293 105.702 101.92 106.73 101.92 106.73C101.92 106.73 100.704 106.73 100.611 107.198C100.567 107.417 98.3363 106.399 95.7218 105.083L91.5815 112.661C95.7876 115.953 101.786 120.154 102.948 120.564C104.537 121.124 106.406 119.909 107.06 118.975C107.704 118.055 119.165 102.285 122.001 96.9055" fill="#0080FF"/>
<path d="M112.481 81.8676C112.481 81.8676 107.902 85.2324 106.967 89.345C106.032 93.4577 103.789 105.141 103.789 105.141C103.789 105.141 102.293 104.954 102.293 105.328C102.293 105.702 101.92 106.73 101.92 106.73C101.92 106.73 100.704 106.73 100.611 107.198C100.567 107.417 98.3363 106.399 95.7218 105.083L91.5815 112.661C95.7876 115.953 101.786 120.154 102.948 120.564C104.537 121.124 106.406 119.909 107.06 118.975C107.704 118.055 119.165 102.285 122.001 96.9055" stroke="#263238" stroke-miterlimit="10" stroke-linecap="round" stroke-linejoin="round"/>
<path d="M82.2916 88.9722C82.2916 88.9722 81.0765 92.2436 80.5157 92.524C79.9549 92.8044 79.3941 92.7109 79.0202 91.8697C78.6463 91.0285 79.8614 88.4114 79.8614 88.4114C79.8614 88.4114 80.2353 87.1963 81.3569 87.1963C82.4785 87.1963 82.572 88.0375 82.572 88.0375L82.2916 88.9722Z" fill="white" stroke="#263238" stroke-miterlimit="10" stroke-linecap="round" stroke-linejoin="round"/>
<path d="M39.2713 29.6589L30.3171 31.2347L30.3137 31.2685C30.2168 32.2693 29.7155 32.9961 29.0399 33.1152L28.6511 33.1835C27.9754 33.3024 27.2563 32.7902 26.8234 31.8829L26.8088 31.8521L17.8546 33.4279C15.3607 33.8668 13.6946 36.2441 14.1336 38.7381L24.161 97.8005C24.4131 99.2316 25.7771 100.188 27.2082 99.9356L52.4737 95.4892C53.9048 95.2371 54.8609 93.8731 54.6088 92.442L44.5814 33.3796C44.1426 30.886 41.7653 29.22 39.2713 29.6589Z" fill="#06BCFF" stroke="#263238" stroke-miterlimit="10" stroke-linecap="round" stroke-linejoin="round"/>
<path d="M44.8126 34.6953L44.581 33.3795C44.142 30.8856 41.7647 29.2195 39.2708 29.6585L30.3166 31.2342L30.3132 31.2681C30.2162 32.2689 29.7149 32.9956 29.0393 33.1148L28.6506 33.1831C27.9749 33.3019 27.2557 32.7898 26.8229 31.8825L26.8083 31.8517L17.8541 33.4275C15.3601 33.8664 13.6941 36.2437 14.1331 38.7377L14.3647 40.0535L44.8126 34.6953Z" fill="white" stroke="#263238" stroke-miterlimit="10" stroke-linecap="round" stroke-linejoin="round"/>
<path d="M49.6618 52.9864L48.6549 47.2641L48.1371 47.355L45.8187 32.0976C45.3797 29.6037 43.0021 27.9378 40.5085 28.3766L16.2534 32.6452C13.7594 33.0841 12.0934 35.4614 12.5323 37.9554L22.8593 98.7204C23.2983 101.214 25.676 102.88 28.1696 102.441L52.4247 98.1728C54.9186 97.7339 56.5845 95.3562 56.1457 92.8626L50.0022 57.954L50.5199 57.863L49.9248 54.4817L49.4071 54.5727L49.1439 53.077L49.6618 52.9864ZM54.1592 89.8873C54.5981 92.3813 52.9321 94.7586 50.4381 95.1975L29.0215 98.9665C26.5275 99.4055 24.1502 97.7394 23.7112 95.2455L14.1334 38.738C13.6944 36.2441 15.3605 33.8668 17.8544 33.4278L26.8086 31.8521L26.8232 31.8828C27.2562 32.7906 27.9752 33.3023 28.6509 33.1835L29.0397 33.1152C29.7154 32.9964 30.2167 32.2696 30.3135 31.2684L30.3169 31.2346L39.2711 29.6588C41.7651 29.2199 44.1424 30.8859 44.5813 33.3799L54.1592 89.8873Z" fill="#707070" stroke="#263238" stroke-miterlimit="10" stroke-linecap="round" stroke-linejoin="round"/>
<path d="M39.8269 29.1383L17.1542 33.1283C14.5121 33.5935 12.7474 36.1121 13.2122 38.7543L23.2259 97.7386C23.691 100.381 26.2096 102.145 28.8519 101.681L51.5245 97.6906C54.1666 97.2254 55.9313 94.7068 55.4667 92.0649L45.453 33.0807C44.9877 30.4382 42.469 28.6732 39.8269 29.1383ZM54.1591 89.8873C54.5981 92.3812 52.932 94.7585 50.4381 95.1975L29.0214 98.9665C26.5275 99.4054 24.1502 97.7394 23.7112 95.2454L14.1334 38.738C13.6944 36.244 15.3604 33.8667 17.8544 33.4278L26.8086 31.852L26.8232 31.8828C27.2562 32.7905 27.9752 33.3023 28.6509 33.1834L29.0396 33.1152C29.7154 32.9963 30.2167 32.2696 30.3135 31.2684L30.3169 31.2346L39.2711 29.6588C41.765 29.2199 44.1423 30.8859 44.5813 33.3799L54.1591 89.8873Z" fill="#263238" stroke="#263238" stroke-miterlimit="10" stroke-linecap="round" stroke-linejoin="round"/>
<path d="M28.9317 31.7015C28.8904 31.4673 28.6671 31.311 28.4333 31.3522C28.1991 31.3935 28.0426 31.6164 28.0839 31.8506C28.1252 32.0848 28.3485 32.2411 28.5823 32.2C28.8163 32.1591 28.9727 31.9358 28.9317 31.7015Z" fill="#707070"/>
<path d="M16.3686 35.5874C16.4443 36.0163 15.9895 36.2556 16.0454 36.5832L16.0493 36.6055L16.5165 36.5232L16.5421 36.6675L15.9181 36.7775L15.8968 36.6554C15.8158 36.196 16.282 36.022 16.2114 35.6216C16.1856 35.4754 16.1233 35.4069 16.0055 35.4274C15.8898 35.4479 15.8535 35.5401 15.8754 35.6661L15.8977 35.792L15.7496 35.8182L15.729 35.7025C15.6907 35.4851 15.7648 35.3231 15.9842 35.2845C16.2059 35.2454 16.3303 35.37 16.3686 35.5874Z" fill="#263238"/>
<path d="M17.1473 35.4483L17.1536 35.4847C17.1795 35.6308 17.139 35.7451 17.0326 35.8076C17.1604 35.8312 17.232 35.9296 17.2572 36.0719L17.2764 36.1818C17.3147 36.3992 17.2382 36.5592 17.0185 36.598C16.8011 36.6363 16.6745 36.5117 16.6362 36.2943L16.6191 36.1965L16.7673 36.1703L16.786 36.2779C16.8084 36.4062 16.875 36.4739 16.9889 36.4541C17.1045 36.4335 17.1423 36.3495 17.1168 36.2053L17.0976 36.0954C17.0727 35.955 17.002 35.8984 16.8812 35.9155L16.7959 35.9304L16.7711 35.788L16.8646 35.7716C16.9694 35.749 17.0231 35.6706 17.0011 35.5467L16.9897 35.4814C16.9638 35.3352 16.8999 35.2689 16.7841 35.2891C16.6702 35.309 16.6313 35.3976 16.654 35.5258L16.6668 35.5989L16.5186 35.6251L16.5073 35.5602C16.469 35.3428 16.5459 35.1847 16.7633 35.1464C16.9825 35.1087 17.109 35.2309 17.1473 35.4483Z" fill="#263238"/>
<path d="M17.4732 35.5021L17.508 35.6992L17.3555 35.7262L17.3208 35.5291L17.4732 35.5021ZM17.6094 36.2764L17.6442 36.4734L17.4917 36.5004L17.457 36.3034L17.6094 36.2764Z" fill="#263238"/>
<path d="M17.817 35.5738C17.8481 35.4886 17.9122 35.4355 18.0076 35.4188C18.1906 35.3865 18.2954 35.5065 18.3313 35.7098L18.3802 35.9882C18.4185 36.2056 18.34 36.366 18.1226 36.4043C17.9052 36.4426 17.7783 36.3181 17.74 36.1007L17.7234 36.0052L17.8715 35.979L17.8903 36.0845C17.9127 36.2128 17.9793 36.2805 18.093 36.2603C18.2069 36.2405 18.2462 36.1538 18.2237 36.0255L18.1751 35.749C18.1528 35.6211 18.0861 35.553 17.9724 35.5732C17.8851 35.5884 17.8346 35.6476 17.8387 35.7541L17.8444 35.7866L17.6962 35.8128L17.5959 35.0153L18.1566 34.9167L18.1819 35.059L17.7631 35.1329L17.817 35.5738Z" fill="#263238"/>
<path d="M19.0413 35.113L19.046 35.1396L18.8978 35.1658L18.8915 35.1294C18.8691 35.0011 18.8028 34.9353 18.6871 34.9558C18.567 34.9768 18.5278 35.0635 18.5547 35.2159L18.6108 35.535C18.6321 35.4306 18.7 35.3623 18.8137 35.342C18.9967 35.3097 19.1011 35.4278 19.1373 35.633L19.1753 35.8485C19.2136 36.0659 19.1305 36.2271 18.9131 36.2654C18.6937 36.3041 18.5609 36.1805 18.5226 35.9631L18.3948 35.2374C18.3551 35.0118 18.4322 34.8536 18.6579 34.8139C18.8771 34.7749 19.0034 34.8955 19.0413 35.113ZM18.6454 35.7317L18.6831 35.9452C18.7055 36.0735 18.7721 36.1413 18.8877 36.1207C19.0015 36.1005 19.0428 36.0139 19.0204 35.8856L18.9828 35.6721C18.9603 35.5438 18.8918 35.4763 18.7781 35.4966C18.6619 35.5169 18.6226 35.6035 18.6454 35.7317Z" fill="#263238"/>
<path d="M34.5917 32.4402L34.1899 32.5109L34.3667 33.5153L34.7685 33.4446L34.5917 32.4402Z" fill="#263238"/>
<path d="M35.0883 32.1439L34.6865 32.2146L34.8988 33.4203L35.3006 33.3496L35.0883 32.1439Z" fill="#263238"/>
<path d="M35.599 31.9068L35.1973 31.9775L35.4347 33.3261L35.8364 33.2554L35.599 31.9068Z" fill="#263238"/>
<path d="M36.0907 31.5644L35.689 31.6351L35.97 33.2318L36.3718 33.1611L36.0907 31.5644Z" fill="#263238"/>
<path d="M41.3354 32.2609L38.9251 32.6852L38.666 31.2121L41.0762 30.7879L41.3354 32.2609ZM39.0356 32.5277L41.1781 32.1508L40.9659 30.9457L38.8234 31.3226L39.0356 32.5277Z" fill="#263238"/>
<path d="M40.3249 31.2015L39.0527 31.4254L39.2136 32.3392L40.4857 32.1152L40.3249 31.2015Z" fill="#263238"/>
<path d="M41.3978 31.3142L41.0947 31.3676L41.1558 31.7144L41.4588 31.661L41.3978 31.3142Z" fill="#263238"/>
<path d="M37.985 32.5202C37.9693 32.5228 37.9526 32.5216 37.9365 32.5156C37.3948 32.3104 37.1183 32.6381 37.1065 32.6521C37.0747 32.6913 37.0171 32.6969 36.9781 32.6654C36.9389 32.6336 36.9323 32.5768 36.9642 32.5376C36.9788 32.5191 37.3307 32.0911 38.0015 32.345C38.0488 32.3629 38.0725 32.4156 38.0546 32.4629C38.043 32.494 38.0155 32.5148 37.985 32.5202Z" fill="#263238"/>
<path d="M38.1134 32.1858C38.0977 32.1884 38.081 32.1872 38.0653 32.1811C37.2818 31.884 36.877 32.376 36.8726 32.381C36.8413 32.4204 36.7836 32.4268 36.7441 32.3951C36.7047 32.3638 36.6982 32.3062 36.7299 32.2666C36.735 32.2601 37.2231 31.6668 38.1301 32.01C38.1774 32.028 38.2011 32.0807 38.1832 32.128C38.1709 32.1593 38.1439 32.1804 38.1134 32.1858Z" fill="#263238"/>
<path d="M38.2162 31.8063C38.2005 31.8089 38.1838 31.8078 38.1677 31.8018C37.1757 31.4258 36.6668 32.0336 36.6456 32.06C36.6137 32.0992 36.5563 32.1051 36.5173 32.0737C36.4782 32.0422 36.4719 31.9849 36.5032 31.9455C36.5091 31.9379 37.1119 31.206 38.2327 31.6311C38.28 31.649 38.3037 31.7018 38.2858 31.749C38.2742 31.7801 38.2467 31.801 38.2162 31.8063Z" fill="#263238"/>
<path d="M37.7409 32.7189C37.7628 32.8436 37.6794 32.9625 37.5547 32.9844C37.4299 33.0063 37.3111 32.9229 37.2892 32.7982C37.2673 32.6734 37.3507 32.5546 37.4754 32.5327C37.5998 32.5109 37.7186 32.5943 37.7409 32.7189Z" fill="#263238"/>
<path d="M47.0431 74.5799L25.8228 78.3145C24.6903 78.5136 23.6111 77.7573 23.4121 76.6252L20.2776 58.8134C20.0784 57.6809 20.8347 56.6017 21.9667 56.4023L43.187 52.6678C44.3195 52.4687 45.3987 53.225 45.5979 54.3574L48.7324 72.1692C48.9317 73.3012 48.1752 74.3809 47.0431 74.5799Z" fill="white" stroke="#263238" stroke-miterlimit="10"/>
<path d="M24.6813 52.5328L23.6875 50.6816L24.0422 50.6192L24.7844 52.0407L25.001 50.4505L25.3244 50.3936L25.0185 52.4737L25.2118 53.5721L24.8746 53.6312L24.6813 52.5328Z" fill="#263238"/>
<path d="M25.6088 51.1063C25.5265 50.6378 25.7051 50.2951 26.1737 50.2128C26.6461 50.1298 26.9312 50.3908 27.0138 50.8591L27.2928 52.4436C27.3746 52.9076 27.1965 53.2548 26.7237 53.3378C26.2552 53.4201 25.9696 53.1548 25.8878 52.6907L25.6088 51.1063ZM26.2277 52.6488C26.2768 52.9289 26.4238 53.07 26.6691 53.0269C26.9186 52.9831 27.0038 52.801 26.9543 52.5211L26.6693 50.9019C26.6209 50.6262 26.4778 50.4799 26.2283 50.5237C25.983 50.5667 25.8939 50.754 25.9427 51.0296L26.2277 52.6488Z" fill="#263238"/>
<path d="M27.9439 52.347C27.9923 52.6228 28.1311 52.7699 28.3806 52.7261C28.6258 52.683 28.706 52.4974 28.6573 52.2218L28.2453 49.8803L28.5652 49.824L28.9742 52.1478C29.056 52.6119 28.8958 52.9602 28.4235 53.0435C27.955 53.1258 27.6858 52.8529 27.6045 52.3891L27.1955 50.0652L27.5321 50.0059L27.9439 52.347Z" fill="#263238"/>
<path d="M29.5856 49.6439C30.067 49.5592 30.3113 49.7689 30.3915 50.2241L30.4353 50.4736C30.4945 50.8107 30.4132 51.0418 30.1652 51.1709C30.46 51.2046 30.605 51.4141 30.6628 51.7421L30.7467 52.2192C30.7706 52.3549 30.7971 52.4808 30.8725 52.5761L30.5268 52.6368C30.472 52.5562 30.4404 52.4806 30.4044 52.2748L30.3198 51.7935C30.259 51.4478 30.0777 51.3668 29.793 51.4169L29.5526 51.4594L29.7827 52.7678L29.4413 52.8277L28.902 49.764L29.5856 49.6439ZM29.7522 51.1037C30.0235 51.0558 30.1702 50.94 30.1115 50.6073L30.0598 50.3141C30.0115 50.0383 29.8853 49.9114 29.6311 49.9562L29.2988 50.0147L29.4984 51.1483L29.7522 51.1037Z" fill="#263238"/>
<path d="M32.7894 49.843L32.8378 50.1187L32.514 50.1757L32.4623 49.8824C32.4136 49.6068 32.2751 49.4596 32.0256 49.5034C31.7804 49.5464 31.696 49.7328 31.7443 50.0085L32.0294 51.6278C32.0777 51.9035 32.2208 52.0498 32.4661 52.0068C32.7156 51.963 32.7957 51.7774 32.747 51.5018L32.6769 51.1037L33.0006 51.0468L33.0676 51.4276C33.1495 51.8917 32.9845 52.2363 32.5114 52.3196C32.0434 52.4021 31.7707 52.1343 31.6888 51.6702L31.4099 50.0858C31.3282 49.6221 31.493 49.2771 31.9613 49.1945C32.4352 49.111 32.708 49.3791 32.7894 49.843Z" fill="#263238"/>
<path d="M33.0748 49.7925C32.9926 49.3244 33.1711 48.9813 33.6396 48.899C34.1124 48.8159 34.3975 49.0769 34.4801 49.5453L34.7591 51.1297C34.8409 51.5938 34.6628 51.9409 34.19 52.024C33.7215 52.1063 33.4359 51.8409 33.3541 51.3768L33.0748 49.7925ZM33.6936 51.3351C33.7428 51.6151 33.8898 51.7562 34.1346 51.7134C34.3842 51.6695 34.4697 51.4873 34.4202 51.2074L34.1352 49.5882C34.0868 49.3125 33.9433 49.1663 33.6938 49.2101C33.4491 49.2533 33.3599 49.4403 33.4086 49.7159L33.6936 51.3351Z" fill="#263238"/>
<path d="M35.3921 48.6222C35.8692 48.5383 36.1389 48.7884 36.222 49.2612L36.4939 50.8062C36.5764 51.2742 36.4083 51.6016 35.9312 51.6855L35.2137 51.8119L34.6745 48.7482L35.3921 48.6222ZM35.8721 51.3759C36.1173 51.3329 36.2081 51.1587 36.1589 50.8787L35.8817 49.3032C35.8326 49.0232 35.6875 48.8905 35.438 48.9343L35.0705 48.9992L35.5002 51.4412L35.8721 51.3759Z" fill="#263238"/>
<path d="M37.7364 49.6082L37.7905 49.9144L37.0421 50.0462L37.2338 51.136L38.1528 50.9745L38.2074 51.2854L36.9471 51.5072L36.4079 48.4435L37.6682 48.2217L37.7228 48.5326L36.8038 48.6941L36.988 49.74L37.7364 49.6082Z" fill="#263238"/>
<path d="M26.8787 64.9422C27.0052 64.5963 27.2653 64.3804 27.6532 64.312C28.3966 64.1812 28.8225 64.6682 28.9677 65.4937L29.1669 66.6249C29.3223 67.5083 29.003 68.1605 28.1193 68.3161C27.236 68.4716 26.7213 67.9662 26.5658 67.0829L26.4976 66.6945L27.1006 66.5883L27.176 67.0177C27.2675 67.5382 27.5375 67.8141 27.9996 67.7325C28.4622 67.6512 28.6216 67.2995 28.53 66.7791L28.3323 65.6561C28.2407 65.1356 27.9708 64.8597 27.5083 64.9414C27.1533 65.004 26.9488 65.2443 26.9647 65.6754L26.9882 65.8075L26.3856 65.9136L25.9773 62.6738L28.2565 62.2725L28.3582 62.8505L26.6569 63.15L26.8787 64.9422Z" fill="#263238"/>
<path d="M31.8532 63.0707L31.8723 63.1781L31.2694 63.2843L31.2434 63.1357C31.152 62.6156 30.8835 62.3479 30.4127 62.4307C29.9254 62.5163 29.766 62.868 29.8748 63.4875L30.1028 64.7838C30.19 64.3598 30.4645 64.0817 30.9271 64.0004C31.6701 63.8698 32.0949 64.348 32.2417 65.1821L32.3958 66.0576C32.5513 66.9409 32.2156 67.596 31.3319 67.7517C30.44 67.9087 29.9006 67.4076 29.7452 66.5243L29.2265 63.5763C29.0651 62.6598 29.378 62.017 30.2947 61.856C31.1859 61.6983 31.6976 62.187 31.8532 63.0707ZM30.2435 65.5843L30.3961 66.4512C30.4877 66.9716 30.758 67.2474 31.2284 67.1648C31.6906 67.0832 31.8586 66.7303 31.767 66.2099L31.6144 65.343C31.523 64.8229 31.2444 64.5482 30.7822 64.6298C30.3118 64.7124 30.152 65.0642 30.2435 65.5843Z" fill="#263238"/>
<path d="M35.0656 62.5051L35.0847 62.6126L34.4818 62.7188L34.4558 62.5701C34.3644 62.05 34.0959 61.7824 33.6251 61.8651C33.1378 61.9508 32.9785 62.3024 33.0872 62.9219L33.3152 64.2182C33.4024 63.7942 33.6769 63.5161 34.1395 63.4348C34.8825 63.3042 35.3073 63.7825 35.4541 64.6165L35.6082 65.492C35.7637 66.3753 35.428 67.0305 34.5443 67.1861C33.6524 67.3432 33.113 66.8421 32.9576 65.9588L32.4389 63.0107C32.2775 62.0942 32.5904 61.4515 33.5071 61.2904C34.3981 61.1333 34.9101 61.6218 35.0656 62.5051ZM33.456 65.0191L33.6086 65.886C33.7002 66.4065 33.9705 66.6822 34.441 66.5996C34.9032 66.5184 35.0712 66.1652 34.9796 65.6447L34.827 64.7778C34.7355 64.2577 34.4573 63.9829 33.9952 64.0644C33.524 64.1473 33.3646 64.499 33.456 65.0191Z" fill="#263238"/>
<path d="M38.2789 61.9483L38.7976 64.8963C38.959 65.8128 38.6475 66.4638 37.7226 66.6263C36.8393 66.7817 36.3178 66.286 36.1623 65.4026L36.1432 65.2952L36.7458 65.1891L36.7719 65.3381C36.8634 65.8582 37.1404 66.1243 37.6027 66.0431C38.0981 65.956 38.2575 65.6044 38.15 64.9936L37.922 63.6973C37.8351 64.1211 37.5592 64.3911 37.0965 64.4724C36.3535 64.603 35.9303 64.1329 35.7835 63.2989L35.6278 62.4152C35.4723 61.5318 35.8013 60.8864 36.6929 60.7294C37.5855 60.5721 38.1238 61.0648 38.2789 61.9483ZM36.2585 62.27L36.4111 63.137C36.5026 63.657 36.7808 63.9319 37.243 63.8503C37.7138 63.7676 37.8732 63.4159 37.7816 62.8954L37.629 62.0285C37.5359 61.4999 37.2675 61.2322 36.7971 61.3152C36.3345 61.3965 36.1655 61.7414 36.2585 62.27Z" fill="#263238"/>
<path d="M41.5443 61.3479L41.5762 61.5298C41.6794 62.116 41.5488 62.5818 41.1248 62.8354C41.6371 62.9409 41.8987 63.363 42.0004 63.9409L42.0758 64.3704C42.2328 65.2623 41.8676 65.8969 40.9679 66.0553C40.0678 66.2138 39.5078 65.7418 39.3507 64.8499L39.2753 64.4205C39.1721 63.8343 39.2766 63.3646 39.7291 63.0806C39.2264 62.9815 38.9543 62.5955 38.851 62.009L38.8191 61.8271C38.662 60.9352 39.0385 60.3159 39.9304 60.1589C40.8222 60.0027 41.3874 60.4564 41.5443 61.3479ZM39.4584 61.7321L39.5078 62.0129C39.6066 62.5744 39.9223 62.7741 40.3767 62.6943C40.8307 62.6145 41.0597 62.3186 40.9608 61.7571L40.9114 61.4764C40.8066 60.8817 40.4863 60.6574 40.0322 60.7372C39.578 60.8174 39.3537 61.1378 39.4584 61.7321ZM39.8988 64.2343L39.9844 64.7216C40.0891 65.3159 40.4024 65.5503 40.8651 65.469C41.3272 65.3874 41.5339 65.0616 41.4375 64.4658L41.3518 63.9785C41.253 63.417 40.9576 63.1883 40.4786 63.2726C39.9995 63.3568 39.7999 63.6728 39.8988 64.2343Z" fill="#263238"/>
<path d="M27.5513 83.0305L47.5156 79.517" stroke="#263238" stroke-miterlimit="10"/>
<path d="M28.2368 86.9259L48.2013 83.4128" stroke="#263238" stroke-miterlimit="10"/>
<path d="M52.5442 57.8876L56.7843 55.4856" stroke="#263238" stroke-miterlimit="10"/>
<path d="M53.8232 63.3468L56.5113 63.1191" stroke="#263238" stroke-miterlimit="10"/>
<path d="M54.147 68.3757L59.8338 69.7843" stroke="#263238" stroke-miterlimit="10"/>
</svg>
