<svg width="25" height="25" viewBox="0 0 25 25" fill="none" xmlns="http://www.w3.org/2000/svg">
<path d="M20.7391 24.2165C20.6017 24.2165 20.4666 24.165 20.3625 24.067L17.6566 21.5216L15.3787 24.0362C15.2729 24.1528 15.1299 24.2336 14.9621 24.2165C14.8037 24.2136 14.6543 24.1428 14.552 24.0212L12.5001 21.5896L10.4482 24.0212C10.346 24.1428 10.1965 24.2136 10.0381 24.2165C9.89577 24.2329 9.72806 24.1528 9.62149 24.0362L7.34363 21.5216L4.63772 24.067C4.47752 24.2172 4.24401 24.2572 4.0434 24.1714C3.84208 24.0841 3.71191 23.886 3.71191 23.6672V2.88676C3.71191 1.72601 4.65632 0.78125 5.81742 0.78125H19.1828C20.3439 0.78125 21.2883 1.72601 21.2883 2.88676V23.6672C21.2883 23.886 21.1582 24.0841 20.9568 24.1714C20.8867 24.2014 20.8127 24.2165 20.7391 24.2165ZM12.5001 20.1885C12.6621 20.1885 12.8155 20.26 12.9199 20.3838L14.9865 22.8326L17.2186 20.3688C17.3176 20.26 17.4564 20.195 17.6037 20.1892C17.7539 20.1757 17.8944 20.2364 18.002 20.338L20.1898 22.3963V2.88676C20.1898 2.33177 19.7382 1.87977 19.1828 1.87977H5.81742C5.26208 1.87977 4.81044 2.33177 4.81044 2.88676V22.3963L6.99819 20.338C7.10583 20.2364 7.24743 20.1735 7.39655 20.1892C7.54388 20.195 7.68262 20.26 7.78168 20.3688L10.0138 22.8326L12.0803 20.3838C12.1847 20.26 12.3381 20.1885 12.5001 20.1885Z" fill="black"/>
<path d="M15.1548 10.8485H6.09199C5.78875 10.8485 5.54272 10.6025 5.54272 10.2993C5.54272 9.99602 5.78875 9.75 6.09199 9.75H15.1548C15.4581 9.75 15.7041 9.99602 15.7041 10.2993C15.7041 10.6025 15.4581 10.8485 15.1548 10.8485Z" fill="black"/>
<path d="M15.1548 13.2626H6.09199C5.78875 13.2626 5.54272 13.0166 5.54272 12.7133C5.54272 12.4101 5.78875 12.1641 6.09199 12.1641H15.1548C15.4581 12.1641 15.7041 12.4101 15.7041 12.7133C15.7041 13.0166 15.4581 13.2626 15.1548 13.2626Z" fill="black"/>
<path d="M15.1548 15.6688H6.09199C5.78875 15.6688 5.54272 15.4228 5.54272 15.1196C5.54272 14.8163 5.78875 14.5703 6.09199 14.5703H15.1548C15.4581 14.5703 15.7041 14.8163 15.7041 15.1196C15.7041 15.4228 15.4581 15.6688 15.1548 15.6688Z" fill="black"/>
<path d="M15.1548 18.0829H6.09199C5.78875 18.0829 5.54272 17.8369 5.54272 17.5336C5.54272 17.2304 5.78875 16.9844 6.09199 16.9844H15.1548C15.4581 16.9844 15.7041 17.2304 15.7041 17.5336C15.7041 17.8369 15.4581 18.0829 15.1548 18.0829Z" fill="black"/>
<path d="M18.9083 10.8485H17.9013C17.5981 10.8485 17.3521 10.6025 17.3521 10.2993C17.3521 9.99602 17.5981 9.75 17.9013 9.75H18.9083C19.2115 9.75 19.4576 9.99602 19.4576 10.2993C19.4576 10.6025 19.2115 10.8485 18.9083 10.8485Z" fill="black"/>
<path d="M18.9083 13.2626H17.9013C17.5981 13.2626 17.3521 13.0166 17.3521 12.7133C17.3521 12.4101 17.5981 12.1641 17.9013 12.1641H18.9083C19.2115 12.1641 19.4576 12.4101 19.4576 12.7133C19.4576 13.0166 19.2115 13.2626 18.9083 13.2626Z" fill="black"/>
<path d="M18.9083 15.6688H17.9013C17.5981 15.6688 17.3521 15.4228 17.3521 15.1196C17.3521 14.8163 17.5981 14.5703 17.9013 14.5703H18.9083C19.2115 14.5703 19.4576 14.8163 19.4576 15.1196C19.4576 15.4228 19.2115 15.6688 18.9083 15.6688Z" fill="black"/>
<path d="M18.9083 18.0829H17.9013C17.5981 18.0829 17.3521 17.8369 17.3521 17.5336C17.3521 17.2304 17.5981 16.9844 17.9013 16.9844H18.9083C19.2115 16.9844 19.4576 17.2304 19.4576 17.5336C19.4576 17.8369 19.2115 18.0829 18.9083 18.0829Z" fill="black"/>
<path d="M18.9081 5.60634H6.09199C5.78875 5.60634 5.54272 5.36031 5.54272 5.05707C5.54272 4.75384 5.78875 4.50781 6.09199 4.50781H18.9081C19.2114 4.50781 19.4574 4.75384 19.4574 5.05707C19.4574 5.36031 19.2114 5.60634 18.9081 5.60634Z" fill="black"/>
<path d="M12.5001 7.66884H6.09199C5.78875 7.66884 5.54272 7.42281 5.54272 7.11957C5.54272 6.81634 5.78875 6.57031 6.09199 6.57031H12.5001C12.8033 6.57031 13.0493 6.81634 13.0493 7.11957C13.0493 7.42281 12.8033 7.66884 12.5001 7.66884Z" fill="black"/>
</svg>
