<svg width="195" height="195" viewBox="0 0 195 195" fill="none" xmlns="http://www.w3.org/2000/svg">
<path d="M183.763 102.437C179.594 117.995 169.691 135.35 154.027 141.708C130.359 151.316 129.328 171.234 85.5143 173.591C78.6831 173.959 72.3027 173.605 66.379 172.631C63.1946 172.108 60.1409 171.401 57.2241 170.529C30.7408 162.645 15.2656 141.191 11.8843 117.517C7.43202 86.3811 27.8267 69.3845 41.1729 59.2976C54.5194 49.2106 68.3738 13.7522 111.428 11.0963C117.993 10.6942 124.606 10.9633 131.096 12.0725C145.91 14.5977 161.417 21.8361 171.158 33.6562C171.889 34.5443 172.593 35.4572 173.272 36.3913C186.542 54.6655 189.449 81.2257 183.763 102.437Z" fill="#0080FF"/>
<path opacity="0.7" d="M183.763 102.437C179.594 117.995 169.691 135.35 154.027 141.708C130.359 151.316 129.328 171.234 85.5143 173.591C78.6831 173.959 72.3027 173.605 66.379 172.631C63.1946 172.108 60.1409 171.401 57.2241 170.529C30.7408 162.645 15.2656 141.191 11.8843 117.517C7.43202 86.3811 27.8267 69.3845 41.1729 59.2976C54.5194 49.2106 68.3738 13.7522 111.428 11.0963C117.993 10.6942 124.606 10.9633 131.096 12.0725C145.91 14.5977 161.417 21.8361 171.158 33.6562C171.889 34.5443 172.593 35.4572 173.272 36.3913C186.542 54.6655 189.449 81.2257 183.763 102.437Z" fill="white"/>
<path opacity="0.3" d="M34.4605 43.1843V40.9746C34.4605 36.6116 31.5582 35.0676 28.5922 35.0676C25.5681 35.0676 22.7894 37.2906 22.7894 40.9746V43.1843H21.9634V55.4225H35.2214V43.1843H34.4605ZM28.9838 49.9102V52.1274H27.728V49.9102C27.1149 49.6618 26.6816 49.0624 26.6816 48.36C26.6816 47.4353 27.4312 46.6857 28.3559 46.6857C29.2806 46.6857 30.0301 47.4353 30.0301 48.36C30.0301 49.0624 29.5968 49.6614 28.9838 49.9102ZM32.6232 43.1843H24.5612V40.9746C24.5612 38.752 26.3696 36.9435 28.5922 36.9435C30.8148 36.9435 32.6232 38.4641 32.6232 40.9746V43.1843Z" stroke="black" stroke-miterlimit="10"/>
<path opacity="0.3" d="M81.2366 30.645H43.6586C40.7562 30.645 38.4033 28.2922 38.4033 25.3898C38.4033 22.4874 40.7562 20.1345 43.6586 20.1345H81.2366C84.139 20.1345 86.4919 22.4874 86.4919 25.3898C86.4919 28.2922 84.139 30.645 81.2366 30.645Z" stroke="black" stroke-miterlimit="10"/>
<g opacity="0.3">
<path d="M48.4023 24.9008L49.4978 26.1101L48.9709 26.5033L48.1539 25.0661L47.3477 26.5033L46.8209 26.1101L47.9062 24.9008L46.3037 24.57L46.4999 23.939L48.0092 24.6008L47.8232 22.9675H48.4846L48.3091 24.6008L49.8184 23.9499L50.0146 24.5802L48.4023 24.9008Z" fill="black"/>
<path d="M52.4843 24.9008L53.5798 26.1101L53.0526 26.5033L52.2355 25.0661L51.4294 26.5033L50.9021 26.1101L51.9875 24.9008L50.3857 24.57L50.5819 23.939L52.0912 24.6008L51.9052 22.9675H52.567L52.3915 24.6008L53.9008 23.9499L54.097 24.5802L52.4843 24.9008Z" fill="black"/>
<path d="M56.5669 24.9008L57.6624 26.1101L57.1351 26.5033L56.318 25.0661L55.5115 26.5033L54.9842 26.1101L56.07 24.9008L54.4683 24.57L54.6644 23.939L56.1737 24.6008L55.9877 22.9675H56.6495L56.474 24.6008L57.9833 23.9499L58.1795 24.5802L56.5669 24.9008Z" fill="black"/>
<path d="M60.6489 24.9008L61.7444 26.1101L61.2171 26.5033L60.4001 25.0661L59.5935 26.5033L59.0663 26.1101L60.152 24.9008L58.5503 24.57L58.7465 23.939L60.2562 24.6008L60.0701 22.9675H60.732L60.5565 24.6008L62.0658 23.9499L62.2619 24.5802L60.6489 24.9008Z" fill="black"/>
<path d="M64.7314 24.9008L65.8269 26.1101L65.2996 26.5033L64.4826 25.0661L63.6765 26.5033L63.1492 26.1101L64.2345 24.9008L62.6328 24.57L62.829 23.939L64.3383 24.6008L64.1523 22.9675H64.8141L64.6386 24.6008L66.1479 23.9499L66.344 24.5802L64.7314 24.9008Z" fill="black"/>
<path d="M68.8139 24.9008L69.9094 26.1101L69.3825 26.5033L68.5655 25.0661L67.7594 26.5033L67.2321 26.1101L68.3175 24.9008L66.7153 24.57L66.9115 23.939L68.4208 24.6008L68.2348 22.9675H68.8966L68.7211 24.6008L70.2304 23.9499L70.4266 24.5802L68.8139 24.9008Z" fill="black"/>
<path d="M72.8968 24.9008L73.9923 26.1101L73.4651 26.5033L72.648 25.0661L71.8415 26.5033L71.3146 26.1101L72.4 24.9008L70.7979 24.57L70.994 23.939L72.5033 24.6008L72.3173 22.9675H72.9791L72.8036 24.6008L74.3129 23.9499L74.5091 24.5802L72.8968 24.9008Z" fill="black"/>
<path d="M76.9789 24.9008L78.0744 26.1101L77.5475 26.5033L76.7304 25.0661L75.9239 26.5033L75.3966 26.1101L76.4824 24.9008L74.8799 24.57L75.0761 23.939L76.5854 24.6008L76.3993 22.9675H77.0612L76.8857 24.6008L78.395 23.9499L78.5911 24.5802L76.9789 24.9008Z" fill="black"/>
</g>
<path opacity="0.3" d="M32.6448 91.8224C32.2981 91.2234 31.8125 90.8829 31.3043 90.8829H30.4198V90.09C31.0512 89.3471 31.4596 88.2176 31.4596 87.0586C31.4596 85.0696 30.2626 83.4569 28.7861 83.4569C27.3096 83.4569 26.1127 85.0696 26.1127 87.0586C26.1127 88.1728 26.4882 89.2613 27.0779 90.0038V90.8833H25.8954C25.3744 90.8833 24.8767 91.2234 24.5211 91.8228L22.9189 94.5224H28.3403H28.9343H34.2071L32.6448 91.8224Z" stroke="black" stroke-miterlimit="10"/>
<path opacity="0.3" d="M36.3932 92.9815C38.1669 88.6994 36.1335 83.7902 31.8514 82.0165C27.5694 80.2428 22.6602 82.2762 20.8864 86.5583C19.1127 90.8403 21.1461 95.7495 25.4282 97.5233C29.7103 99.297 34.6195 97.2636 36.3932 92.9815Z" stroke="black" stroke-miterlimit="10"/>
<g opacity="0.2">
<path d="M91.3874 126.262C76.8583 118.147 67.0104 102.616 67.0104 84.8265C67.0104 58.6754 88.2857 37.4002 114.437 37.4002C117.702 37.4002 120.889 37.7387 123.97 38.3709L122.76 42.4273L136.237 39.2203L126.721 29.1528L125.565 33.0244C121.975 32.2537 118.253 31.8427 114.436 31.8427C85.2207 31.8427 61.4521 55.6112 61.4521 84.8269C61.4521 105.293 73.1167 123.084 90.146 131.906L86.794 126.351L91.3874 126.262Z" fill="black"/>
<path d="M133.988 35.582L138.151 39.9863L133.039 41.2031C149.97 48.4505 161.863 65.2751 161.863 84.8265C161.863 110.977 140.588 132.253 114.437 132.253C109.663 132.253 105.054 131.54 100.706 130.222L102.352 127.238L88.502 127.507L95.6596 139.367L97.9665 135.187C103.153 136.888 108.688 137.811 114.436 137.811C143.652 137.811 167.42 114.043 167.42 84.8269C167.421 62.5127 153.555 43.3781 133.988 35.582Z" fill="black"/>
</g>
<path d="M123.933 46.4583L115.002 44.754L114.987 44.7844C114.541 45.6857 113.815 46.1873 113.141 46.059L112.753 45.9849C112.079 45.8562 111.589 45.1222 111.506 44.1203L111.503 44.0863L102.573 42.382C100.085 41.9074 97.684 43.5388 97.2094 46.0262L85.6252 104.803C85.353 106.23 86.289 107.608 87.7164 107.881L112.915 112.689C114.343 112.962 115.721 112.026 115.993 110.598L127.577 51.8212C128.052 49.3342 126.42 46.9329 123.933 46.4583Z" fill="#06BCFF" stroke="#263238" stroke-miterlimit="10" stroke-linecap="round" stroke-linejoin="round"/>
<path d="M127.327 53.1335L127.577 51.8211C128.052 49.3337 126.42 46.9325 123.933 46.4578L115.002 44.7535L114.987 44.7839C114.541 45.6852 113.815 46.1868 113.141 46.0585L112.753 45.9844C112.079 45.8557 111.589 45.1217 111.506 44.1198L111.503 44.0858L102.573 42.3815C100.085 41.9069 97.684 43.5383 97.2094 46.0257L96.959 47.3381L127.327 53.1335Z" fill="white" stroke="#263238" stroke-miterlimit="10" stroke-linecap="round" stroke-linejoin="round"/>
<path d="M125.369 71.9549L126.459 66.2476L125.942 66.149L129.189 51.0618C129.664 48.5744 128.032 46.1732 125.545 45.6985L101.354 41.0821C98.8662 40.6075 96.465 42.2389 95.9904 44.7263L84.0821 105.201C83.6075 107.689 85.2392 110.09 87.7263 110.565L111.918 115.181C114.405 115.656 116.806 114.024 117.281 111.537L123.925 76.7199L124.441 76.8186L125.085 73.4463L124.568 73.3476L124.853 71.8558L125.369 71.9549ZM116.479 108.05C116.005 110.538 113.604 112.169 111.116 111.694L89.7558 107.618C87.2684 107.143 85.637 104.742 86.1116 102.255L97.2095 46.0261C97.6841 43.5387 100.085 41.9074 102.573 42.382L111.503 44.0863L111.506 44.1202C111.589 45.1225 112.079 45.8561 112.753 45.9848L113.141 46.0589C113.815 46.1876 114.541 45.6861 114.987 44.7844L115.002 44.754L123.933 46.4583C126.42 46.9329 128.052 49.3341 127.577 51.8215L116.479 108.05Z" fill="#707070" stroke="#263238" stroke-miterlimit="10" stroke-linecap="round" stroke-linejoin="round"/>
<path d="M124.637 46.1689L102.024 41.8535C99.389 41.3508 96.8454 43.0793 96.3423 45.7145L84.773 104.413C84.2703 107.049 85.9987 109.592 88.634 110.095L111.247 114.411C113.882 114.913 116.426 113.185 116.929 110.55L128.498 51.8512C129.001 49.2156 127.272 46.6716 124.637 46.1689ZM116.479 108.05C116.005 110.538 113.603 112.169 111.116 111.694L89.7556 107.618C87.2682 107.143 85.6368 104.742 86.1115 102.255L97.2093 46.0262C97.6839 43.5387 100.085 41.9074 102.573 42.382L111.503 44.0863L111.506 44.1202C111.589 45.1225 112.079 45.8561 112.753 45.9848L113.141 46.0589C113.815 46.1876 114.541 45.6861 114.987 44.7844L115.002 44.754L123.933 46.4583C126.42 46.9329 128.052 49.3341 127.577 51.8216L116.479 108.05Z" fill="#263238" stroke="#263238" stroke-miterlimit="10" stroke-linecap="round" stroke-linejoin="round"/>
<path d="M113.542 44.6989C113.586 44.4653 113.433 44.2399 113.2 44.1954C112.966 44.151 112.741 44.3039 112.696 44.5375C112.652 44.7711 112.805 44.9965 113.038 45.041C113.271 45.0858 113.497 44.9325 113.542 44.6989Z" fill="#707070"/>
<path d="M100.417 43.8738C100.336 44.3016 99.8257 44.364 99.7617 44.6901L99.7574 44.7123L100.223 44.8012L100.196 44.9451L99.5737 44.8266L99.5971 44.7049C99.6845 44.2466 100.182 44.2494 100.258 43.85C100.286 43.7041 100.252 43.6179 100.135 43.5953C100.019 43.5735 99.9524 43.6468 99.9282 43.7724L99.9044 43.898L99.7566 43.8699L99.7785 43.7544C99.8198 43.5376 99.9466 43.4124 100.165 43.4541C100.386 43.4963 100.459 43.6569 100.417 43.8738Z" fill="#263238"/>
<path d="M101.195 44.02L101.188 44.0563C101.16 44.2022 101.082 44.2946 100.96 44.3153C101.071 44.3827 101.103 44.5001 101.076 44.6421L101.055 44.7517C101.014 44.9685 100.885 45.091 100.666 45.0492C100.449 45.0079 100.375 44.8464 100.417 44.6296L100.435 44.5321L100.583 44.5602L100.563 44.6674C100.538 44.7954 100.576 44.8823 100.69 44.9042C100.805 44.926 100.87 44.8609 100.898 44.717L100.919 44.6074C100.945 44.4674 100.899 44.3894 100.78 44.3625L100.695 44.3461L100.722 44.2041L100.816 44.2221C100.922 44.238 101 44.1838 101.023 44.0602L101.036 43.9951C101.063 43.8492 101.027 43.7646 100.912 43.7424C100.798 43.7205 100.73 43.7895 100.706 43.9175L100.692 43.9904L100.544 43.9623L100.557 43.8976C100.598 43.6807 100.726 43.5602 100.943 43.6016C101.161 43.6441 101.236 43.8032 101.195 44.02Z" fill="#263238"/>
<path d="M101.481 44.1862L101.443 44.3828L101.291 44.3539L101.328 44.1573L101.481 44.1862ZM101.333 44.9584L101.296 45.155L101.144 45.1261L101.181 44.9295L101.333 44.9584Z" fill="#263238"/>
<path d="M101.776 44.3749C101.836 44.3063 101.914 44.2793 102.009 44.2977C102.192 44.3324 102.247 44.4818 102.209 44.6846L102.156 44.9622C102.114 45.1791 101.984 45.3011 101.767 45.2598C101.55 45.2185 101.476 45.057 101.517 44.8402L101.536 44.745L101.683 44.7731L101.664 44.8784C101.639 45.0063 101.677 45.0933 101.791 45.1147C101.904 45.1366 101.972 45.0695 101.996 44.9416L102.049 44.6658C102.073 44.5383 102.035 44.4509 101.922 44.4295C101.835 44.4127 101.766 44.4502 101.733 44.5512L101.726 44.5835L101.579 44.5555L101.768 43.7743L102.327 43.8812L102.3 44.0231L101.882 43.9436L101.776 44.3749Z" fill="#263238"/>
<path d="M103.085 44.3788L103.08 44.4053L102.932 44.3772L102.939 44.341C102.963 44.213 102.925 44.128 102.809 44.1062C102.69 44.0832 102.622 44.1503 102.593 44.3024L102.532 44.6206C102.589 44.5305 102.677 44.4907 102.791 44.5122C102.973 44.5469 103.029 44.6943 102.99 44.8991L102.949 45.1139C102.908 45.3308 102.773 45.4521 102.556 45.4107C102.337 45.369 102.257 45.2064 102.298 44.9895L102.436 44.2657C102.479 44.0407 102.607 43.9202 102.832 43.9631C103.051 44.0044 103.126 44.162 103.085 44.3788ZM102.495 44.8168L102.454 45.0297C102.43 45.1576 102.468 45.2446 102.584 45.2664C102.697 45.2879 102.766 45.2216 102.791 45.0937L102.832 44.8807C102.856 44.7528 102.816 44.6654 102.702 44.644C102.587 44.6218 102.519 44.6888 102.495 44.8168Z" fill="#263238"/>
<path d="M118.571 47.398L118.17 47.3215L117.979 48.3233L118.38 48.3998L118.571 47.398Z" fill="#263238"/>
<path d="M119.14 47.2974L118.74 47.2209L118.51 48.4235L118.911 48.4999L119.14 47.2974Z" fill="#263238"/>
<path d="M119.702 47.257L119.301 47.1805L119.045 48.5256L119.445 48.602L119.702 47.257Z" fill="#263238"/>
<path d="M120.284 47.1112L119.883 47.0348L119.579 48.6273L119.98 48.7038L120.284 47.1112Z" fill="#263238"/>
<path d="M124.94 49.6236L122.536 49.1649L122.816 47.6958L125.22 48.1544L124.94 49.6236ZM122.695 49.0569L124.832 49.4648L125.061 48.2629L122.924 47.8549L122.695 49.0569Z" fill="#263238"/>
<path d="M124.37 48.2743L123.102 48.0322L122.928 48.9436L124.197 49.1857L124.37 48.2743Z" fill="#263238"/>
<path d="M125.334 48.7607L125.031 48.703L124.965 49.0489L125.268 49.1066L125.334 48.7607Z" fill="#263238"/>
<path d="M121.715 48.677C121.699 48.6739 121.684 48.6668 121.671 48.6555C121.238 48.2714 120.863 48.4796 120.847 48.4886C120.803 48.514 120.747 48.4988 120.722 48.4555C120.697 48.4118 120.711 48.3564 120.754 48.3311C120.775 48.319 121.256 48.0436 121.793 48.519C121.83 48.5526 121.834 48.6103 121.8 48.6481C121.779 48.6731 121.745 48.6828 121.715 48.677Z" fill="#263238"/>
<path d="M121.954 48.4099C121.938 48.4068 121.923 48.3997 121.91 48.3884C121.283 47.8327 120.73 48.149 120.724 48.1521C120.681 48.1778 120.625 48.1634 120.599 48.1197C120.573 48.0764 120.588 48.0203 120.632 47.9945C120.639 47.9902 121.305 47.6088 122.032 48.2515C122.069 48.2851 122.073 48.3428 122.039 48.3806C122.017 48.4056 121.984 48.4157 121.954 48.4099Z" fill="#263238"/>
<path d="M122.185 48.0916C122.169 48.0885 122.154 48.0815 122.141 48.0702C121.347 47.3666 120.655 47.7543 120.626 47.7715C120.582 47.7968 120.527 47.782 120.501 47.7387C120.476 47.6954 120.49 47.6396 120.534 47.6139C120.542 47.6088 121.365 47.1385 122.262 47.9337C122.3 47.9672 122.303 48.025 122.27 48.0628C122.248 48.0877 122.215 48.0975 122.185 48.0916Z" fill="#263238"/>
<path d="M121.416 48.7761C121.393 48.9005 121.273 48.982 121.148 48.9582C121.024 48.9344 120.942 48.8143 120.966 48.6899C120.99 48.5655 121.11 48.484 121.234 48.5078C121.358 48.5316 121.44 48.6517 121.416 48.7761Z" fill="#263238"/>
<path d="M115.259 91.2139L94.0941 87.1751C92.9646 86.9594 92.224 85.8694 92.4397 84.7403L95.8299 66.9754C96.0456 65.846 97.1357 65.1054 98.2647 65.3207L119.429 69.3595C120.559 69.5752 121.299 70.6652 121.084 71.7947L117.693 89.5596C117.478 90.6886 116.388 91.4296 115.259 91.2139Z" fill="white" stroke="#263238" stroke-miterlimit="10"/>
<path d="M102.176 62.6663L101.903 60.5829L102.257 60.6504L102.447 62.2427L103.213 60.8329L103.536 60.8945L102.512 62.7306L102.303 63.8261L101.967 63.7618L102.176 62.6663Z" fill="#263238"/>
<path d="M103.549 61.6617C103.638 61.1944 103.927 60.9374 104.394 61.0267C104.865 61.1168 105.039 61.462 104.95 61.9292L104.649 63.5095C104.56 63.9724 104.271 64.2337 103.799 64.1436C103.332 64.0543 103.159 63.7049 103.247 63.2419L103.549 61.6617ZM103.58 63.3234C103.527 63.6027 103.614 63.7868 103.858 63.8336C104.107 63.8811 104.252 63.7411 104.305 63.4619L104.613 61.8469C104.665 61.572 104.583 61.3844 104.335 61.3368C104.09 61.29 103.94 61.4335 103.888 61.7085L103.58 63.3234Z" fill="#263238"/>
<path d="M105.292 63.6502C105.239 63.9252 105.317 64.112 105.565 64.1596C105.81 64.2064 105.951 64.0613 106.003 63.7863L106.449 61.451L106.768 61.5119L106.325 63.8296C106.237 64.2926 105.964 64.5613 105.493 64.4716C105.026 64.3823 104.871 64.0317 104.959 63.5691L105.402 61.2513L105.737 61.3153L105.292 63.6502Z" fill="#263238"/>
<path d="M107.786 61.7057C108.266 61.7973 108.42 62.0801 108.333 62.5341L108.286 62.7829C108.221 63.1191 108.063 63.3063 107.786 63.339C108.049 63.4751 108.111 63.7224 108.048 64.0496L107.957 64.5254C107.932 64.6607 107.912 64.7879 107.948 64.9037L107.604 64.8378C107.581 64.743 107.578 64.6611 107.618 64.456L107.709 63.9759C107.775 63.6311 107.634 63.4911 107.351 63.4369L107.111 63.3913L106.861 64.6962L106.521 64.6311L107.104 61.5754L107.786 61.7057ZM107.423 63.1296C107.694 63.1811 107.872 63.1249 107.936 62.793L107.991 62.5005C108.044 62.2256 107.971 62.0622 107.718 62.0138L107.386 61.9506L107.17 63.0812L107.423 63.1296Z" fill="#263238"/>
<path d="M110.71 63.0286L110.658 63.3035L110.335 63.2419L110.391 62.9494C110.443 62.6745 110.366 62.4876 110.117 62.4401C109.872 62.3933 109.727 62.5376 109.674 62.8125L109.366 64.4275C109.314 64.7025 109.396 64.89 109.64 64.9368C109.889 64.9844 110.03 64.8393 110.082 64.5644L110.158 64.1674L110.481 64.229L110.408 64.6089C110.32 65.0718 110.043 65.3354 109.572 65.2453C109.105 65.1564 108.945 64.8093 109.033 64.3464L109.334 62.7661C109.423 62.3036 109.699 62.0395 110.166 62.1285C110.639 62.2185 110.799 62.566 110.71 63.0286Z" fill="#263238"/>
<path d="M110.995 63.0828C111.084 62.6159 111.373 62.3585 111.84 62.4479C112.312 62.5379 112.486 62.8831 112.397 63.3503L112.095 64.9306C112.007 65.3935 111.717 65.6548 111.246 65.5647C110.779 65.4754 110.606 65.126 110.694 64.6631L110.995 63.0828ZM111.026 64.7446C110.973 65.0238 111.06 65.2079 111.304 65.2547C111.553 65.3023 111.698 65.1623 111.751 64.883L112.059 63.268C112.112 62.9931 112.029 62.8055 111.781 62.7579C111.536 62.7115 111.387 62.8546 111.334 63.1296L111.026 64.7446Z" fill="#263238"/>
<path d="M113.577 62.811C114.053 62.9018 114.216 63.2314 114.126 63.7029L113.832 65.2438C113.743 65.7106 113.47 65.9571 112.994 65.8662L112.278 65.7297L112.861 62.6741L113.577 62.811ZM113.049 65.5558C113.293 65.6026 113.44 65.4719 113.493 65.1927L113.793 63.6214C113.847 63.3421 113.758 63.1666 113.509 63.1191L113.143 63.0493L112.678 65.4848L113.049 65.5558Z" fill="#263238"/>
<path d="M115.419 64.5648L115.361 64.8702L114.614 64.7278L114.407 65.8147L115.323 65.9898L115.264 66.2999L114.007 66.06L114.59 63.0044L115.847 63.2442L115.788 63.5543L114.871 63.3792L114.672 64.4224L115.419 64.5648Z" fill="#263238"/>
<path d="M99.8262 75.0476C100.067 74.7691 100.387 74.6595 100.774 74.7332C101.515 74.8748 101.741 75.4812 101.584 76.3045L101.368 77.4328C101.2 78.3138 100.67 78.8103 99.7888 78.6422C98.9077 78.4741 98.6059 77.8189 98.774 76.9379L98.8481 76.5506L99.4495 76.6653L99.3676 77.0935C99.2685 77.6126 99.4229 77.9663 99.8839 78.0541C100.345 78.1422 100.619 77.87 100.718 77.3509L100.932 76.2308C101.031 75.7117 100.876 75.358 100.415 75.2702C100.061 75.2028 99.7845 75.3549 99.6464 75.7636L99.6214 75.8954L99.0205 75.7808L99.7884 72.6069L102.062 73.0406L101.952 73.617L100.255 73.2933L99.8262 75.0476Z" fill="#263238"/>
<path d="M105.141 75.0632L105.121 75.1704L104.52 75.0558L104.548 74.9076C104.647 74.3889 104.491 74.0433 104.022 73.9536C103.536 73.8608 103.262 74.133 103.144 74.7508L102.897 76.0437C103.129 75.6782 103.484 75.5156 103.946 75.6037C104.687 75.7453 104.914 76.3432 104.755 77.175L104.589 78.0483C104.421 78.9293 103.874 79.4226 102.993 79.2545C102.103 79.0849 101.777 78.425 101.945 77.544L102.506 74.6038C102.68 73.6896 103.201 73.1998 104.115 73.3745C105.004 73.5434 105.309 74.1818 105.141 75.0632ZM102.744 76.842L102.579 77.7066C102.48 78.2257 102.635 78.5794 103.104 78.6691C103.565 78.7569 103.848 78.4866 103.947 77.9675L104.112 77.1029C104.211 76.5842 104.048 76.2285 103.587 76.1408C103.118 76.0511 102.843 76.3233 102.744 76.842Z" fill="#263238"/>
<path d="M108.345 75.6743L108.325 75.7815L107.723 75.6669L107.752 75.5187C107.851 75 107.695 74.6544 107.225 74.5647C106.739 74.4719 106.466 74.7441 106.347 75.3619L106.1 76.6547C106.333 76.2893 106.688 76.1267 107.149 76.2148C107.89 76.3564 108.118 76.9543 107.959 77.7861L107.792 78.6593C107.624 79.5403 107.078 80.0337 106.196 79.8656C105.307 79.696 104.98 79.0361 105.148 78.1551L105.71 75.2149C105.884 74.3007 106.405 73.8109 107.319 73.9856C108.208 74.1548 108.513 74.7933 108.345 75.6743ZM105.948 77.4535L105.783 78.3181C105.684 78.8372 105.839 79.1909 106.308 79.2806C106.769 79.3687 107.051 79.0981 107.15 78.579L107.315 77.7144C107.414 77.1957 107.252 76.84 106.791 76.7522C106.321 76.6625 106.047 76.9348 105.948 77.4535Z" fill="#263238"/>
<path d="M111.547 76.294L110.985 79.2343C110.811 80.1484 110.289 80.6465 109.367 80.4702C108.486 80.3021 108.174 79.6535 108.342 78.7725L108.362 78.6652L108.963 78.7799L108.935 78.9285C108.836 79.4472 109 79.7943 109.461 79.8824C109.955 79.9768 110.229 79.7046 110.345 79.0954L110.592 77.8026C110.361 78.168 110.007 78.3224 109.546 78.2343C108.805 78.0927 108.576 77.5031 108.734 76.6712L108.902 75.7898C109.071 74.9088 109.607 74.4221 110.496 74.5917C111.387 74.7614 111.715 75.413 111.547 76.294ZM109.544 75.8779L109.379 76.7426C109.28 77.2613 109.442 77.6169 109.903 77.7047C110.373 77.7944 110.647 77.5222 110.746 77.0031L110.911 76.1384C111.011 75.6112 110.855 75.2656 110.386 75.1763C109.925 75.0882 109.644 75.3506 109.544 75.8779Z" fill="#263238"/>
<path d="M114.813 76.8915L114.778 77.0728C114.666 77.6574 114.379 78.0467 113.893 78.1332C114.334 78.4136 114.429 78.9012 114.319 79.4776L114.237 79.9058C114.067 80.7954 113.501 81.2591 112.603 81.0879C111.705 80.9167 111.349 80.2767 111.519 79.3871L111.601 78.9589C111.712 78.3743 111.977 77.9722 112.501 77.8673C112.066 77.5962 111.948 77.1387 112.06 76.5537L112.095 76.3724C112.264 75.4828 112.836 75.0374 113.726 75.2071C114.615 75.3775 114.982 76.0023 114.813 76.8915ZM112.726 76.5105L112.673 76.7905C112.566 77.3505 112.79 77.6493 113.243 77.7358C113.696 77.8224 114.015 77.627 114.122 77.067L114.175 76.787C114.288 76.1938 114.068 75.8705 113.616 75.7839C113.162 75.6977 112.839 75.9177 112.726 76.5105ZM112.25 79.0061L112.157 79.492C112.044 80.0848 112.254 80.4151 112.715 80.5033C113.176 80.591 113.485 80.3598 113.606 79.7685L113.699 79.2826C113.806 78.7225 113.611 78.4039 113.133 78.3126C112.655 78.2214 112.357 78.446 112.25 79.0061Z" fill="#263238"/>
<path d="M94.0366 92.1975L113.948 95.9973" stroke="#263238" stroke-miterlimit="10"/>
<path d="M93.2949 96.0826L113.207 99.8828" stroke="#263238" stroke-miterlimit="10"/>
<path d="M126.325 77.56L131.142 76.819" stroke="#263238" stroke-miterlimit="10"/>
<path d="M125.584 83.1179L128.178 83.8589" stroke="#263238" stroke-miterlimit="10"/>
<path d="M124.102 87.9343L128.919 91.2692" stroke="#263238" stroke-miterlimit="10"/>
<path d="M92.4124 188.648C106.191 188.648 117.36 178.152 117.36 165.205C117.36 152.257 106.191 141.761 92.4124 141.761C78.6342 141.761 67.4648 152.257 67.4648 165.205C67.4648 178.152 78.6342 188.648 92.4124 188.648Z" fill="#263238"/>
<path d="M91.8889 187.427C105.667 187.427 116.836 176.931 116.836 163.984C116.836 151.036 105.667 140.54 91.8889 140.54C78.1108 140.54 66.9414 151.036 66.9414 163.984C66.9414 176.931 78.1108 187.427 91.8889 187.427Z" fill="white" stroke="#263238" stroke-miterlimit="10"/>
<path d="M91.8889 184.219C103.782 184.219 113.422 175.159 113.422 163.984C113.422 152.808 103.782 143.748 91.8889 143.748C79.9963 143.748 70.3555 152.808 70.3555 163.984C70.3555 175.159 79.9963 184.219 91.8889 184.219Z" fill="white" stroke="#263238" stroke-miterlimit="10"/>
<path d="M97.8542 150.359C89.2114 150.359 82.2051 159.163 82.2051 170.023C82.2051 177.03 85.1234 183.176 89.5137 186.659C90.2387 186.72 90.9715 186.756 91.7133 186.756C100.798 186.756 108.722 182.105 112.951 175.202C113.309 173.552 113.503 171.816 113.503 170.023C113.503 159.163 106.497 150.359 97.8542 150.359Z" fill="#263238"/>
<path d="M82.3909 161.156H72.1982V163.594H82.3909V161.156Z" fill="white" stroke="#263238" stroke-miterlimit="10"/>
<path d="M95.4829 176.848C104.067 176.848 111.026 170.309 111.026 162.242C111.026 154.175 104.067 147.636 95.4829 147.636C86.8985 147.636 79.9395 154.175 79.9395 162.242C79.9395 170.309 86.8985 176.848 95.4829 176.848Z" fill="white" stroke="#263238" stroke-miterlimit="10"/>
<path d="M95.4828 174.436C102.65 174.436 108.459 168.977 108.459 162.242C108.459 155.507 102.65 150.048 95.4828 150.048C88.3161 150.048 82.5063 155.507 82.5063 162.242C82.5063 168.977 88.3161 174.436 95.4828 174.436Z" fill="#263238" stroke="#263238" stroke-miterlimit="10"/>
<path d="M90.0461 151.059C89.9634 150.857 89.8674 150.657 89.7563 150.464C88.433 148.161 88.5984 145.231 89.5909 142.51" stroke="#263238" stroke-miterlimit="10"/>
<path d="M90.2526 155.906C90.2526 155.906 90.9464 153.272 90.0459 151.06" stroke="white" stroke-miterlimit="10"/>
<path d="M94.8837 150.464C93.5605 148.161 93.7258 145.231 94.7184 142.51" stroke="#263238" stroke-miterlimit="10"/>
<path d="M95.3799 155.906C95.3799 155.906 96.2067 152.767 94.8838 150.464" stroke="white" stroke-miterlimit="10"/>
<path d="M100.174 150.774C100.124 150.669 100.07 150.566 100.011 150.464C98.6879 148.161 98.8533 145.231 99.8458 142.51" stroke="#263238" stroke-miterlimit="10"/>
<path d="M100.507 155.906C100.507 155.906 101.262 153.038 100.174 150.774" stroke="white" stroke-miterlimit="10"/>
<path d="M149.814 140.494C149.814 140.494 149.408 140.516 148.681 140.595C147.993 138.257 145.927 131.336 144.571 127.761C142.923 123.417 140.676 117.275 139.178 114.728C137.68 112.182 137.83 110.684 134.983 108.287C132.137 105.89 129.59 106.939 129.59 106.939C129.59 106.939 129.141 105.141 126.295 104.242C123.449 103.343 119.554 105.141 119.554 105.141C119.554 105.141 118.955 104.093 116.108 104.392C113.262 104.692 112.214 107.238 112.214 107.238C112.214 107.238 106.371 95.5539 104.124 94.6549C101.877 93.756 99.6302 96.0032 100.529 98.1002C101.428 100.197 108.168 111.882 109.067 114.578C109.966 117.275 111.914 121.769 111.914 121.769C111.914 121.769 105.472 117.125 103.525 116.676C101.577 116.226 98.7313 115.926 97.0831 117.724C95.4354 119.522 99.3303 119.971 102.476 122.818C105.622 125.664 110.715 132.255 113.112 136.45C115.509 140.644 120.602 141.393 122.849 143.79C124.43 145.477 126.678 147.83 127.872 149.077C127.12 149.86 126.744 150.381 126.744 150.381L131.687 162.515C131.687 162.515 132.736 160.868 136.931 157.572C141.125 154.276 154.158 150.232 154.158 150.232L149.814 140.494Z" fill="#263238" stroke="#263238" stroke-miterlimit="10"/>
<path d="M128.508 146.798C128.508 146.798 124.912 143.052 122.666 140.656C120.418 138.259 115.325 137.51 112.929 133.316C110.532 129.121 105.439 122.53 102.292 119.684C99.1467 116.837 95.2518 116.388 96.8995 114.59C98.5473 112.793 101.393 113.092 103.341 113.541C105.288 113.991 111.73 118.635 111.73 118.635C111.73 118.635 109.783 114.141 108.884 111.444C107.985 108.748 101.244 97.0636 100.345 94.9662C99.4462 92.8691 101.693 90.622 103.941 91.5209C106.188 92.4199 112.03 104.104 112.03 104.104C112.03 104.104 113.079 101.558 115.925 101.258C118.771 100.959 119.371 102.007 119.371 102.007C119.371 102.007 123.265 100.21 126.112 101.108C128.958 102.007 129.407 103.805 129.407 103.805C129.407 103.805 131.954 102.756 134.8 105.153C137.646 107.55 137.497 109.048 138.995 111.595C140.493 114.141 142.74 120.283 144.387 124.627C146.035 128.971 148.732 138.259 148.732 138.259L129.407 148.745L128.508 146.798Z" fill="white" stroke="#263238" stroke-miterlimit="10"/>
<path d="M112.03 104.104L117.273 111.894" stroke="#263238" stroke-miterlimit="10"/>
<path d="M119.37 102.007L124.164 109.497" stroke="#263238" stroke-miterlimit="10"/>
<path d="M129.407 103.805L132.702 109.647" stroke="#263238" stroke-miterlimit="10"/>
<path d="M114.041 125.336L114.726 127.323" stroke="#263238" stroke-miterlimit="10"/>
<path d="M111.73 118.635L113.565 123.955" stroke="#263238" stroke-miterlimit="10"/>
<path d="M120.119 113.692L121.318 115.339" stroke="#263238" stroke-miterlimit="10"/>
<path d="M125.662 112.044L127.01 113.841" stroke="#263238" stroke-miterlimit="10"/>
<path d="M133.002 111.145L133.901 113.991" stroke="#263238" stroke-miterlimit="10"/>
<path d="M126.561 147.247C126.561 147.247 130.006 142.453 137.046 140.056C144.087 137.66 149.63 137.36 149.63 137.36L153.974 147.097C153.974 147.097 140.941 151.142 136.747 154.437C132.553 157.733 131.504 159.381 131.504 159.381L126.561 147.247Z" fill="white" stroke="#263238" stroke-miterlimit="10"/>
<path d="M138.395 179.604C138.395 179.604 132.702 165.373 131.204 162.377C129.706 159.381 132.103 157.883 132.103 157.883C132.103 157.883 135.549 153.239 144.537 149.644C153.525 146.048 154.274 145.899 156.521 148.445C158.768 150.992 173.506 179.631 173.506 179.631" fill="white"/>
<path d="M138.395 179.604C138.395 179.604 132.702 165.373 131.204 162.377C129.706 159.381 132.103 157.883 132.103 157.883C132.103 157.883 135.549 153.239 144.537 149.644C153.525 146.048 154.274 145.899 156.521 148.445C158.768 150.992 173.506 179.631 173.506 179.631" stroke="#263238" stroke-miterlimit="10"/>
<path d="M44.882 164.63C44.882 164.63 46.9182 160.264 51.7675 157.79C56.6167 155.316 59.7683 154.251 64.4085 149.674C69.0487 145.097 76.6967 141.009 79.8502 140.446C83.0037 139.882 84.0505 138.525 82.6917 136.978C81.333 135.43 77.626 135.345 74.3243 136.46C71.0225 137.576 67.9723 138.94 67.9723 138.94C69.6443 135.648 70.757 131.684 72.4031 128.379C73.5712 126.034 75.4896 122.164 76.6249 119.803C77.3659 118.262 79.5745 115.696 78.5924 114.013C77.6038 112.319 75.2431 113.446 74.0458 115.055C72.1434 117.613 62.8337 131.647 62.8337 131.647C64.6024 127.904 66.3706 124.16 68.1389 120.416C70.8268 114.726 72.1083 112.013 71.7281 112.818C72.5123 111.159 74.038 108.936 73.1067 107.021C72.1625 105.08 69.4286 104.881 68.2941 106.729C67.0001 108.838 57.1062 127.562 57.1062 127.562C57.1062 127.562 63.2994 111.491 64.0907 109.644C65.0575 107.388 64.4865 105.422 63.0603 105.433C60.9874 105.45 60.0078 107.745 59.1954 109.305C59.3463 109.086 59.4973 108.867 59.6482 108.647C57.7103 111.231 56.4069 114.626 54.7864 117.43C52.8922 120.707 50.9309 123.946 48.9049 127.143C49.303 123.831 50.6322 120.728 52.2787 117.856C53.2725 116.123 57.4092 111.868 56.7025 109.776C56.0941 107.975 51.5572 111.359 48.9185 115.053C47.4802 117.066 43.7112 122.556 42.675 126.417C41.6388 130.279 34.3774 143.432 32.4383 147.096C30.4992 150.761 28.1709 157.232 28.1709 157.232L44.882 164.63Z" fill="#263238" stroke="#263238" stroke-miterlimit="10"/>
<path d="M50.4141 161.099C50.4141 161.099 46.6798 156.527 39.5046 154.569C32.3297 152.61 26.7789 152.653 26.7789 152.653L23.0435 162.64C23.0435 162.64 36.3007 165.873 40.6906 168.904C45.0804 171.935 46.2286 173.514 46.2286 173.514L50.4141 161.099Z" fill="#263238" stroke="#263238" stroke-miterlimit="10"/>
<path d="M44.3885 162.901C44.3885 162.901 46.4246 158.535 51.2739 156.06C56.1232 153.587 59.2748 152.522 63.915 147.945C68.5552 143.368 76.2031 139.28 79.3566 138.716C82.5102 138.153 83.5569 136.796 82.1982 135.248C80.8394 133.701 77.1325 133.616 73.8307 134.731C70.529 135.846 67.4788 137.211 67.4788 137.211C69.1507 133.918 70.2634 129.954 71.9096 126.649C73.0776 124.304 74.996 120.435 76.1313 118.073C76.8723 116.532 79.0809 113.966 78.0989 112.283C77.1102 110.59 74.7496 111.716 73.5523 113.326C71.6498 115.884 62.3402 129.918 62.3402 129.918C64.1088 126.174 65.8771 122.43 67.6453 118.687C70.3332 112.997 71.6147 110.284 71.2345 111.089C72.0188 109.429 73.5445 107.206 72.6131 105.292C71.6686 103.351 68.9351 103.151 67.8005 105C66.5065 107.109 56.613 125.833 56.613 125.833C56.613 125.833 62.8062 109.761 63.5975 107.914C64.5643 105.658 63.9934 103.692 62.5671 103.703C60.4943 103.72 59.5146 106.014 58.7022 107.575C58.8532 107.356 59.0041 107.136 59.155 106.917C57.2171 109.501 55.9137 112.896 54.2933 115.7C52.3991 118.977 50.4377 122.215 48.4117 125.413C48.8099 122.101 50.139 118.998 51.7856 116.126C52.7793 114.392 56.916 110.138 56.2094 108.046C55.601 106.245 51.0641 109.629 48.4253 113.323C46.987 115.336 43.2181 120.826 42.1818 124.687C41.1452 128.549 33.8842 141.702 31.9451 145.366C30.006 149.031 27.6777 155.502 27.6777 155.502L44.3885 162.901Z" fill="white" stroke="#263238" stroke-miterlimit="10"/>
<path d="M56.6132 125.833L54.8242 129.447" stroke="#263238" stroke-miterlimit="10"/>
<path d="M62.3402 129.918L60.9448 131.727" stroke="#263238" stroke-miterlimit="10"/>
<path d="M67.4789 137.211L65.686 139.823" stroke="#263238" stroke-miterlimit="10"/>
<path d="M58.2045 135.495L58.0605 137.048" stroke="#263238" stroke-miterlimit="10"/>
<path d="M53.7354 132.658L53.7412 134.16" stroke="#263238" stroke-miterlimit="10"/>
<path d="M47.1606 129.528L47.5214 132.081" stroke="#263238" stroke-miterlimit="10"/>
<path d="M49.9199 159.37C49.9199 159.37 46.1857 154.798 39.0104 152.84C31.8356 150.882 26.2847 150.925 26.2847 150.925L22.5493 160.911C22.5493 160.911 35.8066 164.144 40.1964 167.175C44.5863 170.206 45.7344 171.786 45.7344 171.786L49.9199 159.37Z" fill="white" stroke="#263238" stroke-miterlimit="10"/>
<path d="M43.9786 180.963C43.9786 180.963 44.9076 177.84 46.218 174.757C47.5284 171.674 45.0437 170.327 45.0437 170.327C45.0437 170.327 41.3184 165.904 32.1257 162.87C22.933 159.836 22.1764 159.733 20.0907 162.413C18.005 165.094 11.2935 181.202 11.2935 181.202" fill="white"/>
<path d="M43.9786 180.963C43.9786 180.963 44.9076 177.84 46.218 174.757C47.5284 171.674 45.0437 170.327 45.0437 170.327C45.0437 170.327 41.3184 165.904 32.1257 162.87C22.933 159.836 22.1764 159.733 20.0907 162.413C18.005 165.094 11.2935 181.202 11.2935 181.202" stroke="#263238" stroke-miterlimit="10"/>
</svg>
