<svg width="26" height="17" viewBox="0 0 26 17" fill="none" xmlns="http://www.w3.org/2000/svg">
<path d="M23.062 0H2.93801C1.31735 0 0 1.31735 0 2.93802V13.5634C0 15.184 1.31735 16.5013 2.93801 16.5013H23.062C24.6826 16.5013 26 15.184 26 13.5634V2.93802C26 1.31735 24.6826 0 23.062 0ZM6.18801 9.50736H4.92266C4.22933 9.50736 3.66598 8.94401 3.66598 8.25068C3.66598 7.55736 4.22933 6.99401 4.92266 6.99401H6.18801C6.88133 6.99401 7.44468 7.55736 7.44468 8.25068C7.44468 8.94401 6.88133 9.50736 6.18801 9.50736ZM13 12.6533C10.5733 12.6533 8.59732 10.6773 8.59732 8.25068C8.59732 5.82403 10.5733 3.848 13 3.848C15.4267 3.848 17.4027 5.82403 17.4027 8.25068C17.4027 10.6773 15.4267 12.6533 13 12.6533ZM21.0773 9.50736H19.812C19.1187 9.50736 18.5553 8.94401 18.5553 8.25068C18.5553 7.55736 19.1187 6.99401 19.812 6.99401H21.0773C21.7707 6.99401 22.334 7.55736 22.334 8.25068C22.334 8.94401 21.7707 9.50736 21.0773 9.50736Z" fill="#32CBD9"/>
<path d="M12.9999 10.138C14.0434 10.138 14.8893 9.29216 14.8893 8.24871C14.8893 7.20526 14.0434 6.35938 12.9999 6.35938C11.9565 6.35938 11.1106 7.20526 11.1106 8.24871C11.1106 9.29216 11.9565 10.138 12.9999 10.138Z" fill="#32CBD9"/>
</svg>
