<svg width="28" height="20" viewBox="0 0 28 20" fill="none" xmlns="http://www.w3.org/2000/svg">
<path d="M28 2.4348V17.0435C28 18.3881 26.9099 19.4783 25.5652 19.4783H2.4348C1.09009 19.4783 0 18.3881 0 17.0435V2.4348C0 1.09014 1.09009 0 2.4348 0H25.5653C26.9099 0 28 1.09014 28 2.4348Z" fill="#FE7D49"/>
<path d="M28 5.47656V17.0418C28 18.3864 26.9099 19.4766 25.5652 19.4766H2.4348C1.09009 19.4766 0 18.3864 0 17.0418V5.47656H28Z" fill="#FE5A3A"/>
<path d="M8.47967 7.91641H3.69413C3.33478 7.91641 3.04346 7.62509 3.04346 7.26574V3.69755C3.04346 3.3382 3.33478 3.04688 3.69413 3.04688H8.47961C8.83897 3.04688 9.13029 3.3382 9.13029 3.69755V7.26563C9.13039 7.62509 8.83902 7.91641 8.47967 7.91641Z" fill="#FED76E"/>
<path d="M9.13039 5.47656V7.26063C9.13039 7.61998 8.83907 7.9113 8.47972 7.9113H3.69413C3.33478 7.9113 3.04346 7.61998 3.04346 7.26063V5.47656H9.13039Z" fill="#FEAF50"/>
<path d="M7.15217 14.605C7.15217 14.8571 6.94775 15.0615 6.69564 15.0615H3.04345C2.79134 15.0615 2.58691 14.8571 2.58691 14.605C2.58691 14.3529 2.79134 14.1484 3.04345 14.1484H6.69564C6.94775 14.1485 7.15217 14.3529 7.15217 14.605ZM12.7826 14.1485H9.13038C8.87827 14.1485 8.67385 14.3529 8.67385 14.605C8.67385 14.8571 8.87827 15.0616 9.13038 15.0616H12.7826C13.0347 15.0616 13.2391 14.8571 13.2391 14.605C13.2391 14.3529 13.0347 14.1485 12.7826 14.1485ZM18.8695 14.1485H15.2173C14.9652 14.1485 14.7608 14.3529 14.7608 14.605C14.7608 14.8571 14.9652 15.0616 15.2173 15.0616H18.8695C19.1216 15.0616 19.326 14.8571 19.326 14.605C19.326 14.3529 19.1217 14.1485 18.8695 14.1485ZM24.9565 14.1485H21.3043C21.0522 14.1485 20.8478 14.3529 20.8478 14.605C20.8478 14.8571 21.0522 15.0616 21.3043 15.0616H24.9565C25.2086 15.0616 25.413 14.8571 25.413 14.605C25.413 14.3529 25.2086 14.1485 24.9565 14.1485Z" fill="#A62C18"/>
<path d="M6.39136 6.38862H5.78269C5.27847 6.38862 4.86963 5.97984 4.86963 5.47556C4.86963 4.97134 5.27842 4.5625 5.78269 4.5625H6.39136C6.89558 4.5625 7.30443 4.97129 7.30443 5.47556C7.30437 5.97978 6.89558 6.38862 6.39136 6.38862Z" fill="#FEE66B"/>
<path d="M21.8216 5.47881C21.8216 5.73091 21.6172 5.93534 21.3651 5.93534H21.3042C21.0521 5.93534 20.8477 5.73091 20.8477 5.47881C20.8477 5.2267 21.0521 5.02227 21.3042 5.02227H21.3651C21.6172 5.02227 21.8216 5.2267 21.8216 5.47881ZM22.8113 4.03057C22.5933 3.90424 22.3138 3.97856 22.1874 4.19677C22.061 4.41491 22.1354 4.69426 22.3536 4.8207C22.5886 4.95687 22.7346 5.20903 22.7346 5.47886C22.7346 5.74869 22.5887 6.00085 22.3536 6.13702C22.1354 6.26346 22.0611 6.54281 22.1874 6.76095C22.272 6.90702 22.4253 6.98873 22.5828 6.98873C22.6605 6.98873 22.7392 6.96888 22.8113 6.92715C23.3271 6.62828 23.6476 6.07331 23.6476 5.47891C23.6476 4.88452 23.3272 4.32944 22.8113 4.03057ZM24.0285 2.97548C23.8104 2.84932 23.5311 2.9237 23.4047 3.14195C23.2784 3.36016 23.3529 3.63945 23.5712 3.76572C24.1816 4.11889 24.5608 4.77531 24.5608 5.47875C24.5608 6.1822 24.1816 6.83866 23.5713 7.19189C23.3531 7.31822 23.2785 7.59745 23.4048 7.81566C23.4894 7.96195 23.6427 8.04359 23.8003 8.04359C23.8779 8.04359 23.9566 8.02374 24.0286 7.98213C24.9201 7.4662 25.4738 6.50704 25.4738 5.47875C25.4738 4.45046 24.92 3.49135 24.0285 2.97548Z" fill="white"/>
</svg>
