<svg width="23" height="23" viewBox="0 0 23 23" fill="none" xmlns="http://www.w3.org/2000/svg">
<path fill-rule="evenodd" clip-rule="evenodd" d="M16.1 23H20.7C21.9704 23 23 21.9704 23 20.7V16.1C23 15.6768 22.6565 15.3333 22.2333 15.3333C21.8101 15.3333 21.4667 15.6768 21.4667 16.1V20.7C21.4667 21.1232 21.1232 21.4667 20.7 21.4667H16.1C15.6768 21.4667 15.3333 21.8101 15.3333 22.2333C15.3333 22.6565 15.6768 23 16.1 23ZM6.9 21.4667H2.3C1.8768 21.4667 1.53333 21.1232 1.53333 20.7V16.1C1.53333 15.6768 1.18987 15.3333 0.766667 15.3333C0.343467 15.3333 0 15.6768 0 16.1V20.7C0 21.9704 1.02963 23 2.3 23H6.9C7.3232 23 7.66667 22.6565 7.66667 22.2333C7.66667 21.8101 7.3232 21.4667 6.9 21.4667ZM10.7333 14.5667V19.1667C10.7333 19.5899 11.0768 19.9333 11.5 19.9333C11.9232 19.9333 12.2667 19.5899 12.2667 19.1667V14.5667C12.2667 14.1435 11.9232 13.8 11.5 13.8C11.0768 13.8 10.7333 14.1435 10.7333 14.5667ZM9.2 14.5667C9.2 14.1435 8.85653 13.8 8.43333 13.8H3.83333C3.41013 13.8 3.06667 14.1435 3.06667 14.5667V19.1667C3.06667 19.5899 3.41013 19.9333 3.83333 19.9333H8.43333C8.85653 19.9333 9.2 19.5899 9.2 19.1667V14.5667ZM19.9333 14.5667C19.9333 14.1435 19.5899 13.8 19.1667 13.8H14.5667C14.1435 13.8 13.8 14.1435 13.8 14.5667V19.1667C13.8 19.5899 14.1435 19.9333 14.5667 19.9333H19.1667C19.5899 19.9333 19.9333 19.5899 19.9333 19.1667V14.5667ZM7.66667 15.3333V18.4H4.6V15.3333H7.66667ZM18.4 15.3333V18.4H15.3333V15.3333H18.4ZM10.7333 12.2667H11.5C11.9232 12.2667 12.2667 11.9232 12.2667 11.5C12.2667 11.0768 11.9232 10.7333 11.5 10.7333H10.7333C10.3101 10.7333 9.96667 11.0768 9.96667 11.5C9.96667 11.9232 10.3101 12.2667 10.7333 12.2667ZM3.83333 12.2667H7.66667C8.08987 12.2667 8.43333 11.9232 8.43333 11.5C8.43333 11.0768 8.08987 10.7333 7.66667 10.7333H3.83333C3.41013 10.7333 3.06667 11.0768 3.06667 11.5C3.06667 11.9232 3.41013 12.2667 3.83333 12.2667ZM17.6333 10.7333H18.4V11.5C18.4 11.9232 18.7435 12.2667 19.1667 12.2667C19.5899 12.2667 19.9333 11.9232 19.9333 11.5V9.96667C19.9333 9.54347 19.5899 9.2 19.1667 9.2H17.6333C17.2101 9.2 16.8667 9.54347 16.8667 9.96667C16.8667 10.3899 17.2101 10.7333 17.6333 10.7333ZM15.3333 11.5V7.66667H16.1C16.5232 7.66667 16.8667 7.3232 16.8667 6.9C16.8667 6.4768 16.5232 6.13333 16.1 6.13333H14.5667C14.1435 6.13333 13.8 6.4768 13.8 6.9V11.5C13.8 11.9232 14.1435 12.2667 14.5667 12.2667C14.9899 12.2667 15.3333 11.9232 15.3333 11.5ZM10.7333 6.9V8.43333C10.7333 8.85653 11.0768 9.2 11.5 9.2C11.9232 9.2 12.2667 8.85653 12.2667 8.43333V6.9C12.2667 6.4768 11.9232 6.13333 11.5 6.13333C11.0768 6.13333 10.7333 6.4768 10.7333 6.9ZM9.2 3.83333C9.2 3.41013 8.85653 3.06667 8.43333 3.06667H3.83333C3.41013 3.06667 3.06667 3.41013 3.06667 3.83333V8.43333C3.06667 8.85653 3.41013 9.2 3.83333 9.2H8.43333C8.85653 9.2 9.2 8.85653 9.2 8.43333V3.83333ZM6.9 0H2.3C1.02963 0 0 1.02963 0 2.3V6.9C0 7.3232 0.343467 7.66667 0.766667 7.66667C1.18987 7.66667 1.53333 7.3232 1.53333 6.9V2.3C1.53333 1.8768 1.8768 1.53333 2.3 1.53333H6.9C7.3232 1.53333 7.66667 1.18987 7.66667 0.766667C7.66667 0.343467 7.3232 0 6.9 0ZM7.66667 4.6V7.66667H4.6V4.6H7.66667ZM16.1 1.53333H20.7C21.1232 1.53333 21.4667 1.8768 21.4667 2.3V6.9C21.4667 7.3232 21.8101 7.66667 22.2333 7.66667C22.6565 7.66667 23 7.3232 23 6.9V2.3C23 1.02963 21.9704 0 20.7 0H16.1C15.6768 0 15.3333 0.343467 15.3333 0.766667C15.3333 1.18987 15.6768 1.53333 16.1 1.53333ZM11.5 4.6H18.4V6.9C18.4 7.3232 18.7435 7.66667 19.1667 7.66667C19.5899 7.66667 19.9333 7.3232 19.9333 6.9V3.83333C19.9333 3.41013 19.5899 3.06667 19.1667 3.06667H11.5C11.0768 3.06667 10.7333 3.41013 10.7333 3.83333C10.7333 4.25653 11.0768 4.6 11.5 4.6Z" fill="black"/>
</svg>
