<svg width="300" height="300" viewBox="0 0 300 300" fill="none" xmlns="http://www.w3.org/2000/svg">
<rect width="300" height="300" rx="50" fill="#0072E8"/>
<path d="M57.7301 113.636L66.5192 141.264H66.8565L75.6634 113.636H84.1861L71.6506 150H61.7429L49.1896 113.636H57.7301ZM88.5629 150V113.636H113.066V119.975H96.2511V128.64H111.805V134.979H96.2511V143.661H113.137V150H88.5629ZM119.178 150V113.636H143.681V119.975H126.866V128.64H142.42V134.979H126.866V143.661H143.752V150H119.178ZM149.793 150V113.636H157.482V143.661H173.071V150H149.793Z" fill="white"/>
<path d="M200.859 125.391C200.61 124.527 200.261 123.763 199.811 123.1C199.361 122.425 198.811 121.857 198.16 121.396C197.521 120.922 196.787 120.561 195.958 120.312C195.141 120.064 194.236 119.94 193.241 119.94C191.383 119.94 189.75 120.401 188.341 121.325C186.944 122.248 185.855 123.591 185.074 125.355C184.293 127.107 183.902 129.25 183.902 131.783C183.902 134.316 184.287 136.47 185.056 138.246C185.826 140.021 186.915 141.377 188.323 142.312C189.732 143.235 191.395 143.697 193.312 143.697C195.053 143.697 196.538 143.389 197.769 142.773C199.012 142.146 199.959 141.264 200.61 140.128C201.273 138.991 201.604 137.648 201.604 136.097L203.167 136.328H193.792V130.54H209.009V135.121C209.009 138.317 208.334 141.063 206.984 143.359C205.635 145.644 203.777 147.408 201.409 148.651C199.042 149.882 196.331 150.497 193.277 150.497C189.868 150.497 186.873 149.746 184.293 148.242C181.712 146.727 179.7 144.579 178.256 141.797C176.823 139.003 176.107 135.689 176.107 131.854C176.107 128.906 176.533 126.278 177.386 123.97C178.25 121.65 179.457 119.685 181.008 118.075C182.558 116.465 184.364 115.24 186.423 114.4C188.483 113.559 190.714 113.139 193.117 113.139C195.177 113.139 197.094 113.441 198.87 114.045C200.646 114.637 202.22 115.477 203.593 116.566C204.978 117.655 206.108 118.951 206.984 120.455C207.86 121.946 208.423 123.591 208.671 125.391H200.859ZM248.2 131.818C248.2 135.784 247.448 139.157 245.945 141.939C244.453 144.721 242.417 146.845 239.837 148.313C237.268 149.769 234.38 150.497 231.172 150.497C227.941 150.497 225.04 149.763 222.472 148.295C219.903 146.828 217.873 144.703 216.382 141.921C214.89 139.139 214.144 135.772 214.144 131.818C214.144 127.853 214.89 124.479 216.382 121.697C217.873 118.916 219.903 116.797 222.472 115.341C225.04 113.873 227.941 113.139 231.172 113.139C234.38 113.139 237.268 113.873 239.837 115.341C242.417 116.797 244.453 118.916 245.945 121.697C247.448 124.479 248.2 127.853 248.2 131.818ZM240.405 131.818C240.405 129.25 240.02 127.083 239.251 125.32C238.493 123.556 237.422 122.218 236.037 121.307C234.652 120.395 233.03 119.94 231.172 119.94C229.314 119.94 227.692 120.395 226.307 121.307C224.922 122.218 223.845 123.556 223.075 125.32C222.318 127.083 221.939 129.25 221.939 131.818C221.939 134.387 222.318 136.553 223.075 138.317C223.845 140.08 224.922 141.418 226.307 142.33C227.692 143.241 229.314 143.697 231.172 143.697C233.03 143.697 234.652 143.241 236.037 142.33C237.422 141.418 238.493 140.08 239.251 138.317C240.02 136.553 240.405 134.387 240.405 131.818Z" fill="#FFF500"/>
<path d="M93.397 191V169.182H101.387C102.935 169.182 104.217 169.437 105.233 169.949C106.249 170.453 107.009 171.138 107.513 172.005C108.017 172.864 108.269 173.834 108.269 174.913C108.269 175.822 108.102 176.589 107.768 177.214C107.435 177.832 106.987 178.33 106.426 178.706C105.872 179.075 105.261 179.345 104.594 179.516V179.729C105.318 179.764 106.025 179.999 106.714 180.432C107.41 180.858 107.985 181.465 108.44 182.254C108.894 183.042 109.121 184.001 109.121 185.13C109.121 186.245 108.859 187.246 108.333 188.134C107.815 189.015 107.012 189.714 105.925 190.233C104.839 190.744 103.45 191 101.76 191H93.397ZM96.6889 188.177H101.44C103.017 188.177 104.146 187.871 104.828 187.261C105.51 186.65 105.851 185.886 105.851 184.97C105.851 184.281 105.677 183.649 105.329 183.074C104.981 182.499 104.484 182.04 103.837 181.7C103.198 181.359 102.438 181.188 101.558 181.188H96.6889V188.177ZM96.6889 178.621H101.099C101.838 178.621 102.502 178.479 103.092 178.195C103.688 177.911 104.161 177.513 104.509 177.001C104.864 176.483 105.041 175.872 105.041 175.169C105.041 174.267 104.725 173.511 104.093 172.9C103.461 172.289 102.491 171.984 101.185 171.984H96.6889V178.621ZM119.663 191.33C118.129 191.33 116.79 190.979 115.647 190.276C114.503 189.572 113.615 188.589 112.983 187.325C112.351 186.06 112.035 184.583 112.035 182.893C112.035 181.195 112.351 179.711 112.983 178.44C113.615 177.168 114.503 176.181 115.647 175.478C116.79 174.775 118.129 174.423 119.663 174.423C121.197 174.423 122.536 174.775 123.679 175.478C124.823 176.181 125.711 177.168 126.343 178.44C126.975 179.711 127.291 181.195 127.291 182.893C127.291 184.583 126.975 186.06 126.343 187.325C125.711 188.589 124.823 189.572 123.679 190.276C122.536 190.979 121.197 191.33 119.663 191.33ZM119.674 188.656C120.668 188.656 121.492 188.393 122.145 187.868C122.799 187.342 123.282 186.643 123.594 185.769C123.914 184.896 124.074 183.933 124.074 182.882C124.074 181.838 123.914 180.879 123.594 180.006C123.282 179.125 122.799 178.418 122.145 177.886C121.492 177.353 120.668 177.087 119.674 177.087C118.672 177.087 117.841 177.353 117.181 177.886C116.527 178.418 116.041 179.125 115.721 180.006C115.409 180.879 115.252 181.838 115.252 182.882C115.252 183.933 115.409 184.896 115.721 185.769C116.041 186.643 116.527 187.342 117.181 187.868C117.841 188.393 118.672 188.656 119.674 188.656ZM137.739 191.33C136.205 191.33 134.866 190.979 133.723 190.276C132.579 189.572 131.692 188.589 131.059 187.325C130.427 186.06 130.111 184.583 130.111 182.893C130.111 181.195 130.427 179.711 131.059 178.44C131.692 177.168 132.579 176.181 133.723 175.478C134.866 174.775 136.205 174.423 137.739 174.423C139.273 174.423 140.612 174.775 141.756 175.478C142.899 176.181 143.787 177.168 144.419 178.44C145.051 179.711 145.367 181.195 145.367 182.893C145.367 184.583 145.051 186.06 144.419 187.325C143.787 188.589 142.899 189.572 141.756 190.276C140.612 190.979 139.273 191.33 137.739 191.33ZM137.75 188.656C138.744 188.656 139.568 188.393 140.221 187.868C140.875 187.342 141.358 186.643 141.67 185.769C141.99 184.896 142.15 183.933 142.15 182.882C142.15 181.838 141.99 180.879 141.67 180.006C141.358 179.125 140.875 178.418 140.221 177.886C139.568 177.353 138.744 177.087 137.75 177.087C136.748 177.087 135.917 177.353 135.257 177.886C134.604 178.418 134.117 179.125 133.797 180.006C133.485 180.879 133.329 181.838 133.329 182.882C133.329 183.933 133.485 184.896 133.797 185.769C134.117 186.643 134.604 187.342 135.257 187.868C135.917 188.393 136.748 188.656 137.75 188.656ZM151.852 185.45L151.831 181.561H152.385L158.905 174.636H162.719L155.283 182.52H154.782L151.852 185.45ZM148.923 191V169.182H152.108V191H148.923ZM159.256 191L153.397 183.223L155.592 180.996L163.166 191H159.256ZM165.622 191V174.636H168.807V191H165.622ZM167.23 172.112C166.676 172.112 166.201 171.927 165.803 171.558C165.412 171.181 165.217 170.734 165.217 170.215C165.217 169.69 165.412 169.242 165.803 168.873C166.201 168.496 166.676 168.308 167.23 168.308C167.784 168.308 168.257 168.496 168.647 168.873C169.045 169.242 169.244 169.69 169.244 170.215C169.244 170.734 169.045 171.181 168.647 171.558C168.257 171.927 167.784 172.112 167.23 172.112ZM176.278 181.284V191H173.093V174.636H176.15V177.3H176.352C176.729 176.433 177.318 175.737 178.121 175.212C178.931 174.686 179.95 174.423 181.178 174.423C182.294 174.423 183.27 174.658 184.108 175.126C184.946 175.588 185.596 176.277 186.058 177.193C186.519 178.109 186.75 179.242 186.75 180.592V191H183.565V180.975C183.565 179.789 183.256 178.862 182.638 178.195C182.02 177.52 181.171 177.183 180.092 177.183C179.353 177.183 178.696 177.342 178.121 177.662C177.553 177.982 177.102 178.45 176.768 179.068C176.441 179.679 176.278 180.418 176.278 181.284ZM197.883 197.477C196.583 197.477 195.465 197.307 194.527 196.966C193.597 196.625 192.837 196.174 192.247 195.613C191.658 195.052 191.218 194.438 190.926 193.77L193.664 192.641C193.856 192.953 194.112 193.283 194.431 193.631C194.758 193.987 195.198 194.288 195.752 194.537C196.313 194.786 197.034 194.91 197.915 194.91C199.122 194.91 200.12 194.615 200.909 194.026C201.697 193.443 202.091 192.513 202.091 191.234V188.017H201.889C201.697 188.365 201.42 188.752 201.058 189.178C200.703 189.604 200.213 189.974 199.588 190.286C198.963 190.599 198.149 190.755 197.148 190.755C195.855 190.755 194.691 190.453 193.654 189.849C192.624 189.239 191.807 188.34 191.203 187.154C190.607 185.961 190.308 184.494 190.308 182.754C190.308 181.014 190.603 179.523 191.193 178.28C191.789 177.037 192.606 176.085 193.643 175.425C194.68 174.757 195.855 174.423 197.169 174.423C198.185 174.423 199.005 174.594 199.63 174.935C200.255 175.268 200.742 175.659 201.09 176.107C201.445 176.554 201.718 176.948 201.91 177.289H202.144V174.636H205.266V191.362C205.266 192.768 204.939 193.923 204.286 194.825C203.632 195.727 202.748 196.394 201.633 196.827C200.525 197.261 199.275 197.477 197.883 197.477ZM197.851 188.113C198.767 188.113 199.541 187.9 200.173 187.474C200.813 187.04 201.296 186.423 201.622 185.62C201.956 184.81 202.123 183.841 202.123 182.712C202.123 181.611 201.96 180.641 201.633 179.803C201.306 178.965 200.827 178.312 200.195 177.843C199.563 177.367 198.781 177.129 197.851 177.129C196.892 177.129 196.093 177.378 195.454 177.875C194.815 178.365 194.332 179.033 194.005 179.878C193.686 180.723 193.526 181.668 193.526 182.712C193.526 183.784 193.689 184.725 194.016 185.535C194.343 186.344 194.825 186.977 195.465 187.431C196.111 187.886 196.906 188.113 197.851 188.113Z" fill="white"/>
</svg>
