<svg width="111" height="92" viewBox="0 0 111 92" fill="none" xmlns="http://www.w3.org/2000/svg">
<path fill-rule="evenodd" clip-rule="evenodd" d="M54.4199 54.7907H60.1179C61.0675 54.6422 62.0172 54.1968 62.7477 53.6028C63.186 52.8604 63.5513 52.0437 63.5513 51.0786C63.5513 51.0786 63.4052 43.3574 66.9847 42.1695C70.5642 40.9817 74.9472 49.668 79.6956 53.0089C83.2751 55.5331 85.978 54.9392 85.978 54.9392L98.6888 54.7165C98.6888 54.7165 105.336 54.3452 102.122 49.0741C101.903 48.6286 100.223 45.2135 92.6256 38.012C84.663 30.5135 85.7588 31.7756 95.3285 18.709C101.173 10.8393 103.51 6.01361 102.78 3.86059C102.049 1.70757 97.8122 2.44999 97.8122 2.44999L83.5673 2.59847C82.9829 2.44999 82.2523 2.59847 81.6679 2.96969C81.0835 3.3409 80.7183 3.93483 80.353 4.52877C78.965 8.38936 77.1388 12.25 75.1664 15.8878C68.7379 26.8757 66.2542 27.4696 65.2315 26.7272C62.8938 25.1681 63.4782 20.3423 63.4782 16.9272C63.4782 6.31058 65.0123 1.85605 60.4101 0.742421C58.2916 0.296969 56.027 0 53.7624 0C48.6489 0 44.4119 -1.15055e-06 41.9282 1.18787C40.1749 1.93029 39.0061 3.71211 39.7366 3.71211C41.4168 3.86059 42.8048 4.67726 43.9736 5.86513C45.3616 7.94391 45.3616 12.3984 45.3616 12.3984C45.3616 12.3984 46.1651 24.9454 43.3161 26.5044C41.4168 27.6181 38.787 25.3908 33.089 15.4424C31.1897 11.953 29.4364 8.4636 27.9754 4.67725C27.7563 4.08332 27.2449 3.48938 26.8066 3.11817C26.5874 2.96969 26.3683 2.74696 26.0761 2.74696C25.3456 2.37575 24.542 2.30151 23.7384 2.30151L11.0276 2.44999C11.0276 2.44999 8.98213 2.44999 8.32467 3.41514C7.59416 4.38029 8.32467 5.79089 8.32467 5.79089C8.32467 5.79089 18.9901 31.1075 30.9705 43.8029C42.0012 55.6074 54.4199 54.7907 54.4199 54.7907Z" fill="white"/>
<path d="M3.04261 74.9091L6.44957 85.2131H6.58381L9.98438 74.9091H12.5923L7.97727 88H5.04972L0.441051 74.9091H3.04261ZM14.3166 88V74.9091H16.688V80.924H16.8478L21.9551 74.9091H24.8507L19.7882 80.7834L24.8954 88H22.0446L18.139 82.3878L16.688 84.1009V88H14.3166ZM30.9631 88V74.9091H39.4773V76.897H33.3345V80.451H39.0362V82.4389H33.3345V86.0121H39.5284V88H30.9631ZM43.8782 74.9091L46.761 79.7031H46.8633L49.7589 74.9091H52.4627L48.4293 81.4545L52.5266 88H49.7781L46.8633 83.2379H46.761L43.8462 88H41.1104L45.2461 81.4545L41.1616 74.9091H43.8782ZM54.3244 88V74.9091H59.2335C60.2392 74.9091 61.0829 75.0966 61.7647 75.4716C62.4508 75.8466 62.9686 76.3622 63.318 77.0185C63.6717 77.6705 63.8485 78.4119 63.8485 79.2429C63.8485 80.0824 63.6717 80.8281 63.318 81.4801C62.9643 82.1321 62.4423 82.6456 61.752 83.0206C61.0616 83.3913 60.2115 83.5767 59.2015 83.5767H55.948V81.6271H58.8819C59.47 81.6271 59.9515 81.5249 60.3265 81.3203C60.7015 81.1158 60.9785 80.8345 61.1575 80.4766C61.3407 80.1186 61.4324 79.7074 61.4324 79.2429C61.4324 78.7784 61.3407 78.3693 61.1575 78.0156C60.9785 77.6619 60.6994 77.3871 60.3201 77.1911C59.9451 76.9908 59.4615 76.8906 58.8691 76.8906H56.6958V88H54.3244ZM65.9084 88V74.9091H70.8175C71.8232 74.9091 72.6669 75.0838 73.3487 75.4332C74.0348 75.7827 74.5526 76.2727 74.902 76.9034C75.2557 77.5298 75.4325 78.2607 75.4325 79.0959C75.4325 79.9354 75.2536 80.6641 74.8956 81.282C74.5419 81.8956 74.0199 82.3707 73.3295 82.7074C72.6392 83.0398 71.7912 83.206 70.7855 83.206H67.2891V81.2372H70.4659C71.054 81.2372 71.5355 81.1562 71.9105 80.9943C72.2855 80.8281 72.5625 80.5874 72.7415 80.272C72.9247 79.9524 73.0163 79.5604 73.0163 79.0959C73.0163 78.6314 72.9247 78.2351 72.7415 77.907C72.5582 77.5746 72.2791 77.3232 71.9041 77.1527C71.5291 76.978 71.0455 76.8906 70.4531 76.8906H68.2798V88H65.9084ZM72.6712 82.0682L75.9119 88H73.2656L70.0824 82.0682H72.6712ZM77.6154 88V74.9091H86.1296V76.897H79.9869V80.451H85.6886V82.4389H79.9869V86.0121H86.1808V88H77.6154ZM95.6634 78.5078C95.6037 77.9496 95.3523 77.5149 94.9091 77.2038C94.4702 76.8928 93.8991 76.7372 93.196 76.7372C92.7017 76.7372 92.2777 76.8118 91.924 76.9609C91.5703 77.1101 91.2997 77.3125 91.1122 77.5682C90.9247 77.8239 90.8288 78.1158 90.8246 78.4439C90.8246 78.7166 90.8864 78.9531 91.0099 79.1534C91.1378 79.3537 91.3104 79.5241 91.5277 79.6648C91.745 79.8011 91.9858 79.9162 92.25 80.0099C92.5142 80.1037 92.7805 80.1825 93.049 80.2464L94.2763 80.5533C94.7706 80.6683 95.2457 80.8239 95.7017 81.0199C96.1619 81.2159 96.5732 81.4631 96.9354 81.7614C97.3018 82.0597 97.5916 82.4197 97.8047 82.8416C98.0178 83.2635 98.1243 83.7578 98.1243 84.3246C98.1243 85.0916 97.9283 85.767 97.5362 86.3509C97.1442 86.9304 96.5774 87.3842 95.8359 87.7124C95.0987 88.0362 94.206 88.1982 93.1577 88.1982C92.1392 88.1982 91.255 88.0405 90.505 87.7251C89.7592 87.4098 89.1754 86.9496 88.7536 86.3445C88.3359 85.7393 88.1101 85.0021 88.076 84.1328H90.4091C90.4432 84.5888 90.5838 84.968 90.831 85.2706C91.0781 85.5732 91.3999 85.799 91.7962 85.9482C92.1967 86.0973 92.6442 86.1719 93.1385 86.1719C93.6541 86.1719 94.1058 86.0952 94.4936 85.9418C94.8857 85.7841 95.1925 85.5668 95.4141 85.2898C95.6357 85.0085 95.7486 84.6804 95.7528 84.3054C95.7486 83.9645 95.6484 83.6832 95.4524 83.4616C95.2564 83.2358 94.9815 83.0483 94.6278 82.8991C94.2784 82.7457 93.8693 82.6094 93.4006 82.4901L91.9112 82.1065C90.8331 81.8295 89.9808 81.4098 89.3544 80.8473C88.7322 80.2805 88.4212 79.5284 88.4212 78.5909C88.4212 77.8196 88.63 77.1442 89.0476 76.5646C89.4695 75.9851 90.0426 75.5355 90.767 75.2159C91.4915 74.892 92.3118 74.7301 93.228 74.7301C94.157 74.7301 94.9709 74.892 95.6697 75.2159C96.3729 75.5355 96.9247 75.9808 97.3253 76.5518C97.7259 77.1186 97.9325 77.7706 97.9453 78.5078H95.6634ZM107.353 78.5078C107.293 77.9496 107.042 77.5149 106.599 77.2038C106.16 76.8928 105.589 76.7372 104.885 76.7372C104.391 76.7372 103.967 76.8118 103.613 76.9609C103.26 77.1101 102.989 77.3125 102.802 77.5682C102.614 77.8239 102.518 78.1158 102.514 78.4439C102.514 78.7166 102.576 78.9531 102.699 79.1534C102.827 79.3537 103 79.5241 103.217 79.6648C103.434 79.8011 103.675 79.9162 103.939 80.0099C104.204 80.1037 104.47 80.1825 104.738 80.2464L105.966 80.5533C106.46 80.6683 106.935 80.8239 107.391 81.0199C107.851 81.2159 108.263 81.4631 108.625 81.7614C108.991 82.0597 109.281 82.4197 109.494 82.8416C109.707 83.2635 109.814 83.7578 109.814 84.3246C109.814 85.0916 109.618 85.767 109.226 86.3509C108.834 86.9304 108.267 87.3842 107.525 87.7124C106.788 88.0362 105.895 88.1982 104.847 88.1982C103.829 88.1982 102.944 88.0405 102.194 87.7251C101.449 87.4098 100.865 86.9496 100.443 86.3445C100.025 85.7393 99.7995 85.0021 99.7654 84.1328H102.099C102.133 84.5888 102.273 84.968 102.52 85.2706C102.768 85.5732 103.089 85.799 103.486 85.9482C103.886 86.0973 104.334 86.1719 104.828 86.1719C105.344 86.1719 105.795 86.0952 106.183 85.9418C106.575 85.7841 106.882 85.5668 107.104 85.2898C107.325 85.0085 107.438 84.6804 107.442 84.3054C107.438 83.9645 107.338 83.6832 107.142 83.4616C106.946 83.2358 106.671 83.0483 106.317 82.8991C105.968 82.7457 105.559 82.6094 105.09 82.4901L103.601 82.1065C102.523 81.8295 101.67 81.4098 101.044 80.8473C100.422 80.2805 100.111 79.5284 100.111 78.5909C100.111 77.8196 100.319 77.1442 100.737 76.5646C101.159 75.9851 101.732 75.5355 102.456 75.2159C103.181 74.892 104.001 74.7301 104.917 74.7301C105.846 74.7301 106.66 74.892 107.359 75.2159C108.062 75.5355 108.614 75.9808 109.015 76.5518C109.415 77.1186 109.622 77.7706 109.635 78.5078H107.353Z" fill="white"/>
</svg>
