<svg width="500" height="230" viewBox="0 0 500 230" fill="none" xmlns="http://www.w3.org/2000/svg">
<rect width="500" height="230" rx="20" fill="url(#paint0_linear_3924_7938)"/>
<rect x="21" y="169" width="140" height="40" rx="10" fill="#000B95"/>
<path d="M25.35 48C24.69 48 24.18 47.83 23.82 47.49C23.48 47.13 23.31 46.62 23.31 45.96V28.89C23.31 28.23 23.48 27.73 23.82 27.39C24.18 27.03 24.69 26.85 25.35 26.85H32.55C34.03 26.85 35.29 27.07 36.33 27.51C37.37 27.95 38.16 28.58 38.7 29.4C39.26 30.22 39.54 31.2 39.54 32.34C39.54 33.62 39.17 34.7 38.43 35.58C37.69 36.46 36.68 37.05 35.4 37.35V36.9C36.88 37.12 38.03 37.68 38.85 38.58C39.67 39.48 40.08 40.65 40.08 42.09C40.08 43.97 39.44 45.43 38.16 46.47C36.9 47.49 35.14 48 32.88 48H25.35ZM27 45.09H32.4C33.76 45.09 34.76 44.83 35.4 44.31C36.04 43.77 36.36 42.97 36.36 41.91C36.36 40.83 36.04 40.03 35.4 39.51C34.76 38.99 33.76 38.73 32.4 38.73H27V45.09ZM27 35.82H31.89C33.21 35.82 34.19 35.57 34.83 35.07C35.49 34.55 35.82 33.79 35.82 32.79C35.82 31.79 35.49 31.04 34.83 30.54C34.19 30.02 33.21 29.76 31.89 29.76H27V35.82ZM50.4943 48.3C48.9743 48.3 47.6543 47.99 46.5343 47.37C45.4143 46.75 44.5443 45.87 43.9243 44.73C43.3043 43.57 42.9943 42.21 42.9943 40.65C42.9943 39.47 43.1643 38.42 43.5043 37.5C43.8643 36.56 44.3743 35.76 45.0343 35.1C45.6943 34.42 46.4843 33.91 47.4043 33.57C48.3243 33.21 49.3543 33.03 50.4943 33.03C52.0143 33.03 53.3343 33.34 54.4543 33.96C55.5743 34.58 56.4443 35.46 57.0643 36.6C57.6843 37.74 57.9943 39.09 57.9943 40.65C57.9943 41.83 57.8143 42.89 57.4543 43.83C57.1143 44.77 56.6143 45.58 55.9543 46.26C55.2943 46.92 54.5043 47.43 53.5843 47.79C52.6643 48.13 51.6343 48.3 50.4943 48.3ZM50.4943 45.45C51.2343 45.45 51.8843 45.27 52.4443 44.91C53.0043 44.55 53.4343 44.02 53.7343 43.32C54.0543 42.6 54.2143 41.71 54.2143 40.65C54.2143 39.05 53.8743 37.86 53.1943 37.08C52.5143 36.28 51.6143 35.88 50.4943 35.88C49.7543 35.88 49.1043 36.06 48.5443 36.42C47.9843 36.76 47.5443 37.29 47.2243 38.01C46.9243 38.71 46.7743 39.59 46.7743 40.65C46.7743 42.23 47.1143 43.43 47.7943 44.25C48.4743 45.05 49.3743 45.45 50.4943 45.45ZM67.9795 48.3C66.4595 48.3 65.1395 47.99 64.0195 47.37C62.8995 46.75 62.0295 45.87 61.4095 44.73C60.7895 43.57 60.4795 42.21 60.4795 40.65C60.4795 39.47 60.6495 38.42 60.9895 37.5C61.3495 36.56 61.8595 35.76 62.5195 35.1C63.1795 34.42 63.9695 33.91 64.8895 33.57C65.8095 33.21 66.8395 33.03 67.9795 33.03C69.4995 33.03 70.8195 33.34 71.9395 33.96C73.0595 34.58 73.9295 35.46 74.5495 36.6C75.1695 37.74 75.4795 39.09 75.4795 40.65C75.4795 41.83 75.2995 42.89 74.9395 43.83C74.5995 44.77 74.0995 45.58 73.4395 46.26C72.7795 46.92 71.9895 47.43 71.0695 47.79C70.1495 48.13 69.1195 48.3 67.9795 48.3ZM67.9795 45.45C68.7195 45.45 69.3695 45.27 69.9295 44.91C70.4895 44.55 70.9195 44.02 71.2195 43.32C71.5395 42.6 71.6995 41.71 71.6995 40.65C71.6995 39.05 71.3595 37.86 70.6795 37.08C69.9995 36.28 69.0995 35.88 67.9795 35.88C67.2395 35.88 66.5895 36.06 66.0295 36.42C65.4695 36.76 65.0295 37.29 64.7095 38.01C64.4095 38.71 64.2595 39.59 64.2595 40.65C64.2595 42.23 64.5995 43.43 65.2795 44.25C65.9595 45.05 66.8595 45.45 67.9795 45.45ZM80.6346 48.24C80.0346 48.24 79.5746 48.08 79.2546 47.76C78.9346 47.42 78.7746 46.94 78.7746 46.32V28.5C78.7746 27.88 78.9346 27.41 79.2546 27.09C79.5746 26.77 80.0346 26.61 80.6346 26.61C81.2346 26.61 81.6946 26.77 82.0146 27.09C82.3546 27.41 82.5246 27.88 82.5246 28.5V39.57H82.5846L87.5346 34.35C87.9346 33.95 88.2846 33.64 88.5846 33.42C88.8846 33.2 89.2946 33.09 89.8146 33.09C90.3346 33.09 90.7246 33.23 90.9846 33.51C91.2646 33.77 91.4046 34.09 91.4046 34.47C91.4046 34.85 91.2246 35.23 90.8646 35.61L85.6446 41.13V39.57L91.3746 45.75C91.7346 46.13 91.8946 46.52 91.8546 46.92C91.8346 47.3 91.6746 47.62 91.3746 47.88C91.0746 48.12 90.6946 48.24 90.2346 48.24C89.6746 48.24 89.2246 48.13 88.8846 47.91C88.5646 47.69 88.2046 47.36 87.8046 46.92L82.5846 41.46H82.5246V46.32C82.5246 47.6 81.8946 48.24 80.6346 48.24ZM110.723 48.24C110.103 48.24 109.623 48.07 109.283 47.73C108.963 47.37 108.803 46.87 108.803 46.23V37.11L109.613 39.42L102.383 29.25C102.123 28.89 102.003 28.51 102.023 28.11C102.063 27.69 102.233 27.34 102.533 27.06C102.833 26.76 103.253 26.61 103.793 26.61C104.193 26.61 104.553 26.71 104.873 26.91C105.213 27.11 105.533 27.42 105.833 27.84L111.203 35.46H110.363L115.763 27.84C116.083 27.4 116.393 27.09 116.693 26.91C116.993 26.71 117.363 26.61 117.803 26.61C118.323 26.61 118.723 26.75 119.003 27.03C119.303 27.29 119.453 27.62 119.453 28.02C119.473 28.42 119.333 28.84 119.033 29.28L111.863 39.42L112.643 37.11V46.23C112.643 47.57 112.003 48.24 110.723 48.24ZM126.348 48.3C124.828 48.3 123.508 47.99 122.388 47.37C121.268 46.75 120.398 45.87 119.778 44.73C119.158 43.57 118.848 42.21 118.848 40.65C118.848 39.47 119.018 38.42 119.358 37.5C119.718 36.56 120.228 35.76 120.888 35.1C121.548 34.42 122.338 33.91 123.258 33.57C124.178 33.21 125.208 33.03 126.348 33.03C127.868 33.03 129.188 33.34 130.308 33.96C131.428 34.58 132.298 35.46 132.918 36.6C133.538 37.74 133.848 39.09 133.848 40.65C133.848 41.83 133.668 42.89 133.308 43.83C132.968 44.77 132.468 45.58 131.808 46.26C131.148 46.92 130.358 47.43 129.438 47.79C128.518 48.13 127.488 48.3 126.348 48.3ZM126.348 45.45C127.088 45.45 127.738 45.27 128.298 44.91C128.858 44.55 129.288 44.02 129.588 43.32C129.908 42.6 130.068 41.71 130.068 40.65C130.068 39.05 129.728 37.86 129.048 37.08C128.368 36.28 127.468 35.88 126.348 35.88C125.608 35.88 124.958 36.06 124.398 36.42C123.838 36.76 123.398 37.29 123.078 38.01C122.778 38.71 122.628 39.59 122.628 40.65C122.628 42.23 122.968 43.43 123.648 44.25C124.328 45.05 125.228 45.45 126.348 45.45ZM142.453 48.3C141.233 48.3 140.223 48.08 139.423 47.64C138.623 47.18 138.023 46.5 137.623 45.6C137.243 44.7 137.053 43.58 137.053 42.24V34.98C137.053 34.34 137.213 33.87 137.533 33.57C137.853 33.25 138.313 33.09 138.913 33.09C139.513 33.09 139.973 33.25 140.293 33.57C140.633 33.87 140.803 34.34 140.803 34.98V42.3C140.803 43.34 141.013 44.11 141.433 44.61C141.853 45.11 142.523 45.36 143.443 45.36C144.443 45.36 145.263 45.02 145.903 44.34C146.543 43.64 146.863 42.72 146.863 41.58V34.98C146.863 34.34 147.023 33.87 147.343 33.57C147.663 33.25 148.123 33.09 148.723 33.09C149.323 33.09 149.783 33.25 150.103 33.57C150.443 33.87 150.613 34.34 150.613 34.98V46.32C150.613 47.6 150.003 48.24 148.783 48.24C148.203 48.24 147.753 48.08 147.433 47.76C147.113 47.42 146.953 46.94 146.953 46.32V44.04L147.373 44.94C146.953 46.02 146.313 46.85 145.453 47.43C144.613 48.01 143.613 48.3 142.453 48.3ZM156.636 48.24C156.016 48.24 155.536 48.08 155.196 47.76C154.876 47.42 154.716 46.94 154.716 46.32V34.98C154.716 34.36 154.876 33.89 155.196 33.57C155.516 33.25 155.966 33.09 156.546 33.09C157.126 33.09 157.576 33.25 157.896 33.57C158.216 33.89 158.376 34.36 158.376 34.98V36.87H158.076C158.356 35.67 158.906 34.76 159.726 34.14C160.546 33.52 161.636 33.15 162.996 33.03C163.416 32.99 163.746 33.1 163.986 33.36C164.246 33.6 164.396 33.98 164.436 34.5C164.476 35 164.356 35.41 164.076 35.73C163.816 36.03 163.416 36.21 162.876 36.27L162.216 36.33C160.996 36.45 160.076 36.83 159.456 37.47C158.836 38.09 158.526 38.97 158.526 40.11V46.32C158.526 46.94 158.366 47.42 158.046 47.76C157.726 48.08 157.256 48.24 156.636 48.24ZM182.389 48.24C181.769 48.24 181.289 48.07 180.949 47.73C180.629 47.37 180.469 46.88 180.469 46.26V30.06H174.619C174.099 30.06 173.689 29.92 173.389 29.64C173.109 29.34 172.969 28.94 172.969 28.44C172.969 27.92 173.109 27.53 173.389 27.27C173.689 26.99 174.099 26.85 174.619 26.85H190.159C190.679 26.85 191.079 26.99 191.359 27.27C191.659 27.53 191.809 27.92 191.809 28.44C191.809 28.94 191.659 29.34 191.359 29.64C191.079 29.92 190.679 30.06 190.159 30.06H184.309V46.26C184.309 46.88 184.149 47.37 183.829 47.73C183.509 48.07 183.029 48.24 182.389 48.24ZM193.418 48.24C192.798 48.24 192.318 48.08 191.978 47.76C191.658 47.42 191.498 46.94 191.498 46.32V34.98C191.498 34.36 191.658 33.89 191.978 33.57C192.298 33.25 192.748 33.09 193.328 33.09C193.908 33.09 194.358 33.25 194.678 33.57C194.998 33.89 195.158 34.36 195.158 34.98V36.87H194.858C195.138 35.67 195.688 34.76 196.508 34.14C197.328 33.52 198.418 33.15 199.778 33.03C200.198 32.99 200.528 33.1 200.768 33.36C201.028 33.6 201.178 33.98 201.218 34.5C201.258 35 201.138 35.41 200.858 35.73C200.598 36.03 200.198 36.21 199.658 36.27L198.998 36.33C197.778 36.45 196.858 36.83 196.238 37.47C195.618 38.09 195.308 38.97 195.308 40.11V46.32C195.308 46.94 195.148 47.42 194.828 47.76C194.508 48.08 194.038 48.24 193.418 48.24ZM208.756 48.3C207.536 48.3 206.526 48.08 205.726 47.64C204.926 47.18 204.326 46.5 203.926 45.6C203.546 44.7 203.356 43.58 203.356 42.24V34.98C203.356 34.34 203.516 33.87 203.836 33.57C204.156 33.25 204.616 33.09 205.216 33.09C205.816 33.09 206.276 33.25 206.596 33.57C206.936 33.87 207.106 34.34 207.106 34.98V42.3C207.106 43.34 207.316 44.11 207.736 44.61C208.156 45.11 208.826 45.36 209.746 45.36C210.746 45.36 211.566 45.02 212.206 44.34C212.846 43.64 213.166 42.72 213.166 41.58V34.98C213.166 34.34 213.326 33.87 213.646 33.57C213.966 33.25 214.426 33.09 215.026 33.09C215.626 33.09 216.086 33.25 216.406 33.57C216.746 33.87 216.916 34.34 216.916 34.98V46.32C216.916 47.6 216.306 48.24 215.086 48.24C214.506 48.24 214.056 48.08 213.736 47.76C213.416 47.42 213.256 46.94 213.256 46.32V44.04L213.676 44.94C213.256 46.02 212.616 46.85 211.756 47.43C210.916 48.01 209.916 48.3 208.756 48.3ZM227.799 48.3C226.259 48.3 224.919 47.99 223.779 47.37C222.639 46.73 221.759 45.83 221.139 44.67C220.519 43.51 220.209 42.15 220.209 40.59C220.209 39.41 220.379 38.36 220.719 37.44C221.079 36.5 221.589 35.71 222.249 35.07C222.909 34.41 223.709 33.91 224.649 33.57C225.589 33.21 226.639 33.03 227.799 33.03C228.459 33.03 229.169 33.12 229.929 33.3C230.709 33.48 231.439 33.78 232.119 34.2C232.439 34.4 232.649 34.64 232.749 34.92C232.849 35.2 232.869 35.49 232.809 35.79C232.749 36.07 232.619 36.32 232.419 36.54C232.239 36.74 232.009 36.87 231.729 36.93C231.449 36.97 231.139 36.9 230.799 36.72C230.359 36.46 229.909 36.27 229.449 36.15C228.989 36.01 228.549 35.94 228.129 35.94C227.469 35.94 226.889 36.05 226.389 36.27C225.889 36.47 225.459 36.77 225.099 37.17C224.759 37.55 224.499 38.03 224.319 38.61C224.139 39.19 224.049 39.86 224.049 40.62C224.049 42.1 224.399 43.27 225.099 44.13C225.819 44.97 226.829 45.39 228.129 45.39C228.549 45.39 228.979 45.33 229.419 45.21C229.879 45.09 230.339 44.9 230.799 44.64C231.139 44.46 231.439 44.4 231.699 44.46C231.979 44.52 232.209 44.66 232.389 44.88C232.569 45.08 232.679 45.33 232.719 45.63C232.759 45.91 232.719 46.19 232.599 46.47C232.499 46.75 232.299 46.98 231.999 47.16C231.339 47.56 230.639 47.85 229.899 48.03C229.159 48.21 228.459 48.3 227.799 48.3ZM237.229 48.24C236.629 48.24 236.169 48.08 235.849 47.76C235.529 47.42 235.369 46.94 235.369 46.32V28.5C235.369 27.88 235.529 27.41 235.849 27.09C236.169 26.77 236.629 26.61 237.229 26.61C237.829 26.61 238.289 26.77 238.609 27.09C238.949 27.41 239.119 27.88 239.119 28.5V39.57H239.179L244.129 34.35C244.529 33.95 244.879 33.64 245.179 33.42C245.479 33.2 245.889 33.09 246.409 33.09C246.929 33.09 247.319 33.23 247.579 33.51C247.859 33.77 247.999 34.09 247.999 34.47C247.999 34.85 247.819 35.23 247.459 35.61L242.239 41.13V39.57L247.969 45.75C248.329 46.13 248.489 46.52 248.449 46.92C248.429 47.3 248.269 47.62 247.969 47.88C247.669 48.12 247.289 48.24 246.829 48.24C246.269 48.24 245.819 48.13 245.479 47.91C245.159 47.69 244.799 47.36 244.399 46.92L239.179 41.46H239.119V46.32C239.119 47.6 238.489 48.24 237.229 48.24Z" fill="white"/>
<path d="M26.662 78.171C25.6613 78.171 24.8 77.981 24.078 77.601C23.3687 77.2083 22.8177 76.6573 22.425 75.948C22.0323 75.226 21.836 74.3773 21.836 73.402C21.836 72.4393 22.026 71.597 22.406 70.875C22.7987 70.153 23.3307 69.5893 24.002 69.184C24.686 68.7787 25.465 68.576 26.339 68.576C26.9597 68.576 27.517 68.6837 28.011 68.899C28.5177 69.1017 28.9483 69.3993 29.303 69.792C29.6577 70.1847 29.9237 70.666 30.101 71.236C30.291 71.7933 30.386 72.4267 30.386 73.136C30.386 73.3387 30.3227 73.497 30.196 73.611C30.082 73.7123 29.911 73.763 29.683 73.763H23.185V72.661H29.246L28.923 72.927C28.923 72.2683 28.8217 71.711 28.619 71.255C28.429 70.7863 28.144 70.4317 27.764 70.191C27.3967 69.9503 26.9343 69.83 26.377 69.83C25.769 69.83 25.2497 69.9757 24.819 70.267C24.3883 70.5457 24.059 70.9447 23.831 71.464C23.603 71.9707 23.489 72.5597 23.489 73.231V73.345C23.489 74.485 23.7613 75.3463 24.306 75.929C24.8507 76.5117 25.636 76.803 26.662 76.803C27.0673 76.803 27.479 76.7523 27.897 76.651C28.3277 76.5497 28.7393 76.366 29.132 76.1C29.322 75.986 29.493 75.9353 29.645 75.948C29.8097 75.948 29.9427 75.9987 30.044 76.1C30.1453 76.1887 30.2087 76.3027 30.234 76.442C30.2593 76.5687 30.2403 76.708 30.177 76.86C30.1137 77.012 29.9933 77.145 29.816 77.259C29.398 77.5503 28.8977 77.7783 28.315 77.943C27.745 78.095 27.194 78.171 26.662 78.171ZM35.6814 78.171C35.0481 78.171 34.4717 78.0443 33.9524 77.791C33.4457 77.5377 33.0467 77.1957 32.7554 76.765C32.4767 76.3343 32.3374 75.853 32.3374 75.321C32.3374 74.637 32.5084 74.0987 32.8504 73.706C33.1924 73.3133 33.7687 73.0347 34.5794 72.87C35.3901 72.6927 36.4794 72.604 37.8474 72.604H38.7404V73.706H37.8854C36.9101 73.706 36.1374 73.7503 35.5674 73.839C35.0101 73.9277 34.6174 74.086 34.3894 74.314C34.1614 74.5293 34.0474 74.8333 34.0474 75.226C34.0474 75.72 34.2184 76.1253 34.5604 76.442C34.9151 76.7587 35.3964 76.917 36.0044 76.917C36.4857 76.917 36.9101 76.803 37.2774 76.575C37.6447 76.3343 37.9361 76.0177 38.1514 75.625C38.3667 75.2197 38.4744 74.7573 38.4744 74.238V72.053C38.4744 71.3057 38.3224 70.7673 38.0184 70.438C37.7144 70.096 37.2014 69.925 36.4794 69.925C36.0614 69.925 35.6307 69.982 35.1874 70.096C34.7441 70.21 34.2817 70.3873 33.8004 70.628C33.6104 70.7167 33.4457 70.7483 33.3064 70.723C33.1671 70.685 33.0531 70.609 32.9644 70.495C32.8884 70.3683 32.8441 70.2353 32.8314 70.096C32.8314 69.944 32.8631 69.7983 32.9264 69.659C33.0024 69.5197 33.1291 69.4183 33.3064 69.355C33.8637 69.0763 34.4147 68.88 34.9594 68.766C35.5167 68.6393 36.0361 68.576 36.5174 68.576C37.3407 68.576 38.0184 68.709 38.5504 68.975C39.0824 69.2283 39.4814 69.6273 39.7474 70.172C40.0134 70.704 40.1464 71.388 40.1464 72.224V77.24C40.1464 77.5313 40.0767 77.753 39.9374 77.905C39.7981 78.057 39.5954 78.133 39.3294 78.133C39.0761 78.133 38.8734 78.057 38.7214 77.905C38.5821 77.753 38.5124 77.5313 38.5124 77.24V75.891H38.6834C38.5821 76.3597 38.3921 76.765 38.1134 77.107C37.8347 77.449 37.4864 77.715 37.0684 77.905C36.6631 78.0823 36.2007 78.171 35.6814 78.171ZM46.2593 78.171C45.6893 78.171 45.1129 78.1077 44.5303 77.981C43.9603 77.8417 43.4219 77.6073 42.9153 77.278C42.7759 77.1893 42.6746 77.0817 42.6113 76.955C42.5606 76.8157 42.5416 76.6827 42.5543 76.556C42.5796 76.4167 42.6366 76.2963 42.7253 76.195C42.8139 76.0937 42.9216 76.0367 43.0483 76.024C43.1876 75.9987 43.3333 76.0303 43.4853 76.119C43.9793 76.3977 44.4543 76.594 44.9103 76.708C45.3789 76.822 45.8413 76.879 46.2973 76.879C46.9939 76.879 47.5196 76.7523 47.8743 76.499C48.2289 76.2457 48.4063 75.91 48.4063 75.492C48.4063 75.1373 48.2859 74.865 48.0453 74.675C47.8173 74.4723 47.4563 74.3203 46.9623 74.219L45.1953 73.858C44.4099 73.6807 43.8146 73.3893 43.4093 72.984C43.0166 72.566 42.8203 72.034 42.8203 71.388C42.8203 70.818 42.9723 70.324 43.2763 69.906C43.5929 69.4753 44.0299 69.146 44.5873 68.918C45.1446 68.69 45.7843 68.576 46.5063 68.576C47.0636 68.576 47.5893 68.652 48.0833 68.804C48.5899 68.9433 49.0459 69.1587 49.4513 69.45C49.6033 69.5387 49.6983 69.6527 49.7363 69.792C49.7869 69.9187 49.7933 70.0517 49.7553 70.191C49.7299 70.3177 49.6729 70.4253 49.5843 70.514C49.4956 70.6027 49.3816 70.6597 49.2423 70.685C49.1029 70.6977 48.9509 70.6597 48.7863 70.571C48.4189 70.3177 48.0389 70.1403 47.6463 70.039C47.2663 69.925 46.8863 69.868 46.5063 69.868C45.8223 69.868 45.3029 70.001 44.9483 70.267C44.6063 70.533 44.4353 70.8813 44.4353 71.312C44.4353 71.6413 44.5366 71.9137 44.7393 72.129C44.9546 72.3443 45.2903 72.5027 45.7463 72.604L47.5133 72.965C48.3366 73.1423 48.9573 73.4273 49.3753 73.82C49.7933 74.2 50.0023 74.7193 50.0023 75.378C50.0023 76.2393 49.6603 76.9233 48.9763 77.43C48.3049 77.924 47.3993 78.171 46.2593 78.171ZM54.3943 81.553C54.1916 81.553 54.0206 81.496 53.8813 81.382C53.7546 81.2807 53.6786 81.135 53.6533 80.945C53.6406 80.7677 53.6786 80.5777 53.7673 80.375L55.0593 77.449V78.171L51.4683 69.811C51.3796 69.5957 51.348 69.3993 51.3733 69.222C51.3986 69.0447 51.481 68.899 51.6203 68.785C51.7723 68.671 51.975 68.614 52.2283 68.614C52.4436 68.614 52.6146 68.6647 52.7413 68.766C52.868 68.8673 52.9883 69.0447 53.1023 69.298L56.0853 76.651H55.5533L58.5933 69.298C58.6946 69.0447 58.815 68.8673 58.9543 68.766C59.0936 68.6647 59.2836 68.614 59.5243 68.614C59.7396 68.614 59.9043 68.671 60.0183 68.785C60.145 68.899 60.221 69.0447 60.2463 69.222C60.2716 69.3993 60.2336 69.5893 60.1323 69.792L55.3443 80.869C55.2176 81.135 55.0846 81.3123 54.9453 81.401C54.8186 81.5023 54.635 81.553 54.3943 81.553ZM71.2738 78.171C70.5265 78.171 69.8995 78.038 69.3928 77.772C68.8988 77.506 68.5252 77.1197 68.2718 76.613C68.0312 76.1063 67.9108 75.4857 67.9108 74.751V70.077H66.6948C66.4668 70.077 66.2895 70.02 66.1628 69.906C66.0362 69.7793 65.9728 69.6147 65.9728 69.412C65.9728 69.1967 66.0362 69.032 66.1628 68.918C66.2895 68.804 66.4668 68.747 66.6948 68.747H67.9108V66.676C67.9108 66.3847 67.9868 66.1693 68.1388 66.03C68.2908 65.878 68.5062 65.802 68.7848 65.802C69.0635 65.802 69.2725 65.878 69.4118 66.03C69.5638 66.1693 69.6398 66.3847 69.6398 66.676V68.747H71.9388C72.1795 68.747 72.3632 68.804 72.4898 68.918C72.6165 69.032 72.6798 69.1967 72.6798 69.412C72.6798 69.6147 72.6165 69.7793 72.4898 69.906C72.3632 70.02 72.1795 70.077 71.9388 70.077H69.6398V74.599C69.6398 75.2957 69.7855 75.8213 70.0768 76.176C70.3682 76.5307 70.8495 76.708 71.5208 76.708C71.7615 76.708 71.9642 76.689 72.1288 76.651C72.2935 76.6003 72.4392 76.575 72.5658 76.575C72.6798 76.5623 72.7748 76.6003 72.8508 76.689C72.9395 76.7777 72.9838 76.9423 72.9838 77.183C72.9838 77.3603 72.9522 77.525 72.8888 77.677C72.8382 77.8163 72.7305 77.9113 72.5658 77.962C72.4138 78.0127 72.2112 78.057 71.9578 78.095C71.7045 78.1457 71.4765 78.171 71.2738 78.171ZM78.2856 78.171C77.3736 78.171 76.582 77.9747 75.9106 77.582C75.2393 77.1893 74.72 76.632 74.3526 75.91C73.9853 75.188 73.8016 74.3393 73.8016 73.364C73.8016 72.6293 73.903 71.9707 74.1056 71.388C74.321 70.7927 74.625 70.286 75.0176 69.868C75.4103 69.45 75.879 69.1333 76.4236 68.918C76.981 68.69 77.6016 68.576 78.2856 68.576C79.1976 68.576 79.9893 68.7723 80.6606 69.165C81.332 69.5577 81.8513 70.115 82.2186 70.837C82.586 71.5463 82.7696 72.3887 82.7696 73.364C82.7696 74.0987 82.662 74.7637 82.4466 75.359C82.244 75.9543 81.9463 76.461 81.5536 76.879C81.161 77.297 80.686 77.62 80.1286 77.848C79.584 78.0633 78.9696 78.171 78.2856 78.171ZM78.2856 76.803C78.843 76.803 79.3243 76.67 79.7296 76.404C80.1476 76.138 80.4643 75.7517 80.6796 75.245C80.9076 74.7383 81.0216 74.1113 81.0216 73.364C81.0216 72.2493 80.7746 71.4007 80.2806 70.818C79.7866 70.2353 79.1216 69.944 78.2856 69.944C77.741 69.944 77.2596 70.077 76.8416 70.343C76.4363 70.5963 76.1196 70.9763 75.8916 71.483C75.6636 71.9897 75.5496 72.6167 75.5496 73.364C75.5496 74.4787 75.7966 75.3337 76.2906 75.929C76.7973 76.5117 77.4623 76.803 78.2856 76.803ZM93.5306 78.171C92.9606 78.171 92.3842 78.1077 91.8016 77.981C91.2316 77.8417 90.6932 77.6073 90.1866 77.278C90.0472 77.1893 89.9459 77.0817 89.8826 76.955C89.8319 76.8157 89.8129 76.6827 89.8256 76.556C89.8509 76.4167 89.9079 76.2963 89.9966 76.195C90.0852 76.0937 90.1929 76.0367 90.3196 76.024C90.4589 75.9987 90.6046 76.0303 90.7566 76.119C91.2506 76.3977 91.7256 76.594 92.1816 76.708C92.6502 76.822 93.1126 76.879 93.5686 76.879C94.2652 76.879 94.7909 76.7523 95.1456 76.499C95.5002 76.2457 95.6776 75.91 95.6776 75.492C95.6776 75.1373 95.5572 74.865 95.3166 74.675C95.0886 74.4723 94.7276 74.3203 94.2336 74.219L92.4666 73.858C91.6812 73.6807 91.0859 73.3893 90.6806 72.984C90.2879 72.566 90.0916 72.034 90.0916 71.388C90.0916 70.818 90.2436 70.324 90.5476 69.906C90.8642 69.4753 91.3012 69.146 91.8586 68.918C92.4159 68.69 93.0556 68.576 93.7776 68.576C94.3349 68.576 94.8606 68.652 95.3546 68.804C95.8612 68.9433 96.3172 69.1587 96.7226 69.45C96.8746 69.5387 96.9696 69.6527 97.0076 69.792C97.0582 69.9187 97.0646 70.0517 97.0266 70.191C97.0012 70.3177 96.9442 70.4253 96.8556 70.514C96.7669 70.6027 96.6529 70.6597 96.5136 70.685C96.3742 70.6977 96.2222 70.6597 96.0576 70.571C95.6902 70.3177 95.3102 70.1403 94.9176 70.039C94.5376 69.925 94.1576 69.868 93.7776 69.868C93.0936 69.868 92.5742 70.001 92.2196 70.267C91.8776 70.533 91.7066 70.8813 91.7066 71.312C91.7066 71.6413 91.8079 71.9137 92.0106 72.129C92.2259 72.3443 92.5616 72.5027 93.0176 72.604L94.7846 72.965C95.6079 73.1423 96.2286 73.4273 96.6466 73.82C97.0646 74.2 97.2736 74.7193 97.2736 75.378C97.2736 76.2393 96.9316 76.9233 96.2476 77.43C95.5762 77.924 94.6706 78.171 93.5306 78.171ZM103.998 78.171C102.997 78.171 102.136 77.981 101.414 77.601C100.705 77.2083 100.154 76.6573 99.7611 75.948C99.3685 75.226 99.1721 74.3773 99.1721 73.402C99.1721 72.4393 99.3621 71.597 99.7421 70.875C100.135 70.153 100.667 69.5893 101.338 69.184C102.022 68.7787 102.801 68.576 103.675 68.576C104.296 68.576 104.853 68.6837 105.347 68.899C105.854 69.1017 106.284 69.3993 106.639 69.792C106.994 70.1847 107.26 70.666 107.437 71.236C107.627 71.7933 107.722 72.4267 107.722 73.136C107.722 73.3387 107.659 73.497 107.532 73.611C107.418 73.7123 107.247 73.763 107.019 73.763H100.521V72.661H106.582L106.259 72.927C106.259 72.2683 106.158 71.711 105.955 71.255C105.765 70.7863 105.48 70.4317 105.1 70.191C104.733 69.9503 104.27 69.83 103.713 69.83C103.105 69.83 102.586 69.9757 102.155 70.267C101.724 70.5457 101.395 70.9447 101.167 71.464C100.939 71.9707 100.825 72.5597 100.825 73.231V73.345C100.825 74.485 101.097 75.3463 101.642 75.929C102.187 76.5117 102.972 76.803 103.998 76.803C104.403 76.803 104.815 76.7523 105.233 76.651C105.664 76.5497 106.075 76.366 106.468 76.1C106.658 75.986 106.829 75.9353 106.981 75.948C107.146 75.948 107.279 75.9987 107.38 76.1C107.481 76.1887 107.545 76.3027 107.57 76.442C107.595 76.5687 107.576 76.708 107.513 76.86C107.45 77.012 107.329 77.145 107.152 77.259C106.734 77.5503 106.234 77.7783 105.651 77.943C105.081 78.095 104.53 78.171 103.998 78.171ZM110.928 78.133C110.662 78.133 110.453 78.057 110.301 77.905C110.149 77.753 110.073 77.5313 110.073 77.24V69.488C110.073 69.1967 110.149 68.9813 110.301 68.842C110.453 68.69 110.662 68.614 110.928 68.614C111.194 68.614 111.396 68.69 111.536 68.842C111.688 68.9813 111.764 69.1967 111.764 69.488V71.046L111.555 70.761C111.821 70.039 112.251 69.4943 112.847 69.127C113.455 68.7597 114.145 68.576 114.918 68.576C115.665 68.576 116.279 68.709 116.761 68.975C117.242 69.241 117.603 69.6463 117.844 70.191C118.084 70.7357 118.205 71.426 118.205 72.262V77.24C118.205 77.5313 118.129 77.753 117.977 77.905C117.837 78.057 117.628 78.133 117.35 78.133C117.071 78.133 116.856 78.057 116.704 77.905C116.552 77.753 116.476 77.5313 116.476 77.24V72.357C116.476 71.5337 116.317 70.932 116.001 70.552C115.684 70.172 115.177 69.982 114.481 69.982C113.67 69.982 113.018 70.2353 112.524 70.742C112.042 71.236 111.802 71.9073 111.802 72.756V77.24C111.802 77.8353 111.51 78.133 110.928 78.133ZM124.68 78.171C123.869 78.171 123.153 77.981 122.533 77.601C121.925 77.2083 121.45 76.651 121.108 75.929C120.766 75.1943 120.595 74.3393 120.595 73.364C120.595 72.376 120.759 71.5273 121.089 70.818C121.431 70.096 121.906 69.545 122.514 69.165C123.134 68.7723 123.856 68.576 124.68 68.576C125.503 68.576 126.212 68.785 126.808 69.203C127.403 69.6083 127.802 70.153 128.005 70.837H127.796V65.346C127.796 65.0547 127.865 64.8393 128.005 64.7C128.157 64.548 128.372 64.472 128.651 64.472C128.929 64.472 129.145 64.548 129.297 64.7C129.449 64.8393 129.525 65.0547 129.525 65.346V77.24C129.525 77.5313 129.449 77.753 129.297 77.905C129.145 78.057 128.929 78.133 128.651 78.133C128.385 78.133 128.176 78.057 128.024 77.905C127.872 77.753 127.796 77.5313 127.796 77.24V75.511L128.005 75.853C127.815 76.5623 127.416 77.126 126.808 77.544C126.212 77.962 125.503 78.171 124.68 78.171ZM125.079 76.803C125.636 76.803 126.117 76.67 126.523 76.404C126.941 76.138 127.257 75.7517 127.473 75.245C127.701 74.7383 127.815 74.1113 127.815 73.364C127.815 72.2493 127.568 71.4007 127.074 70.818C126.58 70.2353 125.915 69.944 125.079 69.944C124.534 69.944 124.053 70.077 123.635 70.343C123.229 70.5963 122.913 70.9763 122.685 71.483C122.457 71.9897 122.343 72.6167 122.343 73.364C122.343 74.4787 122.59 75.3337 123.084 75.929C123.59 76.5117 124.255 76.803 125.079 76.803ZM140.596 78.171C139.963 78.171 139.386 78.0443 138.867 77.791C138.36 77.5377 137.961 77.1957 137.67 76.765C137.391 76.3343 137.252 75.853 137.252 75.321C137.252 74.637 137.423 74.0987 137.765 73.706C138.107 73.3133 138.683 73.0347 139.494 72.87C140.305 72.6927 141.394 72.604 142.762 72.604H143.655V73.706H142.8C141.825 73.706 141.052 73.7503 140.482 73.839C139.925 73.9277 139.532 74.086 139.304 74.314C139.076 74.5293 138.962 74.8333 138.962 75.226C138.962 75.72 139.133 76.1253 139.475 76.442C139.83 76.7587 140.311 76.917 140.919 76.917C141.4 76.917 141.825 76.803 142.192 76.575C142.559 76.3343 142.851 76.0177 143.066 75.625C143.281 75.2197 143.389 74.7573 143.389 74.238V72.053C143.389 71.3057 143.237 70.7673 142.933 70.438C142.629 70.096 142.116 69.925 141.394 69.925C140.976 69.925 140.545 69.982 140.102 70.096C139.659 70.21 139.196 70.3873 138.715 70.628C138.525 70.7167 138.36 70.7483 138.221 70.723C138.082 70.685 137.968 70.609 137.879 70.495C137.803 70.3683 137.759 70.2353 137.746 70.096C137.746 69.944 137.778 69.7983 137.841 69.659C137.917 69.5197 138.044 69.4183 138.221 69.355C138.778 69.0763 139.329 68.88 139.874 68.766C140.431 68.6393 140.951 68.576 141.432 68.576C142.255 68.576 142.933 68.709 143.465 68.975C143.997 69.2283 144.396 69.6273 144.662 70.172C144.928 70.704 145.061 71.388 145.061 72.224V77.24C145.061 77.5313 144.991 77.753 144.852 77.905C144.713 78.057 144.51 78.133 144.244 78.133C143.991 78.133 143.788 78.057 143.636 77.905C143.497 77.753 143.427 77.5313 143.427 77.24V75.891H143.598C143.497 76.3597 143.307 76.765 143.028 77.107C142.749 77.449 142.401 77.715 141.983 77.905C141.578 78.0823 141.115 78.171 140.596 78.171ZM155.264 81.553C155.061 81.553 154.89 81.496 154.751 81.382C154.624 81.2807 154.548 81.135 154.523 80.945C154.51 80.7677 154.548 80.5777 154.637 80.375L155.929 77.449V78.171L152.338 69.811C152.249 69.5957 152.218 69.3993 152.243 69.222C152.268 69.0447 152.351 68.899 152.49 68.785C152.642 68.671 152.845 68.614 153.098 68.614C153.313 68.614 153.484 68.6647 153.611 68.766C153.738 68.8673 153.858 69.0447 153.972 69.298L156.955 76.651H156.423L159.463 69.298C159.564 69.0447 159.685 68.8673 159.824 68.766C159.963 68.6647 160.153 68.614 160.394 68.614C160.609 68.614 160.774 68.671 160.888 68.785C161.015 68.899 161.091 69.0447 161.116 69.222C161.141 69.3993 161.103 69.5893 161.002 69.792L156.214 80.869C156.087 81.135 155.954 81.3123 155.815 81.401C155.688 81.5023 155.505 81.553 155.264 81.553ZM166.936 78.171C166.024 78.171 165.232 77.9747 164.561 77.582C163.89 77.1893 163.37 76.632 163.003 75.91C162.636 75.188 162.452 74.3393 162.452 73.364C162.452 72.6293 162.553 71.9707 162.756 71.388C162.971 70.7927 163.275 70.286 163.668 69.868C164.061 69.45 164.529 69.1333 165.074 68.918C165.631 68.69 166.252 68.576 166.936 68.576C167.848 68.576 168.64 68.7723 169.311 69.165C169.982 69.5577 170.502 70.115 170.869 70.837C171.236 71.5463 171.42 72.3887 171.42 73.364C171.42 74.0987 171.312 74.7637 171.097 75.359C170.894 75.9543 170.597 76.461 170.204 76.879C169.811 77.297 169.336 77.62 168.779 77.848C168.234 78.0633 167.62 78.171 166.936 78.171ZM166.936 76.803C167.493 76.803 167.975 76.67 168.38 76.404C168.798 76.138 169.115 75.7517 169.33 75.245C169.558 74.7383 169.672 74.1113 169.672 73.364C169.672 72.2493 169.425 71.4007 168.931 70.818C168.437 70.2353 167.772 69.944 166.936 69.944C166.391 69.944 165.91 70.077 165.492 70.343C165.087 70.5963 164.77 70.9763 164.542 71.483C164.314 71.9897 164.2 72.6167 164.2 73.364C164.2 74.4787 164.447 75.3337 164.941 75.929C165.448 76.5117 166.113 76.803 166.936 76.803ZM177.141 78.171C176.394 78.171 175.767 78.0317 175.26 77.753C174.766 77.4743 174.399 77.0627 174.158 76.518C173.917 75.9733 173.797 75.2893 173.797 74.466V69.488C173.797 69.1967 173.867 68.9813 174.006 68.842C174.158 68.69 174.373 68.614 174.652 68.614C174.931 68.614 175.146 68.69 175.298 68.842C175.45 68.9813 175.526 69.1967 175.526 69.488V74.466C175.526 75.2513 175.684 75.834 176.001 76.214C176.318 76.5813 176.818 76.765 177.502 76.765C178.262 76.765 178.876 76.5117 179.345 76.005C179.826 75.4983 180.067 74.827 180.067 73.991V69.488C180.067 69.1967 180.137 68.9813 180.276 68.842C180.428 68.69 180.643 68.614 180.922 68.614C181.201 68.614 181.416 68.69 181.568 68.842C181.72 68.9813 181.796 69.1967 181.796 69.488V77.24C181.796 77.8353 181.517 78.133 180.96 78.133C180.681 78.133 180.466 78.057 180.314 77.905C180.175 77.753 180.105 77.5313 180.105 77.24V75.587L180.352 75.91C180.099 76.6447 179.687 77.2083 179.117 77.601C178.56 77.981 177.901 78.171 177.141 78.171ZM185.671 78.133C185.38 78.133 185.158 78.057 185.006 77.905C184.854 77.753 184.778 77.5313 184.778 77.24V69.488C184.778 69.1967 184.854 68.9813 185.006 68.842C185.158 68.69 185.367 68.614 185.633 68.614C185.899 68.614 186.102 68.69 186.241 68.842C186.393 68.9813 186.469 69.1967 186.469 69.488V70.951H186.279C186.482 70.191 186.862 69.6147 187.419 69.222C187.976 68.8293 188.679 68.6077 189.528 68.557C189.731 68.5443 189.895 68.595 190.022 68.709C190.149 68.8103 190.218 68.9877 190.231 69.241C190.244 69.4817 190.187 69.678 190.06 69.83C189.933 69.9693 189.737 70.0517 189.471 70.077L189.129 70.096C188.293 70.1847 187.647 70.457 187.191 70.913C186.748 71.369 186.526 71.996 186.526 72.794V77.24C186.526 77.5313 186.45 77.753 186.298 77.905C186.159 78.057 185.95 78.133 185.671 78.133ZM26.32 105.171C25.408 105.171 24.6163 104.975 23.945 104.582C23.2737 104.189 22.7543 103.632 22.387 102.91C22.0197 102.188 21.836 101.339 21.836 100.364C21.836 99.6293 21.9373 98.9707 22.14 98.388C22.3553 97.7927 22.6593 97.286 23.052 96.868C23.4447 96.45 23.9133 96.1333 24.458 95.918C25.0153 95.69 25.636 95.576 26.32 95.576C27.232 95.576 28.0237 95.7723 28.695 96.165C29.3663 96.5577 29.8857 97.115 30.253 97.837C30.6203 98.5463 30.804 99.3887 30.804 100.364C30.804 101.099 30.6963 101.764 30.481 102.359C30.2783 102.954 29.9807 103.461 29.588 103.879C29.1953 104.297 28.7203 104.62 28.163 104.848C27.6183 105.063 27.004 105.171 26.32 105.171ZM26.32 103.803C26.8773 103.803 27.3587 103.67 27.764 103.404C28.182 103.138 28.4987 102.752 28.714 102.245C28.942 101.738 29.056 101.111 29.056 100.364C29.056 99.2493 28.809 98.4007 28.315 97.818C27.821 97.2353 27.156 96.944 26.32 96.944C25.7753 96.944 25.294 97.077 24.876 97.343C24.4707 97.5963 24.154 97.9763 23.926 98.483C23.698 98.9897 23.584 99.6167 23.584 100.364C23.584 101.479 23.831 102.334 24.325 102.929C24.8317 103.512 25.4967 103.803 26.32 103.803ZM34.1118 105.133C33.8205 105.133 33.5988 105.057 33.4468 104.905C33.2948 104.753 33.2188 104.531 33.2188 104.24V96.488C33.2188 96.1967 33.2948 95.9813 33.4468 95.842C33.5988 95.69 33.8078 95.614 34.0738 95.614C34.3398 95.614 34.5425 95.69 34.6818 95.842C34.8338 95.9813 34.9098 96.1967 34.9098 96.488V97.951H34.7198C34.9225 97.191 35.3025 96.6147 35.8598 96.222C36.4172 95.8293 37.1202 95.6077 37.9688 95.557C38.1715 95.5443 38.3362 95.595 38.4628 95.709C38.5895 95.8103 38.6592 95.9877 38.6718 96.241C38.6845 96.4817 38.6275 96.678 38.5008 96.83C38.3742 96.9693 38.1778 97.0517 37.9118 97.077L37.5698 97.096C36.7338 97.1847 36.0878 97.457 35.6318 97.913C35.1885 98.369 34.9668 98.996 34.9668 99.794V104.24C34.9668 104.531 34.8908 104.753 34.7388 104.905C34.5995 105.057 34.3905 105.133 34.1118 105.133ZM43.7624 105.171C42.9517 105.171 42.2361 104.981 41.6154 104.601C41.0074 104.208 40.5324 103.651 40.1904 102.929C39.8484 102.194 39.6774 101.339 39.6774 100.364C39.6774 99.376 39.8421 98.5273 40.1714 97.818C40.5134 97.096 40.9884 96.545 41.5964 96.165C42.2171 95.7723 42.9391 95.576 43.7624 95.576C44.5857 95.576 45.2951 95.785 45.8904 96.203C46.4857 96.6083 46.8847 97.153 47.0874 97.837H46.8784V92.346C46.8784 92.0547 46.9481 91.8393 47.0874 91.7C47.2394 91.548 47.4547 91.472 47.7334 91.472C48.0121 91.472 48.2274 91.548 48.3794 91.7C48.5314 91.8393 48.6074 92.0547 48.6074 92.346V104.24C48.6074 104.531 48.5314 104.753 48.3794 104.905C48.2274 105.057 48.0121 105.133 47.7334 105.133C47.4674 105.133 47.2584 105.057 47.1064 104.905C46.9544 104.753 46.8784 104.531 46.8784 104.24V102.511L47.0874 102.853C46.8974 103.562 46.4984 104.126 45.8904 104.544C45.2951 104.962 44.5857 105.171 43.7624 105.171ZM44.1614 103.803C44.7187 103.803 45.2001 103.67 45.6054 103.404C46.0234 103.138 46.3401 102.752 46.5554 102.245C46.7834 101.738 46.8974 101.111 46.8974 100.364C46.8974 99.2493 46.6504 98.4007 46.1564 97.818C45.6624 97.2353 44.9974 96.944 44.1614 96.944C43.6167 96.944 43.1354 97.077 42.7174 97.343C42.3121 97.5963 41.9954 97.9763 41.7674 98.483C41.5394 98.9897 41.4254 99.6167 41.4254 100.364C41.4254 101.479 41.6724 102.334 42.1664 102.929C42.6731 103.512 43.3381 103.803 44.1614 103.803ZM55.8548 105.171C54.8541 105.171 53.9928 104.981 53.2708 104.601C52.5614 104.208 52.0104 103.657 51.6178 102.948C51.2251 102.226 51.0288 101.377 51.0288 100.402C51.0288 99.4393 51.2188 98.597 51.5988 97.875C51.9914 97.153 52.5234 96.5893 53.1948 96.184C53.8788 95.7787 54.6578 95.576 55.5318 95.576C56.1524 95.576 56.7098 95.6837 57.2038 95.899C57.7104 96.1017 58.1411 96.3993 58.4958 96.792C58.8504 97.1847 59.1164 97.666 59.2938 98.236C59.4838 98.7933 59.5788 99.4267 59.5788 100.136C59.5788 100.339 59.5154 100.497 59.3888 100.611C59.2748 100.712 59.1038 100.763 58.8758 100.763H52.3778V99.661H58.4388L58.1158 99.927C58.1158 99.2683 58.0144 98.711 57.8118 98.255C57.6218 97.7863 57.3368 97.4317 56.9568 97.191C56.5894 96.9503 56.1271 96.83 55.5698 96.83C54.9618 96.83 54.4424 96.9757 54.0118 97.267C53.5811 97.5457 53.2518 97.9447 53.0238 98.464C52.7958 98.9707 52.6818 99.5597 52.6818 100.231V100.345C52.6818 101.485 52.9541 102.346 53.4988 102.929C54.0434 103.512 54.8288 103.803 55.8548 103.803C56.2601 103.803 56.6718 103.752 57.0898 103.651C57.5204 103.55 57.9321 103.366 58.3248 103.1C58.5148 102.986 58.6858 102.935 58.8378 102.948C59.0024 102.948 59.1354 102.999 59.2368 103.1C59.3381 103.189 59.4014 103.303 59.4268 103.442C59.4521 103.569 59.4331 103.708 59.3698 103.86C59.3064 104.012 59.1861 104.145 59.0088 104.259C58.5908 104.55 58.0904 104.778 57.5078 104.943C56.9378 105.095 56.3868 105.171 55.8548 105.171ZM62.8222 105.133C62.5309 105.133 62.3092 105.057 62.1572 104.905C62.0052 104.753 61.9292 104.531 61.9292 104.24V96.488C61.9292 96.1967 62.0052 95.9813 62.1572 95.842C62.3092 95.69 62.5182 95.614 62.7842 95.614C63.0502 95.614 63.2529 95.69 63.3922 95.842C63.5442 95.9813 63.6202 96.1967 63.6202 96.488V97.951H63.4302C63.6329 97.191 64.0129 96.6147 64.5702 96.222C65.1275 95.8293 65.8305 95.6077 66.6792 95.557C66.8819 95.5443 67.0465 95.595 67.1732 95.709C67.2999 95.8103 67.3695 95.9877 67.3822 96.241C67.3949 96.4817 67.3379 96.678 67.2112 96.83C67.0845 96.9693 66.8882 97.0517 66.6222 97.077L66.2802 97.096C65.4442 97.1847 64.7982 97.457 64.3422 97.913C63.8989 98.369 63.6772 98.996 63.6772 99.794V104.24C63.6772 104.531 63.6012 104.753 63.4492 104.905C63.3099 105.057 63.1009 105.133 62.8222 105.133ZM77.1677 105.171C76.5344 105.171 75.9581 105.044 75.4387 104.791C74.9321 104.538 74.5331 104.196 74.2417 103.765C73.9631 103.334 73.8237 102.853 73.8237 102.321C73.8237 101.637 73.9947 101.099 74.3367 100.706C74.6787 100.313 75.2551 100.035 76.0657 99.87C76.8764 99.6927 77.9657 99.604 79.3337 99.604H80.2267V100.706H79.3717C78.3964 100.706 77.6237 100.75 77.0537 100.839C76.4964 100.928 76.1037 101.086 75.8757 101.314C75.6477 101.529 75.5337 101.833 75.5337 102.226C75.5337 102.72 75.7047 103.125 76.0467 103.442C76.4014 103.759 76.8827 103.917 77.4907 103.917C77.9721 103.917 78.3964 103.803 78.7637 103.575C79.1311 103.334 79.4224 103.018 79.6377 102.625C79.8531 102.22 79.9607 101.757 79.9607 101.238V99.053C79.9607 98.3057 79.8087 97.7673 79.5047 97.438C79.2007 97.096 78.6877 96.925 77.9657 96.925C77.5477 96.925 77.1171 96.982 76.6737 97.096C76.2304 97.21 75.7681 97.3873 75.2867 97.628C75.0967 97.7167 74.9321 97.7483 74.7927 97.723C74.6534 97.685 74.5394 97.609 74.4507 97.495C74.3747 97.3683 74.3304 97.2353 74.3177 97.096C74.3177 96.944 74.3494 96.7983 74.4127 96.659C74.4887 96.5197 74.6154 96.4183 74.7927 96.355C75.3501 96.0763 75.9011 95.88 76.4457 95.766C77.0031 95.6393 77.5224 95.576 78.0037 95.576C78.8271 95.576 79.5047 95.709 80.0367 95.975C80.5687 96.2283 80.9677 96.6273 81.2337 97.172C81.4997 97.704 81.6327 98.388 81.6327 99.224V104.24C81.6327 104.531 81.5631 104.753 81.4237 104.905C81.2844 105.057 81.0817 105.133 80.8157 105.133C80.5624 105.133 80.3597 105.057 80.2077 104.905C80.0684 104.753 79.9987 104.531 79.9987 104.24V102.891H80.1697C80.0684 103.36 79.8784 103.765 79.5997 104.107C79.3211 104.449 78.9727 104.715 78.5547 104.905C78.1494 105.082 77.6871 105.171 77.1677 105.171ZM85.4086 105.133C85.1426 105.133 84.9336 105.057 84.7816 104.905C84.6296 104.753 84.5536 104.531 84.5536 104.24V96.488C84.5536 96.1967 84.6296 95.9813 84.7816 95.842C84.9336 95.69 85.1426 95.614 85.4086 95.614C85.6746 95.614 85.8773 95.69 86.0166 95.842C86.1686 95.9813 86.2446 96.1967 86.2446 96.488V98.046L86.0356 97.761C86.3016 97.039 86.7323 96.4943 87.3276 96.127C87.9356 95.7597 88.6259 95.576 89.3986 95.576C90.1459 95.576 90.7603 95.709 91.2416 95.975C91.7229 96.241 92.0839 96.6463 92.3246 97.191C92.5653 97.7357 92.6856 98.426 92.6856 99.262V104.24C92.6856 104.531 92.6096 104.753 92.4576 104.905C92.3183 105.057 92.1093 105.133 91.8306 105.133C91.5519 105.133 91.3366 105.057 91.1846 104.905C91.0326 104.753 90.9566 104.531 90.9566 104.24V99.357C90.9566 98.5337 90.7983 97.932 90.4816 97.552C90.1649 97.172 89.6583 96.982 88.9616 96.982C88.1509 96.982 87.4986 97.2353 87.0046 97.742C86.5233 98.236 86.2826 98.9073 86.2826 99.756V104.24C86.2826 104.835 85.9913 105.133 85.4086 105.133ZM97.6619 108.553C97.4592 108.553 97.2882 108.496 97.1489 108.382C97.0222 108.281 96.9462 108.135 96.9209 107.945C96.9082 107.768 96.9462 107.578 97.0349 107.375L98.3269 104.449V105.171L94.7359 96.811C94.6472 96.5957 94.6155 96.3993 94.6409 96.222C94.6662 96.0447 94.7485 95.899 94.8879 95.785C95.0399 95.671 95.2425 95.614 95.4959 95.614C95.7112 95.614 95.8822 95.6647 96.0089 95.766C96.1355 95.8673 96.2559 96.0447 96.3699 96.298L99.3529 103.651H98.8209L101.861 96.298C101.962 96.0447 102.083 95.8673 102.222 95.766C102.361 95.6647 102.551 95.614 102.792 95.614C103.007 95.614 103.172 95.671 103.286 95.785C103.413 95.899 103.489 96.0447 103.514 96.222C103.539 96.3993 103.501 96.5893 103.4 96.792L98.6119 107.869C98.4852 108.135 98.3522 108.312 98.2129 108.401C98.0862 108.502 97.9025 108.553 97.6619 108.553ZM111.558 108.553C111.292 108.553 111.083 108.477 110.931 108.325C110.779 108.173 110.703 107.958 110.703 107.679V96.488C110.703 96.1967 110.779 95.9813 110.931 95.842C111.083 95.69 111.292 95.614 111.558 95.614C111.837 95.614 112.046 95.69 112.185 95.842C112.337 95.9813 112.413 96.1967 112.413 96.488V98.217L112.204 97.875C112.407 97.1783 112.806 96.621 113.401 96.203C113.997 95.785 114.712 95.576 115.548 95.576C116.372 95.576 117.087 95.7723 117.695 96.165C118.303 96.545 118.778 97.096 119.12 97.818C119.462 98.5273 119.633 99.376 119.633 100.364C119.633 101.339 119.462 102.194 119.12 102.929C118.791 103.651 118.316 104.208 117.695 104.601C117.087 104.981 116.372 105.171 115.548 105.171C114.725 105.171 114.016 104.962 113.42 104.544C112.825 104.126 112.426 103.575 112.223 102.891H112.432V107.679C112.432 107.958 112.356 108.173 112.204 108.325C112.052 108.477 111.837 108.553 111.558 108.553ZM115.149 103.803C115.694 103.803 116.169 103.67 116.574 103.404C116.992 103.138 117.315 102.752 117.543 102.245C117.771 101.738 117.885 101.111 117.885 100.364C117.885 99.2493 117.638 98.4007 117.144 97.818C116.65 97.2353 115.985 96.944 115.149 96.944C114.592 96.944 114.104 97.077 113.686 97.343C113.281 97.5963 112.964 97.9763 112.736 98.483C112.521 98.9897 112.413 99.6167 112.413 100.364C112.413 101.479 112.66 102.334 113.154 102.929C113.648 103.512 114.313 103.803 115.149 103.803ZM124.962 105.171C124.012 105.171 123.29 104.892 122.796 104.335C122.302 103.765 122.055 102.948 122.055 101.884V92.346C122.055 92.0547 122.131 91.8393 122.283 91.7C122.435 91.548 122.644 91.472 122.91 91.472C123.188 91.472 123.404 91.548 123.556 91.7C123.708 91.8393 123.784 92.0547 123.784 92.346V101.751C123.784 102.41 123.917 102.904 124.183 103.233C124.461 103.55 124.854 103.708 125.361 103.708C125.475 103.708 125.576 103.708 125.665 103.708C125.753 103.695 125.842 103.683 125.931 103.67C126.07 103.657 126.171 103.695 126.235 103.784C126.298 103.873 126.33 104.05 126.33 104.316C126.33 104.557 126.273 104.747 126.159 104.886C126.057 105.013 125.886 105.095 125.646 105.133C125.532 105.146 125.418 105.152 125.304 105.152C125.19 105.165 125.076 105.171 124.962 105.171ZM130.915 105.171C130.281 105.171 129.705 105.044 129.186 104.791C128.679 104.538 128.28 104.196 127.989 103.765C127.71 103.334 127.571 102.853 127.571 102.321C127.571 101.637 127.742 101.099 128.084 100.706C128.426 100.313 129.002 100.035 129.813 99.87C130.623 99.6927 131.713 99.604 133.081 99.604H133.974V100.706H133.119C132.143 100.706 131.371 100.75 130.801 100.839C130.243 100.928 129.851 101.086 129.623 101.314C129.395 101.529 129.281 101.833 129.281 102.226C129.281 102.72 129.452 103.125 129.794 103.442C130.148 103.759 130.63 103.917 131.238 103.917C131.719 103.917 132.143 103.803 132.511 103.575C132.878 103.334 133.169 103.018 133.385 102.625C133.6 102.22 133.708 101.757 133.708 101.238V99.053C133.708 98.3057 133.556 97.7673 133.252 97.438C132.948 97.096 132.435 96.925 131.713 96.925C131.295 96.925 130.864 96.982 130.421 97.096C129.977 97.21 129.515 97.3873 129.034 97.628C128.844 97.7167 128.679 97.7483 128.54 97.723C128.4 97.685 128.286 97.609 128.198 97.495C128.122 97.3683 128.077 97.2353 128.065 97.096C128.065 96.944 128.096 96.7983 128.16 96.659C128.236 96.5197 128.362 96.4183 128.54 96.355C129.097 96.0763 129.648 95.88 130.193 95.766C130.75 95.6393 131.269 95.576 131.751 95.576C132.574 95.576 133.252 95.709 133.784 95.975C134.316 96.2283 134.715 96.6273 134.981 97.172C135.247 97.704 135.38 98.388 135.38 99.224V104.24C135.38 104.531 135.31 104.753 135.171 104.905C135.031 105.057 134.829 105.133 134.563 105.133C134.309 105.133 134.107 105.057 133.955 104.905C133.815 104.753 133.746 104.531 133.746 104.24V102.891H133.917C133.815 103.36 133.625 103.765 133.347 104.107C133.068 104.449 132.72 104.715 132.302 104.905C131.896 105.082 131.434 105.171 130.915 105.171ZM142.309 105.171C141.372 105.171 140.561 104.975 139.877 104.582C139.193 104.177 138.668 103.613 138.3 102.891C137.933 102.156 137.749 101.295 137.749 100.307C137.749 99.5723 137.851 98.9137 138.053 98.331C138.269 97.7483 138.573 97.2543 138.965 96.849C139.358 96.431 139.833 96.1143 140.39 95.899C140.96 95.6837 141.6 95.576 142.309 95.576C142.753 95.576 143.221 95.6457 143.715 95.785C144.209 95.9243 144.665 96.1523 145.083 96.469C145.223 96.5703 145.311 96.6907 145.349 96.83C145.387 96.9567 145.387 97.0897 145.349 97.229C145.324 97.3683 145.261 97.4887 145.159 97.59C145.071 97.6787 144.95 97.7293 144.798 97.742C144.659 97.7547 144.507 97.7103 144.342 97.609C144.038 97.381 143.715 97.2163 143.373 97.115C143.044 97.0137 142.727 96.963 142.423 96.963C141.955 96.963 141.537 97.039 141.169 97.191C140.815 97.343 140.511 97.5647 140.257 97.856C140.017 98.1347 139.833 98.483 139.706 98.901C139.58 99.3063 139.516 99.7813 139.516 100.326C139.516 101.403 139.77 102.251 140.276 102.872C140.783 103.48 141.499 103.784 142.423 103.784C142.727 103.784 143.044 103.74 143.373 103.651C143.703 103.55 144.026 103.385 144.342 103.157C144.507 103.056 144.659 103.018 144.798 103.043C144.938 103.056 145.052 103.113 145.14 103.214C145.242 103.303 145.305 103.417 145.33 103.556C145.356 103.683 145.343 103.816 145.292 103.955C145.254 104.094 145.166 104.208 145.026 104.297C144.621 104.601 144.178 104.823 143.696 104.962C143.215 105.101 142.753 105.171 142.309 105.171ZM151.422 105.171C150.421 105.171 149.56 104.981 148.838 104.601C148.129 104.208 147.578 103.657 147.185 102.948C146.792 102.226 146.596 101.377 146.596 100.402C146.596 99.4393 146.786 98.597 147.166 97.875C147.559 97.153 148.091 96.5893 148.762 96.184C149.446 95.7787 150.225 95.576 151.099 95.576C151.72 95.576 152.277 95.6837 152.771 95.899C153.278 96.1017 153.708 96.3993 154.063 96.792C154.418 97.1847 154.684 97.666 154.861 98.236C155.051 98.7933 155.146 99.4267 155.146 100.136C155.146 100.339 155.083 100.497 154.956 100.611C154.842 100.712 154.671 100.763 154.443 100.763H147.945V99.661H154.006L153.683 99.927C153.683 99.2683 153.582 98.711 153.379 98.255C153.189 97.7863 152.904 97.4317 152.524 97.191C152.157 96.9503 151.694 96.83 151.137 96.83C150.529 96.83 150.01 96.9757 149.579 97.267C149.148 97.5457 148.819 97.9447 148.591 98.464C148.363 98.9707 148.249 99.5597 148.249 100.231V100.345C148.249 101.485 148.521 102.346 149.066 102.929C149.611 103.512 150.396 103.803 151.422 103.803C151.827 103.803 152.239 103.752 152.657 103.651C153.088 103.55 153.499 103.366 153.892 103.1C154.082 102.986 154.253 102.935 154.405 102.948C154.57 102.948 154.703 102.999 154.804 103.1C154.905 103.189 154.969 103.303 154.994 103.442C155.019 103.569 155 103.708 154.937 103.86C154.874 104.012 154.753 104.145 154.576 104.259C154.158 104.55 153.658 104.778 153.075 104.943C152.505 105.095 151.954 105.171 151.422 105.171Z" fill="#F2F2F2"/>
<path d="M50.7711 194C50.3751 194 50.0691 193.898 49.8531 193.694C49.6491 193.478 49.5471 193.172 49.5471 192.776V182.534C49.5471 182.138 49.6491 181.838 49.8531 181.634C50.0691 181.418 50.3751 181.31 50.7711 181.31H55.0911C55.9791 181.31 56.7351 181.442 57.3591 181.706C57.9831 181.97 58.4571 182.348 58.7811 182.84C59.1171 183.332 59.2851 183.92 59.2851 184.604C59.2851 185.372 59.0631 186.02 58.6191 186.548C58.1751 187.076 57.5691 187.43 56.8011 187.61V187.34C57.6891 187.472 58.3791 187.808 58.8711 188.348C59.3631 188.888 59.6091 189.59 59.6091 190.454C59.6091 191.582 59.2251 192.458 58.4571 193.082C57.7011 193.694 56.6451 194 55.2891 194H50.7711ZM51.7611 192.254H55.0011C55.8171 192.254 56.4171 192.098 56.8011 191.786C57.1851 191.462 57.3771 190.982 57.3771 190.346C57.3771 189.698 57.1851 189.218 56.8011 188.906C56.4171 188.594 55.8171 188.438 55.0011 188.438H51.7611V192.254ZM51.7611 186.692H54.6951C55.4871 186.692 56.0751 186.542 56.4591 186.242C56.8551 185.93 57.0531 185.474 57.0531 184.874C57.0531 184.274 56.8551 183.824 56.4591 183.524C56.0751 183.212 55.4871 183.056 54.6951 183.056H51.7611V186.692ZM65.7377 194.18C64.8257 194.18 64.0337 193.994 63.3617 193.622C62.6897 193.25 62.1677 192.722 61.7957 192.038C61.4237 191.342 61.2377 190.526 61.2377 189.59C61.2377 188.882 61.3397 188.252 61.5437 187.7C61.7597 187.136 62.0657 186.656 62.4617 186.26C62.8577 185.852 63.3317 185.546 63.8837 185.342C64.4357 185.126 65.0537 185.018 65.7377 185.018C66.6497 185.018 67.4417 185.204 68.1137 185.576C68.7857 185.948 69.3077 186.476 69.6797 187.16C70.0517 187.844 70.2377 188.654 70.2377 189.59C70.2377 190.298 70.1297 190.934 69.9137 191.498C69.7097 192.062 69.4097 192.548 69.0137 192.956C68.6177 193.352 68.1437 193.658 67.5917 193.874C67.0397 194.078 66.4217 194.18 65.7377 194.18ZM65.7377 192.47C66.1817 192.47 66.5717 192.362 66.9077 192.146C67.2437 191.93 67.5017 191.612 67.6817 191.192C67.8737 190.76 67.9697 190.226 67.9697 189.59C67.9697 188.63 67.7657 187.916 67.3577 187.448C66.9497 186.968 66.4097 186.728 65.7377 186.728C65.2937 186.728 64.9037 186.836 64.5677 187.052C64.2317 187.256 63.9677 187.574 63.7757 188.006C63.5957 188.426 63.5057 188.954 63.5057 189.59C63.5057 190.538 63.7097 191.258 64.1177 191.75C64.5257 192.23 65.0657 192.47 65.7377 192.47ZM76.1088 194.18C75.1968 194.18 74.4048 193.994 73.7328 193.622C73.0608 193.25 72.5388 192.722 72.1668 192.038C71.7948 191.342 71.6088 190.526 71.6088 189.59C71.6088 188.882 71.7108 188.252 71.9148 187.7C72.1308 187.136 72.4368 186.656 72.8328 186.26C73.2288 185.852 73.7028 185.546 74.2548 185.342C74.8068 185.126 75.4248 185.018 76.1088 185.018C77.0208 185.018 77.8128 185.204 78.4848 185.576C79.1568 185.948 79.6788 186.476 80.0508 187.16C80.4228 187.844 80.6088 188.654 80.6088 189.59C80.6088 190.298 80.5008 190.934 80.2848 191.498C80.0808 192.062 79.7808 192.548 79.3848 192.956C78.9888 193.352 78.5148 193.658 77.9628 193.874C77.4108 194.078 76.7928 194.18 76.1088 194.18ZM76.1088 192.47C76.5528 192.47 76.9428 192.362 77.2788 192.146C77.6148 191.93 77.8728 191.612 78.0528 191.192C78.2448 190.76 78.3408 190.226 78.3408 189.59C78.3408 188.63 78.1368 187.916 77.7288 187.448C77.3208 186.968 76.7808 186.728 76.1088 186.728C75.6648 186.728 75.2748 186.836 74.9388 187.052C74.6028 187.256 74.3388 187.574 74.1468 188.006C73.9668 188.426 73.8768 188.954 73.8768 189.59C73.8768 190.538 74.0808 191.258 74.4888 191.75C74.8968 192.23 75.4368 192.47 76.1088 192.47ZM83.5819 194.144C83.2219 194.144 82.9459 194.048 82.7539 193.856C82.5619 193.652 82.4659 193.364 82.4659 192.992V182.3C82.4659 181.928 82.5619 181.646 82.7539 181.454C82.9459 181.262 83.2219 181.166 83.5819 181.166C83.9419 181.166 84.2179 181.262 84.4099 181.454C84.6139 181.646 84.7159 181.928 84.7159 182.3V188.942H84.7519L87.7219 185.81C87.9619 185.57 88.1719 185.384 88.3519 185.252C88.5319 185.12 88.7779 185.054 89.0899 185.054C89.4019 185.054 89.6359 185.138 89.7919 185.306C89.9599 185.462 90.0439 185.654 90.0439 185.882C90.0439 186.11 89.9359 186.338 89.7199 186.566L86.5879 189.878V188.942L90.0259 192.65C90.2419 192.878 90.3379 193.112 90.3139 193.352C90.3019 193.58 90.2059 193.772 90.0259 193.928C89.8459 194.072 89.6179 194.144 89.3419 194.144C89.0059 194.144 88.7359 194.078 88.5319 193.946C88.3399 193.814 88.1239 193.616 87.8839 193.352L84.7519 190.076H84.7159V192.992C84.7159 193.76 84.3379 194.144 83.5819 194.144ZM98.299 194.144C97.951 194.144 97.681 194.048 97.489 193.856C97.309 193.664 97.219 193.388 97.219 193.028V182.318C97.219 181.946 97.309 181.664 97.489 181.472C97.681 181.268 97.927 181.166 98.227 181.166C98.503 181.166 98.707 181.22 98.839 181.328C98.983 181.424 99.151 181.592 99.343 181.832L106.237 190.778H105.769V182.264C105.769 181.916 105.859 181.646 106.039 181.454C106.231 181.262 106.501 181.166 106.849 181.166C107.197 181.166 107.461 181.262 107.641 181.454C107.821 181.646 107.911 181.916 107.911 182.264V193.064C107.911 193.4 107.827 193.664 107.659 193.856C107.491 194.048 107.263 194.144 106.975 194.144C106.699 194.144 106.477 194.09 106.309 193.982C106.153 193.874 105.979 193.7 105.787 193.46L98.911 184.514H99.361V193.028C99.361 193.388 99.271 193.664 99.091 193.856C98.911 194.048 98.647 194.144 98.299 194.144ZM114.482 194.18C113.57 194.18 112.778 193.994 112.106 193.622C111.434 193.25 110.912 192.722 110.54 192.038C110.168 191.342 109.982 190.526 109.982 189.59C109.982 188.882 110.084 188.252 110.288 187.7C110.504 187.136 110.81 186.656 111.206 186.26C111.602 185.852 112.076 185.546 112.628 185.342C113.18 185.126 113.798 185.018 114.482 185.018C115.394 185.018 116.186 185.204 116.858 185.576C117.53 185.948 118.052 186.476 118.424 187.16C118.796 187.844 118.982 188.654 118.982 189.59C118.982 190.298 118.874 190.934 118.658 191.498C118.454 192.062 118.154 192.548 117.758 192.956C117.362 193.352 116.888 193.658 116.336 193.874C115.784 194.078 115.166 194.18 114.482 194.18ZM114.482 192.47C114.926 192.47 115.316 192.362 115.652 192.146C115.988 191.93 116.246 191.612 116.426 191.192C116.618 190.76 116.714 190.226 116.714 189.59C116.714 188.63 116.51 187.916 116.102 187.448C115.694 186.968 115.154 186.728 114.482 186.728C114.038 186.728 113.648 186.836 113.312 187.052C112.976 187.256 112.712 187.574 112.52 188.006C112.34 188.426 112.25 188.954 112.25 189.59C112.25 190.538 112.454 191.258 112.862 191.75C113.27 192.23 113.81 192.47 114.482 192.47ZM124.065 194.144C123.765 194.144 123.507 194.072 123.291 193.928C123.075 193.772 122.901 193.532 122.769 193.208L120.159 186.548C120.051 186.26 120.015 186.008 120.051 185.792C120.099 185.564 120.213 185.384 120.393 185.252C120.573 185.12 120.813 185.054 121.113 185.054C121.377 185.054 121.593 185.12 121.761 185.252C121.929 185.372 122.073 185.606 122.193 185.954L124.371 191.948H123.957L126.207 185.81C126.303 185.546 126.429 185.354 126.585 185.234C126.753 185.114 126.969 185.054 127.233 185.054C127.497 185.054 127.713 185.12 127.881 185.252C128.049 185.372 128.175 185.558 128.259 185.81L130.473 191.948H130.095L132.291 185.9C132.411 185.576 132.561 185.354 132.741 185.234C132.933 185.114 133.143 185.054 133.371 185.054C133.659 185.054 133.881 185.126 134.037 185.27C134.193 185.414 134.283 185.6 134.307 185.828C134.331 186.044 134.289 186.284 134.181 186.548L131.589 193.208C131.469 193.52 131.295 193.754 131.067 193.91C130.851 194.066 130.593 194.144 130.293 194.144C129.993 194.144 129.729 194.066 129.501 193.91C129.285 193.754 129.117 193.52 128.997 193.208L126.639 186.962H127.665L125.361 193.19C125.241 193.514 125.073 193.754 124.857 193.91C124.641 194.066 124.377 194.144 124.065 194.144Z" fill="#F4F8FF"/>
<path d="M237.126 104.368C258.769 138.655 241.27 237.547 391.849 174.747C382.179 140.46 344.879 51.3057 237.126 104.368Z" fill="#1E1E1E" fill-opacity="0.2"/>
<path d="M263.001 162.034L274.757 155.247L263.64 149.711L263.001 162.034Z" fill="#322A50"/>
<path d="M346.681 137.335V137.306L276.705 96.2622C275.981 95.8441 275.335 95.9144 274.91 96.3626L284.957 102.831L233.812 120.091L305.294 161.259L346.681 137.335Z" fill="url(#paint1_linear_3924_7938)"/>
<path d="M234.266 74.3636L279.421 46.9554C280.137 46.4863 281.095 46.4992 282.147 47.1069L346.381 84.75C348.601 86.0314 350.4 89.4694 350.4 92.4288V128.523C350.4 130.271 349.772 131.46 348.8 131.878L305.56 158.169L304.054 159.05L234.266 74.3636Z" fill="url(#paint2_linear_3924_7938)"/>
<path d="M237.019 121.301L301.252 158.944C303.472 160.225 305.271 158.865 305.271 155.906V119.812C305.271 116.853 303.472 113.415 301.252 112.133L237.019 74.49C234.799 73.2086 233 74.569 233 77.5284V113.622C233 116.582 234.799 120.019 237.019 121.301Z" fill="url(#paint3_linear_3924_7938)"/>
<path d="M240.393 115.671V82.8047L247.228 86.7512V119.617L240.393 115.671Z" fill="url(#paint4_linear_3924_7938)"/>
<path d="M252.957 123.179V90.3125L259.793 94.2587V127.125L252.957 123.179Z" fill="url(#paint5_linear_3924_7938)"/>
<path d="M265.523 130.616V97.75L272.358 101.696V134.563L265.523 130.616Z" fill="url(#paint6_linear_3924_7938)"/>
<path d="M278.086 138.069V105.203L284.922 109.149V142.015L278.086 138.069Z" fill="url(#paint7_linear_3924_7938)"/>
<path d="M290.652 145.507V112.641L297.487 116.587V149.453L290.652 145.507Z" fill="url(#paint8_linear_3924_7938)"/>
<path d="M283.404 173.878L295.16 167.091L284.043 161.555L283.404 173.878Z" fill="#322A50"/>
<path d="M334.206 202.909L345.961 196.122L334.844 190.586L334.206 202.909Z" fill="#322A50"/>
<path d="M385.429 143.545L379.135 136.661L374.647 117.504C373.474 112.494 370.389 107.827 366.935 105.832L353.635 98.1534C351.904 97.154 350.322 97.0858 349.105 97.7776L349.104 97.7752L307.636 121.728L347.492 196.859L388.824 172.984L388.823 172.981C389.722 172.489 390.294 171.308 390.294 169.616V155.823C390.294 151.63 388.362 146.753 385.429 143.545Z" fill="url(#paint9_linear_3924_7938)"/>
<path d="M305.293 168.071V127.319C305.293 122.197 308.407 119.844 312.248 122.061L325.548 129.74C329.003 131.734 332.087 136.402 333.261 141.412L337.749 160.569L344.043 167.453C346.975 170.66 348.908 175.538 348.908 179.731V187.738C348.908 190.783 347.056 192.183 344.772 190.864L305.293 168.071Z" fill="url(#paint10_linear_3924_7938)"/>
<path d="M348.908 186.457L345.904 193.856L347.493 196.853L388.825 172.977L388.824 172.975C389.723 172.483 390.295 171.302 390.295 169.61V162.562L348.908 186.457Z" fill="url(#paint11_linear_3924_7938)"/>
<path d="M235.318 120.27L305.293 161.314V173.887L235.318 132.844C234.038 132.105 233 130.122 233 128.416V122.022C233 120.316 234.038 119.531 235.318 120.27Z" fill="url(#paint12_linear_3924_7938)"/>
<path d="M303.973 160.57L348.908 186.484V193.542C348.908 196.588 347.056 197.988 344.772 196.669L303.973 173.144L303.973 160.57Z" fill="url(#paint13_linear_3924_7938)"/>
<path d="M332.921 157.788L329.303 142.345C328.402 138.5 325.968 134.681 323.515 133.265L310.215 125.586C309.996 125.46 309.82 125.386 309.694 125.344C309.55 125.641 309.356 126.274 309.356 127.324V144.182L332.921 157.788Z" fill="url(#paint14_linear_3924_7938)"/>
<path d="M372.742 118.461C372.388 116.949 371.857 115.471 371.198 114.086L334.017 135.552C334.697 136.964 335.242 138.476 335.604 140.022L340.092 159.179L377.23 137.618L372.742 118.461Z" fill="url(#paint15_linear_3924_7938)"/>
<path d="M347.293 178.795L346.629 178.411C345.818 177.943 344.803 178.528 344.803 179.466V184.092L348.908 186.461L358.056 181.179V176.428C358.056 175.546 357.102 174.996 356.339 175.436L350.522 178.795C349.523 179.371 348.292 179.371 347.293 178.795Z" fill="url(#paint16_linear_3924_7938)"/>
<path d="M383.86 161.567V166.263L390.294 162.532V155.797L385.624 158.506C384.532 159.139 383.86 160.306 383.86 161.567Z" fill="url(#paint17_linear_3924_7938)"/>
<path d="M358.057 176.421L383.861 161.523V166.275L358.057 181.172V176.421Z" fill="#43386B"/>
<path d="M286.982 165.939C286.982 173.028 282.672 176.286 277.355 173.216C272.039 170.147 267.729 161.912 267.729 154.823C267.729 147.735 272.039 144.476 277.355 147.546C282.672 150.616 286.982 158.85 286.982 165.939Z" fill="url(#paint18_linear_3924_7938)"/>
<path d="M282.088 163.142C282.088 166.627 279.969 168.23 277.355 166.72C274.741 165.211 272.622 161.162 272.622 157.677C272.622 154.192 274.741 152.59 277.355 154.099C279.969 155.609 282.088 159.657 282.088 163.142Z" fill="url(#paint19_linear_3924_7938)"/>
<path d="M281.413 162.724C281.413 165.711 279.596 167.085 277.356 165.791C275.115 164.497 273.298 161.026 273.298 158.038C273.298 155.051 275.115 153.678 277.356 154.971C279.596 156.265 281.413 159.736 281.413 162.724Z" fill="url(#paint20_linear_3924_7938)"/>
<path d="M277.355 154.995C277.255 154.937 277.158 154.891 277.06 154.844C277 155.177 276.968 155.539 276.968 155.93C276.968 158.918 278.784 162.389 281.025 163.683C281.125 163.74 281.222 163.786 281.32 163.833C281.379 163.5 281.412 163.138 281.412 162.747C281.412 159.759 279.596 156.288 277.355 154.995Z" fill="#594A8E"/>
<path d="M266.583 154.134C266.583 161.223 262.273 164.481 256.956 161.412C251.64 158.342 247.33 150.107 247.33 143.019C247.33 135.93 251.64 132.672 256.956 135.741C262.273 138.811 266.583 147.046 266.583 154.134Z" fill="url(#paint21_linear_3924_7938)"/>
<path d="M261.689 151.338C261.689 154.823 259.57 156.425 256.956 154.916C254.342 153.406 252.223 149.358 252.223 145.873C252.223 142.387 254.342 140.785 256.956 142.294C259.57 143.804 261.689 147.852 261.689 151.338Z" fill="url(#paint22_linear_3924_7938)"/>
<path d="M261.015 150.919C261.015 153.907 259.198 155.28 256.957 153.986C254.716 152.693 252.9 149.222 252.9 146.234C252.9 143.246 254.716 141.873 256.957 143.167C259.198 144.46 261.015 147.931 261.015 150.919Z" fill="url(#paint23_linear_3924_7938)"/>
<path d="M256.956 143.19C256.856 143.132 256.758 143.086 256.66 143.039C256.601 143.372 256.569 143.734 256.569 144.125C256.569 147.113 258.385 150.584 260.626 151.878C260.726 151.935 260.823 151.981 260.921 152.028C260.98 151.695 261.013 151.333 261.013 150.942C261.013 147.954 259.197 144.483 256.956 143.19Z" fill="#594A8E"/>
<path d="M337.784 194.97C337.784 202.059 333.475 205.317 328.158 202.247C322.842 199.178 318.532 190.943 318.532 183.854C318.532 176.766 322.842 173.507 328.158 176.577C333.475 179.647 337.784 187.881 337.784 194.97Z" fill="url(#paint24_linear_3924_7938)"/>
<path d="M332.891 192.174C332.891 195.659 330.772 197.261 328.158 195.752C325.544 194.242 323.425 190.194 323.425 186.709C323.425 183.223 325.544 181.621 328.158 183.13C330.772 184.639 332.891 188.688 332.891 192.174Z" fill="url(#paint25_linear_3924_7938)"/>
<path d="M332.216 191.755C332.216 194.743 330.399 196.116 328.158 194.822C325.917 193.529 324.101 190.058 324.101 187.07C324.101 184.082 325.917 182.709 328.158 184.002C330.399 185.296 332.216 188.767 332.216 191.755Z" fill="url(#paint26_linear_3924_7938)"/>
<path d="M328.157 184.026C328.058 183.968 327.96 183.922 327.862 183.875C327.803 184.208 327.77 184.57 327.77 184.961C327.77 187.949 329.587 191.42 331.828 192.714C331.927 192.771 332.025 192.817 332.123 192.864C332.182 192.531 332.214 192.169 332.214 191.778C332.214 188.79 330.398 185.319 328.157 184.026Z" fill="#594A8E"/>
<ellipse cx="391.267" cy="81.8248" rx="32.3833" ry="12.4551" transform="rotate(27.3147 391.267 81.8248)" fill="black" fill-opacity="0.19"/>
<ellipse cx="446.07" cy="120.028" rx="32.3833" ry="12.4551" transform="rotate(27.3147 446.07 120.028)" fill="black" fill-opacity="0.19"/>
<path d="M374.539 46.0859L373.692 46.9472L365.082 57.0149L367.245 58.5124L381.007 50.5669L374.539 46.0859Z" fill="#23292E"/>
<path d="M377.833 49.5164L371.825 53.1808L367.245 58.5027L365.082 57.0052L373.692 46.9375L377.833 49.5164Z" fill="#2E373D"/>
<path d="M456.731 111.482C455.723 111.482 454.798 110.812 454.52 109.792L439.968 56.5562C439.634 55.3334 440.354 54.0724 441.576 53.7377C442.798 53.4045 444.059 54.1236 444.394 55.3464L458.946 108.582C459.28 109.804 458.56 111.066 457.337 111.4C457.135 111.456 456.932 111.482 456.731 111.482Z" fill="#CECECE"/>
<path d="M392.121 47.5033C388.658 45.5045 385.505 45.4468 383.137 46.9678L376.98 50.4681C373.844 51.9062 371.826 55.8168 371.826 61.5222C371.826 71.3283 377.788 82.7212 385.143 86.9674C388.566 88.9434 391.687 89.023 394.046 87.5556L400.566 83.8653C403.54 82.3264 405.438 78.4816 405.438 72.9493C405.438 63.1423 399.476 51.7502 392.121 47.5033Z" fill="#23292E"/>
<path d="M398.46 76.9033C398.46 86.7102 392.498 91.2172 385.143 86.971C377.788 82.7249 371.826 71.3319 371.826 61.5258C371.826 51.7189 377.788 47.2111 385.143 51.4573C392.498 55.7043 398.46 67.0964 398.46 76.9033Z" fill="#2E373D"/>
<path d="M393.356 73.9603C393.356 80.0086 389.678 82.789 385.142 80.1695C380.606 77.5508 376.928 70.5242 376.928 64.476C376.928 58.4277 380.606 55.6481 385.142 58.2668C389.678 60.8863 393.356 67.912 393.356 73.9603Z" fill="#CECECE"/>
<path d="M414.81 79.3526L389.182 64.5561C387.706 63.7046 385.895 63.6786 384.396 64.4862C383.111 64.7299 382.039 65.8398 382.039 67.3226C382.039 70.1112 383.527 72.6884 385.94 74.0843L414.81 90.7731L414.81 79.3526Z" fill="#23292E"/>
<path d="M396.745 58.2344V66.465C396.745 68.2005 397.671 69.8052 399.174 70.673L408.216 75.8933C410.594 77.3721 412.039 79.9737 412.039 82.7736V87.0677C412.039 89.7156 413.452 92.1629 415.745 93.4865L423.082 97.7229C424.028 98.2689 425.092 98.1998 425.918 97.7221L441.107 88.9803C441.174 88.9446 441.241 88.9064 441.306 88.8658H441.307C442.083 88.3758 442.629 87.5211 442.629 86.4729C442.629 83.8778 443.063 81.3005 443.913 78.8476L446.453 71.5139L396.745 58.2344Z" fill="#CECECE"/>
<path d="M408.216 67.0923L396.745 60.4688V66.4943C396.745 68.2298 397.671 69.8345 399.174 70.7022L408.216 75.9226V67.0923Z" fill="#525E65"/>
<path d="M419.571 84.031L386.366 64.8364C384.444 63.7258 382.039 65.1127 382.039 67.3333C382.039 70.1226 383.527 72.699 385.94 74.0949L419.571 93.5357V84.031Z" fill="#525E65"/>
<path d="M404.509 38.4615L402.3 34.6346C401.242 32.8024 399.721 31.2814 397.89 30.2243L391.531 26.5534C390.02 25.6808 388.303 25.8986 387.068 26.798L372.371 35.1254C370.999 35.7559 369.979 37.1233 369.979 38.8466C369.979 42.6556 372.011 46.1754 375.31 48.0799L400.569 62.6627L419.571 47.4421L404.509 38.4615Z" fill="#627681"/>
<path d="M404.158 56.1939L389.098 47.2125L386.888 43.3856C385.831 41.5542 384.31 40.0332 382.478 38.9753L376.12 35.3045C373.39 33.729 369.979 35.6985 369.979 38.8494C369.979 42.6584 372.011 46.1782 375.31 48.0827L400.569 62.6663L404.158 56.1939Z" fill="#2E373D"/>
<path d="M389.097 47.2248L404.509 38.4766L419.57 47.458L404.158 56.2062L389.097 47.2248Z" fill="#525E65"/>
<path d="M435.985 47.6716C430.752 44.5784 424.258 44.5451 418.993 47.5847C418.85 47.6675 405.559 55.3798 404.261 56.133C404.072 56.233 403.884 56.3353 403.698 56.4434C401.761 57.5614 400.568 59.6276 400.568 61.8636V62.6647L431.158 80.3261L446.453 71.4682V65.9399C446.453 58.4243 442.469 51.4717 435.985 47.6716Z" fill="#7A87FF"/>
<path d="M400.568 62.6661L431.158 80.3275V74.8C431.158 67.2844 427.174 60.3318 420.69 56.5317C415.457 53.4377 408.962 53.4044 403.698 56.4439C401.761 57.5628 400.568 59.629 400.568 61.865V62.6661Z" fill="#2C39AB"/>
<path d="M408.215 67.0703L431.158 80.3157L428.617 87.6494C427.768 90.1015 427.334 92.6796 427.334 95.2747C427.334 97.4571 424.972 98.8205 423.083 97.7301L415.746 93.4937C413.452 92.1694 412.039 89.7229 412.039 87.0741V82.7801C412.039 79.9802 410.594 77.3785 408.215 75.9006V67.0703Z" fill="#82A5B9"/>
<path d="M456.444 91.4493C452.982 89.4498 449.828 89.3921 447.46 90.9131L441.303 94.4133C438.167 95.8515 436.149 99.7621 436.149 105.467C436.149 115.274 442.111 126.666 449.466 130.913C452.889 132.889 456.01 132.968 458.368 131.501L464.889 127.811C467.864 126.272 469.762 122.428 469.762 116.894C469.762 107.088 463.8 95.6955 456.444 91.4493Z" fill="#23292E"/>
<path d="M457.972 87.9893C453.868 85.62 450.146 85.6476 447.416 87.6049L439.349 92.263C435.98 94.0237 433.833 98.3926 433.833 104.67C433.833 109.438 435.075 114.533 437.146 119.185L438.064 118.738C440.022 117.784 441.006 115.569 440.426 113.47C439.921 111.651 439.64 109.8 439.64 108.022C439.64 101.141 443.824 97.9782 448.985 100.958C450.036 101.565 451.045 102.381 451.986 103.354C453.535 104.955 456.158 104.79 457.582 103.077L458.069 102.492L463.672 99.2327C464.749 99.2156 465.823 98.7476 466.568 97.8506L467.055 97.2656C464.524 93.273 461.379 89.9563 457.972 87.9893Z" fill="#7A87FF"/>
<path d="M462.783 120.809C462.783 130.616 456.821 135.124 449.467 130.877C442.112 126.631 436.149 115.239 436.149 105.432C436.149 95.6248 442.112 91.1171 449.467 95.364C456.821 99.6102 462.783 111.002 462.783 120.809Z" fill="#2E373D"/>
<path d="M457.679 117.874C457.679 123.923 454.002 126.703 449.466 124.084C444.93 121.465 441.252 114.438 441.252 108.39C441.252 102.342 444.93 99.5622 449.466 102.181C454.002 104.8 457.679 111.826 457.679 117.874Z" fill="#CECECE"/>
<path d="M453.018 115.188C453.018 117.803 451.428 119.005 449.466 117.873C447.505 116.74 445.915 113.702 445.915 111.087C445.915 108.472 447.505 107.271 449.466 108.402C451.428 109.535 453.018 112.573 453.018 115.188Z" fill="#627681"/>
<path d="M439.64 108.024C439.64 101.143 443.824 97.9799 448.985 100.959C450.037 101.566 451.045 102.383 451.987 103.355C453.536 104.957 456.158 104.792 457.583 103.078L458.069 102.493C455.538 98.4999 452.394 95.1841 448.985 93.217C440.617 88.3851 433.833 93.5136 433.833 104.672C433.833 109.439 435.075 114.535 437.146 119.186L438.064 118.739C440.022 117.786 441.006 115.571 440.426 113.472C439.921 111.653 439.64 109.802 439.64 108.024Z" fill="#2C39AB"/>
<path d="M449.3 115.99C448.292 115.99 447.367 115.32 447.088 114.3L432.537 61.0641C432.203 59.8421 432.922 58.5802 434.145 58.2455C435.367 57.9124 436.629 58.6314 436.963 59.8542L451.515 113.09C451.849 114.312 451.129 115.574 449.907 115.908C449.704 115.964 449.501 115.99 449.3 115.99Z" fill="#CECECE"/>
<path d="M442.631 38.3691C441.838 38.3691 441.067 37.9572 440.642 37.2211C440.008 36.1242 440.384 34.721 441.481 34.0873L447.379 30.6829C448.476 30.0491 449.879 30.4253 450.513 31.5222C451.147 32.6199 450.771 34.0223 449.673 34.656L443.776 38.0612C443.414 38.27 443.019 38.3691 442.631 38.3691Z" fill="#2E373D"/>
<path d="M451.386 37.5937H443.76C443.076 37.5937 442.521 37.0388 442.521 36.3554C442.521 35.6713 443.076 35.1172 443.76 35.1172H451.386C452.07 35.1172 452.624 35.6713 452.624 36.3554C452.624 37.0388 452.07 37.5937 451.386 37.5937Z" fill="#2E373D"/>
<path d="M430.044 64.0874C426.878 64.0874 423.748 62.8435 421.414 60.4588L414.287 53.1787C413.4 52.2728 413.415 50.8208 414.321 49.9344C415.226 49.048 416.679 49.0634 417.565 49.9685L424.693 57.2486C427.084 59.6918 430.824 60.2044 433.784 58.4949L441.081 54.2821C442.742 53.3225 443.587 51.4188 443.183 49.5436L440.387 36.5671C440.12 35.3288 440.908 34.1085 442.147 33.8411C443.385 33.5738 444.605 34.362 444.873 35.601L447.668 48.5767C448.494 52.4068 446.768 56.2963 443.375 58.2552L436.078 62.4681C434.192 63.5576 432.111 64.0874 430.044 64.0874Z" fill="#CECECE"/>
<path d="M408.342 58.2652C407.549 58.2652 406.778 57.8541 406.353 57.1179C405.719 56.0202 406.095 54.6179 407.192 53.9841L414.778 49.6047C415.875 48.971 417.278 49.3471 417.911 50.4448C418.545 51.5417 418.169 52.9449 417.071 53.5787L409.487 57.9581C409.126 58.1669 408.731 58.2652 408.342 58.2652Z" fill="#2E373D"/>
<path d="M452.048 54.6136L448.111 52.3402C444.384 50.1887 439.793 50.1887 436.067 52.3402C429.197 56.3068 429.197 66.2218 436.067 70.1885L443.132 74.3485C444.394 75.1821 446.083 75.1626 447.941 74.0901C451.847 71.8346 455.014 65.7847 455.014 60.5765C455.014 57.411 453.843 55.288 452.048 54.6136Z" fill="#82A5B9"/>
<path d="M455.013 60.5787C455.013 65.7869 451.847 71.8368 447.941 74.0923C444.034 76.347 440.868 73.9533 440.868 68.7452C440.868 63.537 444.034 57.4863 447.941 55.2316C451.847 52.9761 455.013 55.3706 455.013 60.5787Z" fill="#CECECE"/>
<path d="M452.956 61.7523C452.956 65.4451 450.711 69.7351 447.941 71.3333C445.172 72.9323 442.927 71.235 442.927 67.543C442.927 63.8502 445.172 59.5602 447.941 57.9612C450.711 56.3621 452.956 58.0595 452.956 61.7523Z" fill="white"/>
<path d="M415.233 85.5719C415.233 88.7651 417.174 92.4742 419.57 93.8562C421.964 95.2391 423.905 93.7717 423.905 90.5786C423.905 87.3855 421.964 83.6764 419.57 82.2935C417.174 80.9114 415.233 82.3788 415.233 85.5719Z" fill="white"/>
<path d="M414.81 62.1317C414.717 62.1317 414.622 62.1212 414.527 62.0984C413.861 61.9432 413.448 61.277 413.603 60.6107L415.582 52.1517C415.738 51.4863 416.404 51.0727 417.07 51.2279C417.736 51.3839 418.15 52.0502 417.994 52.7164L416.015 61.1754C415.881 61.7458 415.373 62.1317 414.81 62.1317Z" fill="#2E373D"/>
<defs>
<linearGradient id="paint0_linear_3924_7938" x1="-3.39598e-06" y1="6.41861" x2="200.491" y2="267.953" gradientUnits="userSpaceOnUse">
<stop stop-color="#FF0835"/>
<stop offset="1" stop-color="#1100D4"/>
</linearGradient>
<linearGradient id="paint1_linear_3924_7938" x1="290.246" y1="158.589" x2="290.246" y2="95.4182" gradientUnits="userSpaceOnUse">
<stop stop-color="#43386B"/>
<stop offset="1" stop-color="#594A8E"/>
</linearGradient>
<linearGradient id="paint2_linear_3924_7938" x1="313.165" y1="118.255" x2="303.631" y2="101.742" gradientUnits="userSpaceOnUse">
<stop offset="0.0694" stop-color="#FFC538"/>
<stop offset="0.4072" stop-color="#FAD73E"/>
<stop offset="0.5466" stop-color="#F7E041"/>
<stop offset="1" stop-color="#FCF3B3"/>
</linearGradient>
<linearGradient id="paint3_linear_3924_7938" x1="269.136" y1="182.488" x2="269.136" y2="65.9064" gradientUnits="userSpaceOnUse">
<stop stop-color="#FFA538"/>
<stop offset="1" stop-color="#FFC538"/>
</linearGradient>
<linearGradient id="paint4_linear_3924_7938" x1="243.81" y1="85.9662" x2="243.81" y2="124.1" gradientUnits="userSpaceOnUse">
<stop stop-color="#CC8241"/>
<stop offset="1" stop-color="#FFA538"/>
</linearGradient>
<linearGradient id="paint5_linear_3924_7938" x1="256.375" y1="93.4737" x2="256.375" y2="131.608" gradientUnits="userSpaceOnUse">
<stop stop-color="#CC8241"/>
<stop offset="1" stop-color="#FFA538"/>
</linearGradient>
<linearGradient id="paint6_linear_3924_7938" x1="268.941" y1="100.912" x2="268.941" y2="139.046" gradientUnits="userSpaceOnUse">
<stop stop-color="#CC8241"/>
<stop offset="1" stop-color="#FFA538"/>
</linearGradient>
<linearGradient id="paint7_linear_3924_7938" x1="281.504" y1="108.364" x2="281.504" y2="146.498" gradientUnits="userSpaceOnUse">
<stop stop-color="#CC8241"/>
<stop offset="1" stop-color="#FFA538"/>
</linearGradient>
<linearGradient id="paint8_linear_3924_7938" x1="294.069" y1="115.802" x2="294.069" y2="153.936" gradientUnits="userSpaceOnUse">
<stop stop-color="#CC8241"/>
<stop offset="1" stop-color="#FFA538"/>
</linearGradient>
<linearGradient id="paint9_linear_3924_7938" x1="368.466" y1="169.07" x2="364.175" y2="161.637" gradientUnits="userSpaceOnUse">
<stop stop-color="#2C31AB"/>
<stop offset="1" stop-color="#7A87FF"/>
</linearGradient>
<linearGradient id="paint10_linear_3924_7938" x1="327.101" y1="160.469" x2="352.297" y2="116.829" gradientUnits="userSpaceOnUse">
<stop stop-color="#2C39AB"/>
<stop offset="1" stop-color="#4764FF"/>
</linearGradient>
<linearGradient id="paint11_linear_3924_7938" x1="368.099" y1="195.45" x2="368.099" y2="162.265" gradientUnits="userSpaceOnUse">
<stop stop-color="#43386B"/>
<stop offset="1" stop-color="#594A8E"/>
</linearGradient>
<linearGradient id="paint12_linear_3924_7938" x1="269.146" y1="152.453" x2="274.686" y2="142.858" gradientUnits="userSpaceOnUse">
<stop stop-color="#43386B"/>
<stop offset="1" stop-color="#594A8E"/>
</linearGradient>
<linearGradient id="paint13_linear_3924_7938" x1="326.44" y1="185.576" x2="331.724" y2="176.425" gradientUnits="userSpaceOnUse">
<stop stop-color="#43386B"/>
<stop offset="1" stop-color="#594A8E"/>
</linearGradient>
<linearGradient id="paint14_linear_3924_7938" x1="321.139" y1="143.096" x2="321.139" y2="108.776" gradientUnits="userSpaceOnUse">
<stop stop-color="#43386B"/>
<stop offset="1" stop-color="#7662BD"/>
</linearGradient>
<linearGradient id="paint15_linear_3924_7938" x1="353.326" y1="154.695" x2="357.43" y2="122.346" gradientUnits="userSpaceOnUse">
<stop stop-color="#43386B"/>
<stop offset="1" stop-color="#7662BD"/>
</linearGradient>
<linearGradient id="paint16_linear_3924_7938" x1="347.669" y1="180.871" x2="351.224" y2="180.871" gradientUnits="userSpaceOnUse">
<stop stop-color="#C5BAEB"/>
<stop offset="1" stop-color="white"/>
</linearGradient>
<linearGradient id="paint17_linear_3924_7938" x1="387.077" y1="165.599" x2="387.077" y2="157.874" gradientUnits="userSpaceOnUse">
<stop stop-color="#C5BAEB"/>
<stop offset="1" stop-color="white"/>
</linearGradient>
<linearGradient id="paint18_linear_3924_7938" x1="277.355" y1="173.227" x2="277.355" y2="146.148" gradientUnits="userSpaceOnUse">
<stop stop-color="#43386B"/>
<stop offset="1" stop-color="#594A8E"/>
</linearGradient>
<linearGradient id="paint19_linear_3924_7938" x1="277.355" y1="168.475" x2="277.355" y2="154.208" gradientUnits="userSpaceOnUse">
<stop stop-color="#A996EB"/>
<stop offset="1" stop-color="#D7D1EB"/>
</linearGradient>
<linearGradient id="paint20_linear_3924_7938" x1="275.879" y1="154.004" x2="278.063" y2="163.438" gradientUnits="userSpaceOnUse">
<stop stop-color="#7662BD"/>
<stop offset="1" stop-color="#C5BAEB"/>
</linearGradient>
<linearGradient id="paint21_linear_3924_7938" x1="256.956" y1="161.422" x2="256.956" y2="134.343" gradientUnits="userSpaceOnUse">
<stop stop-color="#43386B"/>
<stop offset="1" stop-color="#594A8E"/>
</linearGradient>
<linearGradient id="paint22_linear_3924_7938" x1="256.956" y1="156.671" x2="256.956" y2="142.403" gradientUnits="userSpaceOnUse">
<stop stop-color="#A996EB"/>
<stop offset="1" stop-color="#D7D1EB"/>
</linearGradient>
<linearGradient id="paint23_linear_3924_7938" x1="255.481" y1="142.199" x2="257.665" y2="151.633" gradientUnits="userSpaceOnUse">
<stop stop-color="#7662BD"/>
<stop offset="1" stop-color="#C5BAEB"/>
</linearGradient>
<linearGradient id="paint24_linear_3924_7938" x1="328.158" y1="202.258" x2="328.158" y2="175.179" gradientUnits="userSpaceOnUse">
<stop stop-color="#43386B"/>
<stop offset="1" stop-color="#594A8E"/>
</linearGradient>
<linearGradient id="paint25_linear_3924_7938" x1="328.158" y1="197.507" x2="328.158" y2="183.239" gradientUnits="userSpaceOnUse">
<stop stop-color="#A996EB"/>
<stop offset="1" stop-color="#D7D1EB"/>
</linearGradient>
<linearGradient id="paint26_linear_3924_7938" x1="326.682" y1="183.035" x2="328.866" y2="192.469" gradientUnits="userSpaceOnUse">
<stop stop-color="#7662BD"/>
<stop offset="1" stop-color="#C5BAEB"/>
</linearGradient>
</defs>
</svg>
