<svg width="27" height="24" viewBox="0 0 27 24" fill="none" xmlns="http://www.w3.org/2000/svg">
<path d="M26.0753 17.0118H24.0565C21.3742 17.0118 19.1154 14.9929 18.8895 12.4235C18.7624 10.9553 19.2989 9.48706 20.3718 8.44235C21.2754 7.51059 22.5318 6.98823 23.8871 6.98823H26.0753C26.4848 6.98823 26.8236 6.64941 26.7812 6.24C26.4706 2.80941 24.1977 0.465882 20.8236 0.0705882C20.4848 0.0141176 20.1318 0 19.7648 0H7.05882C6.66353 0 6.28235 0.0282352 5.91529 0.0847058C2.31529 0.536471 0 3.21882 0 7.05882V16.9412C0 20.8376 3.16235 24 7.05882 24H19.7648C23.7177 24 26.4424 21.5294 26.7812 17.76C26.8236 17.3506 26.4848 17.0118 26.0753 17.0118ZM15.5295 8.82353H7.05882C6.48 8.82353 6 8.34353 6 7.76471C6 7.18588 6.48 6.70588 7.05882 6.70588H15.5295C16.1083 6.70588 16.5883 7.18588 16.5883 7.76471C16.5883 8.34353 16.1083 8.82353 15.5295 8.82353Z" fill="#594A8E"/>
</svg>
