<svg width="161" height="31" viewBox="0 0 161 31" fill="none" xmlns="http://www.w3.org/2000/svg">
<path d="M7.78409 0.90909L14.8153 23.0114H15.0852L22.1307 0.90909H28.9489L18.9205 30H10.9943L0.951705 0.90909H7.78409ZM32.4503 30V0.90909H52.0526V5.98011H38.6009V12.9119H51.044V17.983H38.6009V24.929H52.1094V30H32.4503ZM56.9425 30V0.90909H76.5447V5.98011H63.093V12.9119H75.5362V17.983H63.093V24.929H76.6016V30H56.9425ZM81.4347 30V0.90909H87.5852V24.929H100.057V30H81.4347Z" fill="white"/>
<path d="M122.287 10.3125C122.088 9.62121 121.809 9.01042 121.449 8.48011C121.089 7.94034 120.649 7.4858 120.128 7.11648C119.616 6.73769 119.029 6.44886 118.366 6.25C117.713 6.05114 116.989 5.9517 116.193 5.9517C114.706 5.9517 113.4 6.32102 112.273 7.05966C111.155 7.79829 110.284 8.87311 109.659 10.2841C109.034 11.6856 108.722 13.3996 108.722 15.4261C108.722 17.4527 109.029 19.1761 109.645 20.5966C110.26 22.017 111.132 23.1013 112.259 23.8494C113.385 24.5881 114.716 24.9574 116.25 24.9574C117.642 24.9574 118.83 24.7112 119.815 24.2188C120.81 23.7169 121.567 23.0114 122.088 22.1023C122.618 21.1932 122.884 20.1184 122.884 18.8778L124.134 19.0625H116.634V14.4318H128.807V18.0966C128.807 20.6534 128.267 22.8504 127.188 24.6875C126.108 26.5152 124.621 27.9261 122.727 28.9205C120.833 29.9053 118.665 30.3977 116.222 30.3977C113.494 30.3977 111.098 29.7964 109.034 28.5938C106.97 27.3816 105.36 25.6629 104.205 23.4375C103.059 21.2027 102.486 18.5511 102.486 15.483C102.486 13.125 102.827 11.0227 103.509 9.17614C104.2 7.32008 105.166 5.74811 106.406 4.46023C107.647 3.17235 109.091 2.19223 110.739 1.51989C112.386 0.847537 114.171 0.511363 116.094 0.511363C117.741 0.511363 119.276 0.75284 120.696 1.2358C122.116 1.70928 123.376 2.38163 124.474 3.25284C125.582 4.12405 126.487 5.16098 127.188 6.36364C127.888 7.55682 128.338 8.87311 128.537 10.3125H122.287ZM160.16 15.4545C160.16 18.6269 159.558 21.3258 158.356 23.5511C157.163 25.7765 155.534 27.4763 153.469 28.6506C151.415 29.8153 149.104 30.3977 146.538 30.3977C143.952 30.3977 141.632 29.8106 139.577 28.6364C137.522 27.4621 135.898 25.7623 134.705 23.5369C133.512 21.3116 132.915 18.6174 132.915 15.4545C132.915 12.2822 133.512 9.58333 134.705 7.35795C135.898 5.13258 137.522 3.4375 139.577 2.27273C141.632 1.09848 143.952 0.511363 146.538 0.511363C149.104 0.511363 151.415 1.09848 153.469 2.27273C155.534 3.4375 157.163 5.13258 158.356 7.35795C159.558 9.58333 160.16 12.2822 160.16 15.4545ZM153.924 15.4545C153.924 13.3996 153.616 11.6667 153.001 10.2557C152.395 8.8447 151.538 7.77462 150.43 7.04545C149.322 6.31629 148.024 5.9517 146.538 5.9517C145.051 5.9517 143.754 6.31629 142.646 7.04545C141.538 7.77462 140.676 8.8447 140.06 10.2557C139.454 11.6667 139.151 13.3996 139.151 15.4545C139.151 17.5095 139.454 19.2424 140.06 20.6534C140.676 22.0644 141.538 23.1345 142.646 23.8636C143.754 24.5928 145.051 24.9574 146.538 24.9574C148.024 24.9574 149.322 24.5928 150.43 23.8636C151.538 23.1345 152.395 22.0644 153.001 20.6534C153.616 19.2424 153.924 17.5095 153.924 15.4545Z" fill="#FFF500"/>
</svg>
