<svg width="30" height="30" viewBox="0 0 30 30" fill="none" xmlns="http://www.w3.org/2000/svg">
<path d="M15 30C23.2843 30 30 23.2843 30 15C30 6.71573 23.2843 0 15 0C6.71573 0 0 6.71573 0 15C0 23.2843 6.71573 30 15 30Z" fill="#2AA81A"/>
<path d="M20.2913 9.70908C19.0432 8.44676 17.3848 7.67229 15.6156 7.52549C13.8465 7.3787 12.0832 7.86926 10.644 8.9086C9.20484 9.94794 8.18469 11.4676 7.76773 13.1931C7.35078 14.9187 7.56449 16.7365 8.37029 18.3183L7.58082 22.1512C7.57237 22.1895 7.57204 22.2291 7.57986 22.2675C7.58768 22.3059 7.60347 22.3423 7.62621 22.3742C7.65879 22.4226 7.70535 22.4598 7.75966 22.481C7.81398 22.5021 7.87347 22.5062 7.93016 22.4926L11.6802 21.6025C13.2576 22.3872 15.0624 22.5866 16.7731 22.1654C18.4839 21.7441 19.9896 20.7295 21.0224 19.3021C22.0552 17.8747 22.5479 16.1271 22.413 14.3705C22.278 12.6138 21.5241 10.962 20.2854 9.70908H20.2913ZM19.119 19.0584C18.2557 19.9201 17.1441 20.4896 15.9404 20.6868C14.7367 20.884 13.5015 20.699 12.4085 20.1578L11.8835 19.8972L9.58016 20.442V20.4124L10.0657 18.0893L9.80911 17.5841C9.2502 16.488 9.05286 15.2431 9.2454 14.0279C9.43794 12.8128 10.0105 11.6898 10.8808 10.8203C11.9737 9.72856 13.4552 9.11534 14.9999 9.11534C16.5446 9.11534 18.0261 9.72856 19.119 10.8203L19.1446 10.8558C20.2233 11.951 20.8254 13.428 20.8199 14.9652C20.8143 16.5023 20.2015 17.975 19.115 19.0624L19.119 19.0584Z" fill="white"/>
<path d="M18.9157 17.3712C18.6335 17.8153 18.1855 18.3581 17.6269 18.4943C16.6401 18.7311 15.1381 18.4943 13.2572 16.7555L13.2335 16.7337C11.5973 15.2061 11.1631 13.9331 11.2598 12.9245C11.3171 12.3502 11.7947 11.8331 12.1973 11.4936C12.2613 11.4396 12.3371 11.4014 12.4185 11.3819C12.5 11.3624 12.5848 11.3623 12.6663 11.3815C12.7478 11.4006 12.8237 11.4386 12.8879 11.4924C12.9522 11.5461 13.0029 11.6141 13.0361 11.691L13.6421 13.0607C13.6816 13.1489 13.6964 13.2462 13.685 13.3421C13.6735 13.4381 13.6361 13.5291 13.5769 13.6055L13.269 14.0002C13.205 14.0821 13.1669 14.1813 13.1595 14.285C13.1521 14.3887 13.1758 14.4922 13.2276 14.5824C13.52 15.0135 13.87 15.4026 14.2677 15.739C14.6956 16.1508 15.1809 16.4985 15.7085 16.7712C15.8048 16.8101 15.9104 16.8193 16.012 16.7979C16.1136 16.7764 16.2065 16.7253 16.2789 16.6508L16.6322 16.2916C16.6994 16.2193 16.7853 16.1671 16.8804 16.1406C16.9755 16.1141 17.0761 16.1145 17.171 16.1416L18.6118 16.5541C18.6934 16.5774 18.7685 16.6195 18.8308 16.6771C18.8931 16.7347 18.941 16.8062 18.9706 16.8857C19.0002 16.9653 19.0107 17.0507 19.0011 17.135C18.9916 17.2194 18.9623 17.3003 18.9157 17.3712Z" fill="white"/>
</svg>
