<svg width="213" height="213" viewBox="0 0 213 213" fill="none" xmlns="http://www.w3.org/2000/svg">
<path d="M120.74 143.195C116.46 148.214 111.796 153.306 106.748 158.472C101.689 153.309 97.0252 148.216 92.7554 143.195C60.4109 144.69 36.0459 151.262 36.0459 159.145C36.0459 168.13 67.7001 175.414 106.748 175.414C145.795 175.414 177.449 168.13 177.449 159.145C177.449 151.262 153.084 144.69 120.74 143.195Z" fill="#BFDBFE"/>
<path d="M106.501 174.527C67.4448 174.527 35.7832 167.394 35.7832 158.594V186.09C35.7832 194.89 67.4448 202.024 106.501 202.024C145.558 202.024 177.22 194.89 177.22 186.09V158.594C177.22 167.394 145.558 174.527 106.501 174.527Z" fill="#60A5FA"/>
<path d="M136.014 88.6259C133.743 88.6256 131.555 87.7749 129.88 86.2413L109.503 67.5748C107.728 65.9477 106.672 63.6824 106.567 61.2769C106.462 58.8715 107.317 56.5228 108.943 54.7473C110.57 52.9719 112.834 51.9149 115.24 51.8089C117.645 51.7028 119.994 52.5564 121.77 54.1819L135.302 66.5776L166.32 31.1818C167.908 29.3705 170.149 28.264 172.553 28.1056C174.956 27.9472 177.323 28.75 179.135 30.3374C180.946 31.9247 182.053 34.1665 182.211 36.5697C182.369 38.9729 181.566 41.3406 179.979 43.1519L142.843 85.5299C142.046 86.4395 141.076 87.1806 139.988 87.7099C138.901 88.2392 137.719 88.5459 136.511 88.6121C136.345 88.621 136.179 88.6259 136.014 88.6259Z" fill="#FFE36F"/>
<path d="M142.843 85.5253C142.046 86.4349 141.075 87.1761 139.988 87.7054C138.9 88.2346 137.718 88.5414 136.511 88.6075C136.344 88.6164 136.179 88.6214 136.013 88.6214C133.742 88.6211 131.554 87.7704 129.879 86.2368L111.509 69.4082C107.051 70.5249 102.347 70.1045 98.158 68.2149C93.9691 66.3252 90.5405 63.0771 88.4274 58.9964C86.3142 54.9157 85.6402 50.2411 86.5145 45.7297C87.3888 41.2182 89.7601 37.1338 93.2446 34.1378C96.7291 31.1418 101.123 29.4096 105.714 29.2215C110.306 29.0334 114.827 30.4006 118.544 33.1016C122.262 35.8026 124.96 39.6794 126.2 44.1042C127.44 48.5291 127.151 53.2431 125.378 57.483L135.302 66.5732L158.841 39.7113C154.947 27.1951 146.695 16.4893 135.584 9.53552C124.472 2.58175 111.236 -0.159383 98.2768 1.80928C85.3174 3.77795 73.4927 10.326 64.9474 20.2659C56.4022 30.2057 51.7023 42.879 51.7002 55.9871C51.7002 82.7017 66.8277 118.277 106.5 157.931C141.811 122.636 157.665 90.578 160.726 65.1175L142.843 85.5253Z" fill="#F59E0B"/>
<path d="M211.803 181.741H178.415V158.598C178.415 149.081 150.888 143.41 122.999 141.907C150.832 109.377 159.631 83.1217 161.834 65.9146C161.836 65.8415 161.831 65.7684 161.819 65.6963L180.879 43.9453C182.676 41.8954 183.584 39.2157 183.405 36.4958C183.226 33.7759 181.974 31.2386 179.924 29.442C177.874 27.6454 175.194 26.7368 172.474 26.9159C169.754 27.0951 167.217 28.3474 165.421 30.3973L159.313 37.3673C154.916 24.9073 146.256 14.403 134.863 7.71179C123.469 1.0206 110.077 -1.42647 97.0534 0.803245C84.03 3.03296 72.2145 9.79584 63.696 19.8961C55.1774 29.9964 50.5047 42.7834 50.5038 55.9963C50.5038 81.8808 64.3965 111.856 90.0223 141.906C62.1361 143.407 34.5854 149.081 34.5854 158.599V181.741H1.19663C0.879263 181.741 0.574896 181.867 0.350485 182.092C0.126073 182.316 0 182.62 0 182.938C0 183.255 0.126073 183.56 0.350485 183.784C0.574896 184.008 0.879263 184.134 1.19663 184.134H34.5854V186.095C34.5854 197.222 71.6377 203.226 106.5 203.226C141.362 203.226 178.415 197.222 178.415 186.095V184.134H211.803C212.121 184.134 212.425 184.008 212.65 183.784C212.874 183.56 213 183.255 213 182.938C213 182.62 212.874 182.316 212.65 182.092C212.425 181.867 212.121 181.741 211.803 181.741ZM167.22 31.9749C168.599 30.4048 170.545 29.4463 172.63 29.31C174.715 29.1737 176.769 29.8707 178.341 31.248C179.912 32.6252 180.873 34.5699 181.011 36.6549C181.15 38.7399 180.455 40.7947 179.08 42.3677L141.943 84.7463C141.251 85.5359 140.408 86.1793 139.464 86.6388C138.52 87.0982 137.493 87.3645 136.445 87.422C135.397 87.4795 134.347 87.327 133.359 86.9734C132.37 86.6199 131.462 86.0725 130.688 85.3633L110.311 66.697C108.772 65.2838 107.856 63.3174 107.766 61.2298C107.676 59.1423 108.418 57.1042 109.829 55.5634C111.241 54.0226 113.206 53.105 115.293 53.0122C117.381 52.9194 119.42 53.659 120.962 55.0685L134.494 67.4642C134.611 67.5719 134.749 67.655 134.899 67.7086C135.049 67.7623 135.208 67.7855 135.368 67.7768C135.527 67.7681 135.682 67.7277 135.826 67.6579C135.969 67.5882 136.097 67.4905 136.202 67.3707L167.22 31.9749ZM108.936 68.6827C108.129 68.7965 107.315 68.8567 106.5 68.863C102.424 68.875 98.4479 67.5971 95.1419 65.2124C91.8358 62.8276 89.3689 59.4582 88.0941 55.5862C86.8193 51.7143 86.802 47.5383 88.0447 43.656C89.2874 39.7736 91.7264 36.3838 95.0126 33.9718C98.2988 31.5597 102.264 30.249 106.34 30.2273C110.416 30.2055 114.395 31.4738 117.707 33.8506C121.019 36.2274 123.494 39.591 124.778 43.4598C126.062 47.3287 126.089 51.5046 124.856 55.3899L122.579 53.3039C120.568 51.4628 117.909 50.4956 115.186 50.615C112.463 50.7345 109.899 51.9308 108.058 53.9408C106.217 55.9509 105.249 58.6099 105.369 61.3331C105.488 64.0563 106.685 66.6205 108.695 68.4616L108.936 68.6827ZM52.8971 55.9963C52.8988 43.2318 57.4549 30.8867 65.746 21.1815C74.037 11.4763 85.519 5.04788 98.1266 3.05249C110.734 1.05711 123.64 3.62571 134.523 10.2963C145.406 16.9669 153.551 27.3017 157.495 39.4419L135.209 64.8735L126.789 57.1612C128.511 52.616 128.666 47.6262 127.23 42.9828C125.794 38.3394 122.85 34.3081 118.863 31.5279C114.876 28.7478 110.076 27.3778 105.222 27.6352C100.369 27.8927 95.7401 29.7628 92.0699 32.949C88.3997 36.1353 85.8981 40.4555 84.9615 45.2247C84.0249 49.994 84.707 54.9394 86.8997 59.277C89.0923 63.6147 92.6701 67.0963 97.0658 69.1701C101.461 71.2439 106.424 71.7912 111.166 70.7251L129.072 87.1285C130.966 88.8659 133.443 89.8289 136.014 89.8268C136.2 89.8268 136.387 89.8215 136.577 89.8116C137.943 89.7333 139.28 89.3847 140.51 88.7859C141.74 88.1871 142.839 87.3501 143.743 86.3234L158.959 68.9594C155.626 88.7003 143.555 118.935 106.5 156.245C71.9234 121.419 52.8971 85.8513 52.8971 55.9963ZM176.021 186.095C176.021 193.066 147.47 200.832 106.5 200.832C65.5301 200.832 36.9786 193.066 36.9786 186.095V163.264C45.6912 171.392 76.879 175.729 106.5 175.729C136.121 175.729 167.309 171.392 176.021 163.264V186.095ZM106.5 173.335C65.5301 173.335 36.9786 165.569 36.9786 158.598C36.9786 152.803 57.5311 145.833 91.9255 144.203C91.9512 144.202 91.9721 144.188 91.9975 144.185C96.2492 149.059 100.801 153.925 105.654 158.786C105.765 158.897 105.897 158.985 106.042 159.046C106.187 159.106 106.343 159.137 106.5 159.137C106.657 159.137 106.813 159.106 106.958 159.046C107.103 158.985 107.235 158.897 107.346 158.786C112.334 153.8 116.894 148.938 121.024 144.201C155.45 145.826 176.021 152.797 176.021 158.598C176.021 165.569 147.47 173.335 106.5 173.335ZM182.603 191.664C182.603 191.981 182.477 192.286 182.252 192.51C182.028 192.735 181.724 192.861 181.406 192.861H177.218C176.901 192.861 176.596 192.735 176.372 192.51C176.147 192.286 176.021 191.981 176.021 191.664C176.021 191.347 176.147 191.042 176.372 190.818C176.596 190.594 176.901 190.467 177.218 190.467H181.406C181.724 190.468 182.028 190.594 182.252 190.818C182.477 191.042 182.603 191.347 182.603 191.664ZM200.075 191.664C200.075 191.981 199.949 192.286 199.725 192.51C199.501 192.735 199.196 192.861 198.879 192.861H190.143C189.825 192.861 189.521 192.735 189.296 192.51C189.072 192.286 188.946 191.981 188.946 191.664C188.946 191.347 189.072 191.042 189.296 190.818C189.521 190.594 189.825 190.467 190.143 190.467H198.879C199.196 190.468 199.501 190.594 199.725 190.818C199.949 191.042 200.075 191.347 200.075 191.664ZM213 191.664C213 191.981 212.874 192.286 212.649 192.51C212.425 192.735 212.121 192.861 211.803 192.861H207.615C207.298 192.861 206.993 192.735 206.769 192.51C206.545 192.286 206.419 191.981 206.419 191.664C206.419 191.347 206.545 191.042 206.769 190.818C206.993 190.594 207.298 190.467 207.615 190.467H211.803C211.961 190.467 212.116 190.498 212.261 190.559C212.406 190.619 212.538 190.707 212.65 190.818C212.761 190.929 212.849 191.061 212.909 191.206C212.969 191.351 213 191.507 213 191.664ZM0 191.664C0 191.347 0.126073 191.042 0.350485 190.818C0.574896 190.594 0.879263 190.467 1.19663 190.467H5.38483C5.7022 190.467 6.00656 190.594 6.23098 190.818C6.45539 191.042 6.58146 191.347 6.58146 191.664C6.58146 191.981 6.45539 192.286 6.23098 192.51C6.00656 192.735 5.7022 192.861 5.38483 192.861H1.19663C0.879274 192.861 0.574922 192.735 0.350515 192.51C0.126108 192.286 2.53867e-05 191.981 0 191.664ZM24.0541 191.664C24.0541 191.981 23.928 192.286 23.7036 192.51C23.4792 192.735 23.1748 192.861 22.8575 192.861H14.1212C13.8038 192.861 13.4994 192.735 13.275 192.51C13.0506 192.286 12.9245 191.981 12.9245 191.664C12.9245 191.347 13.0506 191.042 13.275 190.818C13.4994 190.594 13.8038 190.467 14.1212 190.467H22.8575C23.0146 190.467 23.1702 190.498 23.3154 190.559C23.4606 190.619 23.5925 190.707 23.7036 190.818C23.8148 190.929 23.9029 191.061 23.963 191.206C24.0232 191.351 24.0541 191.507 24.0541 191.664ZM36.9781 191.664C36.978 191.981 36.852 192.286 36.6276 192.51C36.4032 192.735 36.0988 192.861 35.7814 192.861H31.5932C31.2759 192.861 30.9715 192.735 30.7471 192.51C30.5227 192.286 30.3966 191.981 30.3966 191.664C30.3966 191.347 30.5227 191.042 30.7471 190.818C30.9715 190.594 31.2759 190.467 31.5932 190.467H35.7814C36.0988 190.468 36.4032 190.594 36.6276 190.818C36.852 191.042 36.9781 191.347 36.9781 191.664ZM162.941 203.226C162.623 203.226 162.319 203.099 162.095 202.875C161.87 202.651 161.744 202.346 161.744 202.029C161.744 201.712 161.87 201.407 162.095 201.183C162.319 200.958 162.623 200.832 162.941 200.832H168.924C169.241 200.832 169.546 200.958 169.77 201.183C169.995 201.407 170.121 201.712 170.121 202.029C170.121 202.346 169.995 202.651 169.77 202.875C169.546 203.099 169.241 203.226 168.924 203.226H162.941ZM181.223 200.832H193.521C193.839 200.832 194.143 200.958 194.368 201.183C194.592 201.407 194.718 201.712 194.718 202.029C194.718 202.346 194.592 202.651 194.368 202.875C194.143 203.099 193.839 203.226 193.521 203.226H181.223C180.905 203.226 180.601 203.099 180.377 202.875C180.152 202.651 180.026 202.346 180.026 202.029C180.026 201.712 180.152 201.407 180.377 201.183C180.601 200.958 180.905 200.832 181.223 200.832ZM213 202.029C213 202.346 212.874 202.651 212.65 202.875C212.425 203.099 212.121 203.226 211.803 203.226H205.82C205.503 203.226 205.198 203.099 204.974 202.875C204.75 202.651 204.624 202.346 204.624 202.029C204.624 201.712 204.75 201.407 204.974 201.183C205.198 200.958 205.503 200.832 205.82 200.832H211.803C212.121 200.832 212.425 200.958 212.65 201.183C212.874 201.407 213 201.712 213 202.029ZM0 202.029C0 201.712 0.126073 201.407 0.350485 201.183C0.574896 200.958 0.879263 200.832 1.19663 200.832H7.17978C7.49714 200.832 7.80151 200.958 8.02592 201.183C8.25033 201.407 8.3764 201.712 8.3764 202.029C8.3764 202.346 8.25033 202.651 8.02592 202.875C7.80151 203.099 7.49714 203.226 7.17978 203.226H1.19663C0.879263 203.226 0.574896 203.099 0.350485 202.875C0.126073 202.651 0 202.346 0 202.029ZM19.4785 200.832H31.7773C32.0946 200.832 32.399 200.958 32.6234 201.183C32.8478 201.407 32.9739 201.712 32.9739 202.029C32.9739 202.346 32.8478 202.651 32.6234 202.875C32.399 203.099 32.0946 203.226 31.7773 203.226H19.4785C19.1612 203.226 18.8568 203.099 18.6324 202.875C18.408 202.651 18.2819 202.346 18.2819 202.029C18.2819 201.712 18.408 201.407 18.6324 201.183C18.8568 200.958 19.1612 200.832 19.4785 200.832ZM51.2552 202.029C51.2552 202.346 51.1291 202.651 50.9047 202.875C50.6803 203.099 50.376 203.225 50.0586 203.226H44.0755C43.7581 203.226 43.4537 203.099 43.2293 202.875C43.0049 202.651 42.8788 202.346 42.8788 202.029C42.8788 201.712 43.0049 201.407 43.2293 201.183C43.4537 200.958 43.7581 200.832 44.0755 200.832H50.0586C50.376 200.832 50.6803 200.958 50.9047 201.183C51.1291 201.407 51.2552 201.712 51.2552 202.029ZM0 211.808C1.58669e-05 211.491 0.126094 211.186 0.350502 210.962C0.57491 210.738 0.879268 210.612 1.19663 210.612H5.38483C5.7022 210.612 6.00656 210.738 6.23098 210.962C6.45539 211.186 6.58146 211.491 6.58146 211.808C6.58146 212.126 6.45539 212.43 6.23098 212.654C6.00656 212.879 5.7022 213.005 5.38483 213.005H1.19663C0.879263 213.005 0.574896 212.879 0.350485 212.654C0.126073 212.43 0 212.126 0 211.808ZM199.526 210.612C199.843 210.612 200.147 210.738 200.372 210.962C200.596 211.186 200.722 211.491 200.722 211.808C200.722 212.126 200.596 212.43 200.372 212.654C200.147 212.879 199.843 213.005 199.526 213.005H191.437C191.119 213.005 190.815 212.879 190.591 212.654C190.366 212.43 190.24 212.126 190.24 211.808C190.24 211.491 190.366 211.186 190.591 210.962C190.815 210.738 191.119 210.612 191.437 210.612H199.526ZM110.544 213.005C110.227 213.005 109.923 212.879 109.698 212.654C109.474 212.43 109.348 212.126 109.348 211.808C109.348 211.491 109.474 211.186 109.698 210.962C109.923 210.738 110.227 210.612 110.544 210.612H118.633C118.951 210.612 119.255 210.738 119.48 210.962C119.704 211.186 119.83 211.491 119.83 211.808C119.83 212.126 119.704 212.43 119.48 212.654C119.255 212.879 118.951 213.005 118.633 213.005H110.544ZM13.4738 210.612H21.5627C21.8801 210.612 22.1844 210.738 22.4088 210.962C22.6333 211.186 22.7593 211.491 22.7593 211.808C22.7593 212.126 22.6333 212.43 22.4088 212.654C22.1844 212.879 21.8801 213.005 21.5627 213.005H13.4738C13.1564 213.005 12.852 212.879 12.6276 212.654C12.4032 212.43 12.2771 212.126 12.2771 211.808C12.2771 211.491 12.4032 211.186 12.6276 210.962C12.852 210.738 13.1564 210.612 13.4738 210.612ZM38.9378 211.808C38.9378 212.126 38.8117 212.43 38.5873 212.654C38.3629 212.879 38.0585 213.005 37.7411 213.005H29.6522C29.3349 213.005 29.0305 212.879 28.8061 212.654C28.5817 212.43 28.4556 212.126 28.4556 211.808C28.4556 211.491 28.5817 211.186 28.8061 210.962C29.0305 210.738 29.3349 210.612 29.6522 210.612H37.7411C38.0585 210.612 38.3629 210.738 38.5873 210.962C38.8117 211.186 38.9378 211.491 38.9378 211.808ZM175.258 210.612H183.347C183.665 210.612 183.969 210.738 184.193 210.962C184.418 211.186 184.544 211.491 184.544 211.808C184.544 212.126 184.418 212.43 184.193 212.654C183.969 212.879 183.665 213.005 183.347 213.005H175.258C174.941 213.005 174.637 212.879 174.412 212.654C174.188 212.43 174.062 212.126 174.062 211.808C174.062 211.491 174.188 211.186 174.412 210.962C174.637 210.738 174.941 210.612 175.258 210.612ZM126.723 213.005C126.406 213.005 126.101 212.879 125.877 212.654C125.652 212.43 125.526 212.126 125.526 211.808C125.526 211.491 125.652 211.186 125.877 210.962C126.101 210.738 126.406 210.612 126.723 210.612H134.812C135.129 210.612 135.434 210.738 135.658 210.962C135.882 211.186 136.008 211.491 136.008 211.808C136.008 212.126 135.882 212.43 135.658 212.654C135.434 212.879 135.129 213.005 134.812 213.005H126.723ZM159.08 210.612H167.169C167.486 210.612 167.79 210.738 168.015 210.962C168.239 211.186 168.365 211.491 168.365 211.808C168.365 212.126 168.239 212.43 168.015 212.654C167.79 212.879 167.486 213.005 167.169 213.005H159.08C158.762 213.005 158.458 212.879 158.234 212.654C158.009 212.43 157.883 212.126 157.883 211.808C157.883 211.491 158.009 211.186 158.234 210.962C158.458 210.738 158.762 210.612 159.08 210.612ZM142.901 213.005C142.584 213.005 142.28 212.879 142.055 212.654C141.831 212.43 141.705 212.126 141.705 211.808C141.705 211.491 141.831 211.186 142.055 210.962C142.28 210.738 142.584 210.612 142.901 210.612H150.99C151.308 210.612 151.612 210.738 151.836 210.962C152.061 211.186 152.187 211.491 152.187 211.808C152.187 212.126 152.061 212.43 151.836 212.654C151.612 212.879 151.308 213.005 150.99 213.005H142.901ZM62.0091 213.005C61.6917 213.005 61.3874 212.879 61.1629 212.654C60.9385 212.43 60.8125 212.126 60.8125 211.808C60.8125 211.491 60.9385 211.186 61.1629 210.962C61.3874 210.738 61.6917 210.612 62.0091 210.612H70.098C70.4154 210.612 70.7197 210.738 70.9442 210.962C71.1686 211.186 71.2946 211.491 71.2946 211.808C71.2946 212.126 71.1686 212.43 70.9442 212.654C70.7197 212.879 70.4154 213.005 70.098 213.005H62.0091ZM45.8307 210.612H53.9196C54.237 210.612 54.5413 210.738 54.7657 210.962C54.9902 211.186 55.1162 211.491 55.1162 211.808C55.1162 212.126 54.9902 212.43 54.7657 212.654C54.5413 212.879 54.237 213.005 53.9196 213.005H45.8307C45.5133 213.005 45.2089 212.879 44.9845 212.654C44.7601 212.43 44.634 212.126 44.634 211.808C44.634 211.491 44.7601 211.186 44.9845 210.962C45.2089 210.738 45.5133 210.612 45.8307 210.612ZM78.1875 213.005C77.8701 213.005 77.5658 212.879 77.3414 212.654C77.117 212.43 76.9909 212.126 76.9909 211.808C76.9909 211.491 77.117 211.186 77.3414 210.962C77.5658 210.738 77.8701 210.612 78.1875 210.612H86.2765C86.5938 210.612 86.8982 210.738 87.1226 210.962C87.347 211.186 87.4731 211.491 87.4731 211.808C87.4731 212.126 87.347 212.43 87.1226 212.654C86.8982 212.879 86.5938 213.005 86.2765 213.005H78.1875ZM94.3659 213.005C94.0486 213.005 93.7442 212.879 93.5198 212.654C93.2954 212.43 93.1693 212.126 93.1693 211.808C93.1693 211.491 93.2954 211.186 93.5198 210.962C93.7442 210.738 94.0486 210.612 94.3659 210.612H102.455C102.772 210.612 103.077 210.738 103.301 210.962C103.525 211.186 103.652 211.491 103.652 211.808C103.652 212.126 103.525 212.43 103.301 212.654C103.077 212.879 102.772 213.005 102.455 213.005H94.3659ZM213 211.808C213 212.126 212.874 212.43 212.649 212.654C212.425 212.879 212.121 213.005 211.803 213.005H207.615C207.298 213.005 206.993 212.879 206.769 212.654C206.545 212.43 206.418 212.126 206.418 211.808C206.418 211.491 206.545 211.186 206.769 210.962C206.993 210.738 207.298 210.612 207.615 210.612H211.803C212.121 210.612 212.425 210.738 212.649 210.962C212.874 211.186 213 211.491 213 211.808Z" fill="#374151"/>
</svg>
