<svg width="504" height="240" viewBox="0 0 504 240" fill="none" xmlns="http://www.w3.org/2000/svg">
<path d="M116 136C105.715 136 95.6617 139.05 87.1104 144.764C78.559 150.477 71.894 158.599 67.9583 168.1C64.0225 177.602 62.9928 188.058 64.9992 198.145C67.0056 208.232 71.9581 217.497 79.2305 224.77C86.5028 232.042 95.7683 236.994 105.855 239.001C115.942 241.007 126.398 239.978 135.9 236.042C145.401 232.106 153.523 225.441 159.236 216.89C164.95 208.338 168 198.285 168 188C167.984 174.214 162.501 160.996 152.752 151.248C143.004 141.499 129.786 136.016 116 136ZM116 212C111.253 212 106.613 210.592 102.666 207.955C98.7196 205.318 95.6434 201.57 93.8269 197.184C92.0104 192.799 91.5351 187.973 92.4612 183.318C93.3872 178.662 95.673 174.386 99.0295 171.029C102.386 167.673 106.662 165.387 111.318 164.461C115.973 163.535 120.799 164.01 125.184 165.827C129.57 167.643 133.318 170.72 135.955 174.666C138.592 178.613 140 183.253 140 188C140 194.365 137.471 200.47 132.971 204.971C128.47 209.471 122.365 212 116 212Z" fill="#F93A0B"/>
<path d="M404 136C393.715 136 383.662 139.05 375.11 144.764C366.559 150.477 359.894 158.599 355.958 168.1C352.023 177.602 350.993 188.058 352.999 198.145C355.006 208.232 359.958 217.497 367.23 224.77C374.503 232.042 383.768 236.994 393.855 239.001C403.942 241.007 414.398 239.978 423.9 236.042C433.401 232.106 441.523 225.441 447.236 216.89C452.95 208.338 456 198.285 456 188C455.984 174.214 450.501 160.996 440.752 151.248C431.004 141.499 417.786 136.016 404 136ZM404 212C399.253 212 394.613 210.592 390.666 207.955C386.72 205.318 383.643 201.57 381.827 197.184C380.01 192.799 379.535 187.973 380.461 183.318C381.387 178.662 383.673 174.386 387.029 171.029C390.386 167.673 394.662 165.387 399.318 164.461C403.973 163.535 408.799 164.01 413.184 165.827C417.57 167.643 421.318 170.72 423.955 174.666C426.592 178.613 428 183.253 428 188C428 194.365 425.471 200.47 420.971 204.971C416.47 209.471 410.365 212 404 212Z" fill="#F93A0B"/>
<path d="M473.4 93.0401L380 76.0001L300.485 10.0251C292.604 3.55177 282.724 0.00913166 272.526 0.000122823H155.38C148.779 -0.0155124 142.259 1.4618 136.309 4.32153C130.359 7.18127 125.133 11.3494 121.021 16.5141L70.232 76.0001H36C26.4555 76.0107 17.3049 79.807 10.5558 86.556C3.80683 93.305 0.0105874 102.456 0 112V156C0.0129695 167.666 4.65284 178.85 12.9016 187.099C21.1504 195.347 32.3345 199.987 44 200H53.145C51.37 190.743 51.6617 181.208 53.9994 172.076C56.3371 162.945 60.6629 154.442 66.6678 147.176C72.6728 139.911 80.2085 134.061 88.7364 130.046C97.2644 126.03 106.574 123.948 116 123.948C125.426 123.948 134.736 126.03 143.264 130.046C151.792 134.061 159.327 139.911 165.332 147.176C171.337 154.442 175.663 162.945 178.001 172.076C180.338 181.208 180.63 190.743 178.855 200H341.145C339.37 190.743 339.662 181.208 341.999 172.076C344.337 162.945 348.663 154.442 354.668 147.176C360.673 139.911 368.208 134.061 376.736 130.046C385.264 126.03 394.574 123.948 404 123.948C413.426 123.948 422.736 126.03 431.264 130.046C439.792 134.061 447.327 139.911 453.332 147.176C459.337 154.442 463.663 162.945 466.001 172.076C468.338 181.208 468.63 190.743 466.855 200H468C477.545 199.99 486.695 196.193 493.444 189.444C500.193 182.695 503.989 173.545 504 164V128.632C504.043 120.008 500.971 111.659 495.349 105.12C489.727 98.5803 481.933 94.2908 473.4 93.0401ZM176 64.0001C176 67.1827 174.736 70.235 172.485 72.4854C170.235 74.7358 167.183 76.0001 164 76.0001H111.245C110.098 76.0008 108.974 75.6725 108.008 75.0542C107.042 74.4359 106.273 73.5535 105.793 72.5116C105.312 71.4697 105.141 70.312 105.299 69.1757C105.456 68.0393 105.936 66.972 106.682 66.1001L141.598 25.2001C142.725 23.8822 144.125 22.8242 145.7 22.0992C147.276 21.3741 148.99 20.9991 150.724 21.0001H164C167.183 21.0001 170.235 22.2644 172.485 24.5148C174.736 26.7653 176 29.8175 176 33.0001V64.0001ZM236 120H220C216.817 120 213.765 118.736 211.515 116.485C209.264 114.235 208 111.183 208 108C208 104.818 209.264 101.765 211.515 99.5148C213.765 97.2644 216.817 96.0001 220 96.0001H236C239.183 96.0001 242.235 97.2644 244.485 99.5148C246.736 101.765 248 104.818 248 108C248 111.183 246.736 114.235 244.485 116.485C242.235 118.736 239.183 120 236 120ZM330.479 76.2941L215.972 76.0281C212.794 76.0207 209.749 74.7532 207.505 72.5035C205.26 70.2539 204 67.2059 204 64.0281V33.0001C204 29.8175 205.264 26.7653 207.515 24.5148C209.765 22.2644 212.817 21.0001 216 21.0001H273.548C276.245 21.0003 278.864 21.9092 280.981 23.5801L334.209 65.5801C335.19 66.3527 335.906 67.4121 336.256 68.6108C336.607 69.8094 336.574 71.0875 336.164 72.2669C335.753 73.4462 334.985 74.4681 333.966 75.19C332.947 75.9119 331.728 76.2979 330.479 76.2941Z" fill="#F93A0B"/>
</svg>
