<svg id="Glyph_Icon" height="512" viewBox="0 0 64 64" width="512" xmlns="http://www.w3.org/2000/svg" data-name="Glyph Icon"><path d="m48.362 35.112h.73c.728 0 1.318-.59 1.318-1.318v-1.352c0-.728-.59-1.318-1.318-1.318-.369 0-.703-.218-.85-.556l-2.695-6.164c.086.006 3.248.016 3.248.016 1.063 0 1.929-.865 1.929-1.929v-3.094c0-1.063-.865-1.929-1.929-1.929h-2.991c-.964 0-1.856.416-2.508 1.104-1.294.018-2.342 1.073-2.342 2.372 0 .871.477 1.626 1.178 2.039 0 .549.096 1.096.311 1.608 3.697 8.8-1.175 14.365-2.662 15.79-.246.236-.565.364-1.397.364h-8.382c-.339 0-.673-.127-.911-.368-2.836-2.866-1.766-5.168-.708-6.404.497-.58 1.195-.914 1.939-1.088.8-.187 1.392-.63 1.825-1.132.726-.842.089-2.152-1.022-2.152h-6.076v-10.132h-18.713v9.132c0 1.103.897 2 2 2h6.672c-5.339 2.166-8.304 7.356-9.556 10.153-.296.662-.056 1.852.766 1.852h17.032c.27 0 .534.083.756.238l2.069 1.449c.222.155.485.238.756.238h12.574c.395 0 .77-.177 1.02-.483l6.918-8.453c.25-.306.625-.483 1.02-.483z"/><path d="m21.049 12.763h-10.713c-4.444 0-4 4.707-4 4.707h18.713s.547-4.707-4-4.707z"/><path d="m52.113 43.506c.181.3.292.649.292 1.025 0 1.101-.893 1.994-1.994 1.994-.737 0-1.374-.405-1.719-.999-.246.066-.499.112-.757.112h-4.131c.53 3.172 3.287 5.6 6.608 5.6 3.697 0 6.706-3.009 6.706-6.706 0-.345-.032-.687-.084-1.025h-4.92z"/><path d="m15.139 46.525c-1.076 0-1.946-.853-1.986-1.919h-4.717c.041 3.663 3.03 6.631 6.703 6.631s6.662-2.969 6.702-6.631h-4.716c-.04 1.066-.911 1.919-1.986 1.919z"/><path d="m53.08 35.112h-.945c-.946 2.314-3.449 2-3.449 2l-5.341 6.526h4.59c.222 0 .437-.08.606-.225l1.953-1.682c.168-.145.383-.225.606-.225h6.637c.553 0 1-.485.925-1.033-.588-4.287-5.526-5.361-5.582-5.361z"/></svg>