<svg width="309" height="309" viewBox="0 0 309 309" fill="none" xmlns="http://www.w3.org/2000/svg">
<path d="M29.443 200.124C33.8465 206.989 42.9736 209 49.8541 204.62L75.8936 188.043C79.0239 185.888 82.849 184.998 86.6089 185.551C97.8561 187.205 123.803 189.878 146.885 183.873C158.869 180.776 155.12 152.953 141.217 128.391C127.315 103.829 107.294 88.8508 96.5363 94.9318C96.5363 94.9318 81.9602 100.808 64.4729 156.901C63.4188 160.282 61.2141 163.19 58.2339 165.103L34.3007 179.429C27.1316 183.72 24.9321 193.091 29.443 200.124Z" fill="white"/>
<path d="M108.975 146.811C119.558 165.57 133.008 178.77 141.741 179.759C143.37 179.951 144.831 179.71 146.081 179.007C153.996 174.539 150.223 152.872 137.673 130.62C125.117 108.373 108.523 93.9376 100.602 98.4049C97.9351 99.9104 96.5822 103.349 96.4443 108.097C96.164 117.499 100.631 132.027 108.975 146.811Z" fill="#8E8EFF"/>
<path d="M73.3336 189.672L97.1579 238.996C100.099 245.024 97.5074 252.293 91.4159 255.101C85.4913 257.833 78.4705 255.313 75.6353 249.437L53.2244 202.473L73.3336 189.672Z" fill="white"/>
<path d="M62.118 161.492C62.118 161.492 61.3459 180.243 80.6945 185.859L62.118 161.492Z" fill="white"/>
<path d="M44.083 255.953L80.7782 275.897C83.0827 269.826 88.0822 262.467 96.4572 254.496C99.4855 251.614 105.235 243.078 101.248 238.474C99.2047 236.114 95.6091 238.619 95.3647 238.708C95.7029 238.25 103.923 224.678 91.2342 222.342C91.2342 222.342 96.4949 210.097 85.8553 206.679C85.8553 206.679 85.5105 197.375 79.4536 197.375C71.5007 197.375 60.5653 217.32 60.5653 217.32L55.3828 206.573C55.3828 206.573 41.9692 211.872 44.5044 231.919C45.9742 243.542 45.113 251.182 44.083 255.953Z" fill="white"/>
<path d="M86.7179 272.177L80.6746 282.955C79.9541 284.24 78.3921 284.791 77.0248 284.242L34.5548 267.2C33.017 266.583 32.2956 264.815 32.9625 263.299L40.096 247.073C40.7866 245.502 42.6728 244.858 44.1806 245.677L85.5606 268.167C86.9967 268.947 87.5174 270.752 86.7179 272.177Z" fill="#00C5C5"/>
<path d="M85.7848 206.57C85.7848 206.57 83.3777 212.939 78.0969 217.168L85.7848 206.57Z" fill="white"/>
<path d="M91.5435 221.812C91.5435 221.812 87.7464 228.859 82.6428 230.69L91.5435 221.812Z" fill="white"/>
<path d="M95.2453 238.812C95.2453 238.812 93.3107 241.679 88.8606 243.429L95.2453 238.812Z" fill="white"/>
<path d="M41.4443 258.523C41.4443 260.003 42.6436 261.202 44.1189 261.202C45.5988 261.202 46.7981 260.003 46.7981 258.523C46.7981 257.043 45.5988 255.844 44.1189 255.844C42.6436 255.844 41.4443 257.043 41.4443 258.523Z" fill="white"/>
<path d="M129.807 143.803C127.016 149.249 121.604 155.657 117.011 159.294C111.187 151.381 105.987 142.045 102.389 133.351C108.261 130.821 116.028 129.234 120.918 129.234C122.608 129.293 125.309 131.906 127.428 135.652C129.25 138.88 130.119 142.044 129.807 143.803Z" fill="white"/>
<path d="M29.9185 128.037C24.5165 121.334 21.6504 114.302 21.63 107.701C21.6121 101.911 24.0901 96.3917 27.9595 92.8632C27.4634 86.2931 30.9536 79.719 36.1551 75.5697C45.4335 68.1692 60.0769 67.4099 71.5443 70.8306C71.9546 70.9527 72.1879 71.3847 72.0656 71.795C71.943 72.2048 71.513 72.4389 71.1012 72.3163C60.1128 69.0397 45.9763 69.7185 37.1219 76.7819C32.3468 80.5909 29.4532 86.2348 29.4628 91.6446C33.6415 88.6496 38.5271 88.2922 41.938 89.9152C44.8566 91.303 46.8129 94.3318 46.6957 97.2804C46.5636 100.602 43.8508 103.633 40.3855 104.331C37.2766 104.959 33.7436 103.727 31.3842 101.194C29.8027 99.4963 28.7141 97.2678 28.2176 94.7638C25.1132 98.0041 23.1648 102.739 23.1802 107.696C23.2045 115.586 27.5143 122.583 31.1255 127.064C31.3943 127.397 31.3418 127.885 31.0085 128.154C30.676 128.422 30.1879 128.37 29.9185 128.037ZM29.5817 93.4991C29.9147 96.1151 30.9369 98.439 32.5187 100.137C34.5189 102.284 37.4856 103.335 40.0793 102.811C42.8182 102.26 45.0439 99.8031 45.1466 97.2188C45.24 94.8717 43.6468 92.4444 41.2725 91.315C38.1234 89.818 33.4571 90.3195 29.5817 93.4991Z" fill="#FF8E2D"/>
<path d="M245.377 226.242C245.377 252.287 224.269 273.404 198.229 273.404C172.267 273.404 151.073 252.368 151.073 226.242C151.073 200.206 172.186 179.094 198.229 179.094C224.271 179.094 245.377 200.206 245.377 226.242Z" fill="white"/>
<path d="M234.877 255.913C226.233 266.584 213.025 273.403 198.229 273.403C183.432 273.403 170.218 266.584 161.581 255.913C169.747 244.503 183.118 237.062 198.229 237.062C213.332 237.063 226.704 244.497 234.877 255.913Z" fill="#FF8E2D"/>
<path d="M192.991 231.961V236.262C192.991 238.971 195.183 241.163 197.886 241.163C200.546 241.163 202.787 239.02 202.787 236.262V232.361C199.644 233.147 196.223 233.055 192.991 231.961Z" fill="white"/>
<path d="M198.572 232.879C208.214 232.879 216.031 225.063 216.031 215.42C216.031 205.778 208.214 197.961 198.572 197.961C188.929 197.961 181.112 205.778 181.112 215.42C181.112 225.063 188.929 232.879 198.572 232.879Z" fill="white"/>
<path d="M213.226 220.818C215.313 220.932 217.1 219.329 217.214 217.243C217.327 215.157 215.725 213.369 213.638 213.256C211.552 213.142 209.769 214.745 209.655 216.831" fill="white"/>
<path d="M188.247 209.496C188.247 209.496 186.295 207.671 183.789 208.584L188.247 209.496Z" fill="white"/>
<path d="M199.344 208.634C199.344 208.634 196.86 207.648 194.861 209.413L199.344 208.634Z" fill="white"/>
<path d="M129.807 143.804C129.647 144.715 129.137 145.324 128.22 145.211C124.817 144.83 119.258 135.974 119.409 131.272C119.435 130.315 119.736 129.35 120.684 129.241C120.77 129.23 120.746 129.236 120.918 129.236C122.608 129.295 125.309 131.908 127.428 135.653C129.25 138.881 130.119 142.046 129.807 143.804Z" fill="white"/>
<path d="M189.337 63.1086C189.337 84.4096 172.072 101.681 150.775 101.681C129.649 101.681 112.208 84.5643 112.208 63.1086C112.208 41.8142 129.475 24.5469 150.775 24.5469C172.075 24.5469 189.337 41.8142 189.337 63.1086Z" fill="white"/>
<path d="M181.05 87.3747C173.98 96.1022 163.178 101.68 151.076 101.68C138.974 101.68 128.167 96.1021 121.103 87.3747C135.805 66.8328 166.329 66.8132 181.05 87.3747Z" fill="#8EC5FF"/>
<path d="M154.143 65.7734V71.9665C154.143 73.828 152.634 75.337 150.772 75.337C148.911 75.337 147.402 73.828 147.402 71.9665V65.7734H154.143Z" fill="white"/>
<path d="M163.552 53.8454C163.552 61.4021 157.426 67.6049 149.793 67.6049C142.194 67.6049 136.033 61.4444 136.033 53.8454C136.033 50.3107 137.37 47.0807 139.574 44.6421C142.082 41.8453 145.734 40.0859 149.793 40.0859C157.392 40.0859 163.552 46.2464 163.552 53.8454Z" fill="white"/>
<path d="M159.511 58.7205C161.019 58.8799 162.372 57.788 162.532 56.2779C162.691 54.7708 161.596 53.417 160.089 53.2577C158.579 53.098 157.228 54.193 157.069 55.7002" fill="white"/>
<path d="M286.982 128.523C286.982 151.658 268.232 170.417 245.1 170.417C221.885 170.417 203.212 151.594 203.212 128.523C203.212 105.395 221.966 86.6406 245.1 86.6406C268.234 86.6406 286.982 105.395 286.982 128.523Z" fill="white"/>
<path d="M277.654 154.878C269.976 164.357 258.244 170.414 245.1 170.414C231.956 170.414 220.218 164.357 212.546 154.878C219.8 144.742 231.678 138.133 245.1 138.133C258.517 138.133 270.394 144.737 277.654 154.878Z" fill="#FF5B5B"/>
<path d="M240.448 133.602V137.422C240.448 139.829 242.395 141.776 244.795 141.776C247.159 141.776 249.149 139.872 249.149 137.422V133.957C246.357 134.655 243.318 134.573 240.448 133.602Z" fill="white"/>
<path d="M260.914 118.907C260.914 121.391 260.329 123.735 259.287 125.815C256.755 130.914 251.487 134.416 245.405 134.416C236.84 134.416 229.896 127.473 229.896 118.907C229.896 110.374 236.823 103.398 245.405 103.398C253.97 103.398 260.914 110.342 260.914 118.907Z" fill="white"/>
<path d="M258.69 123.166C260.524 122.884 261.786 121.165 261.504 119.33C261.223 117.496 259.503 116.234 257.669 116.516C255.834 116.797 254.576 118.516 254.858 120.351" fill="white"/>
<path d="M141.555 128.202C127.566 103.488 107.284 88.4105 96.3914 94.5746C95.7891 94.8174 81.4454 101.158 64.1032 156.787C63.0752 160.084 60.9164 162.922 58.0348 164.773L34.1017 179.099C26.7368 183.507 24.4837 193.112 29.1169 200.335C33.6327 207.376 43.0323 209.424 50.0623 204.949L53.0631 203.039L54.6998 206.47C52.1832 207.761 41.8688 214.19 44.1219 231.971C44.742 236.86 44.99 241.418 44.8711 245.614L44.3647 245.34C42.6427 244.408 40.5103 245.166 39.7398 246.921L32.6086 263.147C31.8627 264.839 32.6363 266.846 34.412 267.565L76.8788 284.608C78.4723 285.241 80.2236 284.559 81.0128 283.151L87.0537 272.371C87.9562 270.768 87.379 268.72 85.7464 267.829L85.5499 267.72C88.3765 263.514 92.1385 259.142 96.7222 254.781C99.5281 252.109 105.879 243.231 101.543 238.224C100.758 237.325 99.3473 236.576 96.8823 237.537L96.6808 237.123C97.8797 234.689 99.5591 230.256 98.1484 226.69C97.2205 224.337 95.0993 222.785 91.8415 222.074C91.9038 221.962 91.9705 221.857 91.9017 221.676C92.5402 219.825 93.7908 215.209 92.0197 211.317C90.9655 209.007 89.0174 207.348 86.2269 206.397C86.1029 204.826 85.2038 196.987 79.4523 196.987C78.8064 196.987 78.1397 197.111 77.468 197.344L73.8314 189.818L76.1134 188.365C77.5589 187.369 79.1503 186.655 80.8136 186.232C80.8151 186.232 80.8167 186.231 80.818 186.231C82.673 185.76 84.6172 185.651 86.5526 185.937C96.9167 187.46 123.552 190.345 146.982 184.251C149.653 183.561 151.65 181.698 152.917 178.713C157.195 168.635 152.416 147.392 141.555 128.202ZM85.3742 268.511C86.6165 269.18 87.0786 270.766 86.3819 271.994L80.3359 282.768C79.7107 283.879 78.3516 284.36 77.1682 283.884L34.7015 266.842C33.3726 266.31 32.7346 264.794 33.3166 263.457L40.4529 247.231C41.0522 245.872 42.6815 245.31 43.9978 246.022C43.6521 245.834 81.4011 266.351 85.3742 268.511ZM79.4522 197.762C84.4807 197.762 85.3224 204.856 85.447 206.399C85.4397 206.413 85.4279 206.423 85.4222 206.438C85.3985 206.502 82.9873 212.76 77.8549 216.871C77.6879 217.005 77.6608 217.248 77.7946 217.415C77.9286 217.583 78.1733 217.609 78.3393 217.476C82.9209 213.806 85.3379 208.644 85.9756 207.136C88.5557 208.022 90.3549 209.528 91.3117 211.637C93.3862 216.188 90.9233 222.085 90.8788 222.186C89.8702 223.866 86.5938 228.86 82.512 230.324C82.3106 230.396 82.2059 230.618 82.278 230.82C82.3516 231.025 82.5769 231.125 82.7739 231.054C86.9822 229.544 90.2581 224.709 91.4264 222.786C94.5463 223.414 96.5711 224.814 97.4249 226.964C98.6186 229.971 97.337 233.811 96.2415 236.209C95.5898 237.647 95.0854 238.417 95.0479 238.487C94.8503 238.604 93.146 241.332 88.7188 243.073C88.5194 243.152 88.4215 243.376 88.5 243.576C88.5786 243.777 88.8049 243.872 89.0024 243.795C93.7853 241.914 95.2091 239.245 95.7506 238.942C97.5019 237.926 99.6341 237.207 100.954 238.73C104.876 243.257 98.7426 251.789 96.1898 254.217C91.5442 258.641 87.7305 263.075 84.873 267.353L45.6307 246.027C45.7754 241.676 45.5274 236.948 44.8866 231.873C42.7008 214.567 52.6741 208.376 55.0357 207.167C55.0977 207.136 55.1493 207.11 55.201 207.085L60.1011 217.248L58.1456 221.265C58.052 221.458 58.132 221.69 58.3245 221.784C58.519 221.877 58.7495 221.796 58.8425 221.605L60.7776 217.629C60.8264 217.596 60.8738 217.572 60.9059 217.507C64.0616 211.861 72.9998 197.762 79.4522 197.762ZM60.5908 216.484L55.7333 206.407C55.6713 206.289 55.5576 206.211 55.4284 206.196L53.7231 202.62L73.1737 190.238L76.7393 197.623C69.9336 200.625 62.3581 213.384 60.5908 216.484ZM75.6854 187.718L55.6495 200.473L53.0151 202.15C53.0146 202.15 53.0143 202.151 53.0137 202.151L49.6459 204.295C42.9629 208.55 34.0462 206.586 29.7694 199.917H29.7691C25.3808 193.075 27.4987 183.954 34.4998 179.764L58.4433 165.431C59.6874 164.633 60.7938 163.654 61.7516 162.548C61.9452 166.532 63.7593 180.644 79.3854 185.85C78.0852 186.3 76.8399 186.923 75.6854 187.718ZM146.788 183.501C123.494 189.559 96.9826 186.686 86.6654 185.17C84.6536 184.874 82.6328 184.981 80.7042 185.46C62.6812 180.164 62.4862 163.044 62.5037 161.614C63.5244 160.232 64.3239 158.683 64.8429 157.018C82.0252 101.903 96.5379 95.3523 96.7269 95.2715C98.3006 94.3818 100.078 93.9559 102.011 93.9559C113.059 93.9559 129.154 107.867 140.88 128.584C154.908 153.368 158.262 180.534 146.788 183.501Z" fill="#00002D"/>
<path d="M117.653 104.208C110.518 98.0054 104.394 95.8258 100.411 98.0735C97.7086 99.5995 96.203 103.063 96.0571 108.092C95.8586 114.744 98.046 123.81 102.017 133.434C102.022 133.458 102.022 133.483 102.031 133.506C105.567 142.049 110.768 151.473 116.699 159.53C116.704 159.536 116.711 159.539 116.716 159.545C125.425 171.39 134.865 179.377 141.696 180.15C143.288 180.337 144.863 180.144 146.271 179.351C150.252 177.103 151.553 170.737 149.933 161.423C146.638 142.475 132.249 116.896 117.653 104.208ZM129.432 143.691C129.252 144.038 129.06 144.387 128.861 144.736C128.692 144.827 128.498 144.86 128.263 144.831C126.896 144.678 124.369 142.494 122.184 138.617C120.653 135.91 119.739 133.103 119.797 131.287C119.816 130.559 120.001 129.72 120.721 129.632C120.753 129.631 120.801 129.629 120.811 129.628H120.905C124.235 129.743 130.099 139.542 129.432 143.691ZM128.35 145.611C125.15 150.964 120.514 155.953 117.085 158.745C111.726 151.41 106.661 142.549 102.906 133.56C107.901 131.465 114.187 129.999 119.403 129.689C117.295 133.297 124.078 145.455 128.35 145.611ZM141.785 179.38C135.193 178.634 126.048 170.892 117.539 159.37C121.188 156.409 126.197 150.989 129.459 145.253C129.829 144.961 130.078 144.505 130.188 143.877C130.526 141.975 129.576 138.674 127.766 135.467C125.599 131.637 122.789 128.918 120.918 128.853L120.851 128.855C120.768 128.846 120.695 128.853 120.675 128.858C115.147 128.982 108.108 130.542 102.612 132.846C98.7583 123.437 96.6382 114.601 96.8317 108.114C96.9829 102.909 98.7279 97.9726 103.934 97.9726C112.397 97.9726 126.398 111.436 137.335 130.817C151.911 156.66 154.255 180.839 141.785 179.38Z" fill="#00002D"/>
<path d="M182.904 149.521C182.693 149.485 182.496 149.637 182.465 149.849C182.435 150.061 182.582 150.258 182.794 150.288L184.209 150.492C184.409 150.524 184.616 150.383 184.648 150.164C184.678 149.952 184.531 149.755 184.32 149.725L182.904 149.521Z" fill="#00002D"/>
<path d="M157.318 145.832C157.106 145.802 156.91 145.948 156.879 146.16C156.848 146.372 156.995 146.569 157.207 146.599L179.357 149.794C179.577 149.824 179.766 149.672 179.796 149.466C179.826 149.254 179.679 149.058 179.467 149.027L157.318 145.832Z" fill="#00002D"/>
<path d="M188.851 124.366C188.917 124.57 189.134 124.681 189.339 124.616L190.815 124.139C191.019 124.073 191.131 123.854 191.064 123.651C190.999 123.447 190.781 123.337 190.576 123.401L189.1 123.878C188.897 123.945 188.785 124.163 188.851 124.366Z" fill="#00002D"/>
<path d="M185.909 125.323C185.844 125.12 185.626 125.008 185.421 125.073L153.616 135.361C153.412 135.428 153.3 135.646 153.366 135.849C153.432 136.053 153.649 136.164 153.854 136.099L185.66 125.811C185.864 125.745 185.975 125.526 185.909 125.323Z" fill="#00002D"/>
<path d="M161.46 110.105C161.279 109.992 161.039 110.048 160.927 110.23L149.346 128.897C149.234 129.079 149.289 129.318 149.471 129.431C149.652 129.543 149.891 129.488 150.005 129.306L161.585 110.639C161.698 110.457 161.642 110.218 161.46 110.105Z" fill="#00002D"/>
<path d="M163.508 107.542L164.267 106.319C164.38 106.136 164.324 105.898 164.142 105.785C163.96 105.672 163.721 105.728 163.609 105.91L162.85 107.134C162.737 107.316 162.793 107.554 162.975 107.667C163.157 107.78 163.396 107.723 163.508 107.542Z" fill="#00002D"/>
<path d="M90.6813 116.878C90.6503 116.667 90.4567 116.522 90.2415 116.551C90.0298 116.582 89.8832 116.779 89.9143 116.99C89.9728 117.389 96.1318 157.189 127.962 181.671C128.133 181.802 128.376 181.769 128.506 181.6C128.636 181.431 128.604 181.188 128.435 181.057C96.8591 156.77 90.7393 117.274 90.6813 116.878Z" fill="#00002D"/>
<path d="M44.1188 255.461C42.4303 255.461 41.0566 256.837 41.0566 258.528C41.0566 260.219 42.4303 261.594 44.1188 261.594C45.8099 261.594 47.1858 260.219 47.1858 258.528C47.1858 256.837 45.8099 255.461 44.1188 255.461ZM44.1188 260.819C42.8577 260.819 41.8318 259.791 41.8318 258.528C41.8318 257.264 42.8577 256.236 44.1188 256.236C45.3825 256.236 46.4107 257.264 46.4107 258.528C46.4106 259.791 45.3825 260.819 44.1188 260.819Z" fill="#00002D"/>
<path d="M198.229 178.703C172.013 178.703 150.686 200.028 150.686 226.239C150.686 252.48 171.928 273.789 198.229 273.789C224.467 273.789 245.765 252.532 245.765 226.239C245.765 200.028 224.44 178.703 198.229 178.703ZM193.381 232.496C196.269 233.376 199.418 233.504 202.398 232.86C202.384 236.292 202.477 236.76 202.186 237.631C201.608 239.49 199.868 240.778 197.887 240.778C195.903 240.778 194.213 239.486 193.613 237.698C193.295 236.744 193.395 236.326 193.381 232.496ZM180.874 213.145L178.789 213.332C179.26 212.12 180.197 211.141 181.382 210.621C181.152 211.446 180.983 212.29 180.874 213.145ZM178.552 214.132L180.79 213.931C180.636 215.786 180.761 217.606 181.193 219.465C179.576 218.672 178.456 217.013 178.456 215.093C178.456 214.764 178.49 214.443 178.552 214.132ZM182.282 210.329C182.619 210.254 182.969 210.212 183.328 210.212C186.019 210.212 188.209 212.402 188.209 215.093C188.209 217.779 186.019 219.965 183.328 219.965C182.893 219.965 182.473 219.902 182.071 219.794C181.26 216.738 181.299 213.469 182.282 210.329ZM201.514 205.938C201.514 205.938 199.834 212.369 206.368 214.19L203.477 215.071C203.097 212.319 200.736 210.192 197.882 210.192C195.737 210.192 193.868 211.396 192.912 213.165C192.103 212.884 190.04 212.311 188.635 213.156C187.842 210.99 185.766 209.437 183.328 209.437C183.069 209.437 182.816 209.461 182.566 209.495C182.865 208.687 183.224 207.901 183.644 207.145C186.787 208.264 192.148 206.98 201.514 205.938ZM197.882 210.967C200.573 210.967 202.762 213.156 202.762 215.847C202.762 218.533 200.573 220.719 197.882 220.719C195.195 220.719 193.01 218.533 193.01 215.847C193.01 213.156 195.195 210.967 197.882 210.967ZM183.328 220.74C186.447 220.74 188.984 218.206 188.984 215.093C188.984 214.696 188.942 214.309 188.864 213.935C189.926 213.109 191.814 213.614 192.595 213.877C192.366 214.492 192.235 215.153 192.235 215.847C192.235 218.961 194.768 221.494 197.882 221.494C200.995 221.494 203.528 218.97 203.536 215.863L207.963 214.515C208.589 214.601 209.265 214.655 210.01 214.666C209.566 215.291 209.307 216.03 209.266 216.811C209.256 217.028 209.421 217.209 209.633 217.219C209.85 217.229 210.031 217.069 210.041 216.857C210.218 213.666 214.404 212.385 216.258 215.156C217.822 217.524 215.995 220.589 213.25 220.433C213.038 220.418 212.852 220.588 212.842 220.8C212.826 221.012 212.992 221.198 213.203 221.208C213.648 221.238 214.196 221.179 214.702 221.017C212.396 227.631 206.273 232.329 198.935 232.481C191.185 232.64 184.57 227.625 182.321 220.645C182.648 220.704 182.984 220.74 183.328 220.74ZM197.887 241.553C200.284 241.553 202.342 239.956 202.977 237.713C215.455 239.046 226.935 245.628 234.387 255.893C225.458 266.777 212.299 273.013 198.228 273.013C183.842 273.013 170.801 266.543 162.072 255.896C169.395 245.81 180.602 239.279 192.828 237.78C193.479 239.961 195.5 241.553 197.887 241.553ZM234.889 255.275C227.321 244.944 215.729 238.315 203.132 236.943C203.206 236.311 203.16 236.159 203.173 232.668C208.107 231.366 212.324 228 214.665 223.118C218.32 219.258 230.689 204.804 215.332 200.693C215.332 200.693 217.668 188.756 193.758 190.1C180.545 190.844 178.7 200.373 180.927 204.693C181.44 205.687 182.092 206.375 182.93 206.83C182.426 207.744 182.007 208.7 181.672 209.686C179.236 210.436 177.681 212.715 177.681 215.093C177.681 217.544 179.253 219.629 181.44 220.408C183.045 225.914 187.235 230.328 192.606 232.239C192.624 236.288 192.563 236.341 192.663 237.021C180.319 238.55 169.004 245.128 161.567 255.275C155.099 247.176 151.461 237 151.461 226.239C151.461 200.455 172.441 179.478 198.229 179.478C224.013 179.478 244.99 200.455 244.99 226.239C244.99 236.96 241.386 247.107 234.889 255.275Z" fill="#00002D"/>
<path d="M184.772 213.378C184.772 212.581 184.129 211.938 183.332 211.938C182.535 211.938 181.892 212.581 181.892 213.378C181.892 214.175 182.535 214.818 183.332 214.818C184.129 214.818 184.772 214.175 184.772 213.378Z" fill="#00002D"/>
<path d="M195.662 216.255C196.459 216.255 197.102 215.612 197.102 214.815C197.102 214.018 196.459 213.375 195.662 213.375C194.865 213.375 194.222 214.018 194.222 214.815C194.222 215.612 194.865 216.255 195.662 216.255Z" fill="#00002D"/>
<path d="M190.172 221.834C190.395 221.875 190.587 221.729 190.627 221.528C190.667 221.318 190.53 221.115 190.32 221.073C189.683 220.949 189.582 220.659 189.549 220.563C189.274 219.771 190.332 218.125 191.063 217.272C191.202 217.11 191.184 216.866 191.021 216.726C190.859 216.587 190.615 216.606 190.475 216.767C190.252 217.027 188.307 219.349 188.816 220.817C188.944 221.185 189.283 221.661 190.172 221.834Z" fill="#00002D"/>
<path d="M183.922 208.948C186.165 208.132 187.91 209.712 187.983 209.779C188.14 209.925 188.385 209.916 188.531 209.759C188.676 209.603 188.668 209.359 188.512 209.213C188.425 209.131 186.357 207.237 183.657 208.22C183.455 208.293 183.352 208.515 183.425 208.717C183.499 208.918 183.721 209.021 183.922 208.948Z" fill="#00002D"/>
<path d="M195.117 209.705C196.907 208.124 199.109 208.958 199.202 208.996C199.4 209.073 199.625 208.976 199.704 208.777C199.782 208.578 199.685 208.353 199.487 208.275C199.376 208.23 196.756 207.223 194.604 209.124C194.444 209.266 194.429 209.51 194.57 209.671C194.712 209.832 194.957 209.847 195.117 209.705Z" fill="#00002D"/>
<path d="M213.279 217.347C213.382 217.347 213.484 217.306 213.56 217.226L214.185 216.569C214.333 216.414 214.327 216.169 214.172 216.021C214.016 215.873 213.771 215.879 213.624 216.035L212.999 216.692C212.851 216.847 212.857 217.092 213.012 217.24C213.087 217.311 213.184 217.347 213.279 217.347Z" fill="#00002D"/>
<path d="M190.131 227.352C190.978 227.352 191.666 226.445 191.666 225.323C191.666 224.196 190.978 223.289 190.131 223.289C189.281 223.289 188.596 224.196 188.596 225.323C188.596 226.445 189.281 227.352 190.131 227.352Z" fill="#00002D"/>
<path d="M151.076 102.066C172.533 102.066 190.025 84.6861 190.025 63.1055C190.025 41.629 172.553 24.1562 151.076 24.1562C129.596 24.1562 112.121 41.629 112.121 63.1055C112.121 84.5674 129.501 102.066 151.076 102.066ZM121.593 87.3568C127.65 79.0424 136.951 73.6939 147.069 72.5673C147.354 74.3553 148.909 75.7195 150.775 75.7195C152.661 75.7195 154.226 74.3243 154.485 72.5053C164.835 73.4819 174.379 78.8765 180.559 87.3558C173.242 96.2483 162.506 101.288 151.074 101.288C139.424 101.288 128.757 96.0746 121.593 87.3568ZM136.791 50.767C137.422 51.2665 138.178 51.6683 139.103 51.9577C138.733 52.0457 138.376 52.2064 138.06 52.4596C137.894 52.5938 137.867 52.8376 138.001 53.0046C138.135 53.1717 138.379 53.1989 138.546 53.0642C139.353 52.4152 140.538 52.5469 141.186 53.3548C141.321 53.5223 141.565 53.5478 141.731 53.4144C141.898 53.2802 141.925 53.0364 141.791 52.8694C141.638 52.6794 141.459 52.526 141.27 52.3897C144.596 52.7422 149.523 52.1085 157.1 50.1144C157.1 50.1144 156.066 52.5484 157.1 54.3983C156.872 54.7807 156.727 55.2045 156.681 55.6593C156.66 55.8711 156.815 56.0622 157.027 56.0829C157.239 56.114 157.43 55.9538 157.456 55.7419C157.639 53.6881 160.313 52.8584 161.631 54.5068C162.956 56.1405 161.634 58.5611 159.554 58.336C159.337 58.3153 159.146 58.4651 159.125 58.677C159.105 58.894 159.26 59.0852 159.472 59.1059C160.351 59.186 161.141 58.9375 161.771 58.429C161.767 58.8726 161.717 59.4113 161.613 60.0643C159.303 64.4648 154.831 67.2138 149.793 67.2138C141.343 67.2138 134.764 59.3292 136.791 50.767ZM147.788 67.8442C148.444 67.9424 149.111 67.989 149.793 67.989C151.162 67.989 152.49 67.7977 153.756 67.436C153.756 67.5139 153.756 72.0305 153.756 71.9628C153.756 73.5975 152.424 74.9444 150.774 74.9444C149.307 74.9444 148.087 73.885 147.839 72.4898C147.791 72.26 147.768 72.404 147.788 67.8442ZM151.076 24.9314C172.125 24.9314 189.25 42.0564 189.25 63.1055C189.25 71.7592 186.382 80.0035 181.055 86.7394C174.735 78.1696 165.038 72.7166 154.531 71.7302V67.1828C157.899 65.9953 160.728 63.5541 162.404 60.2388C165.827 56.6524 177.036 39.0394 160.841 39.2937C160.841 39.2937 156.583 28.9586 144.294 32.514C131.965 36.0795 132.642 43.6654 134.554 47.7632C134.98 48.6756 135.482 49.4848 136.133 50.1664C133.996 58.0904 139.054 66.122 147.013 67.7099V71.7975C136.738 72.926 127.29 78.3336 121.097 86.7409C115.976 80.2989 112.897 72.0757 112.897 63.1055C112.897 42.0564 130.024 24.9314 151.076 24.9314Z" fill="#00002D"/>
<path d="M141.936 62.3916C142.963 62.1332 144.005 62.1332 145.032 62.3916C145.187 62.4284 145.35 62.3704 145.442 62.2407C145.535 62.1104 145.538 61.9368 145.451 61.8037C145.427 61.7673 144.861 60.918 143.843 60.7954C143.1 60.7086 142.337 61.021 141.577 61.7325C141.448 61.8532 141.417 62.0459 141.501 62.2013C141.588 62.3603 141.771 62.4341 141.936 62.3916Z" fill="#00002D"/>
<path d="M147.402 55.5625C146.871 55.5625 146.443 55.9907 146.443 56.5213C146.443 57.0517 146.871 57.4799 147.402 57.4799C147.932 57.4799 148.36 57.0517 148.36 56.5213C148.36 55.9907 147.932 55.5625 147.402 55.5625Z" fill="#00002D"/>
<path d="M140.476 55.5682C140.476 55.0377 140.048 54.6094 139.518 54.6094C138.987 54.6094 138.559 55.0377 138.559 55.5682C138.559 56.0986 138.987 56.5269 139.518 56.5269C140.048 56.5269 140.476 56.0986 140.476 55.5682Z" fill="#00002D"/>
<path d="M143.667 58.5555C143.89 58.5853 144.077 58.4308 144.106 58.228C144.137 58.0161 143.99 57.8193 143.778 57.7885C143.466 57.7431 143.261 57.6503 143.228 57.5397C143.136 57.2248 143.765 56.4012 144.389 55.8597C144.55 55.7195 144.567 55.4747 144.427 55.3132C144.287 55.1513 144.042 55.1346 143.881 55.2744C143.598 55.5197 142.202 56.7924 142.484 57.7577C142.611 58.1912 143.009 58.4597 143.667 58.5555Z" fill="#00002D"/>
<path d="M146.894 53.8878C147.793 53.3756 148.942 53.6899 149.456 54.5897C149.562 54.774 149.797 54.8408 149.985 54.7341C150.171 54.6276 150.236 54.3909 150.13 54.2052C149.403 52.9345 147.78 52.4909 146.51 53.2146C146.324 53.3206 146.259 53.5572 146.365 53.7435C146.472 53.9297 146.709 53.9942 146.894 53.8878Z" fill="#00002D"/>
<path d="M287.37 128.52C287.37 105.212 268.408 86.25 245.1 86.25C221.789 86.25 202.824 105.212 202.824 128.52C202.824 151.934 221.771 170.802 245.102 170.802C268.505 170.802 287.37 151.828 287.37 128.52ZM240.834 134.133C243.273 134.873 246.09 135.022 248.761 134.453C248.752 137.228 248.84 137.836 248.56 138.676C248.029 140.282 246.525 141.394 244.798 141.394C242.721 141.394 241.089 139.79 240.875 137.973C240.807 137.575 240.844 137.477 240.834 134.133ZM229.643 116.849L227.896 117.005C228.306 115.998 229.087 115.183 230.069 114.726C229.879 115.421 229.737 116.13 229.643 116.849ZM227.659 117.805L229.561 117.634C229.527 118.057 229.507 118.482 229.507 118.91C229.507 120.117 229.647 121.292 229.903 122.423C228.265 121.575 227.287 119.74 227.659 117.805ZM230.282 118.91C230.282 117.372 230.519 115.862 230.967 114.423C233.639 113.85 236.156 115.895 236.156 118.618C236.156 120.98 234.231 122.903 231.864 122.903C231.489 122.903 231.127 122.849 230.78 122.758C230.456 121.529 230.282 120.24 230.282 118.91ZM240.368 110.312C243.507 113.798 249.158 115.064 254.049 113.527C253.69 114.76 253.695 116 254.068 117.242L249.798 118.543C249.435 116.102 247.332 114.221 244.792 114.221C242.883 114.221 241.219 115.286 240.357 116.853C239.619 116.601 237.842 116.122 236.6 116.832C235.803 114.728 233.661 113.299 231.251 113.592C231.588 112.696 232.01 111.831 232.514 111.012C235.044 112.389 238.297 112.05 240.368 110.312ZM244.792 114.996C247.158 114.996 249.084 116.922 249.084 119.288C249.084 121.651 247.158 123.573 244.792 123.573C242.429 123.573 240.508 121.651 240.508 119.288C240.508 116.922 242.429 114.996 244.792 114.996ZM231.864 123.678C234.658 123.678 236.931 121.408 236.931 118.618C236.931 118.273 236.896 117.936 236.83 117.61C237.742 116.927 239.334 117.333 240.04 117.566C239.845 118.105 239.732 118.683 239.732 119.288C239.732 122.078 242.002 124.348 244.792 124.348C247.57 124.348 249.831 122.103 249.857 119.336L254.333 117.972C254.427 118.186 254.526 118.398 254.642 118.6C254.44 119.173 254.378 119.788 254.476 120.408C254.507 120.62 254.704 120.765 254.916 120.729C255.127 120.698 255.272 120.502 255.241 120.29C254.665 116.402 260.525 115.506 261.122 119.385C261.37 121.027 260.24 122.535 258.631 122.78C258.419 122.811 258.274 123.008 258.305 123.22C258.344 123.456 258.582 123.587 258.75 123.545C259.203 123.476 259.551 123.334 259.923 123.158C259.675 124.01 259.344 124.837 258.941 125.643C256.237 131.089 250.649 134.289 244.693 134.012C238.308 133.712 232.942 129.434 231.032 123.603C231.303 123.649 231.58 123.678 231.864 123.678ZM244.798 142.169C246.887 142.169 248.75 140.795 249.35 138.758C260.392 139.952 270.556 145.775 277.165 154.858C269.251 164.493 257.586 170.026 245.1 170.026C232.892 170.026 221.117 164.709 213.035 154.858C219.525 145.935 229.446 140.153 240.271 138.82C240.865 140.758 242.669 142.169 244.798 142.169ZM277.659 154.245C270.938 145.098 260.669 139.22 249.5 137.994C249.561 137.552 249.527 137.367 249.536 134.261C253.878 133.105 257.567 130.154 259.634 125.989C260.212 124.838 260.64 123.635 260.919 122.396C261.062 122.243 261.256 122.014 261.354 121.829C264.486 121.339 266.878 118.626 266.878 115.36C266.878 111.748 263.943 108.812 260.326 108.812C260.323 108.812 260.321 108.813 260.318 108.813C261 107.638 261.383 106.331 261.383 104.953C261.383 99.8619 256.194 95.7346 249.794 95.7346C244.782 95.7346 240.513 98.2662 238.897 101.809C238.011 101.408 236.998 101.179 235.922 101.179C232.435 101.179 229.607 103.57 229.607 106.52C229.607 108.158 230.481 109.623 231.854 110.602C231.237 111.605 230.737 112.671 230.359 113.78C228.713 114.295 227.432 115.632 226.982 117.307C226.975 117.326 226.972 117.344 226.968 117.364C226.298 119.982 227.778 122.514 230.149 123.372C231.58 128.256 235.296 132.172 240.059 133.878C240.072 137.366 240.025 137.523 240.105 138.061C229.168 139.43 219.146 145.262 212.541 154.245C206.916 147.184 203.6 138.221 203.6 128.52C203.6 105.639 222.217 87.0252 245.1 87.0252C267.98 87.0252 286.595 105.639 286.595 128.52C286.595 137.682 283.621 146.729 277.659 154.245Z" fill="#00002D"/>
<path d="M237.68 127.542C237.562 127.363 237.323 127.314 237.144 127.431C236.965 127.548 236.915 127.788 237.032 127.967C237.058 128.007 237.684 128.946 238.809 129.082C239.762 129.193 240.616 128.7 241.323 128.038C241.48 127.892 241.488 127.647 241.342 127.49C241.195 127.335 240.95 127.327 240.794 127.472C240.125 128.098 239.491 128.381 238.908 128.313C238.146 128.225 237.687 127.552 237.68 127.542Z" fill="#00002D"/>
<path d="M233.38 119.467C233.38 118.759 232.808 118.188 232.101 118.188C231.393 118.188 230.821 118.759 230.821 119.467C230.821 120.175 231.393 120.746 232.101 120.746C232.808 120.746 233.38 120.175 233.38 119.467Z" fill="#00002D"/>
<path d="M243.358 121.84C244.065 121.84 244.637 121.268 244.637 120.561C244.637 119.853 244.065 119.281 243.358 119.281C242.65 119.281 242.078 119.853 242.078 120.561C242.078 121.268 242.65 121.84 243.358 121.84Z" fill="#00002D"/>
<path d="M237.935 124.651C238.158 124.692 238.35 124.546 238.39 124.345C238.431 124.135 238.294 123.932 238.083 123.89C237.541 123.784 237.458 123.544 237.43 123.465C237.192 122.78 238.124 121.335 238.768 120.585C238.907 120.423 238.889 120.178 238.726 120.039C238.565 119.899 238.32 119.918 238.18 120.08C237.98 120.313 236.238 122.393 236.698 123.719C236.815 124.057 237.125 124.493 237.935 124.651Z" fill="#00002D"/>
<path d="M112.62 230.921C112.205 230.817 111.952 230.397 112.055 229.981C112.158 229.566 112.576 229.311 112.994 229.416C120.52 231.287 127.04 227.486 128.587 221.638C124.496 222.025 120.278 220.211 118.266 216.828C117.316 215.23 116.729 212.745 118.203 211C119.452 209.519 121.598 209.385 123.188 209.756C127.286 210.709 130.62 214.918 130.439 219.696C135.174 218.189 138.344 213.053 138.444 207.807C138.453 207.384 138.798 207.047 139.219 207.047C139.224 207.047 139.229 207.047 139.234 207.047C139.662 207.055 140.002 207.409 139.994 207.837C139.879 213.871 136.043 219.927 130.24 221.359C128.814 228.509 121.123 233.032 112.62 230.921ZM119.387 212C118.5 213.05 118.854 214.784 119.598 216.036C121.38 219.032 125.215 220.565 128.864 220.053C129.224 215.835 126.37 212.087 122.837 211.266C121.66 210.993 120.173 211.069 119.387 212Z" fill="#FF5B5B"/>
</svg>
