<svg width="30" height="30" viewBox="0 0 30 30" fill="none" xmlns="http://www.w3.org/2000/svg">
<circle cx="15" cy="15" r="15" fill="#D9D9D9"/>
<path d="M20.6 10H9.4C8.62813 10 8 10.6281 8 11.4V18.8667C8 19.6385 8.62813 20.2667 9.4 20.2667H10.8V22.6C10.8 22.7797 10.9031 22.9425 11.0641 23.0205C11.129 23.0513 11.1981 23.0667 11.2667 23.0667C11.3707 23.0667 11.4739 23.0321 11.5583 22.9645L14.9305 20.2667H20.6C21.3719 20.2667 22 19.6385 22 18.8667V11.4C22 10.6281 21.3719 10 20.6 10ZM15 16.5333H11.2667C11.0086 16.5333 10.8 16.3243 10.8 16.0667C10.8 15.8091 11.0086 15.6 11.2667 15.6H15C15.2581 15.6 15.4667 15.8091 15.4667 16.0667C15.4667 16.3243 15.2581 16.5333 15 16.5333ZM18.7333 14.6667H11.2667C11.0086 14.6667 10.8 14.4576 10.8 14.2C10.8 13.9424 11.0086 13.7333 11.2667 13.7333H18.7333C18.9914 13.7333 19.2 13.9424 19.2 14.2C19.2 14.4576 18.9914 14.6667 18.7333 14.6667Z" fill="black"/>
</svg>
