<svg width="36" height="36" viewBox="0 0 36 36" fill="none" xmlns="http://www.w3.org/2000/svg">
<rect width="36" height="36" rx="10" fill="white"/>
<path d="M22.7319 16.0591H27.791V13.7102C27.791 12.2158 26.5752 11 25.0807 11H11.7102C10.2158 11 9 12.2158 9 13.7102V23.8284C9 25.3229 10.2158 26.5387 11.7102 26.5387H25.0807C26.5752 26.5387 27.791 25.3229 27.791 23.8284V21.4796H22.7319C21.2374 21.4796 20.0216 20.2638 20.0216 18.7693C20.0216 17.2749 21.2374 16.0591 22.7319 16.0591Z" fill="#4D70F6"/>
<path d="M22.7319 17.1406C21.8352 17.1406 21.1057 17.8701 21.1057 18.7668C21.1057 19.6635 21.8352 20.3929 22.7319 20.3929H27.791V17.1407L22.7319 17.1406ZM23.4546 19.3088H22.7319C22.4325 19.3088 22.1898 19.0661 22.1898 18.7668C22.1898 18.4674 22.4325 18.2247 22.7319 18.2247H23.4546C23.754 18.2247 23.9966 18.4674 23.9966 18.7668C23.9966 19.0661 23.754 19.3088 23.4546 19.3088Z" fill="#4D70F6"/>
</svg>
