<svg width="30" height="30" viewBox="0 0 30 30" fill="none" xmlns="http://www.w3.org/2000/svg">
<circle cx="15" cy="15" r="15" fill="#D9D9D9"/>
<path d="M21.7572 18.1454L19.6379 16.026C18.881 15.2691 17.5943 15.5719 17.2915 16.5559C17.0644 17.2371 16.3075 17.6156 15.6263 17.4642C14.1125 17.0857 12.0689 15.1178 11.6904 13.5283C11.4634 12.847 11.9175 12.0901 12.5987 11.8631C13.5827 11.5603 13.8855 10.2736 13.1286 9.51669L11.0092 7.39737C10.4037 6.86754 9.49543 6.86754 8.9656 7.39737L7.52749 8.83548C6.08938 10.3493 7.67887 14.3609 11.2363 17.9183C14.7937 21.4757 18.8053 23.1409 20.3191 21.6271L21.7572 20.189C22.2871 19.5835 22.2871 18.6752 21.7572 18.1454Z" fill="black"/>
</svg>
