<svg width="28" height="33" viewBox="0 0 28 33" fill="none" xmlns="http://www.w3.org/2000/svg">
<path d="M13.5393 33C20.3616 33 25.8921 31.8107 25.8921 30.3437C25.8921 28.8766 20.3616 27.6874 13.5393 27.6874C6.71706 27.6874 1.18652 28.8766 1.18652 30.3437C1.18652 31.8107 6.71706 33 13.5393 33Z" fill="url(#paint0_linear_2406_16679)"/>
<path d="M25.8922 30.3437C25.8922 28.8767 20.3617 27.6874 13.5394 27.6874C12.4044 27.6874 11.3057 27.7204 10.2617 27.7821L12.574 31.1838C12.6385 31.2787 12.7138 31.36 12.7964 31.4285L14.3619 32.9939C20.8006 32.9029 25.8922 31.7513 25.8922 30.3437Z" fill="url(#paint1_linear_2406_16679)"/>
<path d="M27.0783 13.5391C27.0783 6.06167 21.0166 0 13.5392 0C6.09433 0 0.0753661 5.95569 0.000696027 13.4002C-0.0556624 19.0228 3.31595 23.864 8.15333 25.9636C8.96279 26.3149 9.65521 26.89 10.1513 27.6199L12.5737 31.1836C13.037 31.865 14.0413 31.865 14.5045 31.1836L16.9269 27.6199C17.4214 26.8924 18.1102 26.3166 18.9174 25.9669C23.7189 23.8862 27.0783 19.1053 27.0783 13.5391Z" fill="url(#paint2_linear_2406_16679)"/>
<path d="M13.5392 31.0204C13.4608 31.0204 13.2641 30.9994 13.1318 30.8048L10.7094 27.2409C10.1397 26.4029 9.34878 25.7473 8.42207 25.3451C3.66414 23.2799 0.623439 18.5941 0.675462 13.4073C0.709756 9.98597 2.06119 6.78299 4.48079 4.3883C6.90013 1.99388 10.1175 0.675049 13.5392 0.675049H13.5393C20.6328 0.675049 26.4037 6.44607 26.4037 13.5395C26.4037 18.6718 23.3599 23.307 18.6493 25.3482C17.7279 25.7475 16.9394 26.402 16.3691 27.241L13.9467 30.8048C13.8144 30.9994 13.6177 31.0204 13.5392 31.0204Z" fill="url(#paint3_linear_2406_16679)"/>
<path d="M13.5389 22.0497C18.2392 22.0497 22.0495 18.2394 22.0495 13.5391C22.0495 8.83888 18.2392 5.02856 13.5389 5.02856C8.83864 5.02856 5.02832 8.83888 5.02832 13.5391C5.02832 18.2394 8.83864 22.0497 13.5389 22.0497Z" fill="url(#paint4_linear_2406_16679)"/>
<path d="M26.6546 16.9099L18.5688 8.8242C17.311 7.48286 15.523 6.64453 13.539 6.64453C9.73131 6.64453 6.64453 9.73131 6.64453 13.539C6.64453 15.523 7.48286 17.311 8.8242 18.5688L17.3457 27.0903C17.7835 26.6114 18.3177 26.2266 18.9173 25.9668C22.7148 24.3212 25.6098 20.9863 26.6546 16.9099Z" fill="url(#paint5_linear_2406_16679)"/>
<path d="M13.539 20.4335C17.3468 20.4335 20.4335 17.3468 20.4335 13.539C20.4335 9.7313 17.3468 6.64453 13.539 6.64453C9.7313 6.64453 6.64453 9.7313 6.64453 13.539C6.64453 17.3468 9.7313 20.4335 13.539 20.4335Z" fill="url(#paint6_linear_2406_16679)"/>
<defs>
<linearGradient id="paint0_linear_2406_16679" x1="13.2673" y1="29.1974" x2="14.8018" y2="35.6642" gradientUnits="userSpaceOnUse">
<stop stop-color="#FFDA45"/>
<stop offset="1" stop-color="#FFA425"/>
</linearGradient>
<linearGradient id="paint1_linear_2406_16679" x1="19.9536" y1="31.5729" x2="15.8681" y2="26.3602" gradientUnits="userSpaceOnUse">
<stop stop-color="#FFDA45" stop-opacity="0"/>
<stop offset="1" stop-color="#B53759"/>
</linearGradient>
<linearGradient id="paint2_linear_2406_16679" x1="5.36769" y1="5.36719" x2="32.3822" y2="32.3817" gradientUnits="userSpaceOnUse">
<stop stop-color="#FF7044"/>
<stop offset="1" stop-color="#F92814"/>
</linearGradient>
<linearGradient id="paint3_linear_2406_16679" x1="10.6358" y1="10.6436" x2="1.14257" y2="1.15037" gradientUnits="userSpaceOnUse">
<stop stop-color="#FF7044" stop-opacity="0"/>
<stop offset="1" stop-color="#FFA425"/>
</linearGradient>
<linearGradient id="paint4_linear_2406_16679" x1="18.6707" y1="18.6709" x2="1.69664" y2="1.69688" gradientUnits="userSpaceOnUse">
<stop stop-color="#FF7044"/>
<stop offset="1" stop-color="#F92814"/>
</linearGradient>
<linearGradient id="paint5_linear_2406_16679" x1="22.3931" y1="22.3931" x2="14.87" y2="14.87" gradientUnits="userSpaceOnUse">
<stop stop-color="#F92814" stop-opacity="0"/>
<stop offset="1" stop-color="#C1272D"/>
</linearGradient>
<linearGradient id="paint6_linear_2406_16679" x1="11.8513" y1="10.9652" x2="15.9254" y2="17.1782" gradientUnits="userSpaceOnUse">
<stop stop-color="#F9F7FC"/>
<stop offset="1" stop-color="#F0DDFC"/>
</linearGradient>
</defs>
</svg>
