<svg width="300" height="300" viewBox="0 0 300 300" fill="none" xmlns="http://www.w3.org/2000/svg">
<rect width="300" height="300" rx="50" fill="#0072E8"/>
<path d="M77.5957 132.895V133.798C76.3913 133.993 75.3171 134.636 74.373 135.727C73.6895 136.54 72.6722 138.453 71.3213 141.464L59.9199 166.757H59.1143L47.7617 140.438C46.3945 137.265 45.4749 135.401 45.0029 134.848C44.5472 134.294 43.6764 133.944 42.3906 133.798V132.895H58.2598V133.798H57.7227C56.2904 133.798 55.3138 133.977 54.793 134.335C54.4186 134.579 54.2314 134.937 54.2314 135.409C54.2314 135.702 54.2965 136.052 54.4268 136.459C54.557 136.85 54.9964 137.916 55.7451 139.657L62.8008 156.137L69.3438 141.464C70.125 139.69 70.6051 138.502 70.7842 137.899C70.9632 137.297 71.0527 136.785 71.0527 136.361C71.0527 135.873 70.9225 135.442 70.6621 135.067C70.4017 134.693 70.0192 134.408 69.5146 134.213C68.8148 133.936 67.887 133.798 66.7314 133.798V132.895H77.5957ZM91.7559 134.799V148.275H92.415C94.5146 148.275 96.0365 147.616 96.9805 146.298C97.9245 144.979 98.5267 143.035 98.7871 140.463H99.7148V157.797H98.7871C98.5918 155.909 98.1768 154.363 97.542 153.158C96.9235 151.954 96.1992 151.148 95.3691 150.741C94.5391 150.318 93.3346 150.106 91.7559 150.106V159.433C91.7559 161.256 91.8291 162.37 91.9756 162.777C92.1383 163.184 92.4313 163.518 92.8545 163.778C93.2777 164.039 93.9613 164.169 94.9053 164.169H96.8828C99.9753 164.169 102.449 163.453 104.305 162.021C106.176 160.588 107.519 158.407 108.333 155.478H109.236L107.747 166H79.1338V165.097H80.2324C81.1927 165.097 81.9658 164.926 82.5518 164.584C82.9749 164.356 83.3005 163.965 83.5283 163.412C83.7074 163.021 83.7969 161.996 83.7969 160.336V138.559C83.7969 137.061 83.7562 136.142 83.6748 135.8C83.512 135.23 83.2109 134.791 82.7715 134.481C82.153 134.026 81.3066 133.798 80.2324 133.798H79.1338V132.895H106.844V142.685H105.916C105.444 140.292 104.777 138.575 103.914 137.533C103.068 136.492 101.863 135.727 100.301 135.238C99.3893 134.945 97.6803 134.799 95.1738 134.799H91.7559ZM125.105 134.799V148.275H125.765C127.864 148.275 129.386 147.616 130.33 146.298C131.274 144.979 131.876 143.035 132.137 140.463H133.064V157.797H132.137C131.941 155.909 131.526 154.363 130.892 153.158C130.273 151.954 129.549 151.148 128.719 150.741C127.889 150.318 126.684 150.106 125.105 150.106V159.433C125.105 161.256 125.179 162.37 125.325 162.777C125.488 163.184 125.781 163.518 126.204 163.778C126.627 164.039 127.311 164.169 128.255 164.169H130.232C133.325 164.169 135.799 163.453 137.654 162.021C139.526 160.588 140.869 158.407 141.683 155.478H142.586L141.097 166H112.483V165.097H113.582C114.542 165.097 115.315 164.926 115.901 164.584C116.325 164.356 116.65 163.965 116.878 163.412C117.057 163.021 117.146 161.996 117.146 160.336V138.559C117.146 137.061 117.106 136.142 117.024 135.8C116.862 135.23 116.561 134.791 116.121 134.481C115.503 134.026 114.656 133.798 113.582 133.798H112.483V132.895H140.193V142.685H139.266C138.794 140.292 138.126 138.575 137.264 137.533C136.417 136.492 135.213 135.727 133.65 135.238C132.739 134.945 131.03 134.799 128.523 134.799H125.105ZM176.399 154.379L175.154 166H145.76V165.097H146.858C147.819 165.097 148.592 164.926 149.178 164.584C149.601 164.356 149.926 163.965 150.154 163.412C150.333 163.021 150.423 161.996 150.423 160.336V138.559C150.423 136.866 150.333 135.808 150.154 135.385C149.975 134.962 149.609 134.595 149.056 134.286C148.519 133.961 147.786 133.798 146.858 133.798H145.76V132.895H163.411V133.798H161.971C161.01 133.798 160.237 133.969 159.651 134.311C159.228 134.538 158.895 134.929 158.65 135.482C158.471 135.873 158.382 136.898 158.382 138.559V159.652C158.382 161.345 158.479 162.427 158.675 162.899C158.87 163.355 159.253 163.697 159.822 163.925C160.229 164.071 161.214 164.145 162.776 164.145H165.535C167.293 164.145 168.758 163.835 169.93 163.217C171.102 162.598 172.111 161.622 172.957 160.287C173.82 158.952 174.633 156.983 175.398 154.379H176.399Z" fill="white"/>
<path d="M212.679 132.138V143.808H211.775C210.685 140.618 209.049 138.192 206.868 136.532C204.687 134.872 202.303 134.042 199.715 134.042C197.241 134.042 195.182 134.742 193.538 136.142C191.894 137.525 190.73 139.462 190.047 141.952C189.363 144.442 189.021 146.998 189.021 149.618C189.021 152.792 189.396 155.575 190.145 157.968C190.893 160.36 192.098 162.118 193.758 163.241C195.434 164.364 197.42 164.926 199.715 164.926C200.512 164.926 201.326 164.844 202.156 164.682C203.003 164.503 203.865 164.25 204.744 163.925V157.04C204.744 155.738 204.655 154.9 204.476 154.525C204.297 154.135 203.922 153.785 203.353 153.476C202.799 153.166 202.124 153.012 201.326 153.012H200.472V152.108H216.561V153.012C215.34 153.093 214.485 153.264 213.997 153.524C213.525 153.769 213.159 154.184 212.898 154.77C212.752 155.079 212.679 155.836 212.679 157.04V163.925C210.563 164.869 208.357 165.577 206.062 166.049C203.784 166.537 201.416 166.781 198.958 166.781C195.817 166.781 193.204 166.358 191.121 165.512C189.054 164.649 187.223 163.526 185.628 162.143C184.049 160.743 182.812 159.172 181.917 157.431C180.778 155.185 180.208 152.67 180.208 149.887C180.208 144.906 181.958 140.699 185.457 137.265C188.956 133.83 193.359 132.113 198.665 132.113C200.309 132.113 201.79 132.243 203.108 132.504C203.825 132.634 204.98 133.008 206.575 133.627C208.187 134.229 209.139 134.53 209.432 134.53C209.887 134.53 210.311 134.368 210.701 134.042C211.092 133.7 211.45 133.065 211.775 132.138H212.679ZM236.409 132.431C241.683 132.235 245.963 133.773 249.251 137.045C252.555 140.316 254.207 144.41 254.207 149.325C254.207 153.524 252.978 157.219 250.521 160.409C247.265 164.641 242.667 166.757 236.727 166.757C230.77 166.757 226.163 164.739 222.908 160.702C220.337 157.512 219.051 153.728 219.051 149.35C219.051 144.434 220.719 140.341 224.056 137.069C227.409 133.782 231.526 132.235 236.409 132.431ZM236.702 133.993C233.675 133.993 231.372 135.539 229.793 138.632C228.507 141.171 227.864 144.817 227.864 149.569C227.864 155.217 228.857 159.392 230.843 162.094C232.226 163.982 234.163 164.926 236.653 164.926C238.33 164.926 239.729 164.519 240.853 163.705C242.285 162.663 243.4 161.003 244.197 158.725C244.995 156.43 245.394 153.443 245.394 149.765C245.394 145.386 244.987 142.115 244.173 139.95C243.359 137.769 242.317 136.231 241.048 135.336C239.795 134.441 238.346 133.993 236.702 133.993Z" fill="#FFF500"/>
</svg>
