<svg width="512" height="254" viewBox="0 0 512 254" fill="none" xmlns="http://www.w3.org/2000/svg">
<path d="M349.513 6.54736C349.513 3.40593 346.966 0.859375 343.825 0.859375H5.68812C2.54662 0.859375 0 3.406 0 6.54736V150.39H349.513V6.54736Z" fill="#AA5425"/>
<path d="M40.6773 223.801C40.2854 221.43 40.0719 219 40.0719 216.519C40.0719 191.985 60.034 172.021 84.5708 172.021C109.108 172.021 129.073 191.985 129.073 216.519C129.073 219 128.86 221.43 128.468 223.801H138.903V215.236H377.308V223.801H387.743C387.351 221.43 387.138 219 387.138 216.519C387.138 191.985 407.1 172.021 431.637 172.021C456.174 172.021 476.139 191.985 476.139 216.519C476.139 219 475.926 221.43 475.534 223.801H485.969V215.236H508.393C513.202 215.236 513.202 197.75 508.393 197.75H502.545V153.147C502.545 146.651 500.064 136.632 497.029 130.887L465.059 70.3232C462.026 64.5759 454.229 59.875 447.731 59.875H371.333C364.836 59.875 359.521 65.1909 359.521 71.6874V159.688H12.5899V197.75H6.72358C1.91506 197.75 1.91506 215.236 6.72358 215.236H30.2418V223.801H40.6773ZM425.385 140.494V146.795H398.646V140.494H425.385ZM454.611 75.8364L482.186 128.074H459.278C461.202 127.028 462.169 124.729 461.463 122.573C461.384 122.332 461.283 122.105 461.17 121.887L461.765 120.333C462.146 119.339 461.644 118.214 460.65 117.834L460.337 117.714C459.343 117.334 458.219 117.835 457.838 118.829L457.612 119.42C456.962 119.342 456.287 119.396 455.624 119.612L437.667 125.487L424.517 112.5C424.248 112.235 423.952 112.013 423.642 111.827C422.591 110.835 421.336 110.158 419.904 109.972C414.855 109.312 408.047 112.796 406.121 121.546C405.625 123.864 405.228 126.016 404.927 128.074H393.431V71.6873H447.731C449.835 71.6874 453.628 73.9799 454.611 75.8364ZM387.127 71.6874V128.074H371.333V71.6874H387.127Z" fill="#AA5425"/>
<path d="M121.197 216.52C121.197 196.296 104.802 179.898 84.5729 179.898C64.3477 179.898 47.9492 196.296 47.9492 216.52C47.9492 236.746 64.3477 253.144 84.5729 253.144C104.802 253.144 121.197 236.746 121.197 216.52ZM84.5707 237.392C73.064 237.392 63.7019 228.029 63.7019 216.519C63.7019 205.011 73.064 195.65 84.5707 195.65C96.0811 195.65 105.444 205.011 105.444 216.519C105.444 228.029 96.0811 237.392 84.5707 237.392Z" fill="#AA5425"/>
<path d="M87.5451 223.496C91.3998 221.898 93.2295 217.478 91.6317 213.623C90.0339 209.768 85.6137 207.939 81.7589 209.537C77.9042 211.134 76.0746 215.555 77.6724 219.409C79.2702 223.264 83.6903 225.094 87.5451 223.496Z" fill="#AA5425"/>
<path d="M468.262 216.52C468.262 196.296 451.867 179.898 431.638 179.898C411.413 179.898 395.015 196.296 395.015 216.52C395.015 236.746 411.413 253.144 431.638 253.144C451.867 253.144 468.262 236.746 468.262 216.52ZM431.636 237.392C420.129 237.392 410.767 228.029 410.767 216.519C410.767 205.011 420.129 195.65 431.636 195.65C443.147 195.65 452.51 205.011 452.51 216.519C452.51 228.029 443.147 237.392 431.636 237.392Z" fill="#AA5425"/>
<path d="M432.77 224.038C436.888 223.371 439.685 219.492 439.017 215.374C438.35 211.256 434.471 208.46 430.353 209.127C426.235 209.795 423.438 213.674 424.105 217.791C424.773 221.909 428.652 224.706 432.77 224.038Z" fill="#AA5425"/>
<path d="M428.291 107.917C435.435 107.095 440.56 100.639 439.738 93.4948C438.917 86.3509 432.46 81.2259 425.316 82.0474C418.173 82.8688 413.047 89.3256 413.869 96.4696C414.69 103.613 421.147 108.738 428.291 107.917Z" fill="#AA5425"/>
</svg>
