<svg id="Layer_1" height="512" viewBox="0 0 777.3817 383.0482" width="512" xmlns="http://www.w3.org/2000/svg"><g><path d="m530.6738 8.6362c0-4.7697-3.8665-8.6362-8.6362-8.6362h-513.4012c-4.7698 0-8.6364 3.8666-8.6364 8.6362v218.3997h530.6738z"/><path d="m61.7615 338.4951c-.5951-3.5996-.9193-7.2894-.9193-11.0552 0-37.2516 30.3089-67.5623 67.5637-67.5623 37.2552 0 67.569 30.3107 67.569 67.5623 0 3.7657-.3243 7.4556-.9195 11.0552h15.8448v-13.0044h361.9752v13.0044h15.8446c-.5951-3.5996-.9193-7.2894-.9193-11.0552 0-37.2516 30.3088-67.5623 67.5637-67.5623 37.2551 0 67.5691 30.3107 67.5691 67.5623 0 3.7657-.3242 7.4556-.9194 11.0552h15.8447v-13.0044h34.0471c7.3009 0 7.3009-26.5487 0-26.5487h-8.8799v-67.7219c0-9.8634-3.7668-25.0753-8.3748-33.7981l-48.5417-91.9552c-4.6044-8.7263-16.4425-15.8638-26.3095-15.8638h-115.9968c-9.8633 0-17.9346 8.0713-17.9346 17.9351v133.614h-526.7529v57.7899h-8.907c-7.3009 0-7.3009 26.5487 0 26.5487h35.7083v13.0044zm584.1103-126.4868v9.5669h-40.5979v-9.5669zm44.3743-98.1707 41.8687 79.3142h-34.7825c2.9215-1.5892 4.3894-5.0789 3.3181-8.3528-.1198-.366-.2738-.7104-.4451-1.042l.9036-2.3599c.5778-1.5088-.1841-3.2159-1.6929-3.7936l-.4753-.182c-1.5088-.5776-3.2159.1841-3.7937 1.6929l-.3435.8972c-.9866-.1188-2.0127-.0369-3.0189.2922l-27.265 8.9199-19.9658-19.7183c-.4082-.4036-.8566-.7393-1.3276-1.0222-1.5969-1.5059-3.5024-2.5337-5.6765-2.8173-7.6654-1.0013-18.0015 4.2878-20.9268 17.5739-.7531 3.5186-1.3563 6.7867-1.8131 9.9119h-17.4546v-85.6138h82.4448c3.1949.0002 8.954 3.4809 10.4461 6.2997zm-102.4614-6.2995v85.6138h-23.9814v-85.6138z"/><path d="m184.0154 327.4417c0-30.707-24.8929-55.6035-55.6069-55.6035-30.7084 0-55.6066 24.8965-55.6066 55.6035 0 30.7102 24.8982 55.6066 55.6066 55.6066 30.714-.0001 55.6069-24.8964 55.6069-55.6066zm-55.6103 31.6906c-17.4709 0-31.6856-14.2161-31.6856-31.6924 0-17.4729 14.2147-31.6859 31.6856-31.6859 17.4766 0 31.6927 14.213 31.6927 31.6859 0 17.4764-14.2161 31.6924-31.6927 31.6924z"/><ellipse cx="128.409" cy="327.443" rx="11.469" ry="11.469" transform="matrix(.924 -.383 .383 .924 -115.532 74.065)"/><path d="m710.9739 327.4417c0-30.707-24.8928-55.6035-55.6069-55.6035-30.7084 0-55.6066 24.8965-55.6066 55.6035 0 30.7102 24.8982 55.6066 55.6066 55.6066 30.7141-.0001 55.6069-24.8964 55.6069-55.6066zm-55.6103 31.6906c-17.4709 0-31.6857-14.2161-31.6857-31.6924 0-17.4729 14.2147-31.6859 31.6857-31.6859 17.4766 0 31.6927 14.213 31.6927 31.6859.0001 17.4764-14.2161 31.6924-31.6927 31.6924z"/><ellipse cx="655.367" cy="327.443" rx="11.47" ry="11.469" transform="matrix(.987 -.16 .16 .987 -43.988 109.207)"/><path d="m650.2839 162.547c10.8477-1.2473 18.6282-11.0507 17.3809-21.8973-1.2472-10.8468-11.0498-18.6282-21.8975-17.3809-10.8457 1.2471-18.6279 11.0507-17.3807 21.8975 1.2472 10.8465 11.0516 18.6279 21.8973 17.3807z"/></g></svg>