<svg width="56" height="63" viewBox="0 0 56 63" fill="none" xmlns="http://www.w3.org/2000/svg">
<g opacity="0.9">
<path d="M49.3316 18.9194L28.9012 6.33216C28.6722 6.18223 28.3663 6.18638 28.0299 6.38054L7.50139 18.4108C6.79204 18.8203 6.21704 19.919 6.21704 20.8649V42.8516C6.21704 43.4104 6.41784 43.7906 6.72829 43.9239L26.5466 56.1541L27.028 56.4359L49.3316 18.9194Z" fill="url(#paint0_linear_2664_18328)"/>
<path d="M48.4516 44.3705L27.923 56.401C27.2137 56.8105 26.6387 56.3759 26.6387 55.43V33.4433C26.6387 32.4975 27.2137 31.3988 27.923 30.9893L48.4516 18.9588C49.1609 18.5493 49.7359 18.9839 49.7359 19.9298V41.9165C49.7361 42.8624 49.1609 43.9611 48.4516 44.3705Z" fill="url(#paint1_linear_2664_18328)"/>
<path d="M42.4479 22.4956L21.3464 10.3125L15.7717 13.5793L36.8734 25.7624V30.5453L42.4479 27.3269V22.4956Z" fill="#AB2C37"/>
<path d="M42.4479 22.4956L36.8734 25.7624L15.7717 13.5793L21.3464 10.3125L42.4479 22.4956Z" fill="#FF4757"/>
<path d="M40.2407 6.8136L29.2735 0.0566836C29.1505 -0.0237983 28.9864 -0.0215689 28.8058 0.0826563L17.7859 6.5406C17.4051 6.76042 17.0964 7.35022 17.0964 7.85796V19.6606C17.0964 19.9606 17.2042 20.1647 17.3709 20.2362L28.0095 26.8015L28.2679 26.9528L40.2407 6.8136Z" fill="url(#paint2_linear_2664_18328)"/>
<path d="M39.7682 20.4818L28.7483 26.9398C28.3675 27.1597 28.0588 26.9263 28.0588 26.4186V14.616C28.0588 14.1082 28.3675 13.5184 28.7483 13.2986L39.7682 6.84054C40.149 6.62072 40.4576 6.85403 40.4576 7.36178V19.1644C40.4577 19.6722 40.149 20.262 39.7682 20.4818Z" fill="url(#paint3_linear_2664_18328)"/>
<path d="M36.5451 8.72749L25.2176 2.1875L22.2251 3.94116L33.5526 10.4811V13.0487L36.5451 11.321V8.72749Z" fill="#AB2C37"/>
<path d="M36.5451 8.72749L33.5526 10.4811L22.2251 3.94116L25.2176 2.1875L36.5451 8.72749Z" fill="#FF4757"/>
<path d="M55.7831 42.5558L44.816 35.7989C44.693 35.7184 44.5288 35.7206 44.3483 35.8248L33.3284 42.2828C32.9476 42.5026 32.6389 43.0924 32.6389 43.6002V55.4028C32.6389 55.7028 32.7467 55.9069 32.9134 55.9784L43.552 62.5437L43.8104 62.695L55.7831 42.5558Z" fill="url(#paint4_linear_2664_18328)"/>
<path d="M55.3107 56.224L44.2908 62.682C43.91 62.9018 43.6013 62.6685 43.6013 62.1608V50.3581C43.6013 49.8504 43.91 49.2606 44.2908 49.0408L55.3107 42.5827C55.6914 42.3629 56.0001 42.5962 56.0001 43.104V54.9066C56.0002 55.4143 55.6914 56.0041 55.3107 56.224Z" fill="url(#paint5_linear_2664_18328)"/>
<path d="M52.0876 44.4697L40.7601 37.9297L37.7676 39.6833L49.0951 46.2233V48.7908L52.0876 47.0632V44.4697Z" fill="#AB2C37"/>
<path d="M52.0876 44.4697L49.0951 46.2233L37.7676 39.6833L40.7601 37.9297L52.0876 44.4697Z" fill="#FF4757"/>
<path d="M23.1442 42.5558L12.1771 35.7989C12.0541 35.7184 11.8899 35.7206 11.7093 35.8248L0.689446 42.2828C0.308662 42.5026 0 43.0924 0 43.6002V55.4028C0 55.7028 0.107792 55.9069 0.274441 55.9784L10.9131 62.5437L11.1715 62.695L23.1442 42.5558Z" fill="url(#paint6_linear_2664_18328)"/>
<path d="M22.6717 56.224L11.6518 62.682C11.2711 62.9018 10.9624 62.6685 10.9624 62.1608V50.3581C10.9624 49.8504 11.2711 49.2606 11.6518 49.0408L22.6717 42.5827C23.0525 42.3629 23.3612 42.5962 23.3612 43.104V54.9066C23.3613 55.4143 23.0525 56.0041 22.6717 56.224Z" fill="url(#paint7_linear_2664_18328)"/>
<path d="M19.4486 44.4697L8.12121 37.9297L5.12866 39.6833L16.4562 46.2233V48.7908L19.4486 47.0632V44.4697Z" fill="#AB2C37"/>
<path d="M19.4486 44.4697L16.4562 46.2233L5.12866 39.6833L8.12121 37.9297L19.4486 44.4697Z" fill="#FF4757"/>
</g>
<defs>
<linearGradient id="paint0_linear_2664_18328" x1="19.9856" y1="32.9911" x2="23.849" y2="26.2998" gradientUnits="userSpaceOnUse">
<stop stop-color="#DEA861"/>
<stop offset="1" stop-color="#EBCBA0"/>
</linearGradient>
<linearGradient id="paint1_linear_2664_18328" x1="38.1874" y1="54.4487" x2="38.1874" y2="2.92579" gradientUnits="userSpaceOnUse">
<stop stop-color="#DEA861"/>
<stop offset="1" stop-color="#EBCBA0"/>
</linearGradient>
<linearGradient id="paint2_linear_2664_18328" x1="24.4875" y1="14.3674" x2="26.5614" y2="10.7755" gradientUnits="userSpaceOnUse">
<stop stop-color="#DEA861"/>
<stop offset="1" stop-color="#EBCBA0"/>
</linearGradient>
<linearGradient id="paint3_linear_2664_18328" x1="34.2583" y1="25.8918" x2="34.2583" y2="-1.76611" gradientUnits="userSpaceOnUse">
<stop stop-color="#DEA861"/>
<stop offset="1" stop-color="#EBCBA0"/>
</linearGradient>
<linearGradient id="paint4_linear_2664_18328" x1="40.03" y1="50.1096" x2="42.1039" y2="46.5177" gradientUnits="userSpaceOnUse">
<stop stop-color="#DEA861"/>
<stop offset="1" stop-color="#EBCBA0"/>
</linearGradient>
<linearGradient id="paint5_linear_2664_18328" x1="49.8008" y1="61.634" x2="49.8008" y2="33.9761" gradientUnits="userSpaceOnUse">
<stop stop-color="#DEA861"/>
<stop offset="1" stop-color="#EBCBA0"/>
</linearGradient>
<linearGradient id="paint6_linear_2664_18328" x1="7.39107" y1="50.1096" x2="9.46498" y2="46.5177" gradientUnits="userSpaceOnUse">
<stop stop-color="#DEA861"/>
<stop offset="1" stop-color="#EBCBA0"/>
</linearGradient>
<linearGradient id="paint7_linear_2664_18328" x1="17.1618" y1="61.634" x2="17.1618" y2="33.9761" gradientUnits="userSpaceOnUse">
<stop stop-color="#DEA861"/>
<stop offset="1" stop-color="#EBCBA0"/>
</linearGradient>
</defs>
</svg>
