<svg width="19" height="20" viewBox="0 0 19 20" fill="none" xmlns="http://www.w3.org/2000/svg">
<path d="M18.3385 4.74167C18.3385 4.7214 18.3385 4.7214 18.3385 4.70114C18.3182 4.66061 18.3182 4.62008 18.298 4.57956V4.55929C18.2777 4.51877 18.2372 4.47824 18.2169 4.45798L18.1966 4.43771C18.1764 4.41745 18.1359 4.39719 18.1156 4.37692L18.0953 4.35666H18.0751L18.0548 4.3364L9.4428 0.0607906C9.2807 -0.0202635 9.07806 -0.0202635 8.89569 0.0607906L5.998 1.4995L14.6505 5.93721L14.6708 5.95748C14.6911 5.95748 14.6911 5.97774 14.7113 5.97774C14.7316 5.998 14.7316 6.01827 14.7518 6.03853C14.7518 6.0588 14.7518 6.0588 14.7518 6.07906V6.09932V10.8005C14.7518 10.8815 14.7113 10.9423 14.6505 10.9828L12.9079 11.8947C12.8066 11.9555 12.685 11.915 12.6242 11.8136C12.6039 11.7934 12.6039 11.7528 12.6039 11.7123V7.1125L3.85007 2.59373L3.82981 2.57347L0.324216 4.31613L0.303953 4.3364H0.283689L0.263426 4.35666C0.243162 4.37692 0.202635 4.39719 0.182372 4.41745L0.162108 4.43771C0.121581 4.47824 0.101318 4.51877 0.0607906 4.55929V4.57956C0.0405271 4.62008 0.0202635 4.66061 0.0202635 4.70114C0.0202635 4.7214 0.0202635 4.7214 0.0202635 4.74167C0.0202635 4.78219 0 4.80246 0 4.84298V4.86325V14.3061C0 14.5289 0.121581 14.7518 0.34448 14.8532L8.87543 19.1085C8.99701 19.1693 9.13885 19.1896 9.2807 19.149L9.32122 19.1288C9.36175 19.1288 9.38201 19.1085 9.42254 19.0882L18.0143 14.8329C18.2169 14.7316 18.3588 14.5289 18.3588 14.2858V4.86325V4.84298C18.3385 4.80246 18.3385 4.78219 18.3385 4.74167Z" fill="white"/>
</svg>
