<svg viewBox="0 0 64 64" xmlns="http://www.w3.org/2000/svg"><g id="_07-Van" data-name="07-Van"><path d="m49 38a6 6 0 1 0 6 6 6.0048 6.0048 0 0 0 -6-6zm0 8a2 2 0 1 1 2-2 2.0059 2.0059 0 0 1 -2 2zm-35-8a6 6 0 1 0 6 6 6.0048 6.0048 0 0 0 -6-6zm0 8a2 2 0 1 1 2-2 2.0059 2.0059 0 0 1 -2 2zm43.76-16.22-4.76-1.78-4.05-11.35a4.0042 4.0042 0 0 0 -3.77-2.65h-38.18a3.9989 3.9989 0 0 0 -4 4v24a2.0059 2.0059 0 0 0 2 2h1a8 8 0 0 1 16 0h19a8 8 0 0 1 16 0h2a2.0059 2.0059 0 0 0 2-2v-7.53a5.0115 5.0115 0 0 0 -3.24-4.69zm-37.76-1.78h-12a1.0029 1.0029 0 0 1 -1-1v-8a1.0029 1.0029 0 0 1 1-1h12zm15-1a1.0029 1.0029 0 0 1 -1 1h-12v-10h12a1.0029 1.0029 0 0 1 1 1zm8 7h-4a1 1 0 0 1 0-2h4a1 1 0 0 1 0 2zm-3-6a1.0029 1.0029 0 0 1 -1-1v-8a1.0029 1.0029 0 0 1 1-1h7.31l3.57 10z"/></g></svg>