<svg width="433" height="269" viewBox="0 0 433 269" fill="none" xmlns="http://www.w3.org/2000/svg">
<path d="M343.203 179.219C334.359 179.219 325.713 181.841 318.359 186.755C311.005 191.669 305.273 198.653 301.888 206.824C298.504 214.996 297.618 223.987 299.344 232.662C301.069 241.336 305.328 249.304 311.582 255.558C317.836 261.812 325.804 266.072 334.479 267.797C343.154 269.522 352.145 268.637 360.316 265.252C368.488 261.868 375.472 256.136 380.385 248.782C385.299 241.428 387.922 232.782 387.922 223.938C387.912 212.08 383.198 200.711 374.814 192.327C366.429 183.943 355.06 179.228 343.203 179.219ZM343.203 238.844C340.255 238.844 337.373 237.97 334.922 236.332C332.47 234.694 330.56 232.366 329.432 229.642C328.303 226.918 328.008 223.921 328.583 221.029C329.158 218.138 330.578 215.482 332.663 213.397C334.747 211.312 337.404 209.893 340.295 209.318C343.187 208.743 346.184 209.038 348.908 210.166C351.631 211.294 353.959 213.205 355.597 215.656C357.235 218.107 358.109 220.989 358.109 223.938C358.098 227.887 356.524 231.672 353.731 234.465C350.938 237.258 347.153 238.832 343.203 238.844ZM82.3438 179.219C73.4992 179.219 64.8533 181.841 57.4993 186.755C50.1454 191.669 44.4137 198.653 41.029 206.824C37.6444 214.996 36.7588 223.987 38.4843 232.662C40.2097 241.336 44.4688 249.304 50.7228 255.558C56.9768 261.812 64.945 266.072 73.6196 267.797C82.2941 269.522 91.2856 268.637 99.4569 265.252C107.628 261.868 114.612 256.136 119.526 248.782C124.44 241.428 127.062 232.782 127.062 223.938C127.053 212.08 122.339 200.711 113.954 192.327C105.57 183.943 94.201 179.228 82.3438 179.219ZM82.3438 238.844C79.3956 238.844 76.5136 237.97 74.0623 236.332C71.611 234.694 69.7004 232.366 68.5722 229.642C67.4439 226.918 67.1488 223.921 67.7239 221.029C68.2991 218.138 69.7188 215.482 71.8034 213.397C73.8881 211.312 76.5442 209.893 79.4357 209.318C82.3272 208.743 85.3244 209.038 88.0481 210.166C90.7719 211.294 93.0999 213.205 94.7378 215.656C96.3758 218.107 97.25 220.989 97.25 223.938C97.2384 227.887 95.6642 231.672 92.8712 234.465C90.0783 237.258 86.2936 238.832 82.3438 238.844ZM408.492 117.954L373.016 104.688L342.83 20.0945C340.751 14.3093 336.937 9.30725 331.907 5.77207C326.878 2.23689 320.88 0.341077 314.732 0.343753H30.1719C26.2565 0.342676 22.3794 1.11307 18.7619 2.6109C15.1443 4.10874 11.8574 6.30467 9.08885 9.07323C6.32029 11.8418 4.12436 15.1287 2.62652 18.7462C1.12869 22.3637 0.358299 26.2409 0.359376 30.1563V209.031C0.370977 212.981 1.94518 216.766 4.73813 219.559C7.53108 222.352 11.3158 223.926 15.2656 223.938H22.7188C22.7188 208.124 29.0006 192.958 40.1825 181.776C51.3644 170.594 66.5302 164.312 82.3438 164.312C98.1573 164.312 113.323 170.594 124.505 181.776C135.687 192.958 141.969 208.124 141.969 223.938H283.578C283.578 208.124 289.86 192.958 301.042 181.776C312.224 170.594 327.39 164.312 343.203 164.312C359.017 164.312 374.182 170.594 385.364 181.776C396.546 192.958 402.828 208.124 402.828 223.938H417.734C421.684 223.926 425.469 222.352 428.262 219.559C431.055 216.766 432.629 212.981 432.641 209.031V152.909C432.644 145.319 430.335 137.909 426.02 131.664C421.706 125.419 415.592 120.637 408.492 117.954ZM127.062 104.688H37.625C35.6501 104.682 33.7576 103.895 32.3611 102.498C30.9646 101.102 30.1776 99.2093 30.1719 97.2344V37.6094C30.1776 35.6344 30.9646 33.742 32.3611 32.3455C33.7576 30.949 35.6501 30.162 37.625 30.1563H127.062V104.688ZM238.859 97.2344C238.854 99.2093 238.067 101.102 236.67 102.498C235.274 103.895 233.381 104.682 231.406 104.688H141.969V30.1563H231.406C233.381 30.162 235.274 30.949 236.67 32.3455C238.067 33.742 238.854 35.6344 238.859 37.6094V97.2344ZM298.484 149.406H268.672C266.695 149.406 264.799 148.621 263.402 147.223C262.004 145.826 261.219 143.93 261.219 141.953C261.219 139.976 262.004 138.081 263.402 136.683C264.799 135.285 266.695 134.5 268.672 134.5H298.484C300.461 134.5 302.357 135.285 303.755 136.683C305.152 138.081 305.938 139.976 305.938 141.953C305.938 143.93 305.152 145.826 303.755 147.223C302.357 148.621 300.461 149.406 298.484 149.406ZM276.125 104.688C274.15 104.682 272.258 103.895 270.861 102.498C269.465 101.102 268.678 99.2093 268.672 97.2344V37.6094C268.678 35.6344 269.465 33.742 270.861 32.3455C272.258 30.949 274.15 30.162 276.125 30.1563H330.607L357.215 104.688H276.125Z" fill="#5565B9"/>
</svg>
