<svg width="200" height="38" viewBox="0 0 200 38" fill="none" xmlns="http://www.w3.org/2000/svg">
<path d="M8.73011 0.636363L17.5192 28.2642H17.8565L26.6634 0.636363H35.1861L22.6506 37H12.7429L0.189631 0.636363H8.73011ZM39.5629 37V0.636363H64.0657V6.97514H47.2511V15.6399H62.805V21.9787H47.2511V30.6612H64.1367V37H39.5629ZM70.1781 37V0.636363H94.6809V6.97514H77.8663V15.6399H93.4203V21.9787H77.8663V30.6612H94.752V37H70.1781ZM100.793 37V0.636363H108.482V30.6612H124.071V37H100.793Z" fill="white"/>
<path d="M151.859 12.3906C151.61 11.5265 151.261 10.763 150.811 10.1001C150.361 9.42543 149.811 8.85724 149.16 8.3956C148.521 7.92211 147.787 7.56108 146.958 7.3125C146.141 7.06392 145.236 6.93963 144.241 6.93963C142.383 6.93963 140.75 7.40128 139.341 8.32457C137.944 9.24787 136.855 10.5914 136.074 12.3551C135.293 14.107 134.902 16.2495 134.902 18.7827C134.902 21.3158 135.287 23.4702 136.056 25.2457C136.826 27.0213 137.915 28.3767 139.323 29.3118C140.732 30.2351 142.395 30.6967 144.312 30.6967C146.053 30.6967 147.538 30.389 148.769 29.7734C150.012 29.1461 150.959 28.2642 151.61 27.1278C152.273 25.9915 152.604 24.648 152.604 23.0973L154.167 23.3281H144.792V17.5398H160.009V22.1207C160.009 25.3168 159.334 28.063 157.984 30.3594C156.635 32.6439 154.777 34.4077 152.409 35.6506C150.042 36.8816 147.331 37.4972 144.277 37.4972C140.868 37.4972 137.873 36.7455 135.293 35.2422C132.712 33.727 130.7 31.5786 129.256 28.7969C127.823 26.0033 127.107 22.6889 127.107 18.8537C127.107 15.9062 127.533 13.2784 128.386 10.9702C129.25 8.65009 130.457 6.68513 132.008 5.07528C133.558 3.46543 135.364 2.24029 137.423 1.39986C139.483 0.559421 141.714 0.139203 144.117 0.139203C146.177 0.139203 148.094 0.44105 149.87 1.04474C151.646 1.6366 153.22 2.47704 154.593 3.56605C155.978 4.65506 157.108 5.95123 157.984 7.45454C158.86 8.94602 159.423 10.5914 159.671 12.3906H151.859ZM199.2 18.8182C199.2 22.7836 198.448 26.1572 196.945 28.9389C195.453 31.7206 193.417 33.8454 190.837 35.3132C188.268 36.7692 185.38 37.4972 182.172 37.4972C178.941 37.4972 176.04 36.7633 173.472 35.2955C170.903 33.8277 168.873 31.7029 167.382 28.9212C165.89 26.1394 165.144 22.7718 165.144 18.8182C165.144 14.8527 165.89 11.4792 167.382 8.69744C168.873 5.91572 170.903 3.79687 173.472 2.34091C176.04 0.873105 178.941 0.139203 182.172 0.139203C185.38 0.139203 188.268 0.873105 190.837 2.34091C193.417 3.79687 195.453 5.91572 196.945 8.69744C198.448 11.4792 199.2 14.8527 199.2 18.8182ZM191.405 18.8182C191.405 16.2495 191.02 14.0833 190.251 12.3196C189.493 10.5559 188.422 9.21828 187.037 8.30682C185.652 7.39536 184.03 6.93963 182.172 6.93963C180.314 6.93963 178.692 7.39536 177.307 8.30682C175.922 9.21828 174.845 10.5559 174.075 12.3196C173.318 14.0833 172.939 16.2495 172.939 18.8182C172.939 21.3868 173.318 23.553 174.075 25.3168C174.845 27.0805 175.922 28.4181 177.307 29.3295C178.692 30.241 180.314 30.6967 182.172 30.6967C184.03 30.6967 185.652 30.241 187.037 29.3295C188.422 28.4181 189.493 27.0805 190.251 25.3168C191.02 23.553 191.405 21.3868 191.405 18.8182Z" fill="#FFF500"/>
</svg>
