<svg width="213" height="35" viewBox="0 0 213 35" fill="none" xmlns="http://www.w3.org/2000/svg">
<path d="M35.5957 0.894531V1.79785C34.3913 1.99316 33.3171 2.63607 32.373 3.72656C31.6895 4.54036 30.6722 6.4528 29.3213 9.46387L17.9199 34.7568H17.1143L5.76172 8.43848C4.39453 5.26465 3.47493 3.40104 3.00293 2.84766C2.5472 2.29427 1.67643 1.94434 0.390625 1.79785V0.894531H16.2598V1.79785H15.7227C14.2904 1.79785 13.3138 1.97689 12.793 2.33496C12.4186 2.5791 12.2314 2.93717 12.2314 3.40918C12.2314 3.70215 12.2965 4.05208 12.4268 4.45898C12.557 4.84961 12.9964 5.91569 13.7451 7.65723L20.8008 24.1367L27.3438 9.46387C28.125 7.68978 28.6051 6.50163 28.7842 5.89941C28.9632 5.2972 29.0527 4.78451 29.0527 4.36133C29.0527 3.87305 28.9225 3.44173 28.6621 3.06738C28.4017 2.69303 28.0192 2.4082 27.5146 2.21289C26.8148 1.9362 25.887 1.79785 24.7314 1.79785V0.894531H35.5957ZM49.7559 2.79883V16.2754H50.415C52.5146 16.2754 54.0365 15.6162 54.9805 14.2979C55.9245 12.9795 56.5267 11.0345 56.7871 8.46289H57.7148V25.7969H56.7871C56.5918 23.9089 56.1768 22.3626 55.542 21.1582C54.9235 19.9538 54.1992 19.1481 53.3691 18.7412C52.5391 18.318 51.3346 18.1064 49.7559 18.1064V27.4326C49.7559 29.2555 49.8291 30.3704 49.9756 30.7773C50.1383 31.1842 50.4313 31.5179 50.8545 31.7783C51.2777 32.0387 51.9613 32.1689 52.9053 32.1689H54.8828C57.9753 32.1689 60.4492 31.4528 62.3047 30.0205C64.1764 28.5882 65.5192 26.4072 66.333 23.4775H67.2363L65.7471 34H37.1338V33.0967H38.2324C39.1927 33.0967 39.9658 32.9258 40.5518 32.584C40.9749 32.3561 41.3005 31.9655 41.5283 31.4121C41.7074 31.0215 41.7969 29.9961 41.7969 28.3359V6.55859C41.7969 5.0612 41.7562 4.1416 41.6748 3.7998C41.512 3.23014 41.2109 2.79069 40.7715 2.48145C40.153 2.02572 39.3066 1.79785 38.2324 1.79785H37.1338V0.894531H64.8438V10.6846H63.916C63.444 8.29199 62.7767 6.57487 61.9141 5.5332C61.0677 4.49154 59.8633 3.72656 58.3008 3.23828C57.3893 2.94531 55.6803 2.79883 53.1738 2.79883H49.7559ZM83.1055 2.79883V16.2754H83.7646C85.8643 16.2754 87.3861 15.6162 88.3301 14.2979C89.2741 12.9795 89.8763 11.0345 90.1367 8.46289H91.0645V25.7969H90.1367C89.9414 23.9089 89.5264 22.3626 88.8916 21.1582C88.2731 19.9538 87.5488 19.1481 86.7188 18.7412C85.8887 18.318 84.6842 18.1064 83.1055 18.1064V27.4326C83.1055 29.2555 83.1787 30.3704 83.3252 30.7773C83.488 31.1842 83.7809 31.5179 84.2041 31.7783C84.6273 32.0387 85.3109 32.1689 86.2549 32.1689H88.2324C91.3249 32.1689 93.7988 31.4528 95.6543 30.0205C97.526 28.5882 98.8688 26.4072 99.6826 23.4775H100.586L99.0967 34H70.4834V33.0967H71.582C72.5423 33.0967 73.3154 32.9258 73.9014 32.584C74.3245 32.3561 74.6501 31.9655 74.8779 31.4121C75.057 31.0215 75.1465 29.9961 75.1465 28.3359V6.55859C75.1465 5.0612 75.1058 4.1416 75.0244 3.7998C74.8617 3.23014 74.5605 2.79069 74.1211 2.48145C73.5026 2.02572 72.6562 1.79785 71.582 1.79785H70.4834V0.894531H98.1934V10.6846H97.2656C96.7936 8.29199 96.1263 6.57487 95.2637 5.5332C94.4173 4.49154 93.2129 3.72656 91.6504 3.23828C90.7389 2.94531 89.0299 2.79883 86.5234 2.79883H83.1055ZM134.399 22.3789L133.154 34H103.76V33.0967H104.858C105.819 33.0967 106.592 32.9258 107.178 32.584C107.601 32.3561 107.926 31.9655 108.154 31.4121C108.333 31.0215 108.423 29.9961 108.423 28.3359V6.55859C108.423 4.86589 108.333 3.80794 108.154 3.38477C107.975 2.96159 107.609 2.59538 107.056 2.28613C106.519 1.96061 105.786 1.79785 104.858 1.79785H103.76V0.894531H121.411V1.79785H119.971C119.01 1.79785 118.237 1.96875 117.651 2.31055C117.228 2.53841 116.895 2.92904 116.65 3.48242C116.471 3.87305 116.382 4.89844 116.382 6.55859V27.6523C116.382 29.3451 116.479 30.4274 116.675 30.8994C116.87 31.3551 117.253 31.6969 117.822 31.9248C118.229 32.0713 119.214 32.1445 120.776 32.1445H123.535C125.293 32.1445 126.758 31.8353 127.93 31.2168C129.102 30.5983 130.111 29.6217 130.957 28.2871C131.82 26.9525 132.633 24.9831 133.398 22.3789H134.399Z" fill="white"/>
<path d="M170.679 0.137695V11.8076H169.775C168.685 8.61751 167.049 6.19238 164.868 4.53223C162.687 2.87207 160.303 2.04199 157.715 2.04199C155.241 2.04199 153.182 2.74186 151.538 4.1416C149.894 5.52507 148.73 7.46191 148.047 9.95215C147.363 12.4424 147.021 14.9977 147.021 17.6182C147.021 20.792 147.396 23.5752 148.145 25.9678C148.893 28.3604 150.098 30.1182 151.758 31.2412C153.434 32.3643 155.42 32.9258 157.715 32.9258C158.512 32.9258 159.326 32.8444 160.156 32.6816C161.003 32.5026 161.865 32.2503 162.744 31.9248V25.04C162.744 23.738 162.655 22.8997 162.476 22.5254C162.297 22.1348 161.922 21.7848 161.353 21.4756C160.799 21.1663 160.124 21.0117 159.326 21.0117H158.472V20.1084H174.561V21.0117C173.34 21.0931 172.485 21.264 171.997 21.5244C171.525 21.7686 171.159 22.1836 170.898 22.7695C170.752 23.0788 170.679 23.8356 170.679 25.04V31.9248C168.563 32.8688 166.357 33.5768 164.062 34.0488C161.784 34.5371 159.416 34.7812 156.958 34.7812C153.817 34.7812 151.204 34.3581 149.121 33.5117C147.054 32.6491 145.223 31.526 143.628 30.1426C142.049 28.7428 140.812 27.1722 139.917 25.4307C138.778 23.1846 138.208 20.6699 138.208 17.8867C138.208 12.9062 139.958 8.69889 143.457 5.26465C146.956 1.8304 151.359 0.113281 156.665 0.113281C158.309 0.113281 159.79 0.24349 161.108 0.503906C161.825 0.634115 162.98 1.00846 164.575 1.62695C166.187 2.22917 167.139 2.53027 167.432 2.53027C167.887 2.53027 168.311 2.36751 168.701 2.04199C169.092 1.7002 169.45 1.06543 169.775 0.137695H170.679ZM194.409 0.430664C199.683 0.235352 203.963 1.77344 207.251 5.04492C210.555 8.31641 212.207 12.4098 212.207 17.3252C212.207 21.5244 210.978 25.2191 208.521 28.4092C205.265 32.641 200.667 34.7568 194.727 34.7568C188.77 34.7568 184.163 32.7386 180.908 28.7021C178.337 25.512 177.051 21.7279 177.051 17.3496C177.051 12.4342 178.719 8.34082 182.056 5.06934C185.409 1.78158 189.526 0.235352 194.409 0.430664ZM194.702 1.99316C191.675 1.99316 189.372 3.53939 187.793 6.63184C186.507 9.1709 185.864 12.8167 185.864 17.5693C185.864 23.2171 186.857 27.3919 188.843 30.0938C190.226 31.9818 192.163 32.9258 194.653 32.9258C196.33 32.9258 197.729 32.5189 198.853 31.7051C200.285 30.6634 201.4 29.0033 202.197 26.7246C202.995 24.4297 203.394 21.443 203.394 17.7646C203.394 13.3864 202.987 10.1149 202.173 7.9502C201.359 5.76921 200.317 4.23112 199.048 3.33594C197.795 2.44076 196.346 1.99316 194.702 1.99316Z" fill="#FFF500"/>
</svg>
