<svg width="203" height="97" viewBox="0 0 203 97" fill="none" xmlns="http://www.w3.org/2000/svg">
<path d="M9.73011 12.6364L18.5192 40.2642H18.8565L27.6634 12.6364H36.1861L23.6506 49H13.7429L1.18963 12.6364H9.73011ZM40.5629 49V12.6364H65.0657V18.9751H48.2511V27.6399H63.805V33.9787H48.2511V42.6612H65.1367V49H40.5629ZM71.1781 49V12.6364H95.6809V18.9751H78.8663V27.6399H94.4203V33.9787H78.8663V42.6612H95.752V49H71.1781ZM101.793 49V12.6364H109.482V42.6612H125.071V49H101.793Z" fill="white"/>
<path d="M152.859 24.3906C152.61 23.5265 152.261 22.763 151.811 22.1001C151.361 21.4254 150.811 20.8572 150.16 20.3956C149.521 19.9221 148.787 19.5611 147.958 19.3125C147.141 19.0639 146.236 18.9396 145.241 18.9396C143.383 18.9396 141.75 19.4013 140.341 20.3246C138.944 21.2479 137.855 22.5914 137.074 24.3551C136.293 26.107 135.902 28.2495 135.902 30.7827C135.902 33.3158 136.287 35.4702 137.056 37.2457C137.826 39.0213 138.915 40.3767 140.323 41.3118C141.732 42.2351 143.395 42.6967 145.312 42.6967C147.053 42.6967 148.538 42.389 149.769 41.7734C151.012 41.1461 151.959 40.2642 152.61 39.1278C153.273 37.9915 153.604 36.648 153.604 35.0973L155.167 35.3281H145.792V29.5398H161.009V34.1207C161.009 37.3168 160.334 40.063 158.984 42.3594C157.635 44.6439 155.777 46.4077 153.409 47.6506C151.042 48.8816 148.331 49.4972 145.277 49.4972C141.868 49.4972 138.873 48.7455 136.293 47.2422C133.712 45.727 131.7 43.5786 130.256 40.7969C128.823 38.0033 128.107 34.6889 128.107 30.8537C128.107 27.9062 128.533 25.2784 129.386 22.9702C130.25 20.6501 131.457 18.6851 133.008 17.0753C134.558 15.4654 136.364 14.2403 138.423 13.3999C140.483 12.5594 142.714 12.1392 145.117 12.1392C147.177 12.1392 149.094 12.4411 150.87 13.0447C152.646 13.6366 154.22 14.477 155.593 15.5661C156.978 16.6551 158.108 17.9512 158.984 19.4545C159.86 20.946 160.423 22.5914 160.671 24.3906H152.859ZM200.2 30.8182C200.2 34.7836 199.448 38.1572 197.945 40.9389C196.453 43.7206 194.417 45.8454 191.837 47.3132C189.268 48.7692 186.38 49.4972 183.172 49.4972C179.941 49.4972 177.04 48.7633 174.472 47.2955C171.903 45.8277 169.873 43.7029 168.382 40.9212C166.89 38.1394 166.144 34.7718 166.144 30.8182C166.144 26.8527 166.89 23.4792 168.382 20.6974C169.873 17.9157 171.903 15.7969 174.472 14.3409C177.04 12.8731 179.941 12.1392 183.172 12.1392C186.38 12.1392 189.268 12.8731 191.837 14.3409C194.417 15.7969 196.453 17.9157 197.945 20.6974C199.448 23.4792 200.2 26.8527 200.2 30.8182ZM192.405 30.8182C192.405 28.2495 192.02 26.0833 191.251 24.3196C190.493 22.5559 189.422 21.2183 188.037 20.3068C186.652 19.3954 185.03 18.9396 183.172 18.9396C181.314 18.9396 179.692 19.3954 178.307 20.3068C176.922 21.2183 175.845 22.5559 175.075 24.3196C174.318 26.0833 173.939 28.2495 173.939 30.8182C173.939 33.3868 174.318 35.553 175.075 37.3168C175.845 39.0805 176.922 40.4181 178.307 41.3295C179.692 42.241 181.314 42.6967 183.172 42.6967C185.03 42.6967 186.652 42.241 188.037 41.3295C189.422 40.4181 190.493 39.0805 191.251 37.3168C192.02 35.553 192.405 33.3868 192.405 30.8182Z" fill="#FFF500"/>
<path d="M45.397 90V68.1818H53.3871C54.9354 68.1818 56.2173 68.4375 57.233 68.9489C58.2486 69.4531 59.0085 70.1385 59.5128 71.005C60.017 71.8643 60.2692 72.8338 60.2692 73.9134C60.2692 74.8224 60.1023 75.5895 59.7685 76.2145C59.4347 76.8324 58.9872 77.3295 58.4261 77.706C57.8722 78.0753 57.2614 78.3452 56.5938 78.5156V78.7287C57.3182 78.7642 58.0249 78.9986 58.7138 79.4318C59.4098 79.858 59.9851 80.4652 60.4396 81.2536C60.8942 82.0419 61.1214 83.0007 61.1214 84.13C61.1214 85.245 60.8587 86.2464 60.3331 87.1342C59.8146 88.0149 59.0121 88.7145 57.9254 89.233C56.8388 89.7443 55.4503 90 53.7599 90H45.397ZM48.6889 87.1768H53.4403C55.017 87.1768 56.1463 86.8714 56.8281 86.2607C57.5099 85.6499 57.8509 84.8864 57.8509 83.9702C57.8509 83.2812 57.6768 82.6491 57.3288 82.0739C56.9808 81.4986 56.4837 81.0405 55.8374 80.6996C55.1982 80.3587 54.4382 80.1882 53.5575 80.1882H48.6889V87.1768ZM48.6889 77.6207H53.0994C53.8381 77.6207 54.5021 77.4787 55.0916 77.1946C55.6882 76.9105 56.1605 76.5128 56.5085 76.0014C56.8636 75.483 57.0412 74.8722 57.0412 74.169C57.0412 73.267 56.7251 72.5107 56.093 71.8999C55.4609 71.2891 54.4915 70.9837 53.1847 70.9837H48.6889V77.6207ZM71.663 90.3303C70.1289 90.3303 68.7901 89.9787 67.6467 89.2756C66.5032 88.5724 65.6154 87.5888 64.9833 86.3246C64.3512 85.0604 64.0352 83.5831 64.0352 81.8928C64.0352 80.1953 64.3512 78.7109 64.9833 77.4396C65.6154 76.1683 66.5032 75.1811 67.6467 74.478C68.7901 73.7749 70.1289 73.4233 71.663 73.4233C73.1971 73.4233 74.5359 73.7749 75.6793 74.478C76.8228 75.1811 77.7106 76.1683 78.3427 77.4396C78.9748 78.7109 79.2908 80.1953 79.2908 81.8928C79.2908 83.5831 78.9748 85.0604 78.3427 86.3246C77.7106 87.5888 76.8228 88.5724 75.6793 89.2756C74.5359 89.9787 73.1971 90.3303 71.663 90.3303ZM71.6737 87.6562C72.668 87.6562 73.4918 87.3935 74.1452 86.8679C74.7987 86.3423 75.2816 85.6428 75.5941 84.7692C75.9137 83.8956 76.0735 82.9332 76.0735 81.8821C76.0735 80.8381 75.9137 79.8793 75.5941 79.0057C75.2816 78.125 74.7987 77.4183 74.1452 76.8857C73.4918 76.353 72.668 76.0866 71.6737 76.0866C70.6722 76.0866 69.8413 76.353 69.1808 76.8857C68.5273 77.4183 68.0408 78.125 67.7212 79.0057C67.4087 79.8793 67.2525 80.8381 67.2525 81.8821C67.2525 82.9332 67.4087 83.8956 67.7212 84.7692C68.0408 85.6428 68.5273 86.3423 69.1808 86.8679C69.8413 87.3935 70.6722 87.6562 71.6737 87.6562ZM89.7392 90.3303C88.2051 90.3303 86.8663 89.9787 85.7228 89.2756C84.5794 88.5724 83.6916 87.5888 83.0595 86.3246C82.4274 85.0604 82.1113 83.5831 82.1113 81.8928C82.1113 80.1953 82.4274 78.7109 83.0595 77.4396C83.6916 76.1683 84.5794 75.1811 85.7228 74.478C86.8663 73.7749 88.2051 73.4233 89.7392 73.4233C91.2733 73.4233 92.612 73.7749 93.7555 74.478C94.899 75.1811 95.7868 76.1683 96.4189 77.4396C97.051 78.7109 97.367 80.1953 97.367 81.8928C97.367 83.5831 97.051 85.0604 96.4189 86.3246C95.7868 87.5888 94.899 88.5724 93.7555 89.2756C92.612 89.9787 91.2733 90.3303 89.7392 90.3303ZM89.7498 87.6562C90.7441 87.6562 91.568 87.3935 92.2214 86.8679C92.8748 86.3423 93.3578 85.6428 93.6703 84.7692C93.9899 83.8956 94.1497 82.9332 94.1497 81.8821C94.1497 80.8381 93.9899 79.8793 93.6703 79.0057C93.3578 78.125 92.8748 77.4183 92.2214 76.8857C91.568 76.353 90.7441 76.0866 89.7498 76.0866C88.7484 76.0866 87.9174 76.353 87.2569 76.8857C86.6035 77.4183 86.117 78.125 85.7974 79.0057C85.4849 79.8793 85.3287 80.8381 85.3287 81.8821C85.3287 82.9332 85.4849 83.8956 85.7974 84.7692C86.117 85.6428 86.6035 86.3423 87.2569 86.8679C87.9174 87.3935 88.7484 87.6562 89.7498 87.6562ZM103.852 84.4496L103.831 80.5611H104.385L110.905 73.6364H114.719L107.283 81.5199H106.782L103.852 84.4496ZM100.923 90V68.1818H104.108V90H100.923ZM111.256 90L105.397 82.223L107.592 79.9964L115.166 90H111.256ZM117.622 90V73.6364H120.807V90H117.622ZM119.23 71.1115C118.676 71.1115 118.201 70.9268 117.803 70.5575C117.412 70.1811 117.217 69.7337 117.217 69.2152C117.217 68.6896 117.412 68.2422 117.803 67.8729C118.201 67.4964 118.676 67.3082 119.23 67.3082C119.784 67.3082 120.257 67.4964 120.647 67.8729C121.045 68.2422 121.244 68.6896 121.244 69.2152C121.244 69.7337 121.045 70.1811 120.647 70.5575C120.257 70.9268 119.784 71.1115 119.23 71.1115ZM128.278 80.2841V90H125.093V73.6364H128.15V76.2997H128.352C128.729 75.4332 129.318 74.7372 130.121 74.2116C130.931 73.6861 131.95 73.4233 133.178 73.4233C134.294 73.4233 135.27 73.6577 136.108 74.1264C136.946 74.5881 137.596 75.277 138.058 76.1932C138.519 77.1094 138.75 78.2422 138.75 79.5916V90H135.565V79.9751C135.565 78.7891 135.256 77.8622 134.638 77.1946C134.02 76.5199 133.171 76.1825 132.092 76.1825C131.353 76.1825 130.696 76.3423 130.121 76.6619C129.553 76.9815 129.102 77.4503 128.768 78.0682C128.441 78.679 128.278 79.4176 128.278 80.2841ZM149.883 96.4773C148.583 96.4773 147.465 96.3068 146.527 95.9659C145.597 95.625 144.837 95.174 144.247 94.6129C143.658 94.0518 143.218 93.4375 142.926 92.7699L145.664 91.6406C145.856 91.9531 146.112 92.2834 146.431 92.6314C146.758 92.9865 147.198 93.2884 147.752 93.5369C148.313 93.7855 149.034 93.9098 149.915 93.9098C151.122 93.9098 152.12 93.6151 152.909 93.0256C153.697 92.4432 154.091 91.5128 154.091 90.2344V87.017H153.889C153.697 87.3651 153.42 87.7521 153.058 88.1783C152.703 88.6044 152.213 88.9737 151.588 89.2862C150.963 89.5987 150.149 89.755 149.148 89.755C147.855 89.755 146.691 89.4531 145.654 88.8494C144.624 88.2386 143.807 87.3402 143.203 86.1541C142.607 84.9609 142.308 83.4943 142.308 81.7543C142.308 80.0142 142.603 78.5227 143.193 77.2798C143.789 76.0369 144.606 75.0852 145.643 74.4247C146.68 73.7571 147.855 73.4233 149.169 73.4233C150.185 73.4233 151.005 73.5938 151.63 73.9347C152.255 74.2685 152.742 74.6591 153.09 75.1065C153.445 75.554 153.718 75.9482 153.91 76.2891H154.144V73.6364H157.266V90.3622C157.266 91.7685 156.939 92.9226 156.286 93.8246C155.632 94.7266 154.748 95.3942 153.633 95.8274C152.525 96.2607 151.275 96.4773 149.883 96.4773ZM149.851 87.1129C150.767 87.1129 151.541 86.8999 152.173 86.4737C152.813 86.0405 153.296 85.4226 153.622 84.62C153.956 83.8104 154.123 82.8409 154.123 81.7116C154.123 80.6108 153.96 79.6413 153.633 78.8033C153.306 77.9652 152.827 77.3118 152.195 76.843C151.563 76.3672 150.781 76.1293 149.851 76.1293C148.892 76.1293 148.093 76.3778 147.454 76.875C146.815 77.3651 146.332 78.0327 146.005 78.8778C145.686 79.723 145.526 80.6676 145.526 81.7116C145.526 82.7841 145.689 83.7251 146.016 84.5348C146.343 85.3445 146.825 85.9766 147.465 86.4311C148.111 86.8857 148.906 87.1129 149.851 87.1129Z" fill="white"/>
</svg>
