<svg width="87" height="96" viewBox="0 0 87 96" fill="none" xmlns="http://www.w3.org/2000/svg">
<g opacity="0.9">
<path d="M72.4546 72.9762L65.5089 68.9663L72.0772 65.6953L72.4546 72.9762Z" fill="#322A50"/>
<path d="M25.7705 56.9376V56.9205L61.1781 36.4923C61.6059 36.2453 61.9877 36.2867 62.2388 36.5517L86.5209 50.5708L50.2231 71.0729L25.7705 56.9376Z" fill="url(#paint0_linear_2664_18283)"/>
<path d="M83.9519 26.9944L65.5137 15.6344C65.307 15.4991 65.031 15.5028 64.7274 15.678L46.2006 26.5354C45.5604 26.905 45.0415 27.8965 45.0415 28.7502V48.593C45.0415 49.0973 45.2227 49.4404 45.5029 49.5607L63.3887 60.5984L63.8231 60.8527L83.9519 26.9944Z" fill="url(#paint1_linear_2664_18283)"/>
<path d="M83.1569 49.9794L64.6301 60.8368C63.9899 61.2063 63.471 60.8141 63.471 59.9605V40.1175C63.471 39.2639 63.9899 38.2723 64.6301 37.9027L83.1569 27.0453C83.7971 26.6758 84.316 27.068 84.316 27.9217V47.7644C84.316 48.6181 83.7971 49.6098 83.1569 49.9794Z" fill="url(#paint2_linear_2664_18283)"/>
<path d="M77.7394 30.2139L58.6955 19.2188L53.6646 22.167L72.7085 33.1622V37.4787L77.7394 34.5741V30.2139Z" fill="#AB2C37"/>
<path d="M77.7394 30.2139L72.7085 33.1622L53.6646 22.167L58.6955 19.2188L77.7394 30.2139Z" fill="#FF4757"/>
<path d="M61.2866 40.8694L42.8485 29.5094C42.6417 29.3741 42.3657 29.3778 42.0621 29.553L23.5353 40.4104C22.8951 40.78 22.3762 41.7716 22.3762 42.6252V62.468C22.3762 62.9723 22.5574 63.3154 22.8376 63.4357L40.7235 74.4734L41.1579 74.7277L61.2866 40.8694Z" fill="url(#paint3_linear_2664_18283)"/>
<path d="M60.4916 63.8542L41.9648 74.7116C41.3247 75.0811 40.8057 74.6889 40.8057 73.8353V53.9925C40.8057 53.1389 41.3247 52.1473 41.9648 51.7777L60.4916 40.9203C61.1318 40.5508 61.6508 40.943 61.6508 41.7967V61.6394C61.6508 62.4931 61.1318 63.4846 60.4916 63.8542Z" fill="url(#paint4_linear_2664_18283)"/>
<path d="M55.074 44.0889L36.0301 33.0938L30.999 36.0422L50.043 47.0372V51.3537L55.074 48.4491V44.0889Z" fill="#AB2C37"/>
<path d="M55.074 44.0889L50.043 47.0372L30.999 36.0422L36.0301 33.0938L55.074 44.0889Z" fill="#FF4757"/>
<path d="M34.1683 11.4551L52.6065 0.0952973C52.8132 -0.0400101 53.0892 -0.036262 53.3928 0.138963L71.9196 10.9962C72.5598 11.3657 73.0787 12.3573 73.0787 13.2109V33.0537C73.0787 33.558 72.8975 33.9012 72.6173 34.0215L54.7315 45.0592L54.2971 45.3135L34.1683 11.4551Z" fill="url(#paint5_linear_2664_18283)"/>
<path d="M34.9634 34.4401L53.4902 45.2975C54.1304 45.6671 54.6493 45.2748 54.6493 44.4212V24.5784C54.6493 23.7248 54.1304 22.7332 53.4902 22.3637L34.9634 11.5063C34.3232 11.1367 33.8043 11.529 33.8043 12.3826V32.2254C33.8041 33.079 34.3232 34.0706 34.9634 34.4401Z" fill="url(#paint6_linear_2664_18283)"/>
<path d="M40.3827 14.6748L59.4265 3.67969L64.4576 6.62796L45.4136 17.6231V21.9396L40.3827 19.035V14.6748Z" fill="#AB2C37"/>
<path d="M40.3827 14.6748L45.4136 17.6231L64.4576 6.62796L59.4265 3.67969L40.3827 14.6748Z" fill="#FF4757"/>
<path d="M60.4017 79.9608L53.4561 75.9507L60.0243 72.6797L60.4017 79.9608Z" fill="#322A50"/>
<path d="M33.1398 95.6171L26.1941 91.6069L32.7625 88.3359L33.1398 95.6171Z" fill="#322A50"/>
<path d="M2.87456 60.5924L6.59308 56.5251L9.24488 45.2065C9.93829 42.2464 11.7606 39.4887 13.8017 38.3103L21.6598 33.7734C22.6823 33.1831 23.6169 33.1426 24.336 33.5515L24.3367 33.55L48.8369 47.7022L25.2887 92.092L0.868568 77.9858L0.869316 77.9844C0.33802 77.6934 -6.10352e-05 76.9955 -6.10352e-05 75.9962V67.8467C-6.10352e-05 65.3694 1.14199 62.4874 2.87456 60.5924Z" fill="url(#paint7_linear_2664_18283)"/>
<path d="M50.223 75.0447V50.9667C50.223 47.9408 48.3833 46.5501 46.114 47.8603L38.2558 52.3972C36.2146 53.5756 34.3924 56.3333 33.699 59.2934L31.0472 70.6119L27.3287 74.6792C25.5961 76.5743 24.4543 79.4562 24.4543 81.9335V86.6639C24.4543 88.4635 25.5483 89.2906 26.898 88.5113L50.223 75.0447Z" fill="url(#paint8_linear_2664_18283)"/>
<path d="M24.4552 85.9306L26.2305 90.302L25.2914 92.0723L0.871193 77.966L0.871948 77.9647C0.340651 77.6736 0.00256729 76.9757 0.00256729 75.9765V71.8125L24.4552 85.9306Z" fill="url(#paint9_linear_2664_18283)"/>
<path d="M85.6306 50.6487L50.223 71.0769V78.5057L85.6306 58.0777C86.3868 57.641 87 56.4697 87 55.4613V51.6839C87 50.6757 86.387 50.212 85.6306 50.6487Z" fill="url(#paint10_linear_2664_18283)"/>
<path d="M51.0031 70.6172L24.4541 85.9275V90.0981C24.4541 91.8977 25.5482 92.7248 26.8979 91.9455L51.0031 78.046V70.6172Z" fill="url(#paint11_linear_2664_18283)"/>
<path d="M33.8995 68.9737L36.0372 59.8493C36.5694 57.5776 38.0076 55.3216 39.4568 54.4848L47.3149 49.9479C47.4444 49.8731 47.5485 49.8294 47.6229 49.8047C47.7079 49.9799 47.8226 50.3542 47.8226 50.9749V60.9351L33.8995 68.9737Z" fill="url(#paint12_linear_2664_18283)"/>
<path d="M10.3732 45.7566C10.5823 44.8636 10.8958 43.9901 11.2855 43.1719L33.2531 55.855C32.8511 56.6891 32.5291 57.5825 32.3151 58.4955L29.6633 69.8141L7.72137 57.0754L10.3732 45.7566Z" fill="url(#paint13_linear_2664_18283)"/>
<path d="M25.4079 81.4117L25.8001 81.1851C26.2797 80.9083 26.879 81.2543 26.879 81.808V84.5414L24.4542 85.9415L19.0488 82.8206V80.0136C19.0488 79.4928 19.6127 79.1671 20.0638 79.4276L23.5005 81.4117C24.0906 81.7524 24.8177 81.7524 25.4079 81.4117Z" fill="url(#paint14_linear_2664_18283)"/>
<path d="M3.80261 71.2372V74.012L0.00107288 71.8071V67.8281L2.76063 69.4286C3.40569 69.8026 3.80261 70.4917 3.80261 71.2372Z" fill="url(#paint15_linear_2664_18283)"/>
<path d="M19.0479 80.0054L3.80216 71.2031V74.0105L19.0479 82.8124V80.0054Z" fill="#43386B"/>
<path d="M58.2862 75.2763C58.2862 79.4646 60.8327 81.3897 63.9738 79.576C67.1149 77.7624 69.6614 72.897 69.6614 68.7088C69.6614 64.5207 67.1149 62.5954 63.9738 64.4092C60.8327 66.2227 58.2862 71.0881 58.2862 75.2763Z" fill="url(#paint16_linear_2664_18283)"/>
<path d="M61.1791 73.6239C61.1791 75.6832 62.4311 76.6296 63.9754 75.7381C65.5198 74.8464 66.7719 72.4542 66.7719 70.3949C66.7719 68.3357 65.52 67.3893 63.9754 68.2808C62.431 69.1725 61.1791 71.5647 61.1791 73.6239Z" fill="url(#paint17_linear_2664_18283)"/>
<path d="M61.5784 73.3757C61.5784 75.1411 62.6517 75.9525 63.9755 75.1881C65.2995 74.4237 66.3728 72.3729 66.3728 70.6077C66.3728 68.8425 65.2995 68.0311 63.9755 68.7955C62.6517 69.5599 61.5784 71.6105 61.5784 73.3757Z" fill="url(#paint18_linear_2664_18283)"/>
<path d="M63.9749 68.8078C64.0338 68.7738 64.0915 68.7467 64.1494 68.7188C64.1842 68.9157 64.2037 69.1294 64.2037 69.3604C64.2037 71.1256 63.1305 73.1764 61.8064 73.9408C61.7476 73.9748 61.6899 74.0019 61.6321 74.0298C61.5973 73.8329 61.5778 73.6191 61.5778 73.388C61.5778 71.6228 62.6511 69.5722 63.9749 68.8078Z" fill="#594A8E"/>
<path d="M70.3414 68.2918C70.3414 72.4802 72.8878 74.4052 76.029 72.5915C79.1701 70.778 81.7166 65.9125 81.7166 61.7244C81.7166 57.5362 79.1701 55.6112 76.029 57.4247C72.8878 59.2382 70.3414 64.1035 70.3414 68.2918Z" fill="url(#paint19_linear_2664_18283)"/>
<path d="M73.2336 66.6396C73.2336 68.6988 74.4855 69.6452 76.0299 68.7537C77.5744 67.862 78.8264 65.4698 78.8264 63.4106C78.8264 61.3513 77.5745 60.4049 76.0299 61.2964C74.4855 62.1883 73.2336 64.5803 73.2336 66.6396Z" fill="url(#paint20_linear_2664_18283)"/>
<path d="M73.6316 66.3913C73.6316 68.1567 74.7049 68.968 76.0287 68.2037C77.3527 67.4393 78.426 65.3885 78.426 63.6233C78.426 61.8582 77.3527 61.0467 76.0287 61.8111C74.7049 62.5754 73.6316 64.6262 73.6316 66.3913Z" fill="url(#paint21_linear_2664_18283)"/>
<path d="M76.0296 61.8234C76.0884 61.7895 76.1462 61.7621 76.2041 61.7344C76.2389 61.9313 76.2584 62.145 76.2584 62.3761C76.2584 64.1412 75.1851 66.192 73.8611 66.9565C73.8023 66.9904 73.7446 67.0176 73.6868 67.0453C73.652 66.8483 73.6325 66.6345 73.6325 66.4034C73.6325 64.6384 74.7058 62.5876 76.0296 61.8234Z" fill="#594A8E"/>
<path d="M31.028 90.9794C31.028 95.1678 33.5745 97.0928 36.7156 95.2791C39.8567 93.4656 42.4032 88.6001 42.4032 84.4119C42.4032 80.2238 39.8567 78.2986 36.7156 80.1123C33.5745 81.9258 31.028 86.7913 31.028 90.9794Z" fill="url(#paint22_linear_2664_18283)"/>
<path d="M33.9188 89.3271C33.9188 91.3863 35.1709 92.3327 36.7151 91.4412C38.2595 90.5495 39.5116 88.1573 39.5116 86.0981C39.5116 84.0388 38.2597 83.0924 36.7151 83.9839C35.1709 84.8756 33.9188 87.2678 33.9188 89.3271Z" fill="url(#paint23_linear_2664_18283)"/>
<path d="M34.3183 89.0788C34.3183 90.8442 35.3915 91.6557 36.7154 90.8912C38.0394 90.1268 39.1127 88.076 39.1127 86.3108C39.1127 84.5457 38.0394 83.7342 36.7154 84.4986C35.3917 85.2629 34.3183 87.3135 34.3183 89.0788Z" fill="url(#paint24_linear_2664_18283)"/>
<path d="M36.7162 84.5109C36.7751 84.477 36.8328 84.4498 36.8907 84.4219C36.9256 84.6188 36.9451 84.8325 36.9451 85.0636C36.9451 86.8287 35.8718 88.8795 34.5478 89.644C34.4889 89.6779 34.4312 89.705 34.3735 89.7328C34.3386 89.5358 34.3191 89.322 34.3191 89.0909C34.3189 87.3259 35.3922 85.2753 36.7162 84.5109Z" fill="#594A8E"/>
</g>
<defs>
<linearGradient id="paint0_linear_2664_18283" x1="56.1457" y1="69.6518" x2="56.1457" y2="36.0268" gradientUnits="userSpaceOnUse">
<stop stop-color="#43386B"/>
<stop offset="1" stop-color="#594A8E"/>
</linearGradient>
<linearGradient id="paint1_linear_2664_18283" x1="57.4676" y1="39.694" x2="60.9541" y2="33.6552" gradientUnits="userSpaceOnUse">
<stop stop-color="#CC8241"/>
<stop offset="1" stop-color="#EBCBA0"/>
</linearGradient>
<linearGradient id="paint2_linear_2664_18283" x1="73.8934" y1="59.0748" x2="73.8934" y2="12.5757" gradientUnits="userSpaceOnUse">
<stop stop-color="#DEA861"/>
<stop offset="1" stop-color="#EBCBA0"/>
</linearGradient>
<linearGradient id="paint3_linear_2664_18283" x1="34.8023" y1="53.569" x2="38.2889" y2="47.53" gradientUnits="userSpaceOnUse">
<stop stop-color="#DEA861"/>
<stop offset="1" stop-color="#EBCBA0"/>
</linearGradient>
<linearGradient id="paint4_linear_2664_18283" x1="51.2282" y1="72.9496" x2="51.2282" y2="26.4507" gradientUnits="userSpaceOnUse">
<stop stop-color="#DEA861"/>
<stop offset="1" stop-color="#EBCBA0"/>
</linearGradient>
<linearGradient id="paint5_linear_2664_18283" x1="60.6528" y1="24.1547" x2="57.1661" y2="18.1159" gradientUnits="userSpaceOnUse">
<stop stop-color="#DEA861"/>
<stop offset="1" stop-color="#EBCBA0"/>
</linearGradient>
<linearGradient id="paint6_linear_2664_18283" x1="44.2267" y1="43.5355" x2="44.2267" y2="-2.96337" gradientUnits="userSpaceOnUse">
<stop stop-color="#DEA861"/>
<stop offset="1" stop-color="#EBCBA0"/>
</linearGradient>
<linearGradient id="paint7_linear_2664_18283" x1="12.8969" y1="75.6733" x2="15.4325" y2="71.2817" gradientUnits="userSpaceOnUse">
<stop stop-color="#2E43FF"/>
<stop offset="1" stop-color="#6659FF"/>
</linearGradient>
<linearGradient id="paint8_linear_2664_18283" x1="37.3387" y1="70.6202" x2="22.4521" y2="44.8367" gradientUnits="userSpaceOnUse">
<stop stop-color="#6659F9"/>
<stop offset="1" stop-color="#7C79FE"/>
</linearGradient>
<linearGradient id="paint9_linear_2664_18283" x1="13.1163" y1="91.2437" x2="13.1163" y2="71.6371" gradientUnits="userSpaceOnUse">
<stop stop-color="#43386B"/>
<stop offset="1" stop-color="#594A8E"/>
</linearGradient>
<linearGradient id="paint10_linear_2664_18283" x1="68.6116" y1="67.6525" x2="65.4913" y2="62.2482" gradientUnits="userSpaceOnUse">
<stop stop-color="#43386B"/>
<stop offset="1" stop-color="#594A8E"/>
</linearGradient>
<linearGradient id="paint11_linear_2664_18283" x1="37.7285" y1="85.4589" x2="34.607" y2="80.0523" gradientUnits="userSpaceOnUse">
<stop stop-color="#43386B"/>
<stop offset="1" stop-color="#594A8E"/>
</linearGradient>
<linearGradient id="paint12_linear_2664_18283" x1="40.861" y1="60.2933" x2="40.861" y2="40.0159" gradientUnits="userSpaceOnUse">
<stop stop-color="#43386B"/>
<stop offset="1" stop-color="#7662BD"/>
</linearGradient>
<linearGradient id="paint13_linear_2664_18283" x1="21.8447" y1="67.1653" x2="19.4198" y2="48.0523" gradientUnits="userSpaceOnUse">
<stop stop-color="#43386B"/>
<stop offset="1" stop-color="#7662BD"/>
</linearGradient>
<linearGradient id="paint14_linear_2664_18283" x1="25.1862" y1="82.6388" x2="23.0855" y2="82.6388" gradientUnits="userSpaceOnUse">
<stop stop-color="#C5BAEB"/>
<stop offset="1" stop-color="white"/>
</linearGradient>
<linearGradient id="paint15_linear_2664_18283" x1="1.90175" y1="73.6197" x2="1.90175" y2="69.0554" gradientUnits="userSpaceOnUse">
<stop stop-color="#C5BAEB"/>
<stop offset="1" stop-color="white"/>
</linearGradient>
<linearGradient id="paint16_linear_2664_18283" x1="63.9738" y1="79.5825" x2="63.9738" y2="63.5833" gradientUnits="userSpaceOnUse">
<stop stop-color="#43386B"/>
<stop offset="1" stop-color="#594A8E"/>
</linearGradient>
<linearGradient id="paint17_linear_2664_18283" x1="63.9754" y1="76.7748" x2="63.9754" y2="68.3449" gradientUnits="userSpaceOnUse">
<stop stop-color="#A996EB"/>
<stop offset="1" stop-color="#D7D1EB"/>
</linearGradient>
<linearGradient id="paint18_linear_2664_18283" x1="64.8477" y1="68.2239" x2="63.5574" y2="73.7979" gradientUnits="userSpaceOnUse">
<stop stop-color="#7662BD"/>
<stop offset="1" stop-color="#C5BAEB"/>
</linearGradient>
<linearGradient id="paint19_linear_2664_18283" x1="76.029" y1="72.5979" x2="76.029" y2="56.5988" gradientUnits="userSpaceOnUse">
<stop stop-color="#43386B"/>
<stop offset="1" stop-color="#594A8E"/>
</linearGradient>
<linearGradient id="paint20_linear_2664_18283" x1="76.0299" y1="69.7904" x2="76.0299" y2="61.3605" gradientUnits="userSpaceOnUse">
<stop stop-color="#A996EB"/>
<stop offset="1" stop-color="#D7D1EB"/>
</linearGradient>
<linearGradient id="paint21_linear_2664_18283" x1="76.9009" y1="61.2393" x2="75.6106" y2="66.8134" gradientUnits="userSpaceOnUse">
<stop stop-color="#7662BD"/>
<stop offset="1" stop-color="#C5BAEB"/>
</linearGradient>
<linearGradient id="paint22_linear_2664_18283" x1="36.7156" y1="95.2856" x2="36.7156" y2="79.2864" gradientUnits="userSpaceOnUse">
<stop stop-color="#43386B"/>
<stop offset="1" stop-color="#594A8E"/>
</linearGradient>
<linearGradient id="paint23_linear_2664_18283" x1="36.7153" y1="92.4779" x2="36.7153" y2="84.048" gradientUnits="userSpaceOnUse">
<stop stop-color="#A996EB"/>
<stop offset="1" stop-color="#D7D1EB"/>
</linearGradient>
<linearGradient id="paint24_linear_2664_18283" x1="37.5877" y1="83.9268" x2="36.2975" y2="89.5009" gradientUnits="userSpaceOnUse">
<stop stop-color="#7662BD"/>
<stop offset="1" stop-color="#C5BAEB"/>
</linearGradient>
</defs>
</svg>
